<?xml version="1.0" encoding="UTF-8"?>
<svg xmlns="http://www.w3.org/2000/svg" xmlns:xlink="http://www.w3.org/1999/xlink" width="406pt" height="306pt" viewBox="0 0 406 306" version="1.1">
<defs>
<filter id="alpha" filterUnits="objectBoundingBox" x="0%" y="0%" width="100%" height="100%">
  <feColorMatrix type="matrix" in="SourceGraphic" values="0 0 0 0 1 0 0 0 0 1 0 0 0 0 1 0 0 0 1 0"/>
</filter>
<mask id="mask0">
  <g filter="url(#alpha)">
<rect x="0" y="0" width="406" height="306" style="fill:rgb(0%,0%,0%);fill-opacity:0.439216;stroke:none;"/>
  </g>
</mask>
<clipPath id="clip1">
  <rect x="0" y="0" width="406" height="306"/>
</clipPath>
<g id="surface5" clip-path="url(#clip1)">
<path style=" stroke:none;fill-rule:nonzero;fill:rgb(100%,100%,100%);fill-opacity:1;" d="M 258.753906 155.101562 C 258.753906 155.101562 258.753906 151.042969 261.902344 150.726562 C 265.046875 150.410156 263.796875 155.152344 266.558594 155.101562 C 269.320312 155.050781 271.917969 151.417969 273.816406 156.429688 C 275.714844 161.445312 270.0625 161.425781 274.882812 163.769531 C 279.703125 166.113281 279.144531 170.4375 274.496094 170.773438 C 269.847656 171.109375 256.644531 161.546875 258.753906 155.101562 Z M 258.753906 155.101562 "/>
</g>
<mask id="mask1">
  <g filter="url(#alpha)">
<rect x="0" y="0" width="406" height="306" style="fill:rgb(0%,0%,0%);fill-opacity:0.0784314;stroke:none;"/>
  </g>
</mask>
<clipPath id="clip2">
  <rect x="0" y="0" width="406" height="306"/>
</clipPath>
<g id="surface8" clip-path="url(#clip2)">
<path style=" stroke:none;fill-rule:nonzero;fill:rgb(0%,0%,0%);fill-opacity:1;" d="M 243.984375 62.027344 C 240.21875 50.300781 223.613281 50.25 219.839844 62.027344 C 211.515625 87.816406 205.082031 119.292969 222.882812 120.207031 C 253.121094 121.757812 254.765625 115.984375 253.332031 102.238281 C 252.023438 90.679688 249.273438 78.507812 243.984375 62.027344 Z M 243.984375 62.027344 "/>
</g>
<mask id="mask2">
  <g filter="url(#alpha)">
<rect x="0" y="0" width="406" height="306" style="fill:rgb(0%,0%,0%);fill-opacity:0.439216;stroke:none;"/>
  </g>
</mask>
<clipPath id="clip3">
  <rect x="0" y="0" width="406" height="306"/>
</clipPath>
<g id="surface11" clip-path="url(#clip3)">
<path style=" stroke:none;fill-rule:nonzero;fill:rgb(100%,100%,100%);fill-opacity:1;" d="M 205.851562 136.882812 C 205.851562 136.882812 202.644531 132.070312 200.046875 133.277344 C 197.449219 134.488281 202.003906 141.570312 197.742188 140.019531 C 193.480469 138.464844 190.546875 139.15625 190.71875 143.125 C 190.890625 147.09375 181.582031 144.3125 186.769531 155.71875 L 205.234375 147.792969 L 205.851562 137.59375 Z M 205.851562 136.882812 "/>
</g>
<mask id="mask3">
  <g filter="url(#alpha)">
<rect x="0" y="0" width="406" height="306" style="fill:rgb(0%,0%,0%);fill-opacity:0.0901961;stroke:none;"/>
  </g>
</mask>
<clipPath id="clip4">
  <rect x="0" y="0" width="406" height="306"/>
</clipPath>
<g id="surface14" clip-path="url(#clip4)">
<path style=" stroke:none;fill-rule:nonzero;fill:rgb(0%,0%,0%);fill-opacity:1;" d="M 197.976562 205.992188 C 197.976562 205.992188 226.488281 218.800781 249.8125 221.402344 C 273.136719 224 302.15625 202.269531 292.828125 193.996094 C 283.5 185.722656 263.28125 197.171875 248.765625 190.394531 C 234.25 183.613281 194.351562 174.507812 197.976562 205.992188 Z M 197.976562 205.992188 "/>
</g>
<mask id="mask4">
  <g filter="url(#alpha)">
<rect x="0" y="0" width="406" height="306" style="fill:rgb(0%,0%,0%);fill-opacity:0.439216;stroke:none;"/>
  </g>
</mask>
<clipPath id="clip5">
  <rect x="0" y="0" width="406" height="306"/>
</clipPath>
<g id="surface17" clip-path="url(#clip5)">
<path style=" stroke:none;fill-rule:nonzero;fill:rgb(100%,100%,100%);fill-opacity:1;" d="M 209.414062 167.210938 C 209.414062 167.210938 205.964844 161.648438 210.519531 159.179688 C 215.078125 156.714844 214.691406 162.855469 219.097656 159.71875 C 223.503906 156.582031 227.523438 154.644531 229.59375 159.71875 C 231.664062 164.792969 228.578125 167.027344 235.296875 166.214844 C 242.015625 165.402344 242.941406 167.847656 242.289062 170.773438 C 241.640625 173.695312 250.351562 173.238281 245.214844 179.492188 C 245.214844 179.5 222.539062 173.554688 209.414062 167.210938 Z M 209.414062 167.210938 "/>
</g>
<mask id="mask5">
  <g filter="url(#alpha)">
<rect x="0" y="0" width="406" height="306" style="fill:rgb(0%,0%,0%);fill-opacity:0.14902;stroke:none;"/>
  </g>
</mask>
<clipPath id="clip6">
  <rect x="0" y="0" width="406" height="306"/>
</clipPath>
<g id="surface20" clip-path="url(#clip6)">
<path style=" stroke:none;fill-rule:nonzero;fill:rgb(100%,82.352941%,0%);fill-opacity:1;" d="M 171.890625 81.210938 C 171.890625 100.101562 156.574219 115.414062 137.683594 115.414062 C 118.792969 115.414062 103.480469 100.101562 103.480469 81.210938 C 103.480469 62.316406 118.792969 47.003906 137.683594 47.003906 C 156.574219 47.003906 171.890625 62.316406 171.890625 81.210938 Z M 171.890625 81.210938 "/>
</g>
</defs>
<g id="surface1">
<path style=" stroke:none;fill-rule:nonzero;fill:rgb(93.72549%,93.72549%,93.72549%);fill-opacity:1;" d="M 326.425781 58.332031 C 326.425781 56.210938 325.492188 54.195312 323.875 52.824219 C 322.253906 51.453125 320.113281 50.871094 318.019531 51.226562 C 316.316406 48.0625 313.015625 46.089844 309.421875 46.089844 L 309.066406 46.089844 C 310.152344 41.746094 308.636719 37.164062 305.175781 34.324219 C 301.714844 31.484375 296.925781 30.890625 292.878906 32.796875 C 288.828125 34.707031 286.238281 38.78125 286.230469 43.257812 C 286.230469 44.207031 286.355469 45.152344 286.59375 46.070312 L 286.230469 46.070312 C 280.960938 46.238281 276.78125 50.558594 276.78125 55.828125 C 276.78125 61.097656 280.960938 65.417969 286.230469 65.589844 L 320.109375 65.589844 L 320.109375 65.507812 C 323.71875 65.039062 326.417969 61.96875 326.425781 58.332031 Z M 326.425781 58.332031 "/>
<path style=" stroke:none;fill-rule:nonzero;fill:rgb(90.196078%,90.196078%,90.196078%);fill-opacity:1;" d="M 228.871094 138.960938 C 228.871094 138.960938 217.859375 135.542969 217.210938 144.777344 L 230.132812 145.203125 Z M 228.871094 138.960938 "/>
<path style=" stroke:none;fill-rule:nonzero;fill:rgb(34.509804%,40.392157%,94.117647%);fill-opacity:1;" d="M 258.753906 155.101562 C 258.753906 155.101562 258.753906 151.042969 261.902344 150.726562 C 265.046875 150.410156 263.796875 155.152344 266.558594 155.101562 C 269.320312 155.050781 271.917969 151.417969 273.816406 156.429688 C 275.714844 161.445312 270.0625 161.425781 274.882812 163.769531 C 279.703125 166.113281 279.144531 170.4375 274.496094 170.773438 C 269.847656 171.109375 256.644531 161.546875 258.753906 155.101562 Z M 258.753906 155.101562 "/>
<use xlink:href="#surface5" mask="url(#mask0)"/>
<path style=" stroke:none;fill-rule:nonzero;fill:rgb(34.509804%,40.392157%,94.117647%);fill-opacity:1;" d="M 243.984375 62.027344 C 240.21875 50.300781 223.613281 50.25 219.839844 62.027344 C 211.515625 87.816406 205.082031 119.292969 222.882812 120.207031 C 253.121094 121.757812 254.765625 115.984375 253.332031 102.238281 C 252.023438 90.679688 249.273438 78.507812 243.984375 62.027344 Z M 243.984375 62.027344 "/>
<use xlink:href="#surface8" mask="url(#mask1)"/>
<path style=" stroke:none;fill-rule:nonzero;fill:rgb(14.117647%,15.686275%,35.686275%);fill-opacity:1;" d="M 228.515625 145.203125 L 232.839844 69.546875 L 233.816406 145.804688 L 230.082031 145.203125 Z M 228.515625 145.203125 "/>
<path style=" stroke:none;fill-rule:nonzero;fill:rgb(34.509804%,40.392157%,94.117647%);fill-opacity:1;" d="M 205.851562 136.882812 C 205.851562 136.882812 202.644531 132.070312 200.046875 133.277344 C 197.449219 134.488281 202.003906 141.570312 197.742188 140.019531 C 193.480469 138.464844 190.546875 139.15625 190.71875 143.125 C 190.890625 147.09375 181.582031 144.3125 186.769531 155.71875 L 205.234375 147.792969 L 205.851562 137.59375 Z M 205.851562 136.882812 "/>
<use xlink:href="#surface11" mask="url(#mask2)"/>
<path style=" stroke:none;fill-rule:nonzero;fill:rgb(75.686275%,75.686275%,75.686275%);fill-opacity:1;" d="M 177.25 170.425781 C 177.25 170.425781 179.835938 151.265625 210.417969 145.652344 C 241 140.039062 277.796875 156.136719 282.980469 193.957031 C 288.167969 231.773438 186.058594 200.277344 177.25 170.425781 Z M 177.25 170.425781 "/>
<path style=" stroke:none;fill-rule:nonzero;fill:rgb(95.686275%,63.529412%,54.901961%);fill-opacity:1;" d="M 197.976562 205.992188 C 197.976562 205.992188 226.488281 218.800781 249.8125 221.402344 C 273.136719 224 302.15625 202.269531 292.828125 193.996094 C 283.5 185.722656 263.28125 197.171875 248.765625 190.394531 C 234.25 183.613281 194.351562 174.507812 197.976562 205.992188 Z M 197.976562 205.992188 "/>
<use xlink:href="#surface14" mask="url(#mask3)"/>
<path style=" stroke:none;fill-rule:nonzero;fill:rgb(86.666667%,85.882353%,85.882353%);fill-opacity:1;" d="M 121.859375 167.300781 C 121.863281 165.515625 121.15625 163.804688 119.894531 162.542969 C 118.636719 161.28125 116.925781 160.570312 115.140625 160.570312 C 114.78125 160.574219 114.421875 160.609375 114.066406 160.671875 C 112.488281 157.734375 109.421875 155.902344 106.085938 155.902344 L 105.753906 155.902344 C 105.972656 155.050781 106.085938 154.175781 106.085938 153.292969 C 106.085938 147.351562 101.269531 142.535156 95.328125 142.535156 C 89.386719 142.535156 84.570312 147.351562 84.570312 153.292969 C 84.578125 154.175781 84.6875 155.050781 84.90625 155.902344 L 84.570312 155.902344 C 79.683594 156.066406 75.808594 160.074219 75.808594 164.960938 C 75.808594 169.847656 79.683594 173.855469 84.570312 174.019531 L 116.035156 174.019531 L 116.035156 173.960938 C 119.371094 173.511719 121.859375 170.667969 121.859375 167.300781 Z M 121.859375 167.300781 "/>
<path style=" stroke:none;fill-rule:nonzero;fill:rgb(94.901961%,94.901961%,94.901961%);fill-opacity:1;" d="M 346.644531 153.335938 C 346.644531 149.625 343.632812 146.617188 339.921875 146.617188 C 339.558594 146.621094 339.195312 146.652344 338.835938 146.707031 C 337.261719 143.765625 334.195312 141.933594 330.859375 141.9375 L 330.523438 141.9375 C 330.746094 141.085938 330.855469 140.207031 330.859375 139.328125 C 330.980469 135.40625 328.957031 131.730469 325.582031 129.734375 C 322.203125 127.738281 318.007812 127.738281 314.632812 129.734375 C 311.253906 131.730469 309.230469 135.40625 309.351562 139.328125 C 309.355469 140.207031 309.464844 141.082031 309.675781 141.9375 L 309.351562 141.9375 C 306.042969 141.824219 302.9375 143.527344 301.25 146.375 C 299.5625 149.222656 299.5625 152.765625 301.25 155.613281 C 302.9375 158.464844 306.042969 160.164062 309.351562 160.054688 L 340.816406 160.054688 L 340.816406 159.992188 C 344.152344 159.546875 346.640625 156.699219 346.644531 153.335938 Z M 346.644531 153.335938 "/>
<path style=" stroke:none;fill-rule:nonzero;fill:rgb(95.686275%,63.529412%,54.901961%);fill-opacity:1;" d="M 149.855469 201.40625 C 149.855469 201.40625 153.914062 170.398438 169.472656 165.585938 C 185.035156 160.773438 213.007812 166.003906 232.179688 175.308594 C 251.355469 184.617188 268.46875 176.996094 273.644531 186.25 C 278.820312 195.507812 273.644531 206.1875 253.953125 202.144531 C 234.261719 198.105469 199.691406 213.636719 199.691406 213.636719 Z M 149.855469 201.40625 "/>
<path style=" stroke:none;fill-rule:nonzero;fill:rgb(34.509804%,40.392157%,94.117647%);fill-opacity:1;" d="M 206.398438 119.789062 C 198.257812 122.113281 189.730469 122.761719 181.328125 121.699219 C 181.328125 121.699219 196.015625 115.140625 200.675781 106.472656 L 185.125 104.441406 C 185.125 104.441406 200.351562 100.300781 202.574219 86.820312 L 189.277344 88.546875 C 189.277344 88.546875 205.640625 74.84375 207.679688 56.910156 C 207.679688 56.910156 212.753906 83.523438 226.589844 89.5625 L 213.292969 87.148438 C 215.628906 95.417969 221.753906 102.082031 229.796875 105.113281 C 229.796875 105.113281 221.757812 108.746094 214.671875 107.191406 C 214.671875 107.191406 221.929688 117.730469 234.019531 121.523438 C 234.019531 121.535156 217.820312 123.566406 206.398438 119.789062 Z M 206.398438 119.789062 "/>
<path style=" stroke:none;fill-rule:nonzero;fill:rgb(34.509804%,40.392157%,94.117647%);fill-opacity:1;" d="M 272.933594 83.046875 C 269.179688 71.324219 252.574219 71.273438 248.785156 82.984375 C 240.472656 108.785156 234.039062 140.261719 251.832031 141.175781 C 282.058594 142.726562 283.710938 136.941406 282.28125 123.199219 C 280.984375 111.699219 278.222656 99.53125 272.933594 83.046875 Z M 272.933594 83.046875 "/>
<path style=" stroke:none;fill-rule:nonzero;fill:rgb(14.117647%,15.686275%,35.686275%);fill-opacity:1;" d="M 203.621094 148.3125 L 207.933594 72.640625 L 208.90625 148.3125 Z M 203.621094 148.3125 "/>
<path style=" stroke:none;fill-rule:nonzero;fill:rgb(14.117647%,15.686275%,35.686275%);fill-opacity:1;" d="M 257.476562 166.226562 L 261.789062 90.558594 L 262.761719 166.226562 Z M 257.476562 166.226562 "/>
<path style=" stroke:none;fill-rule:nonzero;fill:rgb(34.509804%,40.392157%,94.117647%);fill-opacity:1;" d="M 209.414062 167.210938 C 209.414062 167.210938 205.964844 161.648438 210.519531 159.179688 C 215.078125 156.714844 214.691406 162.855469 219.097656 159.71875 C 223.503906 156.582031 227.523438 154.644531 229.59375 159.71875 C 231.664062 164.792969 228.578125 167.027344 235.296875 166.214844 C 242.015625 165.402344 242.941406 167.847656 242.289062 170.773438 C 241.640625 173.695312 250.351562 173.238281 245.214844 179.492188 C 245.214844 179.5 222.539062 173.554688 209.414062 167.210938 Z M 209.414062 167.210938 "/>
<use xlink:href="#surface17" mask="url(#mask4)"/>
<path style=" stroke:none;fill-rule:nonzero;fill:rgb(90.196078%,90.196078%,90.196078%);fill-opacity:1;" d="M 244.652344 145.417969 C 242.714844 144.546875 240.566406 145.128906 239.851562 146.71875 C 239.136719 148.308594 240.128906 150.304688 242.066406 151.175781 C 244.003906 152.046875 246.15625 151.460938 246.867188 149.871094 C 247.582031 148.28125 246.589844 146.285156 244.652344 145.417969 Z M 244.652344 145.417969 "/>
<path style=" stroke:none;fill-rule:nonzero;fill:rgb(90.196078%,90.196078%,90.196078%);fill-opacity:1;" d="M 260.589844 164.9375 C 260.125 163.757812 259.132812 162.863281 257.910156 162.519531 C 256.539062 162.070312 255.03125 162.382812 253.953125 163.34375 C 251.445312 165.585938 252.308594 168.09375 255.851562 168.09375 C 258.976562 168.09375 262.023438 168.429688 260.589844 164.9375 Z M 260.589844 164.9375 "/>
<path style=" stroke:none;fill-rule:nonzero;fill:rgb(90.196078%,90.196078%,90.196078%);fill-opacity:1;" d="M 176.0625 164.214844 C 176.0625 164.214844 175.515625 160.441406 180.183594 159.730469 C 184.851562 159.019531 186.832031 161.203125 186.75 163.789062 C 186.761719 163.820312 178.914062 163.769531 176.0625 164.214844 Z M 176.0625 164.214844 "/>
<path style=" stroke:none;fill-rule:nonzero;fill:rgb(34.509804%,40.392157%,94.117647%);fill-opacity:1;" d="M 274.132812 187.183594 C 274.132812 187.183594 272.792969 181.886719 276.761719 182.902344 C 280.730469 183.917969 279.207031 185.886719 282.585938 181.886719 C 285.964844 177.886719 293 183.746094 286.300781 191.101562 C 282.671875 190.957031 279.035156 191.019531 275.410156 191.285156 Z M 274.132812 187.183594 "/>
<path style=" stroke:none;fill-rule:nonzero;fill:rgb(100%,82.352941%,0%);fill-opacity:1;" d="M 159.566406 81.210938 C 159.566406 93.292969 149.769531 103.09375 137.683594 103.09375 C 125.597656 103.09375 115.800781 93.292969 115.800781 81.210938 C 115.800781 69.125 125.597656 59.324219 137.683594 59.324219 C 149.769531 59.324219 159.566406 69.125 159.566406 81.210938 Z M 159.566406 81.210938 "/>
<use xlink:href="#surface20" mask="url(#mask5)"/>
<path style=" stroke:none;fill-rule:nonzero;fill:rgb(95.686275%,63.529412%,54.901961%);fill-opacity:1;" d="M 149.855469 201.40625 L 120.226562 263.300781 L 186.75 263.300781 L 199.691406 213.644531 Z M 149.855469 201.40625 "/>
<path style=" stroke:none;fill-rule:nonzero;fill:rgb(14.117647%,15.686275%,35.686275%);fill-opacity:1;" d="M 109.347656 262.640625 L 192.269531 262.640625 L 199.691406 229.023438 L 123.859375 224.4375 Z M 109.347656 262.640625 "/>
<path style=" stroke:none;fill-rule:nonzero;fill:rgb(100%,100%,100%);fill-opacity:1;" d="M 162.207031 244.980469 C 162.207031 248.988281 158.957031 252.238281 154.949219 252.238281 C 150.941406 252.238281 147.691406 248.988281 147.691406 244.980469 C 147.691406 240.972656 150.941406 237.722656 154.949219 237.722656 C 158.957031 237.722656 162.207031 240.972656 162.207031 244.980469 Z M 162.207031 244.980469 "/>
</g>
</svg>
