<?xml version="1.0" encoding="UTF-8"?>
<svg xmlns="http://www.w3.org/2000/svg" xmlns:xlink="http://www.w3.org/1999/xlink" width="819pt" height="618pt" viewBox="0 0 819 618" version="1.1">
<defs>
<filter id="alpha" filterUnits="objectBoundingBox" x="0%" y="0%" width="100%" height="100%">
  <feColorMatrix type="matrix" in="SourceGraphic" values="0 0 0 0 1 0 0 0 0 1 0 0 0 0 1 0 0 0 1 0"/>
</filter>
<mask id="mask0">
  <g filter="url(#alpha)">
<rect x="0" y="0" width="819" height="618" style="fill:rgb(0%,0%,0%);fill-opacity:0.180392;stroke:none;"/>
  </g>
</mask>
<clipPath id="clip1">
  <rect x="0" y="0" width="819" height="618"/>
</clipPath>
<g id="surface5" clip-path="url(#clip1)">
<path style=" stroke:none;fill-rule:nonzero;fill:rgb(34.509804%,40.392157%,94.117647%);fill-opacity:1;" d="M 447.679688 3.71875 C 438.765625 5.320312 429.972656 7.53125 421.363281 10.34375 C 364.285156 28.980469 255.847656 57.855469 213.546875 100.375 C 164.503906 149.789062 179.550781 214.808594 130.296875 263.933594 C 89.5 304.570312 55.460938 344.351562 55.566406 406.011719 C 55.730469 514.660156 149.476562 552.414062 237.128906 579.785156 C 340.976562 612.171875 451.417969 627.066406 559.707031 612.273438 C 605.621094 606.007812 651.972656 593.949219 689.433594 566.683594 C 745.464844 525.941406 772.410156 451.140625 760.765625 383.488281 C 754.859375 349.15625 744.527344 318.128906 741.710938 282.863281 C 738.035156 236.894531 745.78125 189.714844 732.296875 144.773438 C 708.820312 66.484375 626.65625 19.410156 546.269531 5.160156 C 513.753906 -0.648438 480.070312 -2.171875 447.679688 3.71875 Z M 447.679688 3.71875 "/>
</g>
<mask id="mask1">
  <g filter="url(#alpha)">
<rect x="0" y="0" width="819" height="618" style="fill:rgb(0%,0%,0%);fill-opacity:0.329412;stroke:none;"/>
  </g>
</mask>
<clipPath id="clip2">
  <rect x="0" y="0" width="819" height="618"/>
</clipPath>
<g id="surface8" clip-path="url(#clip2)">
<path style=" stroke:none;fill-rule:nonzero;fill:rgb(84.313725%,85.098039%,88.235294%);fill-opacity:1;" d="M 208.683594 153.445312 L 467.195312 153.445312 L 467.195312 312.511719 L 208.683594 312.511719 Z M 208.683594 153.445312 "/>
</g>
<mask id="mask2">
  <g filter="url(#alpha)">
<rect x="0" y="0" width="819" height="618" style="fill:rgb(0%,0%,0%);fill-opacity:0.329412;stroke:none;"/>
  </g>
</mask>
<clipPath id="clip3">
  <rect x="0" y="0" width="819" height="618"/>
</clipPath>
<g id="surface11" clip-path="url(#clip3)">
<path style=" stroke:none;fill-rule:nonzero;fill:rgb(84.313725%,85.098039%,88.235294%);fill-opacity:1;" d="M 208.683594 327.761719 L 467.195312 327.761719 L 467.195312 486.828125 L 208.683594 486.828125 Z M 208.683594 327.761719 "/>
</g>
<mask id="mask3">
  <g filter="url(#alpha)">
<rect x="0" y="0" width="819" height="618" style="fill:rgb(0%,0%,0%);fill-opacity:0.329412;stroke:none;"/>
  </g>
</mask>
<clipPath id="clip4">
  <rect x="0" y="0" width="819" height="618"/>
</clipPath>
<g id="surface14" clip-path="url(#clip4)">
<path style=" stroke:none;fill-rule:nonzero;fill:rgb(100%,100%,100%);fill-opacity:1;" d="M 740.625 141.117188 L 740.625 218.738281 C 740.628906 231.1875 730.863281 241.445312 718.441406 242.035156 C 718.070312 242.054688 717.703125 242.054688 717.335938 242.035156 L 574.691406 242.035156 L 562.421875 270.574219 L 549.480469 242.035156 L 353.015625 242.035156 C 342.648438 242.027344 333.53125 235.164062 330.644531 225.195312 C 330.0625 223.09375 329.78125 220.917969 329.808594 218.738281 L 329.808594 141.117188 Z M 740.625 141.117188 "/>
</g>
<mask id="mask4">
  <g filter="url(#alpha)">
<rect x="0" y="0" width="819" height="618" style="fill:rgb(0%,0%,0%);fill-opacity:0.141176;stroke:none;"/>
  </g>
</mask>
<clipPath id="clip5">
  <rect x="0" y="0" width="819" height="618"/>
</clipPath>
<g id="surface17" clip-path="url(#clip5)">
<path style=" stroke:none;fill-rule:nonzero;fill:rgb(0.784314%,0.784314%,0.784314%);fill-opacity:1;" d="M 489.921875 529.535156 C 487.125 541.738281 490.546875 554.753906 488.042969 566.914062 C 468.554688 557.265625 453.527344 540.476562 446.074219 520.027344 C 445.671875 515.851562 445.777344 511.644531 446.386719 507.492188 C 446.949219 503 447.785156 498.339844 446.511719 493.996094 C 445.300781 490.648438 443.53125 487.53125 441.273438 484.78125 C 443.167969 459.78125 456.082031 436.921875 476.5 422.414062 C 476.605469 422.976562 476.605469 423.558594 476.5 424.125 L 472.972656 440.214844 C 473.683594 444.980469 473.683594 449.824219 472.972656 454.589844 C 472.191406 459.402344 469.328125 463.621094 465.148438 466.121094 C 463.589844 466.765625 462.078125 467.511719 460.621094 468.359375 C 459.21875 469.519531 458.050781 470.9375 457.175781 472.535156 C 454.847656 475.792969 453.109375 479.4375 452.042969 483.296875 C 450.996094 487.222656 452 491.414062 454.714844 494.433594 L 478.234375 489.859375 C 480.695312 489.378906 483.679688 489.042969 485.371094 490.902344 C 487.457031 493.117188 486.121094 496.648438 486.558594 499.636719 C 487.125 503.4375 490.503906 506.175781 492.070312 509.707031 C 494.78125 515.828125 491.464844 522.871094 489.921875 529.535156 Z M 489.921875 529.535156 "/>
</g>
<mask id="mask5">
  <g filter="url(#alpha)">
<rect x="0" y="0" width="819" height="618" style="fill:rgb(0%,0%,0%);fill-opacity:0.4;stroke:none;"/>
  </g>
</mask>
<clipPath id="clip6">
  <rect x="0" y="0" width="819" height="618"/>
</clipPath>
<g id="surface20" clip-path="url(#clip6)">
<path style=" stroke:none;fill-rule:nonzero;fill:rgb(0.784314%,0.784314%,0.784314%);fill-opacity:1;" d="M 458.699219 447.796875 C 459.789062 450.164062 461.527344 452.167969 463.707031 453.585938 C 473.570312 460.996094 485.484375 465.167969 497.808594 465.539062 C 493.824219 466.519531 489.605469 467.625 486.769531 470.613281 C 483.929688 473.601562 483.324219 478.972656 486.621094 481.5 C 487.785156 482.277344 489.101562 482.78125 490.484375 482.984375 C 496.765625 484.21875 503.265625 483.691406 509.265625 481.457031 C 512.898438 480.101562 516.464844 478.09375 520.347656 478.136719 C 523.457031 478.394531 526.484375 479.261719 529.257812 480.683594 C 533.433594 482.398438 537.792969 483.945312 542.136719 483.066406 C 546.476562 482.191406 550.484375 478.011719 549.503906 473.664062 C 549.273438 472.640625 548.835938 471.574219 549.335938 470.636719 C 549.757812 470.070312 550.351562 469.660156 551.027344 469.464844 L 590.949219 451.683594 C 593.472656 450.535156 596.375 448.925781 596.648438 446.167969 C 596.917969 443.410156 594.121094 441.050781 591.535156 439.710938 C 577.78125 432.523438 561.730469 431.605469 546.226562 430.851562 L 518.699219 429.496094 C 505.382812 428.847656 491.945312 428.199219 478.652344 429.765625 C 474.039062 430.308594 465.898438 430.371094 462.371094 433.820312 C 459.304688 436.746094 457.28125 444.015625 458.699219 447.796875 Z M 458.699219 447.796875 "/>
</g>
<mask id="mask6">
  <g filter="url(#alpha)">
<rect x="0" y="0" width="819" height="618" style="fill:rgb(0%,0%,0%);fill-opacity:0.141176;stroke:none;"/>
  </g>
</mask>
<clipPath id="clip7">
  <rect x="0" y="0" width="819" height="618"/>
</clipPath>
<g id="surface23" clip-path="url(#clip7)">
<path style=" stroke:none;fill-rule:nonzero;fill:rgb(0.784314%,0.784314%,0.784314%);fill-opacity:1;" d="M 609.730469 491.175781 C 609.757812 517.054688 597.910156 541.511719 577.59375 557.511719 C 576.433594 556.742188 575.441406 555.746094 574.671875 554.585938 C 572.144531 550.761719 572.980469 544.726562 577.050781 542.574219 C 575.632812 543.324219 570.058594 541.488281 568.390625 541.234375 L 559.707031 539.878906 C 555.535156 539.230469 548.3125 539.5 545.871094 535.324219 C 545.589844 534.738281 545.261719 534.179688 544.890625 533.652344 C 544.371094 533.132812 543.765625 532.714844 543.09375 532.417969 C 540.488281 531.144531 537.417969 529.703125 536.835938 526.859375 C 536.398438 524.769531 537.441406 522.390625 536.375 520.59375 C 536.042969 520.007812 535.519531 519.546875 535.1875 518.984375 C 534.4375 517.242188 534.660156 515.234375 535.769531 513.699219 C 539.421875 507.28125 547.019531 504.191406 554.28125 502.957031 C 561.542969 501.726562 569.078125 501.890625 576.171875 499.84375 C 580.640625 498.550781 584.875 496.375 589.488281 495.667969 C 592.035156 495.3125 595.207031 495.058594 596.144531 492.65625 C 596.667969 491.300781 596.144531 489.730469 596.6875 488.351562 C 596.898438 487.769531 597.292969 487.265625 597.503906 486.683594 C 597.828125 485.6875 597.691406 484.597656 597.121094 483.714844 C 596.554688 482.835938 595.621094 482.257812 594.582031 482.148438 C 595.164062 480.558594 595.664062 478.53125 594.414062 477.40625 C 593.527344 476.757812 592.386719 476.578125 591.347656 476.925781 C 588.320312 477.699219 586.128906 480.246094 583.582031 482.042969 C 575.234375 488.039062 563.632812 485.910156 556.578125 478.867188 C 555.433594 477.863281 554.621094 476.539062 554.238281 475.066406 C 554.023438 472.492188 555.453125 470.0625 557.808594 469.003906 C 560.113281 468.011719 562.601562 467.519531 565.113281 467.5625 L 562.296875 449.175781 C 548.269531 452.9375 542.574219 439.566406 540.570312 428.449219 C 538.566406 417.335938 546.457031 413.363281 556.617188 412.632812 C 588.71875 425.453125 609.765625 456.574219 609.730469 491.175781 Z M 609.730469 491.175781 "/>
</g>
<linearGradient id="linear0" gradientUnits="userSpaceOnUse" x1="279.73" y1="155.05" x2="335.81" y2="178.93" gradientTransform="matrix(2.086943,0,0,2.089391,-14.532035,-40.34416)">
<stop offset="0.01" style="stop-color:rgb(0%,0%,0%);stop-opacity:1;"/>
<stop offset="0.08" style="stop-color:rgb(0%,0%,0%);stop-opacity:0.690196;"/>
<stop offset="0.21" style="stop-color:rgb(0%,0%,0%);stop-opacity:0.321569;"/>
<stop offset="1" style="stop-color:rgb(0%,0%,0%);stop-opacity:0;"/>
</linearGradient>
<linearGradient id="linear1" gradientUnits="userSpaceOnUse" x1="261.81" y1="162.17" x2="258.05" y2="193.97" gradientTransform="matrix(2.086943,0,0,2.089391,-14.535418,-40.346136)">
<stop offset="0.01" style="stop-color:rgb(0%,0%,0%);stop-opacity:1;"/>
<stop offset="0.08" style="stop-color:rgb(0%,0%,0%);stop-opacity:0.690196;"/>
<stop offset="0.21" style="stop-color:rgb(0%,0%,0%);stop-opacity:0.321569;"/>
<stop offset="1" style="stop-color:rgb(0%,0%,0%);stop-opacity:0;"/>
</linearGradient>
<mask id="mask7">
  <g filter="url(#alpha)">
<rect x="0" y="0" width="819" height="618" style="fill:rgb(0%,0%,0%);fill-opacity:0.101961;stroke:none;"/>
  </g>
</mask>
<clipPath id="clip8">
  <rect x="0" y="0" width="819" height="618"/>
</clipPath>
<g id="surface26" clip-path="url(#clip8)">
<path style=" stroke:none;fill-rule:nonzero;fill:rgb(0.784314%,0.784314%,0.784314%);fill-opacity:1;" d="M 482.113281 379.246094 L 572.730469 379.246094 L 572.730469 433.339844 L 482.113281 433.339844 Z M 482.113281 379.246094 "/>
</g>
</defs>
<g id="surface1">
<use xlink:href="#surface5" mask="url(#mask0)"/>
<path style=" stroke:none;fill-rule:nonzero;fill:rgb(100%,100%,100%);fill-opacity:1;" d="M 705.648438 83.117188 L 705.648438 490.964844 C 705.648438 505.203125 694.117188 516.75 679.894531 516.75 L 139.105469 516.75 C 124.882812 516.75 113.351562 505.203125 113.351562 490.964844 L 113.351562 90.742188 C 113.351562 76.503906 124.882812 64.960938 139.105469 64.960938 L 687.511719 64.960938 C 697.527344 64.960938 705.648438 73.089844 705.648438 83.117188 Z M 705.648438 83.117188 "/>
<use xlink:href="#surface8" mask="url(#mask1)"/>
<use xlink:href="#surface11" mask="url(#mask2)"/>
<path style=" stroke:none;fill-rule:nonzero;fill:rgb(34.509804%,40.392157%,94.117647%);fill-opacity:1;" d="M 705.648438 83.511719 L 705.648438 84.179688 L 113.351562 84.179688 L 113.351562 83.511719 C 113.351562 69.273438 124.882812 57.730469 139.105469 57.730469 L 679.894531 57.730469 C 686.726562 57.722656 693.28125 60.4375 698.109375 65.277344 C 702.941406 70.113281 705.652344 76.671875 705.648438 83.511719 Z M 705.648438 83.511719 "/>
<path style=" stroke:none;fill-rule:nonzero;fill:rgb(84.313725%,85.098039%,88.235294%);fill-opacity:1;" d="M 193.261719 84.179688 L 193.261719 516.683594 L 139.105469 516.683594 C 124.882812 516.683594 113.351562 505.140625 113.351562 490.902344 L 113.351562 84.179688 Z M 193.261719 84.179688 "/>
<path style=" stroke:none;fill-rule:nonzero;fill:rgb(100%,100%,100%);fill-opacity:1;" d="M 139.210938 193.101562 L 180.925781 193.101562 L 180.925781 197.238281 L 139.210938 197.238281 Z M 139.210938 193.101562 "/>
<path style=" stroke:none;fill-rule:nonzero;fill:rgb(100%,100%,100%);fill-opacity:1;" d="M 129.527344 180.878906 L 180.949219 180.878906 L 180.949219 186.121094 L 129.527344 186.121094 Z M 129.527344 180.878906 "/>
<path style=" stroke:none;fill-rule:nonzero;fill:rgb(100%,100%,100%);fill-opacity:1;" d="M 139.210938 241.992188 L 180.925781 241.992188 L 180.925781 246.128906 L 139.210938 246.128906 Z M 139.210938 241.992188 "/>
<path style=" stroke:none;fill-rule:nonzero;fill:rgb(100%,100%,100%);fill-opacity:1;" d="M 129.527344 229.75 L 180.949219 229.75 L 180.949219 234.992188 L 129.527344 234.992188 Z M 129.527344 229.75 "/>
<path style=" stroke:none;fill-rule:nonzero;fill:rgb(100%,100%,100%);fill-opacity:1;" d="M 139.210938 290.863281 L 180.925781 290.863281 L 180.925781 295 L 139.210938 295 Z M 139.210938 290.863281 "/>
<path style=" stroke:none;fill-rule:nonzero;fill:rgb(100%,100%,100%);fill-opacity:1;" d="M 129.527344 278.640625 L 180.949219 278.640625 L 180.949219 283.886719 L 129.527344 283.886719 Z M 129.527344 278.640625 "/>
<path style=" stroke:none;fill-rule:nonzero;fill:rgb(100%,100%,100%);fill-opacity:1;" d="M 139.210938 339.734375 L 180.925781 339.734375 L 180.925781 343.871094 L 139.210938 343.871094 Z M 139.210938 339.734375 "/>
<path style=" stroke:none;fill-rule:nonzero;fill:rgb(100%,100%,100%);fill-opacity:1;" d="M 129.527344 327.511719 L 180.949219 327.511719 L 180.949219 332.757812 L 129.527344 332.757812 Z M 129.527344 327.511719 "/>
<path style=" stroke:none;fill-rule:nonzero;fill:rgb(34.509804%,40.392157%,94.117647%);fill-opacity:1;" d="M 740.625 132.382812 L 740.625 218.738281 C 740.628906 231.1875 730.863281 241.445312 718.441406 242.035156 C 718.070312 242.054688 717.703125 242.054688 717.335938 242.035156 L 574.691406 242.035156 L 562.421875 270.574219 L 549.480469 242.035156 L 353.015625 242.035156 C 342.648438 242.027344 333.53125 235.164062 330.644531 225.195312 C 330.0625 223.09375 329.78125 220.917969 329.808594 218.738281 L 329.808594 132.382812 C 329.808594 119.535156 340.183594 109.101562 353.015625 109.046875 L 717.335938 109.046875 C 730.207031 109.046875 740.636719 119.496094 740.625 132.382812 Z M 740.625 132.382812 "/>
<use xlink:href="#surface14" mask="url(#mask3)"/>
<path style=" stroke:none;fill-rule:nonzero;fill:rgb(100%,100%,100%);fill-opacity:1;" d="M 146.804688 70.914062 C 146.804688 74.167969 144.171875 76.804688 140.921875 76.804688 C 137.671875 76.804688 135.035156 74.167969 135.035156 70.914062 C 135.035156 67.660156 137.671875 65.023438 140.921875 65.023438 C 144.171875 65.023438 146.804688 67.660156 146.804688 70.914062 Z M 146.804688 70.914062 "/>
<path style=" stroke:none;fill-rule:nonzero;fill:rgb(100%,100%,100%);fill-opacity:1;" d="M 166.988281 70.914062 C 166.988281 74.167969 164.351562 76.804688 161.101562 76.804688 C 157.851562 76.804688 155.214844 74.167969 155.214844 70.914062 C 155.214844 67.660156 157.851562 65.023438 161.101562 65.023438 C 164.351562 65.023438 166.988281 67.660156 166.988281 70.914062 Z M 166.988281 70.914062 "/>
<path style=" stroke:none;fill-rule:nonzero;fill:rgb(100%,100%,100%);fill-opacity:1;" d="M 187.167969 70.914062 C 187.167969 74.167969 184.53125 76.804688 181.28125 76.804688 C 178.03125 76.804688 175.398438 74.167969 175.398438 70.914062 C 175.398438 67.660156 178.03125 65.023438 181.28125 65.023438 C 184.53125 65.023438 187.167969 67.660156 187.167969 70.914062 Z M 187.167969 70.914062 "/>
<path style=" stroke:none;fill-rule:nonzero;fill:rgb(34.509804%,40.392157%,94.117647%);fill-opacity:1;" d="M 609.730469 491.175781 C 609.730469 537.816406 571.964844 575.628906 525.378906 575.628906 C 478.789062 575.628906 441.023438 537.816406 441.023438 491.175781 C 441.023438 489 441.105469 486.847656 441.273438 484.71875 C 444.761719 439.484375 483.324219 405.09375 528.605469 406.828125 C 573.886719 408.5625 609.707031 445.808594 609.730469 491.175781 Z M 609.730469 491.175781 "/>
<use xlink:href="#surface17" mask="url(#mask4)"/>
<use xlink:href="#surface20" mask="url(#mask5)"/>
<use xlink:href="#surface23" mask="url(#mask6)"/>
<path style=" stroke:none;fill-rule:nonzero;fill:rgb(34.509804%,40.392157%,94.117647%);fill-opacity:1;" d="M 557.835938 301.960938 L 559.789062 301.804688 C 561.007812 301.710938 562.074219 302.621094 562.167969 303.839844 L 563.191406 316.796875 C 563.289062 318.015625 562.378906 319.082031 561.160156 319.175781 L 559.207031 319.332031 C 557.988281 319.429688 556.921875 318.519531 556.824219 317.300781 L 555.804688 304.34375 C 555.707031 303.125 556.617188 302.058594 557.835938 301.960938 Z M 557.835938 301.960938 "/>
<path style=" stroke:none;fill-rule:nonzero;fill:rgb(34.509804%,40.392157%,94.117647%);fill-opacity:1;" d="M 546.078125 296.628906 L 546.976562 301.625 C 547.269531 303.234375 548.4375 304.300781 549.691406 304.089844 C 554.53125 303.253906 566.386719 301.605469 574.921875 303.777344 C 579.558594 304.957031 584.09375 306.507812 588.488281 308.414062 C 590.21875 309.1875 591.949219 307.246094 591.660156 304.863281 L 588.589844 278.285156 C 588.296875 275.945312 586.253906 274.777344 584.773438 276.195312 C 578.65625 281.753906 564.488281 292.808594 548.605469 292.746094 C 546.851562 292.683594 545.726562 294.605469 546.078125 296.628906 Z M 546.078125 296.628906 "/>
<path style=" stroke:none;fill-rule:nonzero;fill:rgb(34.509804%,40.392157%,94.117647%);fill-opacity:1;" d="M 596.472656 291.203125 C 595.746094 281.964844 591.578125 274.757812 587.164062 275.109375 C 582.753906 275.457031 579.765625 283.230469 580.496094 292.464844 C 581.226562 301.703125 585.394531 308.910156 589.804688 308.558594 C 594.21875 308.210938 597.203125 300.4375 596.472656 291.203125 Z M 596.472656 291.203125 "/>
<path style=" stroke:none;fill-rule:nonzero;fill:url(#linear0);" d="M 596.472656 291.203125 C 595.746094 281.964844 591.578125 274.757812 587.164062 275.109375 C 582.753906 275.457031 579.765625 283.230469 580.496094 292.464844 C 581.226562 301.703125 585.394531 308.910156 589.804688 308.558594 C 594.21875 308.210938 597.203125 300.4375 596.472656 291.203125 Z M 596.472656 291.203125 "/>
<path style=" stroke:none;fill-rule:nonzero;fill:rgb(34.509804%,40.392157%,94.117647%);fill-opacity:1;" d="M 494.28125 327.660156 C 484.433594 329.058594 460.890625 384.449219 467.902344 397.128906 C 474.914062 409.8125 513.628906 424.605469 513.628906 424.605469 L 511.542969 402.773438 C 511.542969 402.773438 485.058594 391.488281 487.164062 384.449219 C 489.273438 377.40625 504.507812 351.121094 504.507812 351.121094 Z M 494.28125 327.660156 "/>
<path style=" stroke:none;fill-rule:nonzero;fill:rgb(34.509804%,40.392157%,94.117647%);fill-opacity:1;" d="M 557.285156 326.152344 C 557.285156 324.773438 566.449219 328.640625 566.867188 328.871094 C 572.125 331.777344 577.113281 335.15625 581.765625 338.960938 C 585.941406 342.304688 590.300781 345.5625 594.289062 349.261719 C 597.898438 352.6875 602.78125 356.910156 601.90625 362.46875 C 601.21875 366.644531 596.6875 369.402344 592.429688 369.425781 C 588.164062 369.097656 584.054688 367.65625 580.515625 365.246094 C 573.085938 360.964844 566.050781 356.34375 558.832031 351.644531 Z M 557.285156 326.152344 "/>
<path style=" stroke:none;fill-rule:nonzero;fill:rgb(34.509804%,40.392157%,94.117647%);fill-opacity:1;" d="M 500.355469 326.050781 L 554.449219 326.050781 C 558.273438 325.96875 561.964844 327.449219 564.679688 330.148438 C 567.394531 332.84375 568.898438 336.53125 568.847656 340.363281 C 568.847656 340.363281 558.539062 382.527344 558.414062 396.671875 C 558.414062 404.421875 560.855469 427.574219 560.855469 427.574219 L 494.074219 427.574219 C 494.074219 427.574219 497.160156 403.378906 497.097656 395.25 C 496.972656 381.460938 486.058594 340.363281 486.058594 340.363281 C 486.007812 336.550781 487.5 332.878906 490.191406 330.183594 C 492.882812 327.488281 496.546875 326 500.355469 326.050781 Z M 500.355469 326.050781 "/>
<path style=" stroke:none;fill-rule:nonzero;fill:rgb(98.823529%,65.882353%,61.960784%);fill-opacity:1;" d="M 565.96875 302.125 C 565.050781 300.835938 563.8125 299.808594 562.378906 299.136719 C 561.015625 298.738281 559.566406 298.738281 558.207031 299.136719 C 554.464844 300.015625 551.304688 302.511719 549.585938 305.949219 C 549.226562 306.648438 549.035156 307.421875 549.023438 308.207031 C 549.089844 308.988281 549.296875 309.75 549.628906 310.460938 C 550.921875 313.742188 552.632812 317.421875 556.035156 318.382812 C 557.835938 318.609375 559.644531 318.742188 561.460938 318.777344 C 562.648438 318.964844 563.777344 319.425781 564.964844 319.636719 C 567.972656 320.179688 574.003906 318.128906 574.234375 314.347656 C 574.335938 312.488281 571.957031 310.003906 570.957031 308.5625 C 569.328125 306.324219 567.722656 304.195312 565.96875 302.125 Z M 565.96875 302.125 "/>
<path style=" stroke:none;fill-rule:nonzero;fill:rgb(98.823529%,65.882353%,61.960784%);fill-opacity:1;" d="M 535.730469 333.96875 C 535.265625 337.257812 532.316406 339.613281 529.007812 339.339844 C 522.371094 339.023438 521.890625 333.96875 521.890625 333.96875 L 521.890625 307.601562 L 535.730469 307.601562 Z M 535.730469 333.96875 "/>
<path style=" stroke:none;fill-rule:nonzero;fill:url(#linear1);" d="M 521.808594 320.636719 C 521.808594 320.636719 530.46875 334.15625 535.644531 327.660156 L 535.644531 317.085938 Z M 521.808594 320.636719 "/>
<path style=" stroke:none;fill-rule:nonzero;fill:rgb(98.823529%,65.882353%,61.960784%);fill-opacity:1;" d="M 516.070312 313.910156 C 519.535156 324.671875 536.75 324.984375 542.53125 316.4375 C 545.621094 311.242188 546.59375 305.054688 545.246094 299.160156 C 544.328125 293.359375 542.554688 287.722656 539.984375 282.445312 C 538.210938 279.121094 536.417969 276.175781 532.390625 275.675781 C 527.792969 275.375 523.207031 276.40625 519.179688 278.640625 C 511.308594 282.886719 507.523438 292.101562 510.121094 300.664062 C 510.8125 302.742188 511.6875 304.753906 512.730469 306.679688 C 514.027344 309 515.144531 311.417969 516.070312 313.910156 Z M 516.070312 313.910156 "/>
<path style=" stroke:none;fill-rule:nonzero;fill:rgb(34.509804%,40.392157%,94.117647%);fill-opacity:1;" d="M 482.113281 379.246094 L 572.730469 379.246094 L 572.730469 433.339844 L 482.113281 433.339844 Z M 482.113281 379.246094 "/>
<use xlink:href="#surface26" mask="url(#mask7)"/>
<path style=" stroke:none;fill-rule:nonzero;fill:rgb(27.843137%,24.705882%,27.843137%);fill-opacity:1;" d="M 521.351562 462.195312 C 519.460938 463.683594 517.347656 464.871094 515.089844 465.703125 C 510.226562 467.792969 500.625 471.554688 502.066406 475.734375 C 504.007812 481.375 510.769531 480.957031 515.253906 479.621094 C 522.261719 477.214844 528.933594 473.921875 535.101562 469.820312 Z M 521.351562 462.195312 "/>
<path style=" stroke:none;fill-rule:nonzero;fill:rgb(27.843137%,24.705882%,27.843137%);fill-opacity:1;" d="M 532.972656 447.484375 C 549.417969 435.472656 558.015625 426.589844 576.488281 415.351562 C 580.890625 412.675781 583.894531 411.882812 591.511719 414.871094 C 598.003906 417.417969 597.3125 428.597656 593.765625 433.257812 C 583.144531 447.234375 542.199219 466.539062 533.914062 469.464844 C 530.367188 470.71875 517.738281 460.082031 522.851562 455.007812 C 526.058594 452.28125 529.441406 449.769531 532.972656 447.484375 Z M 532.972656 447.484375 "/>
<path style=" stroke:none;fill-rule:nonzero;fill:rgb(27.843137%,24.705882%,27.843137%);fill-opacity:1;" d="M 525.378906 470.636719 C 527.929688 473.925781 530.84375 476.917969 534.058594 479.558594 C 539.632812 483.882812 543.492188 485.304688 548.019531 483.191406 C 554.574219 480.140625 548.542969 473.6875 543.449219 468.566406 C 539.566406 464.503906 535.214844 460.914062 530.492188 457.867188 Z M 525.378906 470.636719 "/>
<path style=" stroke:none;fill-rule:nonzero;fill:rgb(98.823529%,65.882353%,61.960784%);fill-opacity:1;" d="M 526.210938 454.839844 L 533.246094 460.667969 C 534.695312 461.84375 535.9375 463.257812 536.917969 464.847656 C 539.191406 469.027344 531.304688 477.824219 526.171875 472.703125 C 521.035156 467.585938 516.445312 462.109375 516.445312 462.109375 Z M 526.210938 454.839844 "/>
<path style=" stroke:none;fill-rule:nonzero;fill:rgb(27.843137%,24.705882%,27.843137%);fill-opacity:1;" d="M 505.300781 464.011719 C 486.183594 454.378906 474.457031 450.910156 462.164062 433.589844 C 459.035156 429.160156 457.78125 421.867188 458.992188 418.253906 C 460.496094 413.824219 466.964844 411.148438 474.601562 412.96875 C 480.988281 414.515625 523.9375 448.195312 530.65625 454.546875 C 533.539062 457.285156 524.730469 470.96875 517.507812 468.609375 C 513.308594 467.449219 509.222656 465.910156 505.300781 464.011719 Z M 505.300781 464.011719 "/>
<path style=" stroke:none;fill-rule:nonzero;fill:rgb(27.843137%,24.705882%,27.843137%);fill-opacity:1;" d="M 544.617188 281.421875 C 543.878906 283.207031 542.785156 284.828125 541.40625 286.183594 C 538.597656 288.898438 535.003906 290.648438 531.136719 291.175781 C 525.503906 292.074219 519.785156 291.175781 514.109375 290.613281 C 513.847656 292.484375 512.542969 294.042969 510.746094 294.625 C 511.605469 298.597656 512.75 302.5 514.171875 306.304688 C 515.570312 310.023438 517.574219 313.492188 519.074219 317.128906 C 514.398438 313.890625 510.726562 308.375 507.386719 303.902344 C 505.578125 301.777344 504.125 299.371094 503.089844 296.777344 C 502.039062 294.140625 502.328125 291.160156 503.859375 288.773438 C 504.640625 287.988281 505.277344 287.066406 505.738281 286.058594 C 505.894531 285.179688 505.894531 284.28125 505.738281 283.40625 C 505.59375 279.183594 507.375 275.121094 510.582031 272.371094 C 513.78125 269.691406 517.539062 267.757812 521.578125 266.710938 C 525.039062 265.492188 528.730469 265.09375 532.367188 265.539062 C 537.628906 266.4375 543.929688 272.246094 545.035156 277.492188 C 545.273438 278.8125 545.128906 280.175781 544.617188 281.421875 Z M 544.617188 281.421875 "/>
<path style=" stroke:none;fill-rule:nonzero;fill:rgb(98.823529%,65.882353%,61.960784%);fill-opacity:1;" d="M 512.355469 306.847656 C 511.128906 307.066406 510.039062 307.765625 509.328125 308.792969 C 508.9375 309.59375 508.882812 310.519531 509.183594 311.359375 C 509.480469 312.199219 509.925781 312.980469 510.496094 313.660156 C 510.785156 314.074219 511.148438 314.433594 511.5625 314.726562 C 512.261719 315.117188 513.054688 315.320312 513.859375 315.308594 C 514.484375 315.308594 515.109375 315.308594 515.734375 315.308594 C 516.054688 315.289062 516.367188 315.207031 516.652344 315.058594 C 516.949219 314.835938 517.167969 314.53125 517.28125 314.183594 C 517.707031 312.871094 517.707031 311.460938 517.28125 310.148438 C 516.988281 308.914062 516.394531 307.773438 515.546875 306.828125 C 514.734375 306.054688 513.460938 306.492188 512.355469 306.847656 Z M 512.355469 306.847656 "/>
<path style=" stroke:none;fill-rule:nonzero;fill:rgb(34.509804%,40.392157%,94.117647%);fill-opacity:1;" d="M 582.164062 359.105469 C 583.371094 361.972656 585.210938 364.53125 587.546875 366.582031 C 590.929688 369.109375 595.496094 369.351562 599.121094 367.191406 C 602.75 365.035156 604.71875 360.902344 604.117188 356.722656 C 603.429688 353.710938 602.082031 350.894531 600.171875 348.46875 C 591.992188 336.351562 583.582031 324.371094 574.941406 312.53125 C 572.648438 313.847656 564.507812 316.835938 563.945312 319.445312 C 563.378906 322.058594 568.285156 329.894531 569.496094 332.566406 C 571.582031 337.082031 573.667969 341.59375 575.757812 346.066406 C 577.84375 350.535156 580.828125 354.675781 582.164062 359.105469 Z M 582.164062 359.105469 "/>
<path style=" stroke:none;fill-rule:nonzero;fill:rgb(34.509804%,40.392157%,94.117647%);fill-opacity:1;" d="M 556.171875 314.121094 L 558.824219 313.238281 C 559.996094 312.847656 561.257812 313.480469 561.648438 314.652344 L 562.53125 317.308594 C 562.917969 318.480469 562.285156 319.746094 561.117188 320.136719 L 558.460938 321.019531 C 557.292969 321.410156 556.027344 320.777344 555.640625 319.605469 L 554.757812 316.949219 C 554.367188 315.777344 555 314.511719 556.171875 314.121094 Z M 556.171875 314.121094 "/>
<path style="fill:none;stroke-width:2;stroke-linecap:round;stroke-linejoin:miter;stroke:rgb(100%,100%,100%);stroke-opacity:1;stroke-miterlimit:10;" d="M 138.269269 58.620183 L 142.969252 63.310919 " transform="matrix(2.086943,0,0,2.089391,55.564981,0)"/>
<path style="fill:none;stroke-width:2;stroke-linecap:round;stroke-linejoin:miter;stroke:rgb(100%,100%,100%);stroke-opacity:1;stroke-miterlimit:10;" d="M 143.250015 58.620183 L 138.550033 63.310919 " transform="matrix(2.086943,0,0,2.089391,55.564981,0)"/>
<path style=" stroke:none;fill-rule:nonzero;fill:rgb(100%,100%,100%);fill-opacity:1;" d="M 373.699219 170.515625 L 591.429688 170.515625 C 594.289062 170.515625 596.605469 172.835938 596.605469 175.695312 C 596.605469 178.558594 594.289062 180.878906 591.429688 180.878906 L 373.699219 180.878906 C 370.839844 180.878906 368.523438 178.558594 368.523438 175.695312 C 368.523438 172.835938 370.839844 170.515625 373.699219 170.515625 Z M 373.699219 170.515625 "/>
<path style=" stroke:none;fill-rule:nonzero;fill:rgb(100%,100%,100%);fill-opacity:1;" d="M 373.699219 196.359375 L 591.429688 196.359375 C 594.289062 196.359375 596.605469 198.679688 596.605469 201.542969 C 596.605469 204.40625 594.289062 206.722656 591.429688 206.722656 L 373.699219 206.722656 C 370.839844 206.722656 368.523438 204.40625 368.523438 201.542969 C 368.523438 198.679688 370.839844 196.359375 373.699219 196.359375 Z M 373.699219 196.359375 "/>
</g>
</svg>
