<?xml version="1.0" encoding="UTF-8"?>
<svg xmlns="http://www.w3.org/2000/svg" xmlns:xlink="http://www.w3.org/1999/xlink" width="800pt" height="603pt" viewBox="0 0 800 603" version="1.1">
<defs>
<filter id="alpha" filterUnits="objectBoundingBox" x="0%" y="0%" width="100%" height="100%">
  <feColorMatrix type="matrix" in="SourceGraphic" values="0 0 0 0 1 0 0 0 0 1 0 0 0 0 1 0 0 0 1 0"/>
</filter>
<mask id="mask0">
  <g filter="url(#alpha)">
<rect x="0" y="0" width="800" height="603" style="fill:rgb(0%,0%,0%);fill-opacity:0.180392;stroke:none;"/>
  </g>
</mask>
<clipPath id="clip1">
  <rect x="0" y="0" width="800" height="603"/>
</clipPath>
<g id="surface5" clip-path="url(#clip1)">
<path style=" stroke:none;fill-rule:nonzero;fill:rgb(34.509804%,40.392157%,94.117647%);fill-opacity:1;" d="M 611.042969 344.820312 C 611.496094 380.9375 622.585938 416.800781 618.636719 452.660156 C 611.222656 519.492188 550.167969 571.921875 484.117188 584.453125 C 449.929688 590.941406 412.144531 587.78125 384.242188 566.988281 C 373.945312 559.300781 365.378906 549.503906 355.21875 541.621094 C 322.703125 516.363281 277.546875 512.960938 243.921875 489.203125 C 204.738281 461.515625 188.425781 411.832031 178.296875 364.929688 C 172.34375 337.386719 167.675781 309.609375 164.292969 281.601562 C 159.21875 239.742188 158.21875 193.355469 184.171875 160.089844 C 203.570312 135.136719 234.292969 122.527344 261.101562 105.746094 C 296.488281 83.601562 326.042969 53.222656 360.550781 29.695312 C 399.523438 3.113281 436.0625 -4.101562 474.914062 2.066406 L 478.347656 2.644531 C 495.933594 6.007812 513.121094 11.210938 529.621094 18.164062 C 581.410156 39.261719 626.367188 83.476562 636.285156 140.085938 C 648.207031 208.195312 610.191406 275.664062 611.042969 344.820312 Z M 611.042969 344.820312 "/>
</g>
<linearGradient id="linear0" gradientUnits="userSpaceOnUse" x1="168.55" y1="256.86" x2="300.46" y2="488.27" gradientTransform="matrix(1.51878,0,0,1.518892,60.681763,-9.174106)">
<stop offset="0.01" style="stop-color:rgb(0%,0%,0%);stop-opacity:1;"/>
<stop offset="0.13" style="stop-color:rgb(0%,0%,0%);stop-opacity:0.690196;"/>
<stop offset="1" style="stop-color:rgb(0%,0%,0%);stop-opacity:0;"/>
</linearGradient>
<linearGradient id="linear1" gradientUnits="userSpaceOnUse" x1="159.41" y1="262.07" x2="291.32" y2="493.48" gradientTransform="matrix(1.51878,0,0,1.518892,60.681763,-9.174106)">
<stop offset="0.01" style="stop-color:rgb(0%,0%,0%);stop-opacity:1;"/>
<stop offset="0.13" style="stop-color:rgb(0%,0%,0%);stop-opacity:0.690196;"/>
<stop offset="1" style="stop-color:rgb(0%,0%,0%);stop-opacity:0;"/>
</linearGradient>
<linearGradient id="linear2" gradientUnits="userSpaceOnUse" x1="150.27" y1="267.28" x2="282.18" y2="498.69" gradientTransform="matrix(1.51878,0,0,1.518892,60.681763,-9.174106)">
<stop offset="0.01" style="stop-color:rgb(0%,0%,0%);stop-opacity:1;"/>
<stop offset="0.13" style="stop-color:rgb(0%,0%,0%);stop-opacity:0.690196;"/>
<stop offset="1" style="stop-color:rgb(0%,0%,0%);stop-opacity:0;"/>
</linearGradient>
<linearGradient id="linear3" gradientUnits="userSpaceOnUse" x1="110.15" y1="246.31" x2="242.06" y2="477.71" gradientTransform="matrix(1.51878,0,0,1.518892,161.407254,0)">
<stop offset="0.01" style="stop-color:rgb(0%,0%,0%);stop-opacity:1;"/>
<stop offset="0.13" style="stop-color:rgb(0%,0%,0%);stop-opacity:0.690196;"/>
<stop offset="1" style="stop-color:rgb(0%,0%,0%);stop-opacity:0;"/>
</linearGradient>
<linearGradient id="linear4" gradientUnits="userSpaceOnUse" x1="67.48" y1="270.63" x2="199.39" y2="502.04" gradientTransform="matrix(1.51878,0,0,1.518892,161.407254,0)">
<stop offset="0.01" style="stop-color:rgb(0%,0%,0%);stop-opacity:1;"/>
<stop offset="0.13" style="stop-color:rgb(0%,0%,0%);stop-opacity:0.690196;"/>
<stop offset="1" style="stop-color:rgb(0%,0%,0%);stop-opacity:0;"/>
</linearGradient>
<mask id="mask1">
  <g filter="url(#alpha)">
<rect x="0" y="0" width="800" height="603" style="fill:rgb(0%,0%,0%);fill-opacity:0.690196;stroke:none;"/>
  </g>
</mask>
<radialGradient id="radial0" gradientUnits="userSpaceOnUse" cx="274.09" cy="117.66" fx="274.09" fy="117.66" r="41.01" gradientTransform="matrix(1.51878,0,0,1.518892,60.681763,-9.174106)">
<stop offset="0.34" style="stop-color:rgb(100%,100%,100%);stop-opacity:1;"/>
<stop offset="1" style="stop-color:rgb(100%,100%,100%);stop-opacity:0.388235;"/>
</radialGradient>
<clipPath id="clip2">
  <rect x="0" y="0" width="800" height="603"/>
</clipPath>
<g id="surface8" clip-path="url(#clip2)">
<path style=" stroke:none;fill-rule:nonzero;fill:url(#radial0);" d="M 421.800781 183.042969 C 421.785156 174.160156 423.925781 165.410156 428.042969 157.539062 L 450.75 100.886719 L 506.292969 100.886719 L 527.402344 160.652344 C 536.535156 181.207031 532.28125 205.246094 516.648438 221.417969 C 501.015625 237.585938 477.132812 242.648438 456.285156 234.214844 C 435.4375 225.777344 421.792969 205.53125 421.800781 183.042969 Z M 421.800781 183.042969 "/>
</g>
<linearGradient id="linear5" gradientUnits="userSpaceOnUse" x1="5825.07" y1="1536.61" x2="5866.18" y2="1536.61" gradientTransform="matrix(-1.51878,0.000000000000000186,-0.000000000000000186,-1.518892,9357.362038,2420.55136)">
<stop offset="0.01" style="stop-color:rgb(0%,0%,0%);stop-opacity:1;"/>
<stop offset="0.13" style="stop-color:rgb(0%,0%,0%);stop-opacity:0.690196;"/>
<stop offset="1" style="stop-color:rgb(0%,0%,0%);stop-opacity:0;"/>
</linearGradient>
<linearGradient id="linear6" gradientUnits="userSpaceOnUse" x1="5822.88" y1="1536.87" x2="5868.85" y2="1536.87" gradientTransform="matrix(-1.51878,-0.000000000000000186,0.000000000000000186,-1.518892,9357.34685,2420.55136)">
<stop offset="0.01" style="stop-color:rgb(0%,0%,0%);stop-opacity:1;"/>
<stop offset="0.13" style="stop-color:rgb(0%,0%,0%);stop-opacity:0.690196;"/>
<stop offset="1" style="stop-color:rgb(0%,0%,0%);stop-opacity:0;"/>
</linearGradient>
<linearGradient id="linear7" gradientUnits="userSpaceOnUse" x1="187.59" y1="191.86" x2="173.08" y2="233.69" gradientTransform="matrix(1.51878,0,0,1.518892,60.681763,-9.174106)">
<stop offset="0.01" style="stop-color:rgb(0%,0%,0%);stop-opacity:1;"/>
<stop offset="0.13" style="stop-color:rgb(0%,0%,0%);stop-opacity:0.690196;"/>
<stop offset="1" style="stop-color:rgb(0%,0%,0%);stop-opacity:0;"/>
</linearGradient>
<linearGradient id="linear8" gradientUnits="userSpaceOnUse" x1="229.17" y1="141.42" x2="198.64" y2="145.94" gradientTransform="matrix(1.51878,0,0,1.518892,60.681763,-9.174106)">
<stop offset="0.01" style="stop-color:rgb(0%,0%,0%);stop-opacity:1;"/>
<stop offset="0.13" style="stop-color:rgb(0%,0%,0%);stop-opacity:0.690196;"/>
<stop offset="1" style="stop-color:rgb(0%,0%,0%);stop-opacity:0;"/>
</linearGradient>
<linearGradient id="linear9" gradientUnits="userSpaceOnUse" x1="229.17" y1="197.15" x2="168.49" y2="197.9" gradientTransform="matrix(1.51878,0,0,1.518892,60.681763,-9.174106)">
<stop offset="0.01" style="stop-color:rgb(0%,0%,0%);stop-opacity:1;"/>
<stop offset="0.13" style="stop-color:rgb(0%,0%,0%);stop-opacity:0.690196;"/>
<stop offset="1" style="stop-color:rgb(0%,0%,0%);stop-opacity:0;"/>
</linearGradient>
<linearGradient id="linear10" gradientUnits="userSpaceOnUse" x1="137.17" y1="238.4" x2="175.05" y2="231.61" gradientTransform="matrix(1.51878,0,0,1.518892,60.681763,-9.174106)">
<stop offset="0.01" style="stop-color:rgb(0%,0%,0%);stop-opacity:1;"/>
<stop offset="0.13" style="stop-color:rgb(0%,0%,0%);stop-opacity:0.690196;"/>
<stop offset="1" style="stop-color:rgb(0%,0%,0%);stop-opacity:0;"/>
</linearGradient>
<linearGradient id="linear11" gradientUnits="userSpaceOnUse" x1="194.68" y1="283.35" x2="217.48" y2="259.98" gradientTransform="matrix(1.51878,0,0,1.518892,60.681763,-9.174106)">
<stop offset="0.01" style="stop-color:rgb(0%,0%,0%);stop-opacity:1;"/>
<stop offset="0.13" style="stop-color:rgb(0%,0%,0%);stop-opacity:0.690196;"/>
<stop offset="1" style="stop-color:rgb(0%,0%,0%);stop-opacity:0;"/>
</linearGradient>
</defs>
<g id="surface1">
<use xlink:href="#surface5" mask="url(#mask0)"/>
<path style=" stroke:none;fill-rule:nonzero;fill:rgb(34.509804%,40.392157%,94.117647%);fill-opacity:1;" d="M 394.675781 439.75 L 298.523438 439.75 C 295.042969 439.75 292.21875 436.929688 292.21875 433.453125 C 292.21875 429.976562 295.042969 427.15625 298.523438 427.15625 L 394.675781 427.15625 C 398.15625 427.15625 400.980469 429.976562 400.980469 433.453125 C 400.980469 436.929688 398.15625 439.75 394.675781 439.75 Z M 394.675781 439.75 "/>
<path style=" stroke:none;fill-rule:nonzero;fill:rgb(34.509804%,40.392157%,94.117647%);fill-opacity:1;" d="M 411.839844 502.144531 L 315.683594 502.144531 C 312.203125 502.144531 309.382812 499.328125 309.382812 495.851562 C 309.382812 492.371094 312.203125 489.554688 315.683594 489.554688 L 411.839844 489.554688 C 415.320312 489.554688 418.140625 492.371094 418.140625 495.851562 C 418.140625 499.328125 415.320312 502.144531 411.839844 502.144531 Z M 411.839844 502.144531 "/>
<path style=" stroke:none;fill-rule:nonzero;fill:rgb(34.509804%,40.392157%,94.117647%);fill-opacity:1;" d="M 429.015625 564.542969 L 332.863281 564.542969 C 329.382812 564.542969 326.558594 561.722656 326.558594 558.246094 C 326.558594 554.769531 329.382812 551.949219 332.863281 551.949219 L 429.015625 551.949219 C 432.496094 551.949219 435.320312 554.769531 435.320312 558.246094 C 435.320312 561.722656 432.496094 564.542969 429.015625 564.542969 Z M 429.015625 564.542969 "/>
<path style=" stroke:none;fill-rule:nonzero;fill:rgb(34.509804%,40.392157%,94.117647%);fill-opacity:1;" d="M 423.777344 603 L 439.238281 603 L 397.152344 432.125 L 381.707031 432.125 Z M 423.777344 603 "/>
<path style=" stroke:none;fill-rule:nonzero;fill:rgb(34.509804%,40.392157%,94.117647%);fill-opacity:1;" d="M 337.917969 603 L 353.367188 603 L 311.296875 432.125 L 295.851562 432.125 Z M 337.917969 603 "/>
<path style=" stroke:none;fill-rule:nonzero;fill:url(#linear0);" d="M 394.675781 439.75 L 298.523438 439.75 C 295.042969 439.75 292.21875 436.929688 292.21875 433.453125 C 292.21875 429.976562 295.042969 427.15625 298.523438 427.15625 L 394.675781 427.15625 C 398.15625 427.15625 400.980469 429.976562 400.980469 433.453125 C 400.980469 436.929688 398.15625 439.75 394.675781 439.75 Z M 394.675781 439.75 "/>
<path style=" stroke:none;fill-rule:nonzero;fill:url(#linear1);" d="M 411.839844 502.144531 L 315.683594 502.144531 C 312.203125 502.144531 309.382812 499.328125 309.382812 495.851562 C 309.382812 492.371094 312.203125 489.554688 315.683594 489.554688 L 411.839844 489.554688 C 415.320312 489.554688 418.140625 492.371094 418.140625 495.851562 C 418.140625 499.328125 415.320312 502.144531 411.839844 502.144531 Z M 411.839844 502.144531 "/>
<path style=" stroke:none;fill-rule:nonzero;fill:url(#linear2);" d="M 429.015625 564.542969 L 332.863281 564.542969 C 329.382812 564.542969 326.558594 561.722656 326.558594 558.246094 C 326.558594 554.769531 329.382812 551.949219 332.863281 551.949219 L 429.015625 551.949219 C 432.496094 551.949219 435.320312 554.769531 435.320312 558.246094 C 435.320312 561.722656 432.496094 564.542969 429.015625 564.542969 Z M 429.015625 564.542969 "/>
<path style=" stroke:none;fill-rule:nonzero;fill:url(#linear3);" d="M 423.777344 603 L 439.238281 603 L 397.152344 432.125 L 381.707031 432.125 Z M 423.777344 603 "/>
<path style=" stroke:none;fill-rule:nonzero;fill:url(#linear4);" d="M 337.917969 603 L 353.367188 603 L 311.296875 432.125 L 295.851562 432.125 Z M 337.917969 603 "/>
<path style=" stroke:none;fill-rule:nonzero;fill:rgb(95.294118%,74.117647%,56.078431%);fill-opacity:1;" d="M 422.835938 157.722656 C 424.667969 155.785156 427.214844 154.6875 429.882812 154.683594 C 429.730469 157.226562 428.90625 159.683594 427.496094 161.808594 C 426.925781 162.640625 426.476562 163.550781 426.160156 164.511719 C 425.847656 165.488281 426.082031 166.558594 426.769531 167.320312 C 427.269531 167.808594 428 168.035156 428.289062 168.628906 C 428.628906 169.378906 428.414062 170.269531 427.769531 170.785156 C 427.132812 171.28125 426.390625 171.621094 425.597656 171.785156 L 421.648438 172.894531 C 420.683594 173.285156 419.617188 173.34375 418.613281 173.0625 C 412.613281 170.511719 420.632812 160.015625 422.835938 157.722656 Z M 422.835938 157.722656 "/>
<path style=" stroke:none;fill-rule:nonzero;fill:rgb(34.509804%,40.392157%,94.117647%);fill-opacity:1;" d="M 399.597656 176.207031 C 401.9375 175.804688 404.152344 174.863281 406.066406 173.457031 C 409.203125 171.375 412.019531 168.851562 414.4375 165.96875 C 418.082031 168.84375 421 172.53125 422.957031 176.738281 C 423.636719 177.691406 423.488281 179.003906 422.605469 179.777344 C 416.910156 186.351562 409.484375 192.398438 400.78125 192.71875 C 396.066406 192.878906 391.457031 191.296875 387.84375 188.265625 C 384.257812 185.230469 377.789062 174.824219 382.890625 170.585938 C 385.59375 168.339844 387.78125 171.195312 389.800781 172.789062 C 392.480469 175.1875 396.007812 176.417969 399.597656 176.207031 Z M 399.597656 176.207031 "/>
<path style=" stroke:none;fill-rule:nonzero;fill:rgb(34.509804%,40.392157%,94.117647%);fill-opacity:1;" d="M 504.148438 101.523438 L 454.136719 101.523438 C 450.707031 101.523438 447.925781 98.742188 447.925781 95.308594 L 447.925781 77.933594 C 447.925781 74.503906 450.707031 71.722656 454.136719 71.722656 L 504.148438 71.722656 C 507.582031 71.722656 510.363281 74.503906 510.363281 77.933594 L 510.363281 95.308594 C 510.363281 98.742188 507.582031 101.523438 504.148438 101.523438 Z M 504.148438 101.523438 "/>
<path style=" stroke:none;fill-rule:nonzero;fill:rgb(34.509804%,40.392157%,94.117647%);fill-opacity:1;" d="M 508.464844 91.632812 L 449.09375 91.632812 C 446.210938 91.632812 443.871094 89.296875 443.871094 86.410156 L 443.871094 86.03125 C 443.871094 83.144531 446.210938 80.804688 449.09375 80.804688 L 508.464844 80.804688 C 511.347656 80.804688 513.6875 83.144531 513.6875 86.03125 L 513.6875 86.410156 C 513.6875 89.296875 511.347656 91.632812 508.464844 91.632812 Z M 508.464844 91.632812 "/>
<path style=" stroke:none;fill-rule:nonzero;fill:rgb(34.509804%,40.392157%,94.117647%);fill-opacity:1;" d="M 421.800781 183.042969 C 421.785156 174.160156 423.925781 165.410156 428.042969 157.539062 L 450.75 100.886719 L 506.292969 100.886719 L 527.402344 160.652344 C 536.535156 181.207031 532.28125 205.246094 516.648438 221.417969 C 501.015625 237.585938 477.132812 242.648438 456.285156 234.214844 C 435.4375 225.777344 421.792969 205.53125 421.800781 183.042969 Z M 421.800781 183.042969 "/>
<use xlink:href="#surface8" mask="url(#mask1)"/>
<path style="fill:none;stroke-width:1.39;stroke-linecap:butt;stroke-linejoin:miter;stroke:rgb(100%,100%,100%);stroke-opacity:1;stroke-miterlimit:10;" d="M 280.000816 71.859477 C 285.350504 83.002985 288.159091 95.198349 288.220818 107.560879 C 288.220818 110.330682 287.819591 113.560833 285.399372 114.939306 C 282.40046 116.590386 278.761129 114.010894 277.14079 111.030205 C 275.018919 107.077385 274.699995 102.404467 276.261178 98.199612 C 278.259595 100.671089 278.78942 103.919243 279.121204 107.038808 C 279.506999 109.335404 279.36554 111.68858 278.709689 113.920882 C 277.920096 116.099177 275.970546 118.020294 273.650633 118.100019 C 270.091032 118.220892 267.778835 114.229495 267.380181 110.680444 C 266.932659 106.637611 267.855994 102.563917 270.001014 99.110021 C 271.533905 103.746934 270.463967 108.849339 267.200143 112.480687 C 266.143065 113.725427 264.72334 114.610118 263.139009 115.008744 C 261.521243 115.384223 259.831461 114.792714 258.800103 113.488824 C 258.31143 112.699288 258.015654 111.806882 257.941067 110.881042 C 256.940572 104.18928 259.31964 97.45894 262.220818 91.350971 C 265.119423 85.24043 268.640444 79.351062 270.350801 72.800747 " transform="matrix(1.51878,0,0,1.518892,60.681763,-9.174106)"/>
<path style=" stroke:none;fill-rule:nonzero;fill:url(#linear5);" d="M 504.148438 101.523438 L 454.136719 101.523438 C 450.707031 101.523438 447.925781 98.742188 447.925781 95.308594 L 447.925781 77.933594 C 447.925781 74.503906 450.707031 71.722656 454.136719 71.722656 L 504.148438 71.722656 C 507.582031 71.722656 510.363281 74.503906 510.363281 77.933594 L 510.363281 95.308594 C 510.363281 98.742188 507.582031 101.523438 504.148438 101.523438 Z M 504.148438 101.523438 "/>
<path style=" stroke:none;fill-rule:nonzero;fill:url(#linear6);" d="M 508.464844 91.632812 L 449.09375 91.632812 C 446.210938 91.632812 443.871094 89.296875 443.871094 86.410156 L 443.871094 86.03125 C 443.871094 83.144531 446.210938 80.804688 449.09375 80.804688 L 508.464844 80.804688 C 511.347656 80.804688 513.6875 83.144531 513.6875 86.03125 L 513.6875 86.410156 C 513.6875 89.296875 511.347656 91.632812 508.464844 91.632812 Z M 508.464844 91.632812 "/>
<path style=" stroke:none;fill-rule:nonzero;fill:rgb(95.294118%,74.117647%,56.078431%);fill-opacity:1;" d="M 374.734375 313.941406 C 374.71875 316.308594 374.523438 318.675781 374.15625 321.019531 C 373.242188 324.835938 372.023438 328.574219 370.511719 332.195312 C 368.582031 338.042969 367.0625 344.015625 365.957031 350.074219 L 357.101562 393.621094 C 356.929688 394.230469 356.929688 394.878906 357.101562 395.488281 C 357.339844 395.988281 357.707031 396.414062 358.164062 396.71875 C 359.597656 397.863281 361.203125 398.769531 362.917969 399.40625 C 363.453125 399.660156 364.058594 399.730469 364.636719 399.605469 C 365.335938 399.269531 365.878906 398.675781 366.152344 397.949219 C 369.523438 392.019531 372.144531 385.691406 373.960938 379.117188 C 383.074219 347.445312 392.839844 328.324219 394.644531 312.695312 C 394.949219 310.15625 397.683594 307.863281 396.347656 305.691406 C 395.539062 304.289062 394.394531 303.105469 393.019531 302.246094 C 389.574219 299.933594 381.75 293.132812 377.164062 295.835938 C 373.109375 298.066406 374.871094 309.867188 374.734375 313.941406 Z M 374.734375 313.941406 "/>
<path style=" stroke:none;fill-rule:nonzero;fill:rgb(95.294118%,74.117647%,56.078431%);fill-opacity:1;" d="M 354.960938 313.164062 C 354.734375 315.125 353.042969 316.582031 351.074219 316.523438 C 330.050781 319.710938 308.074219 320.183594 288.894531 329.324219 C 287.632812 329.796875 286.527344 330.613281 285.703125 331.679688 C 283.925781 334.445312 286.234375 338.226562 285.21875 341.339844 C 297.078125 341.703125 308.894531 339.820312 320.605469 337.90625 L 364.105469 330.859375 C 366.867188 330.40625 369.828125 329.859375 371.789062 327.824219 C 373.230469 326.070312 374.203125 323.980469 374.613281 321.746094 L 378.015625 308.957031 C 378.699219 306.4375 379.335938 303.671875 378.214844 301.363281 C 376.695312 298.097656 372.472656 297.214844 368.871094 297.019531 C 358.179688 296.425781 357.496094 304.8125 354.960938 313.164062 Z M 354.960938 313.164062 "/>
<path style=" stroke:none;fill-rule:nonzero;fill:url(#linear7);" d="M 354.960938 313.164062 C 354.734375 315.125 353.042969 316.582031 351.074219 316.523438 C 330.050781 319.710938 308.074219 320.183594 288.894531 329.324219 C 287.632812 329.796875 286.527344 330.613281 285.703125 331.679688 C 283.925781 334.445312 286.234375 338.226562 285.21875 341.339844 C 297.078125 341.703125 308.894531 339.820312 320.605469 337.90625 L 364.105469 330.859375 C 366.867188 330.40625 369.828125 329.859375 371.789062 327.824219 C 373.230469 326.070312 374.203125 323.980469 374.613281 321.746094 L 378.015625 308.957031 C 378.699219 306.4375 379.335938 303.671875 378.214844 301.363281 C 376.695312 298.097656 372.472656 297.214844 368.871094 297.019531 C 358.179688 296.425781 357.496094 304.8125 354.960938 313.164062 Z M 354.960938 313.164062 "/>
<path style=" stroke:none;fill-rule:nonzero;fill:rgb(95.294118%,74.117647%,56.078431%);fill-opacity:1;" d="M 442.199219 189.875 C 442.519531 189.222656 443.246094 188.480469 443.792969 188.917969 C 444.007812 189.140625 444.132812 189.433594 444.144531 189.738281 L 444.628906 193.019531 C 444.640625 193.238281 444.707031 193.449219 444.828125 193.628906 C 445.207031 194.070312 445.921875 193.78125 446.34375 193.445312 C 449.078125 191.5625 451.566406 189.347656 453.757812 186.855469 C 454.183594 186.367188 454.789062 185.820312 455.398438 186.078125 C 455.703125 186.253906 455.929688 186.535156 456.035156 186.871094 C 456.714844 188.742188 456.878906 190.761719 456.507812 192.71875 C 456.246094 195.140625 455.453125 197.472656 454.183594 199.550781 C 452.898438 201.640625 450.878906 203.171875 448.515625 203.835938 C 446.648438 204.304688 444.597656 204.109375 442.882812 204.988281 C 441.851562 205.519531 440.894531 206.433594 439.738281 206.3125 C 438.3125 206.160156 437.566406 204.519531 437.429688 203.089844 C 437.035156 198.382812 440.210938 193.917969 442.199219 189.875 Z M 442.199219 189.875 "/>
<path style=" stroke:none;fill-rule:nonzero;fill:rgb(24.313725%,24.313725%,32.941176%);fill-opacity:1;" d="M 384.59375 138.660156 C 385.03125 142.972656 385.503906 147.574219 388.265625 150.917969 C 389.40625 152.300781 390.878906 153.394531 391.898438 154.867188 C 392.847656 156.246094 393.351562 157.882812 393.339844 159.558594 C 385.972656 159.226562 378.761719 162.597656 371.410156 161.929688 C 370.867188 157.855469 371.046875 153.714844 371.941406 149.703125 C 373.199219 144.097656 375.890625 138.691406 375.632812 132.996094 C 375.554688 131.109375 375.097656 128.785156 376.285156 127.117188 C 377.269531 125.734375 379.566406 125.003906 380.839844 126.371094 C 381.953125 127.945312 382.777344 129.703125 383.269531 131.566406 C 383.972656 133.875 384.414062 136.253906 384.59375 138.660156 Z M 384.59375 138.660156 "/>
<path style=" stroke:none;fill-rule:nonzero;fill:rgb(34.509804%,40.392157%,94.117647%);fill-opacity:1;" d="M 379.625 162.6875 C 392.625 170.28125 397.851562 198.246094 399.933594 205.125 C 402.914062 215.5625 404.203125 226.40625 403.742188 237.25 C 403.636719 242.019531 403.289062 246.957031 401.191406 251.238281 C 398.304688 257.132812 392.414062 261.128906 386.140625 263.011719 C 379.867188 264.894531 373.1875 264.910156 366.65625 264.53125 C 362.433594 264.300781 357.90625 263.816406 354.703125 261.066406 C 350.328125 257.316406 349.886719 250.828125 349.828125 245.058594 C 349.554688 222.234375 349.78125 199.394531 350.511719 176.539062 C 350.460938 173.097656 350.921875 169.667969 351.878906 166.363281 C 352.863281 163.019531 355.265625 160.273438 358.453125 158.859375 C 364.253906 156.703125 374.21875 159.5 379.625 162.6875 Z M 379.625 162.6875 "/>
<path style=" stroke:none;fill-rule:nonzero;fill:url(#linear8);" d="M 379.625 162.6875 C 392.625 170.28125 397.851562 198.246094 399.933594 205.125 C 402.914062 215.5625 404.203125 226.40625 403.742188 237.25 C 403.636719 242.019531 403.289062 246.957031 401.191406 251.238281 C 398.304688 257.132812 392.414062 261.128906 386.140625 263.011719 C 379.867188 264.894531 373.1875 264.910156 366.65625 264.53125 C 362.433594 264.300781 357.90625 263.816406 354.703125 261.066406 C 350.328125 257.316406 349.886719 250.828125 349.828125 245.058594 C 349.554688 222.234375 349.78125 199.394531 350.511719 176.539062 C 350.460938 173.097656 350.921875 169.667969 351.878906 166.363281 C 352.863281 163.019531 355.265625 160.273438 358.453125 158.859375 C 364.253906 156.703125 374.21875 159.5 379.625 162.6875 Z M 379.625 162.6875 "/>
<path style=" stroke:none;fill-rule:nonzero;fill:rgb(95.294118%,74.117647%,56.078431%);fill-opacity:1;" d="M 384.578125 147.421875 C 384.667969 148.992188 384.171875 150.535156 383.179688 151.753906 C 381.972656 152.726562 380.414062 153.144531 378.882812 152.90625 C 377.375 152.65625 375.851562 152.519531 374.324219 152.496094 C 373.574219 152.402344 372.820312 152.652344 372.277344 153.175781 C 371.734375 153.703125 371.460938 154.449219 371.53125 155.199219 C 371.53125 157.3125 372.425781 159.332031 372.410156 161.441406 C 372.394531 163.554688 370.785156 166 368.722656 165.542969 C 367.726562 165.238281 366.882812 164.566406 366.367188 163.660156 C 363.433594 159.390625 363.253906 153.804688 361.019531 149.109375 C 359.714844 146.359375 357.710938 143.945312 356.753906 141.042969 C 355.292969 136.0625 356.871094 130.683594 360.792969 127.28125 C 364.636719 123.957031 373.503906 121.464844 377.652344 125.628906 C 382.859375 130.867188 384.851562 140.332031 384.578125 147.421875 Z M 384.578125 147.421875 "/>
<path style=" stroke:none;fill-rule:nonzero;fill:rgb(24.313725%,24.313725%,32.941176%);fill-opacity:1;" d="M 376.164062 117.773438 C 377.175781 118.140625 378.132812 118.652344 379.003906 119.292969 C 381.066406 121.183594 382.523438 123.640625 383.195312 126.355469 L 372.382812 132.144531 C 372.058594 132.359375 371.675781 132.464844 371.289062 132.449219 C 370.511719 132.3125 370.148438 131.230469 369.375 131.1875 C 369.746094 131.816406 370.035156 132.488281 370.238281 133.191406 L 366.015625 136.230469 C 365.542969 136.515625 365.128906 136.886719 364.785156 137.324219 C 364.324219 138.171875 364.132812 139.140625 364.242188 140.101562 C 364.6875 148.203125 365.921875 156.242188 367.929688 164.101562 C 366.320312 164.996094 364.53125 165.515625 362.691406 165.621094 C 355.738281 166.683594 348.976562 168.730469 342.597656 171.695312 C 342.550781 169.515625 342.21875 167.351562 341.609375 165.253906 C 340.957031 163.578125 340.554688 161.8125 340.425781 160.015625 C 340.640625 157.976562 341.265625 156.003906 342.261719 154.214844 C 343.449219 151.601562 344.449219 148.914062 345.453125 146.222656 C 346.195312 144.429688 346.707031 142.542969 346.972656 140.617188 C 347.007812 138.132812 346.792969 135.648438 346.332031 133.207031 C 345.886719 130.734375 346.371094 128.183594 347.699219 126.054688 C 349.871094 123.136719 354.019531 122.332031 356.980469 120.464844 C 360.511719 117.996094 364.6875 116.621094 368.992188 116.5 C 371.441406 116.464844 373.875 116.898438 376.164062 117.773438 Z M 376.164062 117.773438 "/>
<path style=" stroke:none;fill-rule:nonzero;fill:rgb(34.509804%,40.392157%,94.117647%);fill-opacity:1;" d="M 384.046875 222.578125 C 387.082031 225.617188 400.917969 228.746094 405.839844 228.652344 C 418.566406 228.652344 445.085938 212.886719 444.628906 211.75 L 436.839844 192.625 C 430.261719 196.941406 423.382812 201.101562 415.679688 202.664062 C 407.980469 204.230469 399.25 202.757812 393.796875 197.105469 C 389.90625 193.066406 388.128906 187.476562 384.988281 182.84375 C 381.84375 178.210938 376.027344 174.308594 370.847656 176.433594 C 364.027344 179.230469 362.464844 190.453125 364.910156 196.421875 C 368.828125 206.097656 376.816406 215.304688 384.046875 222.578125 Z M 384.046875 222.578125 "/>
<path style=" stroke:none;fill-rule:nonzero;fill:rgb(24.313725%,24.313725%,32.941176%);fill-opacity:1;" d="M 342.25 299.359375 C 341.746094 300.878906 341.183594 302.394531 340.609375 303.914062 C 338.96875 308.0625 337.359375 313.605469 340.898438 316.324219 C 342.140625 317.164062 343.589844 317.644531 345.089844 317.722656 C 350.070312 318.285156 355.113281 317.328125 360.125 317.433594 C 371.074219 317.644531 381.265625 322.824219 390.742188 328.308594 C 392.738281 329.621094 394.941406 330.585938 397.257812 331.164062 C 399.625 331.71875 402.105469 330.972656 403.773438 329.203125 C 405.292969 327.304688 405.292969 324.648438 405.140625 322.15625 L 402.785156 276.589844 C 402.5 271.015625 404.304688 253.65625 397.667969 252.089844 C 393.445312 251.089844 386.914062 253.152344 382.480469 253.441406 C 377.148438 253.808594 371.847656 253.957031 366.441406 253.945312 C 363.78125 254.019531 361.121094 253.71875 358.542969 253.046875 C 357.027344 252.5625 352.042969 249.8125 350.359375 250.191406 C 345.210938 251.40625 347.414062 268.328125 347.246094 272.308594 C 346.871094 281.515625 345.1875 290.625 342.25 299.359375 Z M 342.25 299.359375 "/>
<path style=" stroke:none;fill-rule:nonzero;fill:url(#linear9);" d="M 342.25 299.359375 C 341.746094 300.878906 341.183594 302.394531 340.609375 303.914062 C 338.96875 308.0625 337.359375 313.605469 340.898438 316.324219 C 342.140625 317.164062 343.589844 317.644531 345.089844 317.722656 C 350.070312 318.285156 355.113281 317.328125 360.125 317.433594 C 371.074219 317.644531 381.265625 322.824219 390.742188 328.308594 C 392.738281 329.621094 394.941406 330.585938 397.257812 331.164062 C 399.625 331.71875 402.105469 330.972656 403.773438 329.203125 C 405.292969 327.304688 405.292969 324.648438 405.140625 322.15625 L 402.785156 276.589844 C 402.5 271.015625 404.304688 253.65625 397.667969 252.089844 C 393.445312 251.089844 386.914062 253.152344 382.480469 253.441406 C 377.148438 253.808594 371.847656 253.957031 366.441406 253.945312 C 363.78125 254.019531 361.121094 253.71875 358.542969 253.046875 C 357.027344 252.5625 352.042969 249.8125 350.359375 250.191406 C 345.210938 251.40625 347.414062 268.328125 347.246094 272.308594 C 346.871094 281.515625 345.1875 290.625 342.25 299.359375 Z M 342.25 299.359375 "/>
<path style=" stroke:none;fill-rule:nonzero;fill:rgb(34.509804%,40.392157%,94.117647%);fill-opacity:1;" d="M 278.261719 329.917969 C 277.035156 329.96875 275.863281 330.445312 274.953125 331.269531 C 274.15625 332.449219 273.835938 333.886719 274.054688 335.296875 C 274.496094 346.503906 275.710938 357.667969 277.683594 368.710938 C 277.929688 370.078125 278.382812 371.75 279.703125 372.113281 C 281.632812 372.75 283.105469 370.382812 283.773438 368.46875 L 292.339844 343.664062 C 292.6875 342.882812 292.808594 342.019531 292.691406 341.171875 C 292.355469 339.792969 290.835938 339.078125 289.925781 337.96875 C 288.179688 335.796875 289.347656 332.074219 287.164062 330.296875 C 285.21875 328.71875 280.480469 329.628906 278.261719 329.917969 Z M 278.261719 329.917969 "/>
<path style=" stroke:none;fill-rule:nonzero;fill:rgb(34.509804%,40.392157%,94.117647%);fill-opacity:1;" d="M 349.144531 398.921875 C 348.355469 399.867188 347.925781 401.0625 347.929688 402.292969 C 348.273438 403.671875 349.125 404.871094 350.3125 405.652344 C 358.921875 412.855469 368.019531 419.453125 377.542969 425.394531 C 378.730469 426.125 380.21875 426.914062 381.417969 426.1875 C 383.195312 425.167969 382.421875 422.496094 381.417969 420.71875 L 368.734375 397.738281 C 368.421875 396.964844 367.894531 396.296875 367.21875 395.808594 C 365.957031 395.125 364.40625 395.808594 362.980469 395.703125 C 360.183594 395.550781 358.210938 392.191406 355.386719 392.664062 C 352.910156 392.953125 350.417969 397.082031 349.144531 398.921875 Z M 349.144531 398.921875 "/>
<path style=" stroke:none;fill-rule:nonzero;fill:url(#linear10);" d="M 278.261719 329.917969 C 277.035156 329.96875 275.863281 330.445312 274.953125 331.269531 C 274.15625 332.449219 273.835938 333.886719 274.054688 335.296875 C 274.496094 346.503906 275.710938 357.667969 277.683594 368.710938 C 277.929688 370.078125 278.382812 371.75 279.703125 372.113281 C 281.632812 372.75 283.105469 370.382812 283.773438 368.46875 L 292.339844 343.664062 C 292.6875 342.882812 292.808594 342.019531 292.691406 341.171875 C 292.355469 339.792969 290.835938 339.078125 289.925781 337.96875 C 288.179688 335.796875 289.347656 332.074219 287.164062 330.296875 C 285.21875 328.71875 280.480469 329.628906 278.261719 329.917969 Z M 278.261719 329.917969 "/>
<path style=" stroke:none;fill-rule:nonzero;fill:url(#linear11);" d="M 349.144531 398.921875 C 348.355469 399.867188 347.925781 401.0625 347.929688 402.292969 C 348.273438 403.671875 349.125 404.871094 350.3125 405.652344 C 358.921875 412.855469 368.019531 419.453125 377.542969 425.394531 C 378.730469 426.125 380.21875 426.914062 381.417969 426.1875 C 383.195312 425.167969 382.421875 422.496094 381.417969 420.71875 L 368.734375 397.738281 C 368.421875 396.964844 367.894531 396.296875 367.21875 395.808594 C 365.957031 395.125 364.40625 395.808594 362.980469 395.703125 C 360.183594 395.550781 358.210938 392.191406 355.386719 392.664062 C 352.910156 392.953125 350.417969 397.082031 349.144531 398.921875 Z M 349.144531 398.921875 "/>
<path style=" stroke:none;fill-rule:nonzero;fill:rgb(34.509804%,40.392157%,94.117647%);fill-opacity:1;" d="M 294.222656 426.398438 L 390.378906 426.398438 C 393.859375 426.398438 396.679688 429.21875 396.679688 432.695312 C 396.679688 436.171875 393.859375 438.988281 390.378906 438.988281 L 294.222656 438.988281 C 290.742188 438.988281 287.921875 436.171875 287.921875 432.695312 C 287.921875 429.21875 290.742188 426.398438 294.222656 426.398438 Z M 294.222656 426.398438 "/>
<path style=" stroke:none;fill-rule:nonzero;fill:rgb(34.509804%,40.392157%,94.117647%);fill-opacity:1;" d="M 277.046875 488.792969 L 373.199219 488.792969 C 376.683594 488.792969 379.503906 491.613281 379.503906 495.089844 C 379.503906 498.566406 376.683594 501.386719 373.199219 501.386719 L 277.046875 501.386719 C 273.566406 501.386719 270.746094 498.566406 270.746094 495.089844 C 270.746094 491.613281 273.566406 488.792969 277.046875 488.792969 Z M 277.046875 488.792969 "/>
<path style=" stroke:none;fill-rule:nonzero;fill:rgb(34.509804%,40.392157%,94.117647%);fill-opacity:1;" d="M 259.886719 551.191406 L 356.039062 551.191406 C 359.519531 551.191406 362.34375 554.007812 362.34375 557.488281 C 362.34375 560.964844 359.519531 563.78125 356.039062 563.78125 L 259.886719 563.78125 C 256.402344 563.78125 253.582031 560.964844 253.582031 557.488281 C 253.582031 554.007812 256.402344 551.191406 259.886719 551.191406 Z M 259.886719 551.191406 "/>
<path style=" stroke:none;fill-rule:nonzero;fill:rgb(34.509804%,40.392157%,94.117647%);fill-opacity:1;" d="M 265.125 602.242188 L 249.664062 602.242188 L 291.734375 431.367188 L 307.195312 431.367188 Z M 265.125 602.242188 "/>
<path style=" stroke:none;fill-rule:nonzero;fill:rgb(34.509804%,40.392157%,94.117647%);fill-opacity:1;" d="M 350.980469 602.242188 L 335.535156 602.242188 L 377.605469 431.367188 L 393.050781 431.367188 Z M 350.980469 602.242188 "/>
<path style=" stroke:none;fill-rule:nonzero;fill:rgb(34.509804%,40.392157%,94.117647%);fill-opacity:1;" d="M 478.347656 2.644531 L 478.347656 71.859375 L 474.914062 71.859375 L 474.914062 2.066406 Z M 478.347656 2.644531 "/>
</g>
</svg>
