<?xml version="1.0" encoding="UTF-8"?>
<svg xmlns="http://www.w3.org/2000/svg" xmlns:xlink="http://www.w3.org/1999/xlink" width="406pt" height="306pt" viewBox="0 0 406 306" version="1.1">
<defs>
<filter id="alpha" filterUnits="objectBoundingBox" x="0%" y="0%" width="100%" height="100%">
  <feColorMatrix type="matrix" in="SourceGraphic" values="0 0 0 0 1 0 0 0 0 1 0 0 0 0 1 0 0 0 1 0"/>
</filter>
<mask id="mask0">
  <g filter="url(#alpha)">
<rect x="0" y="0" width="406" height="306" style="fill:rgb(0%,0%,0%);fill-opacity:0.321569;stroke:none;"/>
  </g>
</mask>
<linearGradient id="linear0" gradientUnits="userSpaceOnUse" x1="100.93" y1="145.42" x2="112.33" y2="139.89" gradientTransform="matrix(1.015,0,0,1.015,0,0.75)">
<stop offset="0" style="stop-color:rgb(100%,100%,100%);stop-opacity:0;"/>
<stop offset="1" style="stop-color:rgb(83.137255%,20.784314%,0%);stop-opacity:1;"/>
</linearGradient>
<clipPath id="clip1">
  <rect x="0" y="0" width="406" height="306"/>
</clipPath>
<g id="surface5" clip-path="url(#clip1)">
<path style=" stroke:none;fill-rule:nonzero;fill:url(#linear0);" d="M 149.742188 137.085938 L 97.867188 165.617188 L 69.964844 149.609375 L 123.007812 123.332031 "/>
</g>
<mask id="mask1">
  <g filter="url(#alpha)">
<rect x="0" y="0" width="406" height="306" style="fill:rgb(0%,0%,0%);fill-opacity:0.321569;stroke:none;"/>
  </g>
</mask>
<linearGradient id="linear1" gradientUnits="userSpaceOnUse" x1="160.01" y1="231.24" x2="175.78" y2="208.81" gradientTransform="matrix(1.015,0,0,1.015,0,0.75)">
<stop offset="0" style="stop-color:rgb(100%,100%,100%);stop-opacity:0;"/>
<stop offset="1" style="stop-color:rgb(83.137255%,20.784314%,0%);stop-opacity:1;"/>
</linearGradient>
<clipPath id="clip2">
  <rect x="0" y="0" width="406" height="306"/>
</clipPath>
<g id="surface8" clip-path="url(#clip2)">
<path style=" stroke:none;fill-rule:nonzero;fill:url(#linear1);" d="M 214.277344 212.8125 L 162.5 246.21875 L 132.84375 226.394531 L 185.898438 200.117188 "/>
</g>
<mask id="mask2">
  <g filter="url(#alpha)">
<rect x="0" y="0" width="406" height="306" style="fill:rgb(0%,0%,0%);fill-opacity:0.321569;stroke:none;"/>
  </g>
</mask>
<linearGradient id="linear2" gradientUnits="userSpaceOnUse" x1="43.73" y1="205.93" x2="64.5" y2="176.39" gradientTransform="matrix(1.015,0,0,1.015,0,0.75)">
<stop offset="0" style="stop-color:rgb(100%,100%,100%);stop-opacity:0;"/>
<stop offset="1" style="stop-color:rgb(83.137255%,20.784314%,0%);stop-opacity:1;"/>
</linearGradient>
<clipPath id="clip3">
  <rect x="0" y="0" width="406" height="306"/>
</clipPath>
<g id="surface11" clip-path="url(#clip3)">
<path style=" stroke:none;fill-rule:nonzero;fill:url(#linear2);" d="M 37.789062 179.144531 C 41.335938 180.929688 44.773438 182.914062 48.089844 185.09375 C 53.339844 188.585938 61.175781 191.316406 66.015625 195.347656 L 103.753906 173.644531 L 52.78125 165.433594 L 33.6875 176.679688 C 35.066406 177.484375 36.433594 178.308594 37.789062 179.144531 Z M 37.789062 179.144531 "/>
</g>
<mask id="mask3">
  <g filter="url(#alpha)">
<rect x="0" y="0" width="406" height="306" style="fill:rgb(0%,0%,0%);fill-opacity:0.321569;stroke:none;"/>
  </g>
</mask>
<linearGradient id="linear3" gradientUnits="userSpaceOnUse" x1="274.88" y1="241.16" x2="295.99" y2="211.13" gradientTransform="matrix(1.015,0,0,1.015,-0.35525,1.2169)">
<stop offset="0" style="stop-color:rgb(100%,100%,100%);stop-opacity:0;"/>
<stop offset="1" style="stop-color:rgb(83.137255%,20.784314%,0%);stop-opacity:1;"/>
</linearGradient>
<clipPath id="clip4">
  <rect x="0" y="0" width="406" height="306"/>
</clipPath>
<g id="surface14" clip-path="url(#clip4)">
<path style=" stroke:none;fill-rule:nonzero;fill:url(#linear3);" d="M 303.484375 208.136719 L 247.84375 239.40625 L 267.789062 250.816406 L 339.921875 209.199219 C 339.921875 209.199219 328.503906 204.035156 321.320312 203.566406 C 314.132812 203.101562 303.484375 208.136719 303.484375 208.136719 "/>
</g>
<mask id="mask4">
  <g filter="url(#alpha)">
<rect x="0" y="0" width="406" height="306" style="fill:rgb(0%,0%,0%);fill-opacity:0.321569;stroke:none;"/>
  </g>
</mask>
<linearGradient id="linear4" gradientUnits="userSpaceOnUse" x1="208.13" y1="181.67" x2="228.44" y2="152.78" gradientTransform="matrix(1.015,0,0,1.015,0,0.75)">
<stop offset="0" style="stop-color:rgb(100%,100%,100%);stop-opacity:0;"/>
<stop offset="1" style="stop-color:rgb(83.137255%,20.784314%,0%);stop-opacity:1;"/>
</linearGradient>
<clipPath id="clip5">
  <rect x="0" y="0" width="406" height="306"/>
</clipPath>
<g id="surface17" clip-path="url(#clip5)">
<path style=" stroke:none;fill-rule:nonzero;fill:url(#linear4);" d="M 311.695312 179.632812 L 251.183594 215.179688 L 139.523438 149.8125 L 184.609375 127.484375 "/>
</g>
<mask id="mask5">
  <g filter="url(#alpha)">
<rect x="0" y="0" width="406" height="306" style="fill:rgb(0%,0%,0%);fill-opacity:0.611765;stroke:none;"/>
  </g>
</mask>
<clipPath id="clip6">
  <rect x="0" y="0" width="406" height="306"/>
</clipPath>
<g id="surface20" clip-path="url(#clip6)">
<path style=" stroke:none;fill-rule:nonzero;fill:rgb(0%,0%,0%);fill-opacity:1;" d="M 201.851562 88.546875 L 201.851562 150.410156 L 233.96875 132.109375 L 233.96875 70.175781 Z M 201.851562 88.546875 "/>
</g>
<mask id="mask6">
  <g filter="url(#alpha)">
<rect x="0" y="0" width="406" height="306" style="fill:rgb(0%,0%,0%);fill-opacity:0.839216;stroke:none;"/>
  </g>
</mask>
<clipPath id="clip7">
  <rect x="0" y="0" width="406" height="306"/>
</clipPath>
<g id="surface23" clip-path="url(#clip7)">
<path style=" stroke:none;fill-rule:nonzero;fill:rgb(0%,0%,0%);fill-opacity:1;" d="M 173.464844 72.589844 L 205.800781 53.914062 L 233.96875 70.175781 L 201.851562 88.546875 Z M 173.464844 72.589844 "/>
</g>
<mask id="mask7">
  <g filter="url(#alpha)">
<rect x="0" y="0" width="406" height="306" style="fill:rgb(0%,0%,0%);fill-opacity:0.839216;stroke:none;"/>
  </g>
</mask>
<clipPath id="clip8">
  <rect x="0" y="0" width="406" height="306"/>
</clipPath>
<g id="surface26" clip-path="url(#clip8)">
<path style=" stroke:none;fill-rule:nonzero;fill:rgb(0%,0%,0%);fill-opacity:1;" d="M 181.421875 84.285156 L 193.976562 91.449219 C 195.367188 92.242188 196.222656 93.71875 196.21875 95.316406 L 196.21875 98.636719 C 196.25 99.75 195.675781 100.789062 194.714844 101.351562 C 193.753906 101.914062 192.566406 101.90625 191.613281 101.335938 L 179.105469 94.34375 C 177.679688 93.542969 176.792969 92.03125 176.792969 90.394531 L 176.792969 87.023438 C 176.773438 85.914062 177.355469 84.875 178.3125 84.308594 C 179.269531 83.742188 180.453125 83.734375 181.421875 84.285156 Z M 181.421875 84.285156 "/>
</g>
<mask id="mask8">
  <g filter="url(#alpha)">
<rect x="0" y="0" width="406" height="306" style="fill:rgb(0%,0%,0%);fill-opacity:0.611765;stroke:none;"/>
  </g>
</mask>
<clipPath id="clip9">
  <rect x="0" y="0" width="406" height="306"/>
</clipPath>
<g id="surface29" clip-path="url(#clip9)">
<path style=" stroke:none;fill-rule:nonzero;fill:rgb(0%,0%,0%);fill-opacity:1;" d="M 107.285156 105.316406 L 122.734375 115.027344 L 122.734375 151.800781 L 107.125 142.910156 Z M 107.285156 105.316406 "/>
</g>
<mask id="mask9">
  <g filter="url(#alpha)">
<rect x="0" y="0" width="406" height="306" style="fill:rgb(0%,0%,0%);fill-opacity:0.611765;stroke:none;"/>
  </g>
</mask>
<clipPath id="clip10">
  <rect x="0" y="0" width="406" height="306"/>
</clipPath>
<g id="surface32" clip-path="url(#clip10)">
<path style=" stroke:none;fill-rule:nonzero;fill:rgb(0%,0%,0%);fill-opacity:1;" d="M 122.734375 115.027344 L 113.871094 90.425781 L 107.285156 105.316406 Z M 122.734375 115.027344 "/>
</g>
</defs>
<g id="surface1">
<path style=" stroke:none;fill-rule:nonzero;fill:rgb(93.72549%,86.666667%,84.705882%);fill-opacity:1;" d="M 22.949219 170.710938 L 219.890625 283.386719 L 364.851562 200.359375 L 167.617188 84.761719 Z M 22.949219 170.710938 "/>
<use xlink:href="#surface5" mask="url(#mask0)"/>
<use xlink:href="#surface8" mask="url(#mask1)"/>
<use xlink:href="#surface11" mask="url(#mask2)"/>
<use xlink:href="#surface14" mask="url(#mask3)"/>
<use xlink:href="#surface17" mask="url(#mask4)"/>
<path style=" stroke:none;fill-rule:nonzero;fill:rgb(34.509804%,40.392157%,94.117647%);fill-opacity:1;" d="M 229.683594 31.28125 L 211.007812 20.777344 C 209.964844 20.191406 208.691406 20.207031 207.664062 20.808594 C 206.632812 21.410156 205.996094 22.515625 205.996094 23.710938 L 205.996094 55.683594 L 234.019531 72.53125 L 234.019531 38.691406 C 234.019531 35.617188 232.363281 32.785156 229.683594 31.28125 Z M 229.683594 31.28125 "/>
<path style=" stroke:none;fill-rule:nonzero;fill:rgb(34.509804%,40.392157%,94.117647%);fill-opacity:1;" d="M 173.464844 72.589844 L 173.464844 133.90625 L 201.851562 150.410156 L 233.96875 131.554688 L 233.96875 70.175781 "/>
<use xlink:href="#surface20" mask="url(#mask5)"/>
<path style=" stroke:none;fill-rule:nonzero;fill:rgb(34.509804%,40.392157%,94.117647%);fill-opacity:1;" d="M 173.464844 72.589844 L 205.800781 53.914062 L 233.96875 70.175781 L 201.851562 88.546875 Z M 173.464844 72.589844 "/>
<path style=" stroke:none;fill-rule:nonzero;fill:rgb(34.509804%,40.392157%,94.117647%);fill-opacity:1;" d="M 181.421875 84.285156 L 193.976562 91.449219 C 195.367188 92.242188 196.222656 93.71875 196.21875 95.316406 L 196.21875 98.636719 C 196.25 99.75 195.675781 100.789062 194.714844 101.351562 C 193.753906 101.914062 192.566406 101.90625 191.613281 101.335938 L 179.105469 94.34375 C 177.679688 93.542969 176.792969 92.03125 176.792969 90.394531 L 176.792969 87.023438 C 176.773438 85.914062 177.355469 84.875 178.3125 84.308594 C 179.269531 83.742188 180.453125 83.734375 181.421875 84.285156 Z M 181.421875 84.285156 "/>
<use xlink:href="#surface23" mask="url(#mask6)"/>
<use xlink:href="#surface26" mask="url(#mask7)"/>
<path style=" stroke:none;fill-rule:nonzero;fill:rgb(100%,68.627451%,11.372549%);fill-opacity:1;" d="M 265.929688 54.445312 L 247.253906 43.9375 C 246.210938 43.355469 244.9375 43.367188 243.90625 43.972656 C 242.878906 44.574219 242.242188 45.675781 242.238281 46.871094 L 242.238281 78.84375 L 270.265625 95.691406 L 270.265625 61.851562 C 270.265625 58.78125 268.609375 55.949219 265.929688 54.445312 Z M 265.929688 54.445312 "/>
<path style=" stroke:none;fill-rule:nonzero;fill:rgb(100%,68.627451%,11.372549%);fill-opacity:1;" d="M 209.738281 95.753906 L 209.738281 157.070312 L 238.140625 173.574219 L 270.253906 154.707031 L 270.253906 93.339844 "/>
<path style=" stroke:none;fill-rule:nonzero;fill:rgb(87.843137%,55.294118%,2.745098%);fill-opacity:1;" d="M 238.140625 111.710938 L 238.140625 173.574219 L 270.253906 155.273438 L 270.253906 93.339844 Z M 238.140625 111.710938 "/>
<path style=" stroke:none;fill-rule:nonzero;fill:rgb(33.72549%,20.392157%,1.568627%);fill-opacity:1;" d="M 209.738281 95.753906 L 242.085938 77.078125 L 270.253906 93.339844 L 238.140625 111.710938 Z M 209.738281 95.753906 "/>
<path style=" stroke:none;fill-rule:nonzero;fill:rgb(33.72549%,20.392157%,1.568627%);fill-opacity:1;" d="M 217.695312 107.445312 L 230.253906 114.613281 C 231.640625 115.40625 232.496094 116.882812 232.496094 118.480469 L 232.496094 121.800781 C 232.527344 122.910156 231.949219 123.953125 230.992188 124.511719 C 230.03125 125.074219 228.84375 125.070312 227.886719 124.5 L 215.382812 117.476562 C 213.953125 116.675781 213.070312 115.164062 213.070312 113.527344 L 213.070312 110.105469 C 213.078125 109.007812 213.671875 108 214.621094 107.453125 C 215.574219 106.90625 216.742188 106.902344 217.695312 107.445312 Z M 217.695312 107.445312 "/>
<path style=" stroke:none;fill-rule:nonzero;fill:rgb(54.509804%,82.745098%,27.45098%);fill-opacity:1;" d="M 307.414062 79.363281 L 288.738281 68.855469 C 287.691406 68.269531 286.414062 68.277344 285.378906 68.882812 C 284.34375 69.492188 283.710938 70.601562 283.710938 71.800781 L 283.710938 103.773438 L 311.738281 120.621094 L 311.738281 86.769531 C 311.738281 83.703125 310.085938 80.867188 307.414062 79.363281 Z M 307.414062 79.363281 "/>
<path style=" stroke:none;fill-rule:nonzero;fill:rgb(54.509804%,82.745098%,27.45098%);fill-opacity:1;" d="M 251.183594 120.671875 L 251.183594 181.988281 L 279.570312 198.492188 L 311.695312 179.632812 L 311.695312 118.257812 "/>
<path style=" stroke:none;fill-rule:nonzero;fill:rgb(44.705882%,69.803922%,18.431373%);fill-opacity:1;" d="M 279.570312 136.628906 L 279.570312 198.492188 L 311.695312 180.191406 L 311.695312 118.257812 Z M 279.570312 136.628906 "/>
<path style=" stroke:none;fill-rule:nonzero;fill:rgb(21.568627%,33.72549%,7.45098%);fill-opacity:1;" d="M 251.183594 120.671875 L 283.53125 101.996094 L 311.695312 118.257812 L 279.570312 136.628906 Z M 251.183594 120.671875 "/>
<path style=" stroke:none;fill-rule:nonzero;fill:rgb(21.568627%,33.72549%,7.45098%);fill-opacity:1;" d="M 259.140625 132.363281 L 271.695312 139.53125 C 273.082031 140.324219 273.941406 141.800781 273.9375 143.398438 L 273.9375 146.71875 C 273.96875 147.828125 273.394531 148.871094 272.433594 149.433594 C 271.472656 149.992188 270.285156 149.988281 269.332031 149.417969 L 256.796875 142.421875 C 255.367188 141.625 254.480469 140.113281 254.480469 138.476562 L 254.480469 135.054688 C 254.472656 133.941406 255.066406 132.914062 256.027344 132.355469 C 256.992188 131.800781 258.179688 131.804688 259.140625 132.363281 Z M 259.140625 132.363281 "/>
<path style=" stroke:none;fill-rule:nonzero;fill:rgb(34.509804%,40.392157%,94.117647%);fill-opacity:1;" d="M 122.734375 151.800781 L 149.742188 137.085938 L 150.015625 97.011719 L 144.707031 73.820312 L 113.871094 90.425781 L 107.285156 105.316406 L 107.285156 142.910156 L 122.144531 151.46875 "/>
<use xlink:href="#surface29" mask="url(#mask8)"/>
<use xlink:href="#surface32" mask="url(#mask9)"/>
<path style=" stroke:none;fill-rule:nonzero;fill:rgb(100%,100%,100%);fill-opacity:1;" d="M 128.652344 116.257812 L 145.742188 106.5625 L 145.742188 130.46875 L 128.652344 140.496094 Z M 128.652344 116.257812 "/>
<path style=" stroke:none;fill-rule:nonzero;fill:rgb(92.54902%,62.745098%,8.627451%);fill-opacity:1;" d="M 76.664062 189.761719 L 76.664062 159.089844 L 49.167969 143.683594 L 49.167969 174.132812 Z M 76.664062 189.761719 "/>
<path style=" stroke:none;fill-rule:nonzero;fill:rgb(100%,71.764706%,18.431373%);fill-opacity:1;" d="M 76.664062 159.089844 L 103.417969 143.734375 C 103.417969 143.734375 104.160156 174.699219 103.417969 175.199219 C 102.675781 175.695312 76.664062 189.8125 76.664062 189.8125 Z M 76.664062 159.089844 "/>
<path style=" stroke:none;fill-rule:nonzero;fill:rgb(87.843137%,55.294118%,2.745098%);fill-opacity:1;" d="M 103.417969 143.683594 L 76.664062 127.332031 L 49.167969 143.683594 L 76.664062 159.039062 Z M 103.417969 143.683594 "/>
<path style=" stroke:none;fill-rule:nonzero;fill:rgb(100%,71.764706%,18.431373%);fill-opacity:1;" d="M 49.167969 143.683594 L 39.230469 126.4375 L 67.394531 109.871094 L 76.664062 127.332031 Z M 49.167969 143.683594 "/>
<path style=" stroke:none;fill-rule:nonzero;fill:rgb(92.54902%,62.745098%,8.627451%);fill-opacity:1;" d="M 103.417969 143.683594 L 110.675781 128.183594 L 81.078125 144.300781 L 76.664062 159.039062 Z M 103.417969 143.683594 "/>
<path style=" stroke:none;fill-rule:nonzero;fill:rgb(11.764706%,17.647059%,3.529412%);fill-opacity:1;" d="M 251.183594 120.671875 L 283.53125 101.996094 L 283.53125 134.363281 L 279.570312 136.628906 Z M 251.183594 120.671875 "/>
<path style=" stroke:none;fill-rule:nonzero;fill:rgb(92.54902%,62.745098%,8.627451%);fill-opacity:1;" d="M 215.574219 110.703125 L 222.996094 90.75 L 208.835938 74.132812 L 201.476562 93.925781 Z M 215.574219 110.703125 "/>
<path style=" stroke:none;fill-rule:nonzero;fill:rgb(100%,71.764706%,18.431373%);fill-opacity:1;" d="M 222.984375 90.75 L 244.078125 87.226562 C 244.078125 87.226562 237.082031 107.527344 236.484375 107.671875 C 235.886719 107.8125 215.574219 110.714844 215.574219 110.714844 Z M 222.984375 90.75 "/>
<path style=" stroke:none;fill-rule:nonzero;fill:rgb(100%,78.431373%,38.823529%);fill-opacity:1;" d="M 244.078125 87.226562 L 230.648438 70.144531 L 208.835938 74.132812 L 222.984375 90.75 Z M 244.078125 87.226562 "/>
<path style=" stroke:none;fill-rule:nonzero;fill:rgb(99.215686%,92.941176%,79.607843%);fill-opacity:1;" d="M 238.960938 80.722656 L 217.179688 83.929688 L 213.3125 94.34375 L 209.078125 89.785156 L 213.058594 79.085938 L 234.941406 75.605469 Z M 238.960938 80.722656 "/>
<path style=" stroke:none;fill-rule:nonzero;fill:rgb(92.941176%,52.156863%,37.647059%);fill-opacity:1;" d="M 326.578125 137.46875 C 326.578125 137.46875 325.042969 141.15625 327.9375 143.175781 C 328.320312 143.449219 327.804688 145.203125 327.734375 145.550781 C 326.78125 150.007812 325.5 154.386719 323.898438 158.652344 C 322.433594 162.714844 320.636719 166.773438 320.355469 171.179688 C 320.132812 174.597656 320.019531 178.03125 319.9375 181.460938 C 319.785156 188.128906 319.785156 194.796875 319.847656 201.464844 C 319.847656 203.035156 319.867188 204.609375 319.90625 206.1875 C 319.96875 208.550781 320.921875 211.605469 330.605469 212.277344 C 340.289062 212.945312 342.054688 205.34375 342.054688 205.34375 C 342.167969 201.609375 342.226562 197.875 342.277344 194.179688 C 342.359375 187.367188 342.398438 180.535156 342.125 173.726562 C 342.003906 170.601562 342.195312 170.488281 341.464844 167.445312 C 341.210938 166.257812 340.871094 165.089844 340.453125 163.953125 C 339.800781 161.789062 337.089844 151.265625 336.917969 149.019531 C 336.765625 146.992188 336.625 144.878906 336.523438 142.800781 C 336.523438 142.800781 339.089844 141.257812 337.417969 137.5 "/>
<path style=" stroke:none;fill-rule:nonzero;fill:rgb(40.392157%,25.490196%,18.039216%);fill-opacity:1;" d="M 337.417969 137.46875 C 337.417969 135.972656 334.988281 134.761719 331.996094 134.761719 C 329.003906 134.761719 326.578125 135.972656 326.578125 137.46875 C 326.578125 138.96875 329.003906 140.179688 331.996094 140.179688 C 334.988281 140.179688 337.417969 138.96875 337.417969 137.46875 Z M 337.417969 137.46875 "/>
<path style=" stroke:none;fill-rule:nonzero;fill:rgb(99.607843%,99.607843%,99.607843%);fill-opacity:1;" d="M 323.023438 172.375 L 323.023438 188.617188 C 323.023438 191.152344 326.972656 191.164062 326.972656 188.617188 L 326.972656 172.375 C 326.972656 169.839844 323.023438 169.839844 323.023438 172.375 Z M 323.023438 172.375 "/>
<path style=" stroke:none;fill-rule:nonzero;fill:rgb(99.607843%,99.607843%,99.607843%);fill-opacity:1;" d="M 325.246094 192.117188 C 322.710938 192.117188 322.699219 196.066406 325.246094 196.066406 C 327.792969 196.066406 327.785156 192.117188 325.246094 192.117188 Z M 325.246094 192.117188 "/>
<path style=" stroke:none;fill-rule:nonzero;fill:rgb(92.941176%,52.156863%,37.647059%);fill-opacity:1;" d="M 304.398438 171.554688 C 304.398438 171.554688 303.445312 173.859375 305.25 175.117188 C 305.496094 175.289062 305.167969 176.394531 305.128906 176.597656 C 304.535156 179.382812 303.734375 182.117188 302.734375 184.78125 C 301.820312 187.328125 300.703125 189.855469 300.519531 192.605469 C 300.378906 194.746094 300.308594 196.886719 300.265625 199.03125 C 300.175781 203.191406 300.175781 207.363281 300.207031 211.535156 C 300.207031 212.515625 300.207031 213.496094 300.207031 214.480469 C 300.207031 215.949219 300.824219 217.859375 306.886719 218.304688 C 312.945312 218.75 313.992188 213.941406 313.992188 213.941406 C 314.0625 211.605469 314.101562 209.273438 314.132812 206.9375 C 314.183594 202.683594 314.214844 198.410156 314.039062 194.160156 C 314.09375 192.839844 313.957031 191.519531 313.636719 190.242188 C 313.484375 189.5 313.28125 188.769531 313.027344 188.058594 C 312.621094 186.707031 310.925781 180.132812 310.824219 178.730469 C 310.722656 177.328125 310.640625 176.140625 310.578125 174.84375 C 310.578125 174.84375 312.183594 173.878906 311.136719 171.535156 "/>
<path style=" stroke:none;fill-rule:nonzero;fill:rgb(40.392157%,25.490196%,18.039216%);fill-opacity:1;" d="M 311.160156 171.554688 C 311.160156 170.617188 309.644531 169.859375 307.777344 169.859375 C 305.910156 169.859375 304.398438 170.617188 304.398438 171.554688 C 304.398438 172.492188 305.910156 173.25 307.777344 173.25 C 309.644531 173.25 311.160156 172.492188 311.160156 171.554688 Z M 311.160156 171.554688 "/>
<path style=" stroke:none;fill-rule:nonzero;fill:rgb(99.607843%,99.607843%,99.607843%);fill-opacity:1;" d="M 302.175781 193.355469 L 302.175781 203.507812 C 302.175781 204.1875 302.726562 204.738281 303.410156 204.738281 C 304.089844 204.738281 304.640625 204.1875 304.640625 203.507812 L 304.640625 193.355469 C 304.640625 192.675781 304.089844 192.125 303.410156 192.125 C 302.726562 192.125 302.175781 192.675781 302.175781 193.355469 Z M 302.175781 193.355469 "/>
<path style=" stroke:none;fill-rule:nonzero;fill:rgb(99.607843%,99.607843%,99.607843%);fill-opacity:1;" d="M 303.554688 205.6875 C 302.875 205.6875 302.324219 206.242188 302.324219 206.921875 C 302.324219 207.601562 302.875 208.15625 303.554688 208.15625 C 304.238281 208.15625 304.789062 207.601562 304.789062 206.921875 C 304.789062 206.242188 304.238281 205.6875 303.554688 205.6875 Z M 303.554688 205.6875 "/>
<path style=" stroke:none;fill-rule:nonzero;fill:rgb(100%,56.078431%,43.529412%);fill-opacity:1;" d="M 192.28125 85.148438 C 187.859375 88.953125 184.515625 93.851562 182.578125 99.355469 C 179.167969 108.777344 187.652344 124.164062 187.652344 124.164062 L 200.96875 113.710938 "/>
<path style=" stroke:none;fill-rule:nonzero;fill:rgb(0%,23.137255%,58.039216%);fill-opacity:1;" d="M 190.820312 209.667969 L 187.214844 207.636719 L 188.121094 202.5 C 188.121094 202.5 193.480469 203.007812 193.945312 204.917969 "/>
<path style=" stroke:none;fill-rule:nonzero;fill:rgb(34.509804%,40.392157%,94.117647%);fill-opacity:1;" d="M 192.179688 209.597656 C 192.992188 209.097656 193.835938 208.664062 194.667969 208.207031 C 196.746094 207.070312 199.742188 205.890625 201.03125 203.75 C 201.554688 202.875 201.488281 201.769531 200.867188 200.957031 C 198.96875 198.675781 194.859375 202.429688 192.75 199.945312 C 192.332031 199.445312 192.140625 191.519531 192.140625 191.519531 L 184.109375 193.601562 C 184.109375 193.601562 182.75 209.515625 182.902344 210.5 C 183.054688 211.484375 185.816406 212.429688 185.816406 212.429688 C 186.632812 212.265625 187.417969 211.960938 188.128906 211.523438 C 188.972656 210.914062 188.210938 203.40625 189.277344 204.492188 C 190.34375 205.578125 190.820312 209.625 190.820312 209.625 C 191.273438 209.671875 191.730469 209.664062 192.179688 209.597656 Z M 192.179688 209.597656 "/>
<path style=" stroke:none;fill-rule:nonzero;fill:rgb(0%,23.137255%,58.039216%);fill-opacity:1;" d="M 206.175781 217.359375 L 202.574219 215.332031 L 203.476562 210.195312 C 203.476562 210.195312 208.835938 210.703125 209.304688 212.609375 "/>
<path style=" stroke:none;fill-rule:nonzero;fill:rgb(34.509804%,40.392157%,94.117647%);fill-opacity:1;" d="M 207.535156 217.289062 C 208.347656 216.792969 209.191406 216.355469 210.023438 215.898438 C 212.105469 214.761719 215.097656 213.585938 216.386719 211.445312 C 216.910156 210.566406 216.847656 209.460938 216.226562 208.652344 C 214.328125 206.367188 210.214844 210.125 208.105469 207.636719 C 207.6875 207.140625 207.496094 199.214844 207.496094 199.214844 L 199.46875 201.375 C 199.46875 201.375 198.109375 217.289062 198.261719 218.273438 C 198.414062 219.257812 201.171875 220.203125 201.171875 220.203125 C 201.992188 220.039062 202.773438 219.734375 203.488281 219.300781 C 204.328125 218.691406 203.570312 211.179688 204.632812 212.265625 C 205.699219 213.351562 206.175781 217.402344 206.175781 217.402344 C 206.632812 217.421875 207.089844 217.382812 207.535156 217.289062 Z M 207.535156 217.289062 "/>
<path style=" stroke:none;fill-rule:nonzero;fill:rgb(93.333333%,38.823529%,0%);fill-opacity:1;" d="M 180.03125 165.617188 L 177.707031 197.234375 C 177.707031 197.234375 181.460938 202.429688 194.097656 199.539062 L 194.21875 178.222656 "/>
<path style=" stroke:none;fill-rule:nonzero;fill:rgb(93.333333%,38.823529%,0%);fill-opacity:1;" d="M 194.667969 171.878906 C 194.394531 174.609375 194.667969 204.632812 194.667969 204.632812 C 194.667969 204.632812 198.160156 211.167969 213.375 204.632812 L 213.148438 179.117188 "/>
<path style=" stroke:none;fill-rule:nonzero;fill:rgb(93.333333%,38.823529%,0%);fill-opacity:1;" d="M 178.851562 176.0625 C 179.867188 176.769531 180.242188 173.097656 181.328125 173.726562 C 185.273438 176.015625 189.457031 177.859375 193.804688 179.226562 L 193.894531 179.226562 C 194.105469 179.125 194.347656 179.113281 194.566406 179.191406 C 194.785156 179.273438 194.960938 179.441406 195.050781 179.652344 C 197.738281 180.445312 200.46875 181.066406 203.234375 181.511719 C 206.785156 182.078125 209.730469 179.480469 213.382812 179.269531 C 213.382812 165.3125 213.453125 125.542969 207.507812 117.140625 L 189.9375 111.261719 C 189.855469 112.714844 181.402344 122.507812 181.605469 134.445312 C 181.835938 147.90625 180.082031 160.601562 179.785156 164.804688 C 179.726562 165.515625 178.894531 175.328125 178.851562 176.0625 Z M 178.851562 176.0625 "/>
<path style=" stroke:none;fill-rule:nonzero;fill:rgb(100%,56.078431%,43.529412%);fill-opacity:1;" d="M 209.089844 101.082031 L 207.464844 117.097656 C 207.464844 117.097656 194.351562 117.628906 188.6875 113.71875 L 188.6875 100.140625 "/>
<path style=" stroke:none;fill-rule:nonzero;fill:rgb(100%,70.980392%,66.27451%);fill-opacity:1;" d="M 231.421875 86.242188 L 230.101562 88.039062 C 230.816406 86.554688 231.445312 85.027344 231.988281 83.472656 C 232.363281 82.40625 230.660156 81.980469 230.28125 83.046875 L 230.089844 83.585938 C 230.253906 83.023438 230.40625 82.453125 230.546875 81.878906 C 230.664062 81.40625 230.378906 80.929688 229.90625 80.8125 C 229.4375 80.695312 228.960938 80.980469 228.84375 81.453125 C 228.472656 82.933594 228.027344 84.390625 227.511719 85.828125 C 227.804688 84.550781 228.011719 83.261719 228.140625 81.960938 C 228.253906 80.84375 226.496094 80.882812 226.386719 81.960938 C 226.238281 83.441406 225.976562 84.90625 225.59375 86.34375 C 225.59375 85.84375 225.546875 85.34375 225.453125 84.84375 C 225.425781 84.589844 225.292969 84.359375 225.085938 84.214844 C 225.085938 84.019531 224.984375 83.828125 224.914062 83.625 C 224.773438 83.222656 224.367188 82.980469 223.945312 83.046875 C 223.527344 83.109375 223.210938 83.464844 223.199219 83.886719 L 223.085938 90.515625 C 222.769531 91.203125 222.355469 91.835938 221.859375 92.40625 C 222.710938 93.019531 223.53125 93.675781 224.316406 94.375 C 225.027344 94.976562 225.703125 95.617188 226.34375 96.292969 C 226.90625 95.617188 227.453125 94.898438 227.980469 94.140625 C 228.042969 94.085938 228.101562 94.027344 228.152344 93.957031 C 229.722656 91.636719 231.34375 89.351562 233.011719 87.105469 C 233.644531 86.203125 232.109375 85.339844 231.421875 86.242188 Z M 231.421875 86.242188 "/>
<path style=" stroke:none;fill-rule:nonzero;fill:rgb(100%,56.078431%,43.529412%);fill-opacity:1;" d="M 203.628906 83.332031 C 203.628906 83.332031 209.820312 85.003906 212.339844 89.015625 C 213.914062 91.773438 215.300781 94.636719 216.488281 97.582031 L 221.066406 90.476562 C 221.066406 90.476562 226.617188 92.179688 228.832031 94.910156 C 228.832031 94.910156 222.234375 109.324219 216.5 110.550781 C 210.765625 111.78125 204.664062 102.015625 204.664062 102.015625 C 204.664062 102.015625 203.40625 106.078125 203.648438 101.742188 "/>
<path style=" stroke:none;fill-rule:nonzero;fill:rgb(0%,49.803922%,40.784314%);fill-opacity:1;" d="M 207.203125 102.027344 C 205.863281 100.128906 205.074219 97.898438 204.929688 95.582031 C 204.929688 92.941406 206.390625 91.054688 207.863281 89.015625 C 209.394531 87.019531 210.585938 84.789062 211.394531 82.40625 C 212.136719 80.050781 212.519531 77.605469 213.027344 75.191406 C 213.039062 75.066406 213.078125 74.949219 213.148438 74.84375 C 213.148438 71.953125 212.136719 69.222656 208.957031 68.042969 C 200.839844 65 197.792969 74.132812 196.777344 77.871094 C 195.761719 81.605469 195.480469 84.292969 192.269531 85.085938 C 189.0625 85.878906 185.917969 89.441406 187.621094 93.5 C 189.328125 97.5625 187.316406 95.753906 184.730469 98.191406 C 182.140625 100.625 181.5625 104.472656 184.800781 106.816406 C 188.039062 109.164062 205.515625 111.355469 207.496094 110.226562 C 208.214844 109.757812 208.722656 109.03125 208.917969 108.199219 C 209.109375 106 208.5 103.808594 207.203125 102.027344 Z M 207.203125 102.027344 "/>
</g>
</svg>
