<?xml version="1.0" encoding="UTF-8"?>
<svg xmlns="http://www.w3.org/2000/svg" xmlns:xlink="http://www.w3.org/1999/xlink" width="406pt" height="306pt" viewBox="0 0 406 306" version="1.1">
<defs>
<filter id="alpha" filterUnits="objectBoundingBox" x="0%" y="0%" width="100%" height="100%">
  <feColorMatrix type="matrix" in="SourceGraphic" values="0 0 0 0 1 0 0 0 0 1 0 0 0 0 1 0 0 0 1 0"/>
</filter>
<mask id="mask0">
  <g filter="url(#alpha)">
<rect x="0" y="0" width="406" height="306" style="fill:rgb(0%,0%,0%);fill-opacity:0.321569;stroke:none;"/>
  </g>
</mask>
<linearGradient id="linear0" gradientUnits="userSpaceOnUse" x1="40.73" y1="205.57" x2="48.96" y2="193.87" gradientTransform="matrix(1.015,0,0,1.015,0,0.75)">
<stop offset="0" style="stop-color:rgb(0%,0%,0%);stop-opacity:0;"/>
<stop offset="0.99" style="stop-color:rgb(0%,35.294118%,74.901961%);stop-opacity:1;"/>
</linearGradient>
<clipPath id="clip1">
  <rect x="0" y="0" width="406" height="306"/>
</clipPath>
<g id="surface5" clip-path="url(#clip1)">
<path style=" stroke:none;fill-rule:nonzero;fill:url(#linear0);" d="M 72.988281 200.804688 L 45.003906 217.085938 L 21.335938 201.457031 L 43.433594 188.046875 "/>
</g>
<mask id="mask1">
  <g filter="url(#alpha)">
<rect x="0" y="0" width="406" height="306" style="fill:rgb(0%,0%,0%);fill-opacity:0.501961;stroke:none;"/>
  </g>
</mask>
<clipPath id="clip2">
  <rect x="0" y="0" width="406" height="306"/>
</clipPath>
<g id="surface8" clip-path="url(#clip2)">
<path style=" stroke:none;fill-rule:nonzero;fill:rgb(0%,0%,0%);fill-opacity:1;" d="M 71.273438 170.164062 C 71.273438 167.910156 67.007812 166.082031 61.742188 166.082031 C 56.480469 166.082031 52.210938 167.910156 52.210938 170.164062 C 52.210938 172.417969 56.480469 174.242188 61.742188 174.242188 C 67.007812 174.242188 71.273438 172.417969 71.273438 170.164062 Z M 71.273438 170.164062 "/>
</g>
<mask id="mask2">
  <g filter="url(#alpha)">
<rect x="0" y="0" width="406" height="306" style="fill:rgb(0%,0%,0%);fill-opacity:0.168627;stroke:none;"/>
  </g>
</mask>
<clipPath id="clip3">
  <rect x="0" y="0" width="406" height="306"/>
</clipPath>
<g id="surface11" clip-path="url(#clip3)">
<path style=" stroke:none;fill-rule:nonzero;fill:rgb(100%,100%,100%);fill-opacity:1;" d="M 168.15625 128.640625 L 168.15625 247.261719 C 167.636719 247.042969 167.132812 246.792969 166.644531 246.511719 L 126.429688 222.945312 C 122.335938 220.546875 119.820312 216.15625 119.820312 211.414062 L 119.820312 130.832031 Z M 168.15625 128.640625 "/>
</g>
<mask id="mask3">
  <g filter="url(#alpha)">
<rect x="0" y="0" width="406" height="306" style="fill:rgb(0%,0%,0%);fill-opacity:0.360784;stroke:none;"/>
  </g>
</mask>
<clipPath id="clip4">
  <rect x="0" y="0" width="406" height="306"/>
</clipPath>
<g id="surface14" clip-path="url(#clip4)">
<path style=" stroke:none;fill-rule:nonzero;fill:rgb(0%,0%,0%);fill-opacity:1;" d="M 225.328125 129.96875 L 225.328125 137.957031 L 176.0625 164.511719 C 172.148438 166.964844 167.175781 166.964844 163.261719 164.511719 C 156.308594 160.378906 119.769531 137.957031 119.769531 137.957031 L 119.769531 130.851562 "/>
</g>
<mask id="mask4">
  <g filter="url(#alpha)">
<rect x="0" y="0" width="406" height="306" style="fill:rgb(0%,0%,0%);fill-opacity:0.0784314;stroke:none;"/>
  </g>
</mask>
<clipPath id="clip5">
  <rect x="0" y="0" width="406" height="306"/>
</clipPath>
<g id="surface17" clip-path="url(#clip5)">
<path style=" stroke:none;fill-rule:nonzero;fill:rgb(0%,0%,0%);fill-opacity:1;" d="M 229.796875 127.503906 L 174.378906 158.523438 C 171.066406 160.375 167.015625 160.3125 163.761719 158.359375 L 115.425781 129.351562 C 113.226562 128.027344 111.894531 125.636719 111.925781 123.070312 C 111.957031 120.503906 113.347656 118.144531 115.578125 116.875 L 164.023438 89.398438 C 168.128906 87.082031 173.160156 87.128906 177.21875 89.523438 L 229.855469 120.710938 C 231.066406 121.421875 231.800781 122.722656 231.789062 124.125 C 231.777344 125.527344 231.015625 126.816406 229.796875 127.503906 Z M 229.796875 127.503906 "/>
<path style=" stroke:none;fill-rule:nonzero;fill:rgb(0%,0%,0%);fill-opacity:1;" d="M 231.796875 123.777344 L 231.785156 116.96875 L 228.597656 121.128906 Z M 231.796875 123.777344 "/>
<path style=" stroke:none;fill-rule:nonzero;fill:rgb(0%,0%,0%);fill-opacity:1;" d="M 111.925781 116.195312 L 111.925781 123.332031 L 114.765625 121.007812 Z M 111.925781 116.195312 "/>
</g>
<mask id="mask5">
  <g filter="url(#alpha)">
<rect x="0" y="0" width="406" height="306" style="fill:rgb(0%,0%,0%);fill-opacity:0.368627;stroke:none;"/>
  </g>
</mask>
<clipPath id="clip6">
  <rect x="0" y="0" width="406" height="306"/>
</clipPath>
<g id="surface20" clip-path="url(#clip6)">
<path style=" stroke:none;fill-rule:nonzero;fill:rgb(0%,0%,0%);fill-opacity:1;" d="M 219.542969 118.988281 L 173.921875 144.515625 C 171.195312 146.042969 167.859375 145.992188 165.179688 144.382812 L 125.402344 120.519531 C 123.589844 119.429688 122.492188 117.460938 122.519531 115.347656 C 122.546875 113.230469 123.695312 111.289062 125.535156 110.25 L 165.445312 87.625 C 168.824219 85.707031 172.972656 85.746094 176.316406 87.726562 L 219.617188 113.414062 C 220.605469 114.003906 221.203125 115.074219 221.1875 116.222656 C 221.175781 117.371094 220.546875 118.425781 219.542969 118.988281 Z M 219.542969 118.988281 "/>
</g>
<mask id="mask6">
  <g filter="url(#alpha)">
<rect x="0" y="0" width="406" height="306" style="fill:rgb(0%,0%,0%);fill-opacity:0.0784314;stroke:none;"/>
  </g>
</mask>
<clipPath id="clip7">
  <rect x="0" y="0" width="406" height="306"/>
</clipPath>
<g id="surface23" clip-path="url(#clip7)">
<path style=" stroke:none;fill-rule:nonzero;fill:rgb(0%,0%,0%);fill-opacity:1;" d="M 229.878906 113.667969 L 244.453125 53.144531 C 245.28125 49.703125 243.679688 46.132812 240.554688 44.464844 L 195.894531 20.59375 C 194.550781 19.886719 192.953125 19.839844 191.570312 20.460938 C 190.183594 21.082031 189.15625 22.304688 188.789062 23.78125 L 174.578125 81.269531 Z M 229.878906 113.667969 "/>
</g>
<mask id="mask7">
  <g filter="url(#alpha)">
<rect x="0" y="0" width="406" height="306" style="fill:rgb(0%,0%,0%);fill-opacity:0.368627;stroke:none;"/>
  </g>
</mask>
<clipPath id="clip8">
  <rect x="0" y="0" width="406" height="306"/>
</clipPath>
<g id="surface26" clip-path="url(#clip8)">
<path style=" stroke:none;fill-rule:nonzero;fill:rgb(0%,0%,0%);fill-opacity:1;" d="M 170.285156 86.253906 C 172.386719 86.152344 174.472656 86.667969 176.285156 87.734375 L 219.617188 113.414062 C 220.609375 114 221.210938 115.074219 221.199219 116.226562 C 221.183594 117.378906 220.550781 118.4375 219.542969 118.996094 L 173.921875 144.523438 C 172.800781 145.148438 171.554688 145.515625 170.277344 145.601562 Z M 170.285156 86.253906 "/>
</g>
</defs>
<g id="surface1">
<path style=" stroke:none;fill-rule:nonzero;fill:rgb(93.72549%,86.666667%,84.705882%);fill-opacity:1;" d="M 388.542969 176.121094 L 185.207031 292.460938 C 177.082031 297.117188 167.09375 297.117188 158.96875 292.460938 L 16.148438 210.652344 C 13.539062 209.160156 11.921875 206.386719 11.90625 203.378906 C 11.890625 200.371094 13.480469 197.585938 16.078125 196.066406 L 228.578125 71.527344 C 231.21875 69.964844 234.503906 69.964844 237.144531 71.527344 L 388.664062 161.535156 C 391.253906 163.0625 392.835938 165.855469 392.808594 168.863281 C 392.785156 171.871094 391.160156 174.636719 388.542969 176.121094 Z M 388.542969 176.121094 "/>
<path style=" stroke:none;fill-rule:nonzero;fill:rgb(95.294118%,37.254902%,0%);fill-opacity:1;" d="M 250.097656 135.898438 C 250.097656 135.898438 248.390625 154.167969 251.832031 161.578125 C 255.273438 168.984375 280.910156 182.242188 280.910156 182.242188 C 280.910156 182.242188 285.183594 175.136719 284.472656 172.273438 C 283.761719 169.414062 265.015625 152.816406 265.015625 152.816406 L 265.015625 133.53125 "/>
<path style=" stroke:none;fill-rule:nonzero;fill:rgb(95.294118%,37.254902%,0%);fill-opacity:1;" d="M 268.699219 133.523438 C 269.109375 139.371094 268.703125 145.246094 267.492188 150.980469 C 266.378906 156.414062 264.800781 161.742188 262.773438 166.90625 L 273.613281 197.546875 C 273.613281 197.546875 268.234375 202.074219 264.792969 201.992188 C 261.351562 201.914062 251.832031 176.03125 249.121094 171.210938 C 246.410156 166.386719 255.394531 133.523438 255.394531 133.523438 "/>
<path style=" stroke:none;fill-rule:nonzero;fill:rgb(65.098039%,90.588235%,0%);fill-opacity:1;" d="M 248.816406 104.359375 L 215.300781 115.078125 L 217.859375 124.519531 L 251.253906 114.441406 "/>
<path style=" stroke:none;fill-rule:nonzero;fill:rgb(20.784314%,25.098039%,43.137255%);fill-opacity:1;" d="M 257.402344 126.296875 C 258.128906 126.246094 258.847656 126.183594 259.566406 126.101562 C 257.363281 116.683594 250.703125 95.945312 249.414062 125.808594 C 252.039062 126.359375 254.730469 126.523438 257.402344 126.296875 Z M 257.402344 126.296875 "/>
<path style=" stroke:none;fill-rule:nonzero;fill:rgb(65.098039%,90.588235%,0%);fill-opacity:1;" d="M 266.367188 108.9375 C 266.039062 107.183594 264.871094 105.699219 263.242188 104.96875 C 261.789062 104.21875 260.207031 103.75 258.582031 103.578125 C 255.308594 103.59375 252.039062 103.855469 248.808594 104.359375 C 244.746094 108.53125 246.453125 117.75 247.214844 122.632812 C 247.925781 127.128906 249.039062 131.523438 250.074219 135.949219 C 255.332031 138.78125 264.925781 135.875 268.679688 134.425781 C 268.78125 125.875 268.003906 117.332031 266.367188 108.9375 Z M 266.367188 108.9375 "/>
<path style=" stroke:none;fill-rule:nonzero;fill:rgb(16.470588%,20.392157%,23.921569%);fill-opacity:1;" d="M 263.339844 93.238281 C 262.617188 92.046875 261.15625 91.527344 259.839844 91.988281 C 259.820312 91.929688 259.792969 91.875 259.757812 91.824219 C 259.070312 90.921875 258.816406 90.019531 257.667969 89.582031 C 256.609375 89.226562 255.472656 89.160156 254.378906 89.390625 C 253.320312 89.542969 252.363281 90.109375 251.71875 90.964844 C 251.636719 90.902344 251.539062 90.867188 251.4375 90.863281 C 249.046875 90.738281 246.996094 92.539062 246.808594 94.921875 C 246.707031 96.953125 248.066406 99.285156 250.105469 99.621094 C 251.058594 100.066406 252.097656 100.300781 253.152344 100.3125 C 253.597656 100.296875 254 100.042969 254.207031 99.648438 C 254.417969 99.257812 254.402344 98.78125 254.167969 98.402344 L 254.328125 98.320312 L 254.441406 98.382812 C 254.742188 98.820312 255.332031 98.949219 255.789062 98.675781 L 255.972656 98.597656 C 256.234375 98.558594 256.488281 98.488281 256.734375 98.394531 L 257.007812 98.515625 L 256.886719 98.800781 C 256.699219 99.296875 256.863281 99.855469 257.292969 100.167969 C 257.5 100.292969 257.734375 100.371094 257.972656 100.402344 C 257.378906 101.132812 256.628906 101.722656 255.78125 102.128906 C 254.601562 102.585938 255.101562 104.15625 256.113281 104.332031 C 255.585938 104.65625 255.558594 106.949219 256.164062 106.675781 C 259.257812 105.339844 261.644531 102.757812 262.734375 99.570312 C 263.242188 98.089844 264.246094 94.636719 263.339844 93.238281 Z M 263.339844 93.238281 "/>
<path style=" stroke:none;fill-rule:nonzero;fill:rgb(93.72549%,59.607843%,42.352941%);fill-opacity:1;" d="M 249.507812 96.574219 C 249.222656 96.496094 248.289062 106.15625 252.1875 107.183594 C 257.097656 108.472656 259.546875 102.707031 259.546875 102.707031 C 259.546875 102.707031 260.703125 98.382812 257.730469 96.617188 C 254.753906 94.851562 253.019531 97.5625 249.507812 96.574219 Z M 249.507812 96.574219 "/>
<path style=" stroke:none;fill-rule:nonzero;fill:rgb(16.470588%,20.392157%,23.921569%);fill-opacity:1;" d="M 249.507812 96.574219 C 249.507812 96.574219 253.375 97.683594 255.597656 97.15625 C 257.820312 96.625 254.105469 103.113281 255.65625 103.246094 C 257.210938 103.375 257.476562 99.722656 258.53125 101.214844 C 259.585938 102.707031 256.195312 106.664062 256.195312 106.664062 C 256.195312 106.664062 260.640625 104.941406 261.972656 101.367188 C 263.300781 97.792969 258.925781 93.867188 254.429688 93.804688 C 249.933594 93.746094 249.507812 96.574219 249.507812 96.574219 Z M 249.507812 96.574219 "/>
<path style=" stroke:none;fill-rule:nonzero;fill:rgb(16.470588%,20.392157%,23.921569%);fill-opacity:1;" d="M 271.785156 192.414062 C 271.785156 192.414062 266.425781 197.882812 259.878906 195.246094 C 259.878906 195.246094 263.109375 203.660156 262.722656 206.621094 C 262.335938 209.585938 257.578125 213.179688 256.164062 214.082031 C 254.753906 214.984375 255.261719 216.527344 256.164062 218.070312 C 257.070312 219.613281 265.1875 216.78125 267.105469 216.042969 C 269.027344 215.300781 271.167969 211.039062 271.785156 211.980469 C 272.40625 212.925781 271.785156 214.550781 271.785156 214.550781 C 271.785156 214.550781 276.484375 213.910156 277.390625 211.980469 C 278.292969 210.054688 271.785156 192.414062 271.785156 192.414062 Z M 271.785156 192.414062 "/>
<use xlink:href="#surface5" mask="url(#mask0)"/>
<path style=" stroke:none;fill-rule:nonzero;fill:rgb(74.901961%,19.607843%,59.215686%);fill-opacity:1;" d="M 71.050781 169.363281 C 70.175781 167.496094 66.332031 166.082031 61.710938 166.082031 C 57.09375 166.082031 53.054688 167.566406 52.324219 169.503906 C 46.894531 177.105469 41.542969 189.480469 48.261719 197.78125 C 51.53125 201.609375 56.324219 203.792969 61.355469 203.75 L 62.160156 203.75 C 67.191406 203.808594 71.996094 201.632812 75.273438 197.8125 C 82 189.429688 76.542969 176.945312 71.050781 169.363281 Z M 71.050781 169.363281 "/>
<use xlink:href="#surface8" mask="url(#mask1)"/>
<path style=" stroke:none;fill-rule:nonzero;fill:rgb(99.607843%,38.039216%,38.431373%);fill-opacity:1;" d="M 72.855469 135.5 C 66.976562 145.472656 63.367188 156.617188 62.28125 168.144531 C 62.28125 154.210938 61.003906 140.308594 58.464844 126.609375 C 58.371094 126.121094 57.632812 126.324219 57.722656 126.8125 C 60.566406 142.140625 61.820312 157.71875 61.46875 173.300781 C 61.464844 173.421875 61.519531 173.535156 61.617188 173.605469 C 61.714844 173.675781 61.84375 173.695312 61.957031 173.65625 C 61.957031 173.765625 61.957031 173.878906 61.957031 174 C 61.957031 174.214844 62.128906 174.386719 62.339844 174.386719 C 62.554688 174.386719 62.726562 174.214844 62.726562 174 C 62.996094 160.585938 66.71875 147.472656 73.535156 135.917969 C 73.652344 135.730469 73.59375 135.484375 73.40625 135.371094 C 73.21875 135.253906 72.972656 135.3125 72.855469 135.5 Z M 72.855469 135.5 "/>
<path style=" stroke:none;fill-rule:nonzero;fill:rgb(99.607843%,38.039216%,38.431373%);fill-opacity:1;" d="M 66.835938 148.1875 C 66.835938 148.1875 72.734375 129.238281 85.382812 122.226562 C 85.382812 122.226562 82.8125 125.992188 84.011719 129.066406 C 85.210938 132.140625 87.054688 137.613281 81.109375 140.6875 C 75.160156 143.761719 71.710938 140.6875 72.21875 146.675781 C 72.726562 152.664062 75.101562 155.566406 71.261719 158.472656 C 67.425781 161.375 64.15625 163.910156 62.890625 170.164062 C 62.929688 170.164062 64.332031 154.492188 66.835938 148.1875 Z M 66.835938 148.1875 "/>
<path style=" stroke:none;fill-rule:nonzero;fill:rgb(99.607843%,38.039216%,38.431373%);fill-opacity:1;" d="M 61.226562 146.1875 C 61.226562 146.1875 58.777344 117.070312 53.652344 109.710938 C 54.042969 112.523438 53.539062 115.390625 52.210938 117.902344 C 49.988281 122.113281 47.613281 123.574219 48.890625 129.066406 C 50.171875 134.558594 55.378906 133.460938 54.882812 138.953125 C 54.382812 144.445312 50.050781 143.410156 52.210938 150.332031 C 54.375 157.253906 61.761719 161.808594 61.761719 161.808594 "/>
<path style=" stroke:none;fill-rule:nonzero;fill:rgb(34.509804%,40.392157%,94.117647%);fill-opacity:1;" d="M 119.769531 130.902344 L 119.769531 211.484375 C 119.773438 216.246094 122.308594 220.648438 126.429688 223.035156 L 166.644531 246.601562 C 171.144531 249.25 176.730469 249.214844 181.199219 246.511719 L 225.328125 220.75 L 225.328125 126.101562 "/>
<use xlink:href="#surface11" mask="url(#mask2)"/>
<use xlink:href="#surface14" mask="url(#mask3)"/>
<path style=" stroke:none;fill-rule:nonzero;fill:rgb(34.509804%,40.392157%,94.117647%);fill-opacity:1;" d="M 229.796875 127.503906 L 174.378906 158.523438 C 171.066406 160.375 167.015625 160.3125 163.761719 158.359375 L 115.425781 129.351562 C 113.226562 128.027344 111.894531 125.636719 111.925781 123.070312 C 111.957031 120.503906 113.347656 118.144531 115.578125 116.875 L 164.023438 89.398438 C 168.128906 87.082031 173.160156 87.128906 177.21875 89.523438 L 229.855469 120.710938 C 231.066406 121.421875 231.800781 122.722656 231.789062 124.125 C 231.777344 125.527344 231.015625 126.816406 229.796875 127.503906 Z M 229.796875 127.503906 "/>
<path style=" stroke:none;fill-rule:nonzero;fill:rgb(34.509804%,40.392157%,94.117647%);fill-opacity:1;" d="M 231.796875 123.777344 L 231.785156 116.96875 L 228.597656 121.128906 Z M 231.796875 123.777344 "/>
<path style=" stroke:none;fill-rule:nonzero;fill:rgb(34.509804%,40.392157%,94.117647%);fill-opacity:1;" d="M 111.925781 116.195312 L 111.925781 123.332031 L 114.765625 121.007812 Z M 111.925781 116.195312 "/>
<use xlink:href="#surface17" mask="url(#mask4)"/>
<path style=" stroke:none;fill-rule:nonzero;fill:rgb(34.509804%,40.392157%,94.117647%);fill-opacity:1;" d="M 229.796875 120.460938 L 174.378906 151.476562 C 171.066406 153.332031 167.015625 153.269531 163.761719 151.316406 L 115.425781 122.304688 C 113.226562 120.984375 111.894531 118.59375 111.925781 116.027344 C 111.957031 113.457031 113.347656 111.101562 115.578125 109.832031 L 164.023438 82.347656 C 168.128906 80.027344 173.160156 80.074219 177.21875 82.46875 L 229.855469 113.660156 C 231.070312 114.367188 231.8125 115.671875 231.796875 117.078125 C 231.785156 118.480469 231.023438 119.773438 229.796875 120.460938 Z M 229.796875 120.460938 "/>
<use xlink:href="#surface20" mask="url(#mask5)"/>
<path style=" stroke:none;fill-rule:nonzero;fill:rgb(34.509804%,40.392157%,94.117647%);fill-opacity:1;" d="M 229.878906 113.667969 L 244.453125 53.144531 C 245.28125 49.703125 243.679688 46.132812 240.554688 44.464844 L 195.894531 20.59375 C 194.550781 19.886719 192.953125 19.839844 191.570312 20.460938 C 190.183594 21.082031 189.15625 22.304688 188.789062 23.78125 L 174.578125 81.269531 Z M 229.878906 113.667969 "/>
<use xlink:href="#surface23" mask="url(#mask6)"/>
<use xlink:href="#surface26" mask="url(#mask7)"/>
<path style=" stroke:none;fill-rule:nonzero;fill:rgb(68.627451%,30.588235%,15.686275%);fill-opacity:1;" d="M 227.964844 208.683594 C 222.769531 206.523438 216.324219 210.128906 213.570312 216.746094 C 210.820312 223.359375 212.800781 230.472656 217.996094 232.636719 C 223.191406 234.800781 229.636719 231.191406 232.386719 224.578125 C 235.140625 217.960938 233.160156 210.847656 227.964844 208.683594 Z M 227.964844 208.683594 "/>
<path style=" stroke:none;fill-rule:nonzero;fill:rgb(68.627451%,30.588235%,15.686275%);fill-opacity:1;" d="M 233.042969 210.683594 L 226.984375 208.335938 L 226.667969 211.890625 "/>
<path style=" stroke:none;fill-rule:nonzero;fill:rgb(56.862745%,32.156863%,0%);fill-opacity:1;" d="M 223.078125 234.625 L 217.992188 232.625 L 221.867188 232.046875 Z M 223.078125 234.625 "/>
<path style=" stroke:none;fill-rule:nonzero;fill:rgb(78.823529%,38.823529%,21.176471%);fill-opacity:1;" d="M 232.777344 210.683594 C 227.582031 208.523438 221.136719 212.132812 218.382812 218.746094 C 215.628906 225.359375 217.609375 232.472656 222.804688 234.636719 C 228.003906 236.800781 234.445312 233.191406 237.199219 226.578125 C 239.953125 219.964844 237.972656 212.847656 232.777344 210.683594 Z M 232.777344 210.683594 "/>
<path style=" stroke:none;fill-rule:nonzero;fill:rgb(100%,100%,100%);fill-opacity:1;" d="M 231.578125 213.542969 C 227.785156 211.964844 223.082031 214.597656 221.070312 219.425781 C 219.0625 224.253906 220.507812 229.449219 224.300781 231.027344 C 228.09375 232.605469 232.796875 229.972656 234.808594 225.144531 C 236.816406 220.316406 235.371094 215.121094 231.578125 213.542969 Z M 231.578125 213.542969 "/>
<path style=" stroke:none;fill-rule:nonzero;fill:rgb(0%,79.215686%,60.392157%);fill-opacity:1;" d="M 150.21875 135.074219 L 146.160156 116.632812 C 145.539062 113.738281 150.015625 112.777344 150.644531 115.617188 L 154.625 134.058594 C 154.777344 134.710938 154.625 135.394531 154.210938 135.917969 C 153.800781 136.441406 153.171875 136.753906 152.503906 136.761719 L 165.152344 144.351562 C 167.828125 145.960938 171.164062 146.011719 173.890625 144.484375 L 173.972656 144.484375 C 173.972656 143.339844 173.972656 142.199219 173.972656 141.0625 C 173.972656 140.585938 173.972656 140.109375 173.972656 139.632812 C 173.777344 138.617188 173.585938 137.671875 173.382812 136.699219 C 171.808594 128.933594 170.183594 121.167969 168.195312 113.496094 C 167.28125 109.972656 167.484375 109.792969 165.910156 106.523438 C 165.347656 105.238281 164.691406 103.992188 163.953125 102.796875 C 162.683594 100.492188 157.019531 89.195312 156.28125 86.691406 C 155.597656 84.375 154.929688 82.050781 154.308594 79.71875 C 154.308594 79.71875 156.847656 77.332031 154.027344 73.484375 C 154.390625 75.191406 151.933594 77.160156 148.535156 77.890625 C 145.136719 78.621094 142.078125 77.839844 141.714844 76.132812 C 141.714844 76.132812 140.871094 80.703125 144.667969 82.285156 C 145.175781 82.5 145.011719 84.640625 145.023438 85.035156 C 145.03125 90.335938 144.644531 95.628906 143.867188 100.871094 C 143.207031 105.875 142.160156 110.929688 142.902344 115.984375 C 143.480469 119.929688 144.199219 123.859375 144.933594 127.777344 C 145.265625 129.492188 145.632812 131.207031 145.945312 132.921875 L 150.269531 135.523438 C 150.242188 135.375 150.222656 135.226562 150.21875 135.074219 Z M 150.21875 135.074219 "/>
<path style=" stroke:none;fill-rule:nonzero;fill:rgb(40.392157%,25.490196%,18.039216%);fill-opacity:1;" d="M 147.175781 71.679688 C 143.773438 72.410156 141.320312 74.386719 141.683594 76.082031 L 153.996094 73.425781 C 153.640625 71.730469 150.585938 70.949219 147.175781 71.679688 Z M 147.175781 71.679688 "/>
<path style=" stroke:none;fill-rule:nonzero;fill:rgb(40.392157%,25.490196%,18.039216%);fill-opacity:1;" d="M 148.515625 77.839844 C 151.914062 77.109375 154.371094 75.128906 154.007812 73.433594 L 141.695312 76.082031 C 142.101562 77.789062 145.144531 78.570312 148.515625 77.839844 Z M 148.515625 77.839844 "/>
<path style=" stroke:none;fill-rule:nonzero;fill:rgb(99.607843%,99.607843%,99.607843%);fill-opacity:1;" d="M 154.664062 134.101562 L 150.6875 115.65625 C 150.066406 112.777344 145.613281 113.738281 146.199219 116.671875 L 150.21875 135.074219 C 150.25 135.207031 150.289062 135.335938 150.34375 135.460938 L 152.574219 136.800781 C 153.238281 136.785156 153.855469 136.472656 154.261719 135.949219 C 154.667969 135.421875 154.816406 134.746094 154.664062 134.101562 Z M 154.664062 134.101562 "/>
<path style=" stroke:none;fill-rule:nonzero;fill:rgb(78.039216%,0%,54.509804%);fill-opacity:1;" d="M 190.222656 135.398438 C 190.28125 130.546875 190.300781 125.6875 190.109375 120.835938 C 190.171875 119.300781 190.011719 117.765625 189.632812 116.277344 C 189.453125 115.414062 189.21875 114.566406 188.921875 113.738281 C 188.453125 112.167969 186.476562 104.523438 186.355469 102.898438 C 186.230469 101.277344 186.140625 99.855469 186.070312 98.382812 C 186.070312 98.382812 187.9375 97.265625 186.71875 94.535156 C 186.71875 95.621094 184.953125 96.503906 182.78125 96.503906 C 180.609375 96.503906 178.84375 95.621094 178.84375 94.535156 C 178.84375 94.535156 177.726562 97.214844 179.859375 98.675781 C 180.140625 98.871094 179.757812 100.160156 179.714844 100.402344 C 179.023438 103.640625 178.089844 106.824219 176.925781 109.921875 C 175.910156 112.886719 174.558594 115.839844 174.347656 119.058594 C 174.183594 121.546875 174.101562 124.042969 174.042969 126.527344 C 173.941406 130.894531 173.941406 135.269531 173.972656 139.632812 C 174.269531 141.109375 174.558594 142.582031 174.84375 144.058594 Z M 177.878906 137.085938 C 177.089844 137.085938 176.449219 136.445312 176.449219 135.652344 C 176.449219 134.863281 177.089844 134.222656 177.878906 134.222656 C 178.671875 134.222656 179.316406 134.867188 179.316406 135.660156 C 179.316406 136.453125 178.671875 137.09375 177.878906 137.09375 Z M 176.265625 119.828125 C 176.265625 119.039062 176.90625 118.398438 177.695312 118.398438 C 178.488281 118.398438 179.128906 119.039062 179.128906 119.828125 L 179.128906 131.683594 C 179.128906 132.476562 178.488281 133.117188 177.695312 133.117188 C 176.90625 133.117188 176.265625 132.476562 176.265625 131.683594 Z M 176.265625 119.828125 "/>
<path style=" stroke:none;fill-rule:nonzero;fill:rgb(78.039216%,0%,54.509804%);fill-opacity:1;" d="M 174 144.453125 L 174.824219 143.996094 C 174.539062 142.523438 174.25 141.046875 173.949219 139.570312 C 173.949219 140.046875 173.949219 140.527344 173.949219 141.003906 C 173.972656 142.160156 173.988281 143.308594 174 144.453125 Z M 174 144.453125 "/>
<path style=" stroke:none;fill-rule:nonzero;fill:rgb(40.392157%,25.490196%,18.039216%);fill-opacity:1;" d="M 182.78125 92.566406 C 180.609375 92.566406 178.84375 93.449219 178.84375 94.535156 L 186.761719 94.535156 C 186.761719 93.441406 184.964844 92.566406 182.78125 92.566406 Z M 182.78125 92.566406 "/>
<path style=" stroke:none;fill-rule:nonzero;fill:rgb(40.392157%,25.490196%,18.039216%);fill-opacity:1;" d="M 182.78125 96.496094 C 184.953125 96.496094 186.71875 95.613281 186.71875 94.527344 L 178.851562 94.527344 C 178.851562 95.621094 180.609375 96.496094 182.78125 96.496094 Z M 182.78125 96.496094 "/>
<path style=" stroke:none;fill-rule:nonzero;fill:rgb(99.607843%,99.607843%,99.607843%);fill-opacity:1;" d="M 179.128906 131.683594 L 179.128906 119.878906 C 179.128906 119.089844 178.488281 118.449219 177.695312 118.449219 C 176.90625 118.449219 176.265625 119.089844 176.265625 119.878906 L 176.265625 131.683594 C 176.265625 132.476562 176.90625 133.117188 177.695312 133.117188 C 178.488281 133.117188 179.128906 132.476562 179.128906 131.683594 Z M 179.128906 131.683594 "/>
<path style=" stroke:none;fill-rule:nonzero;fill:rgb(99.607843%,99.607843%,99.607843%);fill-opacity:1;" d="M 177.878906 134.222656 C 177.089844 134.222656 176.449219 134.863281 176.449219 135.652344 C 176.449219 136.445312 177.089844 137.085938 177.878906 137.085938 C 178.667969 137.085938 179.308594 136.445312 179.308594 135.652344 C 179.308594 134.863281 178.667969 134.222656 177.878906 134.222656 Z M 177.878906 134.222656 "/>
<path style=" stroke:none;fill-rule:nonzero;fill:rgb(100%,100%,100%);fill-opacity:1;" d="M 152.535156 136.761719 L 150.300781 135.421875 C 150.652344 136.324219 151.570312 136.875 152.535156 136.761719 Z M 152.535156 136.761719 "/>
<path style=" stroke:none;fill-rule:nonzero;fill:rgb(65.098039%,90.588235%,0%);fill-opacity:1;" d="M 261.496094 109.628906 C 261.496094 109.628906 267.148438 116.957031 264.132812 123.140625 C 261.117188 129.320312 232.535156 142.332031 232.535156 142.332031 L 227.886719 133.796875 L 257.394531 112.828125 "/>
<path style=" stroke:none;fill-rule:nonzero;fill:rgb(93.72549%,59.607843%,42.352941%);fill-opacity:1;" d="M 228.8125 135.5 C 228.8125 135.5 226.40625 136.191406 225.003906 135.5 C 223.605469 134.8125 222.550781 132.800781 221.613281 133.796875 C 220.679688 134.789062 223.015625 137.035156 223.015625 137.035156 C 223.015625 137.035156 224.851562 136.863281 224.03125 139.0625 C 223.207031 141.265625 220.660156 146.085938 221.351562 147.375 C 222.042969 148.664062 224.070312 148.390625 225.410156 147.375 C 226.75 146.363281 229.59375 142.21875 229.59375 141.640625 C 229.59375 141.0625 230.972656 139.664062 230.972656 139.664062 Z M 228.8125 135.5 "/>
<path style=" stroke:none;fill-rule:nonzero;fill:rgb(16.470588%,20.392157%,23.921569%);fill-opacity:1;" d="M 260.214844 192.585938 L 254.703125 179.816406 C 252.949219 175.757812 250.003906 171.007812 249.902344 166.507812 C 249.8125 162.316406 251.617188 157.820312 252.777344 153.832031 C 254.105469 149.246094 255.535156 144.699219 256.96875 140.121094 C 257.191406 139.410156 256.125 138.902344 255.902344 139.621094 C 254.550781 143.925781 253.203125 148.238281 251.933594 152.574219 C 250.664062 156.90625 248.625 161.902344 248.695312 166.480469 C 248.757812 170.703125 251.292969 174.863281 252.929688 178.660156 L 259.128906 193.019531 C 259.402344 193.722656 260.511719 193.316406 260.214844 192.585938 Z M 260.214844 192.585938 "/>
<path style=" stroke:none;fill-rule:nonzero;fill:rgb(16.470588%,20.392157%,23.921569%);fill-opacity:1;" d="M 280.628906 167.757812 C 280.628906 167.757812 279.441406 175.320312 272.578125 176.972656 C 272.578125 176.972656 280.089844 181.949219 281.5 184.585938 C 282.910156 187.226562 281.125 192.910156 280.484375 194.460938 C 279.84375 196.015625 281.175781 196.96875 282.800781 197.710938 C 284.421875 198.453125 289.398438 191.429688 290.511719 189.683594 C 291.628906 187.9375 290.941406 183.226562 291.933594 183.59375 C 292.929688 183.957031 293.425781 185.683594 293.425781 185.683594 C 293.425781 185.683594 296.878906 182.433594 296.472656 180.34375 C 296.066406 178.253906 280.628906 167.757812 280.628906 167.757812 Z M 280.628906 167.757812 "/>
<path style=" stroke:none;fill-rule:nonzero;fill:rgb(69.803922%,30.980392%,15.686275%);fill-opacity:1;" d="M 346.113281 185.742188 L 346.113281 153.34375 L 375.125 137.105469 L 375.125 169.238281 Z M 346.113281 185.742188 "/>
<path style=" stroke:none;fill-rule:nonzero;fill:rgb(78.823529%,38.823529%,21.176471%);fill-opacity:1;" d="M 346.113281 153.34375 L 317.886719 137.105469 C 317.886719 137.105469 317.105469 169.777344 317.886719 170.296875 C 318.667969 170.8125 346.113281 185.742188 346.113281 185.742188 Z M 346.113281 153.34375 "/>
<path style=" stroke:none;fill-rule:nonzero;fill:rgb(85.882353%,49.019608%,34.509804%);fill-opacity:1;" d="M 317.917969 137.136719 L 346.144531 119.890625 L 375.152344 137.136719 L 346.144531 153.34375 Z M 317.917969 137.136719 "/>
<path style=" stroke:none;fill-rule:nonzero;fill:rgb(99.215686%,92.941176%,79.607843%);fill-opacity:1;" d="M 328.667969 130.570312 L 358.050781 146.6875 L 358.050781 163.597656 L 366.507812 159.34375 L 366.507812 141.96875 L 337.121094 125.402344 Z M 328.667969 130.570312 "/>
<path style=" stroke:none;fill-rule:nonzero;fill:rgb(100%,100%,100%);fill-opacity:1;" d="M 131.503906 185.023438 C 132.097656 185.960938 132.90625 186.746094 133.859375 187.316406 C 134.152344 187.480469 134.4375 187.621094 134.730469 187.753906 L 135.480469 188.089844 L 140.820312 190.566406 L 140.972656 190.644531 L 141.074219 196.929688 L 140.648438 196.738281 L 138.457031 195.722656 L 137.359375 195.214844 C 136.601562 194.890625 135.910156 194.421875 135.328125 193.832031 C 134.988281 193.488281 134.71875 193.082031 134.527344 192.636719 L 131.484375 185.144531 Z M 131.503906 185.023438 "/>
<path style=" stroke:none;fill-rule:nonzero;fill:rgb(100%,100%,100%);fill-opacity:1;" d="M 136.113281 179.980469 C 136.230469 180.023438 136.324219 180.121094 136.367188 180.242188 C 137.175781 182.273438 137.992188 184.300781 138.8125 186.332031 C 138.8125 186.394531 138.8125 186.445312 138.882812 186.566406 L 137.441406 185.035156 L 137.035156 185.621094 C 136.578125 186.292969 136.113281 186.960938 135.664062 187.652344 C 135.59375 187.753906 135.523438 187.785156 135.371094 187.714844 C 134.660156 187.394531 133.980469 187.015625 133.339844 186.578125 C 132.417969 185.886719 131.710938 184.945312 131.3125 183.867188 C 131.027344 183.308594 131.027344 182.648438 131.3125 182.089844 C 131.738281 181.359375 132.132812 180.617188 132.539062 179.886719 L 132.609375 179.734375 L 131.160156 177.796875 L 131.3125 177.855469 Z M 136.113281 179.980469 "/>
<path style=" stroke:none;fill-rule:nonzero;fill:rgb(100%,100%,100%);fill-opacity:1;" d="M 138.394531 173.136719 L 138.558594 173.21875 C 139.34375 173.726562 139.988281 174.425781 140.433594 175.25 C 141.011719 176.15625 141.484375 177.128906 141.847656 178.140625 L 141.847656 178.375 L 139.5 181.773438 L 134.730469 176.4375 L 134.832031 176.285156 C 135.582031 175.269531 136.316406 174.253906 137.074219 173.289062 C 137.417969 172.917969 137.980469 172.855469 138.394531 173.136719 Z M 138.394531 173.136719 "/>
<path style=" stroke:none;fill-rule:nonzero;fill:rgb(100%,100%,100%);fill-opacity:1;" d="M 145.144531 175.9375 C 146.203125 176.464844 147.015625 177.378906 147.417969 178.488281 C 147.824219 179.441406 148.199219 180.414062 148.605469 181.410156 L 150.109375 181.207031 L 149.945312 181.441406 C 149.175781 182.558594 148.414062 183.683594 147.652344 184.820312 C 147.570312 184.933594 147.488281 184.941406 147.347656 184.871094 L 142.757812 182.738281 L 142.535156 182.628906 L 143.898438 182.230469 L 143.773438 181.90625 C 143.105469 180.261719 142.445312 178.609375 141.746094 176.964844 C 141.351562 175.964844 140.804688 175.03125 140.121094 174.203125 C 139.90625 173.949219 139.664062 173.726562 139.441406 173.503906 L 139.238281 173.320312 L 139.238281 173.300781 L 141.003906 174.101562 L 141.886719 174.496094 Z M 145.144531 175.9375 "/>
<path style=" stroke:none;fill-rule:nonzero;fill:rgb(100%,100%,100%);fill-opacity:1;" d="M 145.085938 190.636719 C 145.085938 191.316406 145.164062 191.933594 145.207031 192.566406 L 145.378906 192.65625 L 147.011719 193.40625 L 149.46875 194.503906 C 150.167969 194.863281 150.960938 195.007812 151.742188 194.910156 C 152.011719 194.839844 152.277344 194.753906 152.535156 194.644531 L 152.535156 194.757812 C 151.640625 196.300781 150.757812 197.863281 149.855469 199.386719 C 149.386719 200.167969 148.625 200.308594 147.640625 199.882812 L 146.941406 199.566406 L 145.550781 198.929688 L 145.308594 198.816406 C 145.308594 199.476562 145.308594 200.105469 145.308594 200.847656 L 145.1875 200.5625 L 142.851562 194.808594 C 142.851562 194.6875 142.757812 194.574219 142.851562 194.484375 L 145.105469 190.746094 Z M 145.085938 190.636719 "/>
<path style=" stroke:none;fill-rule:nonzero;fill:rgb(100%,100%,100%);fill-opacity:1;" d="M 150.746094 186.585938 C 151.023438 187.296875 151.285156 187.988281 151.550781 188.675781 C 151.976562 189.773438 152.390625 190.871094 152.808594 191.964844 C 153.113281 192.585938 153.082031 193.3125 152.726562 193.90625 C 152.402344 194.320312 151.886719 194.535156 151.367188 194.472656 C 150.550781 194.4375 149.746094 194.234375 149.011719 193.875 L 148.605469 193.679688 C 148.511719 193.628906 148.4375 193.546875 148.394531 193.449219 C 147.640625 191.601562 146.902344 189.742188 146.148438 187.886719 L 146.148438 187.742188 Z M 150.746094 186.585938 "/>
<path style=" stroke:none;fill-rule:nonzero;fill:rgb(82.745098%,29.411765%,0%);fill-opacity:1;" d="M 266.386719 154.015625 C 266.386719 154.015625 263.980469 167.210938 263.890625 167.738281 C 264.164062 169.609375 264.539062 171.46875 265.015625 173.300781 L 266.386719 173.910156 C 266.386719 173.910156 268.699219 156.167969 268.699219 156.167969 Z M 266.386719 154.015625 "/>
</g>
</svg>
