<?xml version="1.0" encoding="UTF-8"?>
<svg xmlns="http://www.w3.org/2000/svg" xmlns:xlink="http://www.w3.org/1999/xlink" width="919pt" height="693pt" viewBox="0 0 919 693" version="1.1">
<defs>
<filter id="alpha" filterUnits="objectBoundingBox" x="0%" y="0%" width="100%" height="100%">
  <feColorMatrix type="matrix" in="SourceGraphic" values="0 0 0 0 1 0 0 0 0 1 0 0 0 0 1 0 0 0 1 0"/>
</filter>
<mask id="mask0">
  <g filter="url(#alpha)">
<rect x="0" y="0" width="919" height="693" style="fill:rgb(0%,0%,0%);fill-opacity:0.239216;stroke:none;"/>
  </g>
</mask>
<clipPath id="clip1">
  <rect x="0" y="0" width="919" height="693"/>
</clipPath>
<g id="surface5" clip-path="url(#clip1)">
<path style=" stroke:none;fill-rule:nonzero;fill:rgb(34.509804%,40.392157%,94.117647%);fill-opacity:1;" d="M 813.296875 590.496094 C 842.851562 548.121094 853.269531 495.277344 842.003906 444.847656 C 838.347656 428.980469 832.585938 413.675781 828.578125 397.894531 C 807.839844 316.191406 834.804688 225.460938 801.863281 147.871094 C 781.15625 99.042969 736.78125 60.9375 685.410156 47.855469 C 634.375 34.871094 580.0625 45.703125 528.179688 36.6875 C 491.851562 30.355469 457.882812 14.515625 422.058594 5.738281 C 386.234375 -3.039062 345.601562 -3.714844 315.585938 17.78125 C 278.804688 44.15625 269.597656 94.375 243.714844 131.496094 C 220.558594 164.707031 184.804688 186.355469 152.328125 210.550781 C 119.847656 234.746094 88.257812 265.128906 80.3125 304.800781 C 70.148438 356.085938 102.132812 407.78125 96.398438 459.746094 C 93.921875 482.152344 84.488281 503.4375 82.660156 525.859375 C 79.089844 569.804688 105.972656 612.101562 142.132812 637.296875 C 178.292969 662.488281 222.511719 673.195312 266.082031 679.792969 C 342.1875 691.3125 419.457031 691.804688 496.40625 692.269531 L 606.648438 692.945312 C 651.890625 693.226562 674.289062 674.277344 713.347656 660.589844 C 753.527344 646.59375 788.253906 625.972656 813.296875 590.496094 Z M 813.296875 590.496094 "/>
</g>
<linearGradient id="linear0" gradientUnits="userSpaceOnUse" x1="363.45" y1="147.58" x2="392.5" y2="266.41" gradientTransform="matrix(1.405958,0,0,1.406678,61.965312,0)">
<stop offset="0" style="stop-color:rgb(0.392157%,0.392157%,0.392157%);stop-opacity:0;"/>
<stop offset="0.95" style="stop-color:rgb(0.392157%,0.392157%,0.392157%);stop-opacity:1;"/>
</linearGradient>
<linearGradient id="linear1" gradientUnits="userSpaceOnUse" x1="415.18" y1="133.97" x2="439.51" y2="333.72" gradientTransform="matrix(1.405958,0,0,1.406678,61.965312,0)">
<stop offset="0" style="stop-color:rgb(0.392157%,0.392157%,0.392157%);stop-opacity:0;"/>
<stop offset="0.95" style="stop-color:rgb(0.392157%,0.392157%,0.392157%);stop-opacity:1;"/>
</linearGradient>
<linearGradient id="linear2" gradientUnits="userSpaceOnUse" x1="218.86" y1="137.11" x2="268.09" y2="254.24" gradientTransform="matrix(1.405958,0,0,1.406678,61.965312,0)">
<stop offset="0" style="stop-color:rgb(0.392157%,0.392157%,0.392157%);stop-opacity:0;"/>
<stop offset="0.95" style="stop-color:rgb(0.392157%,0.392157%,0.392157%);stop-opacity:1;"/>
</linearGradient>
<linearGradient id="linear3" gradientUnits="userSpaceOnUse" x1="213.28" y1="166.78" x2="255.45" y2="166.78" gradientTransform="matrix(1.405958,0,0,1.406678,59.701719,-1.406678)">
<stop offset="0" style="stop-color:rgb(0.392157%,0.392157%,0.392157%);stop-opacity:0;"/>
<stop offset="0.95" style="stop-color:rgb(0.392157%,0.392157%,0.392157%);stop-opacity:1;"/>
</linearGradient>
<linearGradient id="linear4" gradientUnits="userSpaceOnUse" x1="319.18" y1="132.82" x2="338.42" y2="230.9" gradientTransform="matrix(1.405958,0,0,1.406678,59.704959,-1.418028)">
<stop offset="0" style="stop-color:rgb(0.392157%,0.392157%,0.392157%);stop-opacity:0;"/>
<stop offset="0.95" style="stop-color:rgb(0.392157%,0.392157%,0.392157%);stop-opacity:1;"/>
</linearGradient>
<linearGradient id="linear5" gradientUnits="userSpaceOnUse" x1="317.67" y1="137.34" x2="336.91" y2="235.43" gradientTransform="matrix(1.405958,0,0,1.406678,59.700826,-1.403371)">
<stop offset="0" style="stop-color:rgb(0.392157%,0.392157%,0.392157%);stop-opacity:0;"/>
<stop offset="0.95" style="stop-color:rgb(0.392157%,0.392157%,0.392157%);stop-opacity:1;"/>
</linearGradient>
<linearGradient id="linear6" gradientUnits="userSpaceOnUse" x1="283.56" y1="149.69" x2="287.33" y2="269.27" gradientTransform="matrix(1.405958,0,0,1.406678,59.715217,-1.410791)">
<stop offset="0" style="stop-color:rgb(0.392157%,0.392157%,0.392157%);stop-opacity:0;"/>
<stop offset="0.95" style="stop-color:rgb(0.392157%,0.392157%,0.392157%);stop-opacity:1;"/>
</linearGradient>
<linearGradient id="linear7" gradientUnits="userSpaceOnUse" x1="284.46" y1="151.71" x2="288.23" y2="271.3" gradientTransform="matrix(1.405958,0,0,1.406678,59.711612,-1.397444)">
<stop offset="0" style="stop-color:rgb(0.392157%,0.392157%,0.392157%);stop-opacity:0;"/>
<stop offset="0.95" style="stop-color:rgb(0.392157%,0.392157%,0.392157%);stop-opacity:1;"/>
</linearGradient>
<linearGradient id="linear8" gradientUnits="userSpaceOnUse" x1="44.06" y1="284.44" x2="210.05" y2="422.51" gradientTransform="matrix(1.405958,0,0,1.406678,59.701719,-1.406678)">
<stop offset="0" style="stop-color:rgb(0.392157%,0.392157%,0.392157%);stop-opacity:0;"/>
<stop offset="0.95" style="stop-color:rgb(0.392157%,0.392157%,0.392157%);stop-opacity:1;"/>
</linearGradient>
<linearGradient id="linear9" gradientUnits="userSpaceOnUse" x1="525.52" y1="312.17" x2="505.15" y2="528.71" gradientTransform="matrix(1.405958,0,0,1.406678,59.701719,-1.406678)">
<stop offset="0" style="stop-color:rgb(0.392157%,0.392157%,0.392157%);stop-opacity:0;"/>
<stop offset="0.95" style="stop-color:rgb(0.392157%,0.392157%,0.392157%);stop-opacity:1;"/>
</linearGradient>
<linearGradient id="linear10" gradientUnits="userSpaceOnUse" x1="470.38" y1="321.61" x2="333.81" y2="645.28" gradientTransform="matrix(1.405958,0,0,1.406678,59.701719,-1.406678)">
<stop offset="0" style="stop-color:rgb(0.392157%,0.392157%,0.392157%);stop-opacity:0;"/>
<stop offset="0.95" style="stop-color:rgb(0.392157%,0.392157%,0.392157%);stop-opacity:1;"/>
</linearGradient>
<linearGradient id="linear11" gradientUnits="userSpaceOnUse" x1="501.63" y1="433.49" x2="268.49" y2="538.74" gradientTransform="matrix(1.405958,0,0,1.406678,59.701719,-1.406678)">
<stop offset="0" style="stop-color:rgb(0.392157%,0.392157%,0.392157%);stop-opacity:0;"/>
<stop offset="0.95" style="stop-color:rgb(0.392157%,0.392157%,0.392157%);stop-opacity:1;"/>
</linearGradient>
<linearGradient id="linear12" gradientUnits="userSpaceOnUse" x1="420.65" y1="440.99" x2="505.86" y2="440.99" gradientTransform="matrix(1.405958,0,0,1.406678,59.701719,-1.406678)">
<stop offset="0" style="stop-color:rgb(0.392157%,0.392157%,0.392157%);stop-opacity:0;"/>
<stop offset="0.95" style="stop-color:rgb(0.392157%,0.392157%,0.392157%);stop-opacity:1;"/>
</linearGradient>
<linearGradient id="linear13" gradientUnits="userSpaceOnUse" x1="101.23" y1="285.82" x2="229.12" y2="490.67" gradientTransform="matrix(1.405958,0,0,1.406678,59.701719,-1.406678)">
<stop offset="0" style="stop-color:rgb(0.392157%,0.392157%,0.392157%);stop-opacity:0;"/>
<stop offset="0.95" style="stop-color:rgb(0.392157%,0.392157%,0.392157%);stop-opacity:1;"/>
</linearGradient>
<linearGradient id="linear14" gradientUnits="userSpaceOnUse" x1="66.95" y1="415.85" x2="199.93" y2="420.94" gradientTransform="matrix(1.405958,0,0,1.406678,59.701719,-1.406678)">
<stop offset="0" style="stop-color:rgb(0.392157%,0.392157%,0.392157%);stop-opacity:0;"/>
<stop offset="0.95" style="stop-color:rgb(0.392157%,0.392157%,0.392157%);stop-opacity:1;"/>
</linearGradient>
<linearGradient id="linear15" gradientUnits="userSpaceOnUse" x1="126.9" y1="393.11" x2="280.82" y2="448.57" gradientTransform="matrix(1.405958,0,0,1.406678,59.701719,-1.406678)">
<stop offset="0" style="stop-color:rgb(0.392157%,0.392157%,0.392157%);stop-opacity:0;"/>
<stop offset="0.95" style="stop-color:rgb(0.392157%,0.392157%,0.392157%);stop-opacity:1;"/>
</linearGradient>
<linearGradient id="linear16" gradientUnits="userSpaceOnUse" x1="285.18" y1="330.68" x2="488.89" y2="220.53" gradientTransform="matrix(1.405958,0,0,1.406678,61.965312,0)">
<stop offset="0" style="stop-color:rgb(100%,100%,100%);stop-opacity:0;"/>
<stop offset="0.95" style="stop-color:rgb(100%,100%,100%);stop-opacity:1;"/>
</linearGradient>
<linearGradient id="linear17" gradientUnits="userSpaceOnUse" x1="305.62" y1="339.41" x2="-281.27" y2="285.86" gradientTransform="matrix(1.405958,0,0,1.406678,59.701719,-1.406678)">
<stop offset="0" style="stop-color:rgb(0.392157%,0.392157%,0.392157%);stop-opacity:0;"/>
<stop offset="0.95" style="stop-color:rgb(0.392157%,0.392157%,0.392157%);stop-opacity:1;"/>
</linearGradient>
<linearGradient id="linear18" gradientUnits="userSpaceOnUse" x1="237.05" y1="289.97" x2="304.97" y2="289.97" gradientTransform="matrix(1.405958,0,0,1.406678,59.701719,-1.406678)">
<stop offset="0" style="stop-color:rgb(100%,100%,100%);stop-opacity:0;"/>
<stop offset="0.95" style="stop-color:rgb(100%,100%,100%);stop-opacity:1;"/>
</linearGradient>
<linearGradient id="linear19" gradientUnits="userSpaceOnUse" x1="324.51" y1="354.3" x2="376.32" y2="354.3" gradientTransform="matrix(1.405958,0,0,1.406678,59.701719,-1.406678)">
<stop offset="0" style="stop-color:rgb(100%,100%,100%);stop-opacity:0;"/>
<stop offset="0.95" style="stop-color:rgb(100%,100%,100%);stop-opacity:1;"/>
</linearGradient>
<linearGradient id="linear20" gradientUnits="userSpaceOnUse" x1="237.05" y1="289.97" x2="304.97" y2="289.97" gradientTransform="matrix(1.405958,0,0,1.406678,59.701719,-1.406678)">
<stop offset="0" style="stop-color:rgb(100%,100%,100%);stop-opacity:0;"/>
<stop offset="0.95" style="stop-color:rgb(100%,100%,100%);stop-opacity:1;"/>
</linearGradient>
<linearGradient id="linear21" gradientUnits="userSpaceOnUse" x1="350.17" y1="338.14" x2="352.43" y2="405.29" gradientTransform="matrix(1.405958,0,0,1.406678,59.701719,-1.406678)">
<stop offset="0" style="stop-color:rgb(100%,100%,100%);stop-opacity:0;"/>
<stop offset="0.95" style="stop-color:rgb(100%,100%,100%);stop-opacity:1;"/>
</linearGradient>
<linearGradient id="linear22" gradientUnits="userSpaceOnUse" x1="244.3" y1="350.78" x2="251.85" y2="425.1" gradientTransform="matrix(1.405958,0,0,1.406678,59.701719,-1.406678)">
<stop offset="0" style="stop-color:rgb(100%,100%,100%);stop-opacity:0;"/>
<stop offset="0.95" style="stop-color:rgb(100%,100%,100%);stop-opacity:1;"/>
</linearGradient>
<linearGradient id="linear23" gradientUnits="userSpaceOnUse" x1="293.07" y1="248.72" x2="384.37" y2="432.81" gradientTransform="matrix(1.405958,0,0,1.406678,59.701719,-1.406678)">
<stop offset="0" style="stop-color:rgb(0.392157%,0.392157%,0.392157%);stop-opacity:0;"/>
<stop offset="0.95" style="stop-color:rgb(0.392157%,0.392157%,0.392157%);stop-opacity:1;"/>
</linearGradient>
<linearGradient id="linear24" gradientUnits="userSpaceOnUse" x1="275.84" y1="396.78" x2="650.82" y2="325.11" gradientTransform="matrix(1.405958,0,0,1.406678,59.701719,-1.406678)">
<stop offset="0" style="stop-color:rgb(0.392157%,0.392157%,0.392157%);stop-opacity:0;"/>
<stop offset="0.95" style="stop-color:rgb(0.392157%,0.392157%,0.392157%);stop-opacity:1;"/>
</linearGradient>
<linearGradient id="linear25" gradientUnits="userSpaceOnUse" x1="259.51" y1="305.18" x2="147.85" y2="505.88" gradientTransform="matrix(1.405958,0,0,1.406678,59.701719,-1.406678)">
<stop offset="0" style="stop-color:rgb(0.392157%,0.392157%,0.392157%);stop-opacity:0;"/>
<stop offset="0.95" style="stop-color:rgb(0.392157%,0.392157%,0.392157%);stop-opacity:1;"/>
</linearGradient>
<linearGradient id="linear26" gradientUnits="userSpaceOnUse" x1="423.83" y1="354.69" x2="491.48" y2="354.69" gradientTransform="matrix(1.405958,0,0,1.406678,59.701719,-1.406678)">
<stop offset="0" style="stop-color:rgb(0.392157%,0.392157%,0.392157%);stop-opacity:0;"/>
<stop offset="0.95" style="stop-color:rgb(0.392157%,0.392157%,0.392157%);stop-opacity:1;"/>
</linearGradient>
<linearGradient id="linear27" gradientUnits="userSpaceOnUse" x1="32.72" y1="407.62" x2="103.09" y2="407.62" gradientTransform="matrix(1.405958,0,0,1.406678,59.701719,-1.406678)">
<stop offset="0" style="stop-color:rgb(0.392157%,0.392157%,0.392157%);stop-opacity:0;"/>
<stop offset="0.95" style="stop-color:rgb(0.392157%,0.392157%,0.392157%);stop-opacity:1;"/>
</linearGradient>
<linearGradient id="linear28" gradientUnits="userSpaceOnUse" x1="140.22" y1="368.81" x2="158.32" y2="520.46" gradientTransform="matrix(1.405958,0,0,1.406678,59.701719,-1.406678)">
<stop offset="0" style="stop-color:rgb(0.392157%,0.392157%,0.392157%);stop-opacity:0;"/>
<stop offset="0.95" style="stop-color:rgb(0.392157%,0.392157%,0.392157%);stop-opacity:1;"/>
</linearGradient>
<linearGradient id="linear29" gradientUnits="userSpaceOnUse" x1="106.59" y1="254.73" x2="129.92" y2="254.73" gradientTransform="matrix(1.405958,0,0,1.406678,59.701719,-1.406678)">
<stop offset="0" style="stop-color:rgb(0.392157%,0.392157%,0.392157%);stop-opacity:0;"/>
<stop offset="0.95" style="stop-color:rgb(0.392157%,0.392157%,0.392157%);stop-opacity:1;"/>
</linearGradient>
<linearGradient id="linear30" gradientUnits="userSpaceOnUse" x1="152.74" y1="232.68" x2="164.89" y2="232.68" gradientTransform="matrix(1.405958,0,0,1.406678,59.701719,-1.406678)">
<stop offset="0" style="stop-color:rgb(0.392157%,0.392157%,0.392157%);stop-opacity:0;"/>
<stop offset="0.95" style="stop-color:rgb(0.392157%,0.392157%,0.392157%);stop-opacity:1;"/>
</linearGradient>
<linearGradient id="linear31" gradientUnits="userSpaceOnUse" x1="193.68" y1="240.05" x2="211.04" y2="240.05" gradientTransform="matrix(1.405958,0,0,1.406678,59.701719,-1.406678)">
<stop offset="0" style="stop-color:rgb(0.392157%,0.392157%,0.392157%);stop-opacity:0;"/>
<stop offset="0.95" style="stop-color:rgb(0.392157%,0.392157%,0.392157%);stop-opacity:1;"/>
</linearGradient>
<linearGradient id="linear32" gradientUnits="userSpaceOnUse" x1="239.23" y1="141.59" x2="267.9" y2="157.81" gradientTransform="matrix(1.405958,0.00000000000000011,0,1.406678,59.73363,-1.457898)">
<stop offset="0" style="stop-color:rgb(100%,100%,100%);stop-opacity:0;"/>
<stop offset="0.95" style="stop-color:rgb(100%,100%,100%);stop-opacity:1;"/>
</linearGradient>
<linearGradient id="linear33" gradientUnits="userSpaceOnUse" x1="256.96" y1="109.24" x2="285.64" y2="129.8" gradientTransform="matrix(1.405958,0,0,1.406678,59.687581,-1.380619)">
<stop offset="0" style="stop-color:rgb(0.392157%,0.392157%,0.392157%);stop-opacity:0;"/>
<stop offset="0.95" style="stop-color:rgb(0.392157%,0.392157%,0.392157%);stop-opacity:1;"/>
</linearGradient>
<linearGradient id="linear34" gradientUnits="userSpaceOnUse" x1="465.11" y1="251.23" x2="419.84" y2="436.84" gradientTransform="matrix(1.405958,0,0,1.406678,59.701719,-1.406678)">
<stop offset="0" style="stop-color:rgb(0.392157%,0.392157%,0.392157%);stop-opacity:0;"/>
<stop offset="0.95" style="stop-color:rgb(0.392157%,0.392157%,0.392157%);stop-opacity:1;"/>
</linearGradient>
<linearGradient id="linear35" gradientUnits="userSpaceOnUse" x1="205.96" y1="110.9" x2="196.63" y2="113.17" gradientTransform="matrix(1.405958,0,0,1.406678,59.701719,-1.406678)">
<stop offset="0" style="stop-color:rgb(0.392157%,0.392157%,0.392157%);stop-opacity:0;"/>
<stop offset="0.95" style="stop-color:rgb(0.392157%,0.392157%,0.392157%);stop-opacity:1;"/>
</linearGradient>
<linearGradient id="linear36" gradientUnits="userSpaceOnUse" x1="197.73" y1="70.79" x2="206.22" y2="83.95" gradientTransform="matrix(1.405958,0,0,1.406678,59.701719,-1.406678)">
<stop offset="0" style="stop-color:rgb(0.392157%,0.392157%,0.392157%);stop-opacity:0;"/>
<stop offset="0.95" style="stop-color:rgb(0.392157%,0.392157%,0.392157%);stop-opacity:1;"/>
</linearGradient>
<linearGradient id="linear37" gradientUnits="userSpaceOnUse" x1="211.65" y1="109" x2="71.88" y2="167.56" gradientTransform="matrix(1.405958,0,0,1.406678,59.701719,-1.406678)">
<stop offset="0" style="stop-color:rgb(0.392157%,0.392157%,0.392157%);stop-opacity:0;"/>
<stop offset="0.95" style="stop-color:rgb(0.392157%,0.392157%,0.392157%);stop-opacity:1;"/>
</linearGradient>
<linearGradient id="linear38" gradientUnits="userSpaceOnUse" x1="154.05" y1="189.39" x2="282.69" y2="124.51" gradientTransform="matrix(1.405958,0,0,1.406678,59.701719,-1.406678)">
<stop offset="0" style="stop-color:rgb(0.392157%,0.392157%,0.392157%);stop-opacity:0;"/>
<stop offset="0.95" style="stop-color:rgb(0.392157%,0.392157%,0.392157%);stop-opacity:1;"/>
</linearGradient>
<linearGradient id="linear39" gradientUnits="userSpaceOnUse" x1="200.27" y1="104" x2="159.71" y2="126.07" gradientTransform="matrix(1.405958,0,0,1.406678,59.701719,-1.406678)">
<stop offset="0" style="stop-color:rgb(0.392157%,0.392157%,0.392157%);stop-opacity:0;"/>
<stop offset="0.95" style="stop-color:rgb(0.392157%,0.392157%,0.392157%);stop-opacity:1;"/>
</linearGradient>
<linearGradient id="linear40" gradientUnits="userSpaceOnUse" x1="183.08" y1="186.46" x2="238.91" y2="177.79" gradientTransform="matrix(1.405958,0,0,1.406678,59.701719,-1.406678)">
<stop offset="0" style="stop-color:rgb(0.392157%,0.392157%,0.392157%);stop-opacity:0;"/>
<stop offset="0.95" style="stop-color:rgb(0.392157%,0.392157%,0.392157%);stop-opacity:1;"/>
</linearGradient>
<linearGradient id="linear41" gradientUnits="userSpaceOnUse" x1="255.82" y1="106.24" x2="270.81" y2="106.24" gradientTransform="matrix(1.405958,0,-0.00000000000000011,1.406678,59.716041,-1.401023)">
<stop offset="0" style="stop-color:rgb(100%,100%,100%);stop-opacity:0;"/>
<stop offset="0.95" style="stop-color:rgb(100%,100%,100%);stop-opacity:1;"/>
</linearGradient>
</defs>
<g id="surface1">
<use xlink:href="#surface5" mask="url(#mask0)"/>
<path style=" stroke:none;fill-rule:nonzero;fill:rgb(34.509804%,40.392157%,94.117647%);fill-opacity:1;" d="M 514.949219 253.414062 L 576.996094 188.144531 L 653.382812 253.414062 Z M 514.949219 253.414062 "/>
<path style=" stroke:none;fill-rule:nonzero;fill:url(#linear0);" d="M 514.949219 253.414062 L 576.996094 188.144531 L 653.382812 253.414062 Z M 514.949219 253.414062 "/>
<path style=" stroke:none;fill-rule:nonzero;fill:rgb(34.509804%,40.392157%,94.117647%);fill-opacity:1;" d="M 411.921875 250.628906 L 429.425781 217.191406 L 524.890625 216.402344 L 540.003906 249.824219 Z M 411.921875 250.628906 "/>
<path style=" stroke:none;fill-rule:nonzero;fill:rgb(34.509804%,40.392157%,94.117647%);fill-opacity:1;" d="M 613.199219 180.574219 L 596.496094 250.628906 L 673.65625 253.019531 L 700.707031 174.203125 Z M 613.199219 180.574219 "/>
<path style=" stroke:none;fill-rule:nonzero;fill:url(#linear1);" d="M 613.199219 180.574219 L 596.496094 250.628906 L 673.65625 253.019531 L 700.707031 174.203125 Z M 613.199219 180.574219 "/>
<path style=" stroke:none;fill-rule:nonzero;fill:rgb(34.509804%,40.392157%,94.117647%);fill-opacity:1;" d="M 447.058594 250.488281 C 447.058594 279.867188 423.25 303.6875 393.882812 303.6875 C 364.515625 303.6875 340.710938 279.867188 340.710938 250.488281 C 340.710938 221.105469 364.515625 197.285156 393.882812 197.285156 C 423.25 197.285156 447.058594 221.105469 447.058594 250.488281 Z M 447.058594 250.488281 "/>
<path style=" stroke:none;fill-rule:nonzero;fill:url(#linear2);" d="M 447.058594 250.488281 C 447.058594 279.867188 423.25 303.6875 393.882812 303.6875 C 364.515625 303.6875 340.710938 279.867188 340.710938 250.488281 C 340.710938 221.105469 364.515625 197.285156 393.882812 197.285156 C 423.25 197.285156 447.058594 221.105469 447.058594 250.488281 Z M 447.058594 250.488281 "/>
<path style=" stroke:none;fill-rule:nonzero;fill:url(#linear3);" d="M 365.792969 241.949219 C 363.117188 238.910156 361.171875 235.300781 360.097656 231.398438 C 359.035156 227.460938 359.507812 223.269531 361.421875 219.667969 C 363.210938 216.777344 365.804688 214.472656 368.886719 213.042969 C 369.542969 212.667969 370.269531 212.433594 371.023438 212.351562 C 371.867188 212.363281 372.703125 212.542969 373.484375 212.871094 C 380.289062 215.175781 387.394531 216.484375 394.574219 216.753906 C 398.664062 216.910156 402.839844 216.753906 406.804688 217.796875 C 407.820312 217.980469 408.75 218.46875 409.476562 219.203125 C 409.917969 219.808594 410.238281 220.5 410.417969 221.226562 C 413.40625 230.867188 416.148438 240.578125 418.644531 250.359375 C 419.078125 251.023438 419.0625 251.886719 418.601562 252.535156 C 418.140625 253.183594 417.332031 253.480469 416.5625 253.285156 C 404.894531 253.707031 393.222656 253.839844 381.554688 253.679688 C 379.148438 253.679688 366.902344 254.722656 365.976562 252.640625 C 365.441406 251.429688 367.984375 249.363281 368.265625 248.277344 C 369.011719 245.84375 367.339844 243.832031 365.792969 241.949219 Z M 365.792969 241.949219 "/>
<path style=" stroke:none;fill-rule:nonzero;fill:rgb(34.509804%,40.392157%,94.117647%);fill-opacity:1;" d="M 488.519531 190.710938 L 579.320312 226.53125 L 551.398438 297.378906 L 460.597656 261.558594 Z M 488.519531 190.710938 "/>
<path style=" stroke:none;fill-rule:nonzero;fill:url(#linear4);" d="M 488.519531 190.710938 L 579.320312 226.53125 L 551.398438 297.378906 L 460.597656 261.558594 Z M 488.519531 190.710938 "/>
<path style=" stroke:none;fill-rule:nonzero;fill:url(#linear5);" d="M 486.394531 197.070312 L 577.191406 232.890625 L 549.269531 303.738281 L 458.472656 267.917969 Z M 486.394531 197.070312 "/>
<path style=" stroke:none;fill-rule:nonzero;fill:rgb(34.509804%,40.392157%,94.117647%);fill-opacity:1;" d="M 406.839844 212.042969 L 503.863281 201.429688 L 512.136719 277.136719 L 415.113281 287.75 Z M 406.839844 212.042969 "/>
<path style=" stroke:none;fill-rule:nonzero;fill:url(#linear6);" d="M 406.839844 212.042969 L 503.863281 201.429688 L 512.136719 277.136719 L 415.113281 287.75 Z M 406.839844 212.042969 "/>
<path style=" stroke:none;fill-rule:nonzero;fill:url(#linear7);" d="M 408.425781 225.167969 L 505.449219 214.554688 L 513.722656 290.261719 L 416.699219 300.875 Z M 408.425781 225.167969 "/>
<path style=" stroke:none;fill-rule:nonzero;fill:rgb(34.509804%,40.392157%,94.117647%);fill-opacity:1;" d="M 373.679688 179.6875 L 370.460938 179.449219 C 370.460938 179.351562 370.65625 176.917969 371.375 172.9375 L 374.539062 173.5 C 373.863281 177.242188 373.679688 179.660156 373.679688 179.6875 Z M 373.679688 179.6875 "/>
<path style=" stroke:none;fill-rule:nonzero;fill:rgb(34.509804%,40.392157%,94.117647%);fill-opacity:1;" d="M 377.5625 161.261719 L 374.496094 160.359375 C 375.796875 156.210938 377.375 152.148438 379.21875 148.207031 L 382.128906 149.613281 C 380.351562 153.390625 378.824219 157.28125 377.5625 161.261719 Z M 464.957031 159.460938 C 462.386719 159.460938 459.859375 158.847656 457.574219 157.675781 L 458.980469 154.859375 C 460.816406 155.789062 462.84375 156.269531 464.898438 156.269531 C 466.675781 156.25 468.4375 155.917969 470.101562 155.28125 L 471.226562 158.292969 C 469.222656 159.050781 467.097656 159.445312 464.957031 159.460938 Z M 585.488281 155.101562 L 582.324219 154.578125 C 582.789062 151.789062 583.023438 148.96875 583.027344 146.140625 C 583.027344 144.832031 583.027344 143.507812 582.859375 142.1875 L 586.0625 141.917969 C 586.191406 143.328125 586.234375 144.734375 586.234375 146.140625 C 586.25 149.140625 586.015625 152.136719 585.53125 155.101562 Z M 482.164062 150.261719 L 479.703125 148.195312 C 482.308594 145.085938 484.226562 141.460938 485.328125 137.558594 L 488.433594 138.429688 C 487.207031 142.773438 485.070312 146.808594 482.164062 150.261719 Z M 448.113281 147.898438 C 446.042969 143.878906 444.871094 139.457031 444.667969 134.941406 L 447.871094 134.746094 C 448.066406 138.800781 449.113281 142.773438 450.953125 146.394531 Z M 388.34375 138.585938 L 385.671875 136.769531 C 388.132812 133.148438 390.917969 129.757812 393.996094 126.644531 L 396.289062 128.921875 C 393.34375 131.886719 390.683594 135.121094 388.34375 138.585938 Z M 580.257812 130.144531 C 578.84375 126.257812 576.925781 122.574219 574.550781 119.1875 L 577.179688 117.34375 C 579.722656 120.953125 581.777344 124.882812 583.28125 129.035156 Z M 485.339844 125.925781 C 484.015625 122.207031 481.429688 119.070312 478.03125 117.0625 L 479.730469 114.335938 C 483.765625 116.726562 486.828125 120.460938 488.390625 124.886719 Z M 449.152344 122.5625 L 446.046875 121.71875 C 447.214844 117.445312 448.972656 113.355469 451.273438 109.566406 L 454.085938 111.238281 C 451.921875 114.765625 450.257812 118.578125 449.152344 122.5625 Z M 405.917969 120.972656 L 404.160156 118.34375 C 407.835938 115.933594 411.746094 113.90625 415.832031 112.296875 L 416.996094 115.304688 C 413.121094 116.808594 409.40625 118.710938 405.917969 120.972656 Z M 466.585938 112.84375 C 462.449219 112.007812 458.273438 111.378906 454.074219 110.957031 L 454.382812 107.75 C 458.53125 108.160156 462.816406 108.804688 467.21875 109.679688 Z M 429.003906 111.816406 L 428.398438 108.652344 C 432.683594 107.84375 437.019531 107.375 441.378906 107.246094 L 441.476562 110.464844 C 437.289062 110.609375 433.117188 111.078125 429.003906 111.875 Z M 566.242188 109.863281 C 563.109375 107.097656 559.722656 104.632812 556.132812 102.503906 L 557.804688 99.691406 C 561.558594 101.929688 565.097656 104.507812 568.378906 107.398438 Z M 461.804688 101.648438 L 459.597656 99.296875 C 462.824219 96.28125 466.417969 93.683594 470.296875 91.574219 L 471.84375 94.386719 C 468.203125 96.371094 464.832031 98.8125 461.804688 101.648438 Z M 544.871094 96.878906 C 540.988281 95.234375 537.023438 93.804688 532.988281 92.585938 L 533.929688 89.507812 C 538.085938 90.753906 542.167969 92.222656 546.164062 93.910156 Z M 483.375 89.84375 L 482.515625 86.734375 C 486.746094 85.542969 491.082031 84.761719 495.464844 84.402344 L 495.71875 87.609375 C 491.558594 87.941406 487.4375 88.671875 483.414062 89.789062 Z M 520.714844 89.519531 C 516.59375 88.671875 512.425781 88.082031 508.230469 87.75 L 508.46875 84.542969 C 512.800781 84.886719 517.105469 85.492188 521.363281 86.355469 Z M 520.714844 89.519531 "/>
<path style=" stroke:none;fill-rule:nonzero;fill:rgb(34.509804%,40.392157%,94.117647%);fill-opacity:1;" d="M 578.203125 174.160156 L 575.574219 172.289062 C 576.742188 170.609375 577.75 168.824219 578.585938 166.957031 L 581.507812 168.367188 C 580.585938 170.394531 579.480469 172.332031 578.203125 174.160156 Z M 578.203125 174.160156 "/>
<path style=" stroke:none;fill-rule:nonzero;fill:rgb(34.509804%,40.392157%,94.117647%);fill-opacity:1;" d="M 140.8125 349.292969 C 135.371094 389.382812 130.042969 431.046875 142.21875 469.621094 C 144.648438 477.300781 147.839844 484.996094 153.648438 490.636719 C 159.453125 496.277344 168.128906 499.484375 175.734375 496.839844 C 184.566406 493.757812 189.203125 484.277344 192.605469 475.554688 C 200.945312 454.144531 222.355469 407.148438 197.796875 398.695312 C 160.777344 385.949219 140.714844 349.925781 140.8125 349.292969 Z M 140.8125 349.292969 "/>
<path style=" stroke:none;fill-rule:nonzero;fill:url(#linear8);" d="M 140.8125 349.292969 C 135.371094 389.382812 130.042969 431.046875 142.21875 469.621094 C 144.648438 477.300781 147.839844 484.996094 153.648438 490.636719 C 159.453125 496.277344 168.128906 499.484375 175.734375 496.839844 C 184.566406 493.757812 189.203125 484.277344 192.605469 475.554688 C 200.945312 454.144531 222.355469 407.148438 197.796875 398.695312 C 160.777344 385.949219 140.714844 349.925781 140.8125 349.292969 Z M 140.8125 349.292969 "/>
<path style=" stroke:none;fill-rule:nonzero;fill:rgb(34.509804%,40.392157%,94.117647%);fill-opacity:1;" d="M 774.632812 494.871094 C 790.789062 475.597656 801.160156 452.144531 804.550781 427.222656 C 807.363281 406.121094 805.15625 384.375 810.527344 363.796875 C 811.847656 358.757812 813.816406 353.554688 817.949219 350.390625 C 822.953125 346.578125 830.140625 346.71875 835.917969 349.207031 C 841.695312 351.699219 846.363281 356.242188 850.734375 360.714844 C 853.546875 363.527344 856.359375 366.972656 855.925781 370.886719 C 855.542969 374.261719 852.832031 376.808594 850.382812 379.15625 C 842.371094 386.824219 835.328125 395.753906 831.390625 406.121094 C 820.140625 435.664062 835.707031 471.953125 819.382812 498.960938 C 815.164062 505.996094 809.105469 511.621094 804.761719 518.570312 C 796.144531 532.246094 795.003906 549.179688 794.105469 565.316406 C 793.363281 578.734375 792.613281 592.152344 791.855469 605.5625 C 791.363281 614.492188 790.828125 623.582031 787.761719 631.976562 C 784.140625 641.808594 777.277344 650.109375 768.304688 655.511719 C 761.976562 659.296875 754.246094 661.53125 747.214844 659.492188 C 739.695312 657.328125 734.125 650.644531 731.46875 643.289062 C 728.8125 635.929688 728.65625 627.925781 728.894531 620.121094 C 729.726562 594.800781 736.953125 571.492188 741.128906 546.847656 C 744.9375 524.394531 760.445312 511.734375 774.632812 494.871094 Z M 774.632812 494.871094 "/>
<path style=" stroke:none;fill-rule:nonzero;fill:url(#linear9);" d="M 775.6875 492.757812 C 791.839844 473.480469 802.214844 450.023438 805.617188 425.097656 C 808.429688 403.996094 806.210938 382.25 811.59375 361.671875 C 812.902344 356.636719 814.871094 351.429688 819.003906 348.265625 C 824.007812 344.453125 831.191406 344.59375 836.984375 347.082031 C 842.777344 349.574219 847.417969 354.117188 851.804688 358.605469 C 854.53125 361.417969 857.429688 364.851562 856.976562 368.761719 C 856.613281 372.136719 853.898438 374.683594 851.453125 377.03125 C 843.4375 384.699219 836.382812 393.628906 832.457031 403.996094 C 821.210938 433.539062 836.773438 469.832031 820.453125 496.839844 C 816.234375 503.871094 810.175781 509.5 805.828125 516.433594 C 797.210938 530.105469 796.074219 547.042969 795.171875 563.175781 C 794.414062 576.597656 793.664062 590.011719 792.921875 603.421875 C 792.417969 612.355469 791.898438 621.441406 788.832031 629.839844 C 785.214844 639.664062 778.363281 647.964844 769.402344 653.375 C 763.074219 657.15625 755.339844 659.394531 748.3125 657.355469 C 740.804688 655.1875 735.238281 648.507812 732.566406 641.148438 C 729.894531 633.792969 729.753906 625.789062 730.007812 617.980469 C 730.835938 592.660156 738.0625 569.351562 742.238281 544.707031 C 746.007812 522.285156 761.5 509.613281 775.6875 492.757812 Z M 775.6875 492.757812 "/>
<path style=" stroke:none;fill-rule:nonzero;fill:rgb(34.509804%,40.392157%,94.117647%);fill-opacity:1;" d="M 773.929688 493.925781 C 779.425781 459.925781 775.757812 425.195312 772.074219 390.957031 C 727.363281 400.664062 682.089844 418.09375 652.398438 452.964844 C 635.527344 472.8125 624.8125 497.175781 617.375 522.117188 C 611.328125 542.371094 607.320312 563.183594 605.410156 584.234375 C 604.960938 586.671875 605.226562 589.1875 606.167969 591.480469 C 607.53125 593.5625 609.492188 595.179688 611.792969 596.121094 C 688.996094 636.535156 762.203125 566.597656 773.929688 493.925781 Z M 773.929688 493.925781 "/>
<path style=" stroke:none;fill-rule:nonzero;fill:url(#linear10);" d="M 773.929688 493.925781 C 779.425781 459.925781 775.757812 425.195312 772.074219 390.957031 C 727.363281 400.664062 682.089844 418.09375 652.398438 452.964844 C 635.527344 472.8125 624.8125 497.175781 617.375 522.117188 C 611.328125 542.371094 607.320312 563.183594 605.410156 584.234375 C 604.960938 586.671875 605.226562 589.1875 606.167969 591.480469 C 607.53125 593.5625 609.492188 595.179688 611.792969 596.121094 C 688.996094 636.535156 762.203125 566.597656 773.929688 493.925781 Z M 773.929688 493.925781 "/>
<path style=" stroke:none;fill-rule:nonzero;fill:rgb(34.509804%,40.392157%,94.117647%);fill-opacity:1;" d="M 747.820312 558.296875 C 784.179688 559.097656 818.457031 574.953125 850.214844 592.703125 C 830.660156 623.480469 808.78125 654.695312 776.699219 672 C 733.71875 695.179688 680.222656 688.710938 634.949219 670.421875 C 633.140625 669.917969 631.566406 668.792969 630.507812 667.242188 C 629.523438 665.316406 630.238281 663.023438 630.96875 660.96875 C 640.390625 634.972656 649.007812 609.894531 669.042969 590.398438 C 690.625 569.410156 717.339844 557.621094 747.820312 558.296875 Z M 747.820312 558.296875 "/>
<path style=" stroke:none;fill-rule:nonzero;fill:url(#linear11);" d="M 747.820312 558.296875 C 784.179688 559.097656 818.457031 574.953125 850.214844 592.703125 C 830.660156 623.480469 808.78125 654.695312 776.699219 672 C 733.71875 695.179688 680.222656 688.710938 634.949219 670.421875 C 633.140625 669.917969 631.566406 668.792969 630.507812 667.242188 C 629.523438 665.316406 630.238281 663.023438 630.96875 660.96875 C 640.390625 634.972656 649.007812 609.894531 669.042969 590.398438 C 690.625 569.410156 717.339844 557.621094 747.820312 558.296875 Z M 747.820312 558.296875 "/>
<path style=" stroke:none;fill-rule:nonzero;fill:url(#linear12);" d="M 690.21875 622.457031 C 701.816406 624.113281 713.457031 626.675781 725.140625 625.71875 C 742.941406 624.226562 759.433594 614.296875 770.917969 600.609375 C 762.75 613.523438 753.726562 627.179688 739.609375 632.964844 C 725.703125 638.703125 709.941406 635.578125 695.097656 633.089844 C 679.839844 630.53125 665.386719 629.925781 651.386719 637.195312 C 647.828125 617.363281 679.800781 620.964844 690.21875 622.457031 Z M 690.21875 622.457031 "/>
<path style=" stroke:none;fill-rule:nonzero;fill:rgb(34.509804%,40.392157%,94.117647%);fill-opacity:1;" d="M 208.101562 213.222656 C 191.339844 202.195312 165.5 202.253906 154.042969 218.722656 C 142.921875 234.730469 150.089844 256.703125 158.949219 274.078125 C 168.550781 292.953125 179.8125 311.074219 187.433594 330.835938 C 195.054688 350.601562 198.890625 372.769531 192.875 393.027344 C 187.601562 410.988281 175.257812 426.039062 168.550781 443.511719 C 158.261719 471.195312 162.714844 502.207031 180.375 525.871094 C 191.761719 540.8125 208.496094 552.78125 213.300781 570.957031 C 217.042969 585.148438 212.558594 600.144531 213.300781 614.804688 C 214.511719 638.800781 230.457031 660.800781 251.671875 672.039062 C 272.886719 683.28125 298.601562 684.476562 321.773438 678.171875 C 325.78125 677.089844 329.882812 675.683594 332.753906 672.6875 C 338.222656 666.976562 337.25 657.890625 335.929688 650.097656 C 323.953125 579.761719 311.96875 509.398438 299.980469 439.011719 C 295.117188 410.398438 294.722656 380.085938 287.917969 351.949219 C 283.152344 332.257812 271.972656 315.054688 262.679688 297.273438 C 248.101562 269.378906 235.601562 231.285156 208.101562 213.222656 Z M 208.101562 213.222656 "/>
<path style=" stroke:none;fill-rule:nonzero;fill:url(#linear13);" d="M 208.101562 213.222656 C 191.339844 202.195312 165.5 202.253906 154.042969 218.722656 C 142.921875 234.730469 150.089844 256.703125 158.949219 274.078125 C 168.550781 292.953125 179.8125 311.074219 187.433594 330.835938 C 195.054688 350.601562 198.890625 372.769531 192.875 393.027344 C 187.601562 410.988281 175.257812 426.039062 168.550781 443.511719 C 158.261719 471.195312 162.714844 502.207031 180.375 525.871094 C 191.761719 540.8125 208.496094 552.78125 213.300781 570.957031 C 217.042969 585.148438 212.558594 600.144531 213.300781 614.804688 C 214.511719 638.800781 230.457031 660.800781 251.671875 672.039062 C 272.886719 683.28125 298.601562 684.476562 321.773438 678.171875 C 325.78125 677.089844 329.882812 675.683594 332.753906 672.6875 C 338.222656 666.976562 337.25 657.890625 335.929688 650.097656 C 323.953125 579.761719 311.96875 509.398438 299.980469 439.011719 C 295.117188 410.398438 294.722656 380.085938 287.917969 351.949219 C 283.152344 332.257812 271.972656 315.054688 262.679688 297.273438 C 248.101562 269.378906 235.601562 231.285156 208.101562 213.222656 Z M 208.101562 213.222656 "/>
<path style=" stroke:none;fill-rule:nonzero;fill:rgb(34.509804%,40.392157%,94.117647%);fill-opacity:1;" d="M 61.964844 484.953125 C 64.449219 535.121094 78.824219 583.976562 103.90625 627.492188 C 112.214844 641.851562 121.914062 655.851562 135.273438 665.683594 C 151.960938 678.019531 172.882812 682.746094 193.269531 686.105469 C 204.207031 687.90625 215.652344 689.355469 226.195312 685.964844 C 241.265625 681.113281 251.964844 666.808594 255.804688 651.433594 C 259.644531 636.058594 257.519531 619.808594 253.457031 604.507812 C 231.550781 521.75 148.882812 459.984375 61.964844 484.953125 Z M 61.964844 484.953125 "/>
<path style=" stroke:none;fill-rule:nonzero;fill:url(#linear14);" d="M 61.964844 484.953125 C 64.449219 535.121094 78.824219 583.976562 103.90625 627.492188 C 112.214844 641.851562 121.914062 655.851562 135.273438 665.683594 C 151.960938 678.019531 172.882812 682.746094 193.269531 686.105469 C 204.207031 687.90625 215.652344 689.355469 226.195312 685.964844 C 241.265625 681.113281 251.964844 666.808594 255.804688 651.433594 C 259.644531 636.058594 257.519531 619.808594 253.457031 604.507812 C 231.550781 521.75 148.882812 459.984375 61.964844 484.953125 Z M 61.964844 484.953125 "/>
<path style=" stroke:none;fill-rule:nonzero;fill:rgb(34.509804%,40.392157%,94.117647%);fill-opacity:1;" d="M 232.367188 431.035156 C 210.605469 476.296875 199.914062 526.089844 201.183594 576.300781 C 201.621094 592.902344 203.460938 609.824219 210.503906 624.847656 C 219.304688 643.613281 235.40625 657.820312 251.742188 670.535156 C 260.488281 677.34375 269.851562 684.082031 280.746094 686.136719 C 296.296875 689.074219 312.535156 681.621094 323.234375 669.957031 C 333.933594 658.296875 339.839844 642.980469 343.578125 627.589844 C 363.796875 544.382812 320.621094 450.6875 232.367188 431.035156 Z M 232.367188 431.035156 "/>
<path style=" stroke:none;fill-rule:nonzero;fill:url(#linear15);" d="M 232.367188 431.035156 C 210.605469 476.296875 199.914062 526.089844 201.183594 576.300781 C 201.621094 592.902344 203.460938 609.824219 210.503906 624.847656 C 219.304688 643.613281 235.40625 657.820312 251.742188 670.535156 C 260.488281 677.34375 269.851562 684.082031 280.746094 686.136719 C 296.296875 689.074219 312.535156 681.621094 323.234375 669.957031 C 333.933594 658.296875 339.839844 642.980469 343.578125 627.589844 C 363.796875 544.382812 320.621094 450.6875 232.367188 431.035156 Z M 232.367188 431.035156 "/>
<path style=" stroke:none;fill-rule:nonzero;fill:rgb(34.509804%,40.392157%,94.117647%);fill-opacity:1;" d="M 695.941406 252.1875 L 646.605469 686.824219 L 302.945312 686.824219 L 295.539062 605.6875 L 294.523438 594.730469 L 290.855469 554.527344 L 289.828125 543.554688 L 283.894531 478.46875 L 263.15625 252.1875 Z M 695.941406 252.1875 "/>
<path style=" stroke:none;fill-rule:nonzero;fill:url(#linear16);" d="M 695.941406 252.1875 L 646.605469 686.824219 L 302.945312 686.824219 L 295.539062 605.6875 L 294.523438 594.730469 L 290.855469 554.527344 L 289.828125 543.554688 L 283.894531 478.46875 L 263.15625 252.1875 Z M 695.941406 252.1875 "/>
<path style=" stroke:none;fill-rule:nonzero;fill:url(#linear17);" d="M 381.777344 252.203125 L 374.089844 250.21875 L 373.917969 252.203125 L 370.757812 287.765625 L 312.4375 287.765625 L 315.488281 253.160156 L 311.761719 252.203125 L 304.070312 250.21875 L 303.902344 252.203125 L 283.894531 478.480469 L 289.828125 543.554688 L 293.386719 503.40625 L 351.707031 503.40625 L 348.148438 543.554688 L 289.828125 543.554688 L 290.839844 554.527344 L 347.191406 554.527344 L 343.707031 594.730469 L 294.496094 594.730469 L 295.507812 605.703125 L 342.582031 605.703125 L 336.421875 675.527344 L 347.839844 678.34375 L 385.503906 253.203125 Z M 352.507812 493.914062 L 352.28125 492.335938 L 294.355469 492.335938 L 297.914062 452.191406 L 356.230469 452.191406 Z M 357.1875 441.21875 L 298.871094 441.21875 L 302.425781 401.070312 L 360.757812 401.070312 Z M 361.714844 390.101562 L 303.394531 390.101562 L 306.953125 349.898438 L 365.273438 349.898438 Z M 366.199219 339.007812 L 307.910156 339.007812 L 311.480469 298.804688 L 369.800781 298.804688 Z M 366.199219 339.007812 "/>
<path style=" stroke:none;fill-rule:nonzero;fill:rgb(13.72549%,12.156863%,12.54902%);fill-opacity:1;" d="M 373.566406 250.246094 L 363.726562 287.609375 L 305.40625 287.609375 L 314.488281 253.203125 L 303.550781 250.390625 L 192.171875 673.800781 L 203.109375 676.613281 L 222.144531 604.222656 L 280.4375 604.222656 L 262.160156 673.726562 L 273.097656 676.613281 L 384.476562 253.203125 Z M 296.730469 542.316406 L 238.414062 542.316406 L 248.945312 502.324219 L 307.261719 502.324219 Z M 309.738281 492.914062 L 309.738281 491.378906 L 251.8125 491.378906 L 262.34375 451.390625 L 320.660156 451.390625 Z M 323.542969 440.445312 L 265.210938 440.445312 L 275.742188 400.4375 L 334.058594 400.4375 Z M 336.941406 389.496094 L 278.609375 389.496094 L 289.140625 349.488281 L 347.460938 349.488281 Z M 350.339844 338.546875 L 292.007812 338.546875 L 302.539062 298.554688 L 360.859375 298.554688 Z M 235.542969 553.261719 L 293.863281 553.261719 L 283.332031 593.265625 L 225.015625 593.265625 Z M 235.542969 553.261719 "/>
<path style=" stroke:none;fill-rule:nonzero;fill:rgb(34.509804%,40.392157%,94.117647%);fill-opacity:1;" d="M 289.773438 327.445312 C 290.800781 329.363281 291.398438 331.480469 291.53125 333.648438 C 291.558594 334.21875 291.398438 334.78125 291.082031 335.253906 C 290.292969 336.183594 288.816406 335.84375 287.691406 335.378906 C 284.542969 334.113281 281.542969 332.5 278.75 330.570312 C 276.824219 329.164062 274.882812 327.53125 274.53125 325.222656 C 273.984375 321.960938 277.007812 314.886719 281.152344 316.191406 C 285.511719 317.53125 288.070312 323.648438 289.773438 327.445312 Z M 289.773438 327.445312 "/>
<path style=" stroke:none;fill-rule:nonzero;fill:url(#linear18);" d="M 392.984375 419.90625 L 437.652344 446.632812 C 437.652344 446.632812 471.394531 373.710938 488.476562 369.886719 C 488.476562 369.886719 442.082031 363.429688 430.296875 367.832031 C 418.515625 372.234375 392.984375 419.90625 392.984375 419.90625 Z M 392.984375 419.90625 "/>
<path style=" stroke:none;fill-rule:nonzero;fill:rgb(34.509804%,40.392157%,94.117647%);fill-opacity:1;" d="M 464.292969 403.238281 C 464.292969 403.238281 470.355469 403.238281 472.914062 408.332031 C 475.472656 413.421875 480.546875 424.015625 480.546875 424.015625 L 465.855469 433.425781 L 517.382812 435.578125 L 540.890625 391.054688 L 526.199219 396.542969 C 526.199219 396.542969 510.285156 365.917969 492.300781 371.660156 C 478.789062 375.992188 464.292969 403.238281 464.292969 403.238281 Z M 464.292969 403.238281 "/>
<path style=" stroke:none;fill-rule:nonzero;fill:url(#linear19);" d="M 560.730469 443.105469 L 515.949219 469.691406 C 515.949219 469.691406 563.976562 534.117188 559.226562 550.925781 C 559.226562 550.925781 587.007812 513.15625 588.75 500.707031 C 590.492188 488.257812 560.730469 443.105469 560.730469 443.105469 Z M 560.730469 443.105469 "/>
<path style=" stroke:none;fill-rule:nonzero;fill:rgb(34.509804%,40.392157%,94.117647%);fill-opacity:1;" d="M 541.4375 513.746094 C 541.4375 513.746094 538.558594 519.09375 532.863281 518.910156 C 527.167969 518.726562 515.441406 518.164062 515.441406 518.164062 L 514.164062 500.777344 L 487.746094 545.085938 L 515.683594 586.949219 L 517.847656 571.40625 C 517.847656 571.40625 552.347656 571.96875 555.808594 553.429688 C 558.492188 539.460938 541.4375 513.746094 541.4375 513.746094 Z M 541.4375 513.746094 "/>
<path style=" stroke:none;fill-rule:nonzero;fill:rgb(34.509804%,40.392157%,94.117647%);fill-opacity:1;" d="M 447.4375 581.800781 L 451.964844 529.921875 C 451.964844 529.921875 371.640625 531.332031 360.757812 517.65625 C 360.757812 517.65625 375.210938 562.277344 384.308594 570.929688 C 393.40625 579.578125 447.4375 581.800781 447.4375 581.800781 Z M 447.4375 581.800781 "/>
<path style=" stroke:none;fill-rule:nonzero;fill:url(#linear20);" d="M 392.984375 419.90625 L 437.652344 446.632812 C 437.652344 446.632812 471.394531 373.710938 488.476562 369.886719 C 488.476562 369.886719 442.082031 363.429688 430.296875 367.832031 C 418.515625 372.234375 392.984375 419.90625 392.984375 419.90625 Z M 392.984375 419.90625 "/>
<path style=" stroke:none;fill-rule:nonzero;fill:url(#linear21);" d="M 560.730469 443.105469 L 515.949219 469.691406 C 515.949219 469.691406 563.976562 534.117188 559.226562 550.925781 C 559.226562 550.925781 587.007812 513.15625 588.75 500.707031 C 590.492188 488.257812 560.730469 443.105469 560.730469 443.105469 Z M 560.730469 443.105469 "/>
<path style=" stroke:none;fill-rule:nonzero;fill:url(#linear22);" d="M 447.4375 581.800781 L 451.964844 529.921875 C 451.964844 529.921875 371.640625 531.332031 360.757812 517.65625 C 360.757812 517.65625 375.210938 562.277344 384.308594 570.929688 C 393.40625 579.578125 447.4375 581.800781 447.4375 581.800781 Z M 447.4375 581.800781 "/>
<path style=" stroke:none;fill-rule:nonzero;fill:rgb(34.509804%,40.392157%,94.117647%);fill-opacity:1;" d="M 401.347656 524.886719 C 401.347656 524.886719 398.691406 519.429688 402.164062 514.902344 C 405.636719 510.371094 412.933594 501.183594 412.933594 501.183594 L 427.808594 510.300781 L 407.253906 462.980469 L 356.976562 461.25 L 368.324219 472.082031 C 368.324219 472.082031 347.742188 499.765625 360.746094 513.453125 C 370.503906 523.734375 401.347656 524.886719 401.347656 524.886719 Z M 401.347656 524.886719 "/>
<path style=" stroke:none;fill-rule:nonzero;fill:rgb(34.509804%,40.392157%,94.117647%);fill-opacity:1;" d="M 464.292969 403.238281 C 464.292969 403.238281 470.355469 403.238281 472.914062 408.332031 C 475.472656 413.421875 480.546875 424.015625 480.546875 424.015625 L 465.855469 433.425781 L 517.382812 435.578125 L 540.890625 391.054688 L 526.199219 396.542969 C 526.199219 396.542969 510.285156 365.917969 492.300781 371.660156 C 478.789062 375.992188 464.292969 403.238281 464.292969 403.238281 Z M 464.292969 403.238281 "/>
<path style=" stroke:none;fill-rule:nonzero;fill:rgb(34.509804%,40.392157%,94.117647%);fill-opacity:1;" d="M 541.4375 513.746094 C 541.4375 513.746094 538.558594 519.09375 532.863281 518.910156 C 527.167969 518.726562 515.441406 518.164062 515.441406 518.164062 L 514.164062 500.777344 L 487.746094 545.085938 L 515.683594 586.949219 L 517.847656 571.40625 C 517.847656 571.40625 552.347656 571.96875 555.808594 553.429688 C 558.492188 539.460938 541.4375 513.746094 541.4375 513.746094 Z M 541.4375 513.746094 "/>
<path style=" stroke:none;fill-rule:nonzero;fill:rgb(34.509804%,40.392157%,94.117647%);fill-opacity:1;" d="M 401.347656 524.886719 C 401.347656 524.886719 398.691406 519.429688 402.164062 514.902344 C 405.636719 510.371094 412.933594 501.183594 412.933594 501.183594 L 427.808594 510.300781 L 407.253906 462.980469 L 356.976562 461.25 L 368.324219 472.082031 C 368.324219 472.082031 347.742188 499.765625 360.746094 513.453125 C 370.503906 523.734375 401.347656 524.886719 401.347656 524.886719 Z M 401.347656 524.886719 "/>
<path style=" stroke:none;fill-rule:nonzero;fill:url(#linear23);" d="M 464.292969 403.238281 C 464.292969 403.238281 470.355469 403.238281 472.914062 408.332031 C 475.472656 413.421875 480.546875 424.015625 480.546875 424.015625 L 465.855469 433.425781 L 517.382812 435.578125 L 540.890625 391.054688 L 526.199219 396.542969 C 526.199219 396.542969 510.285156 365.917969 492.300781 371.660156 C 478.789062 375.992188 464.292969 403.238281 464.292969 403.238281 Z M 464.292969 403.238281 "/>
<path style=" stroke:none;fill-rule:nonzero;fill:url(#linear24);" d="M 541.4375 513.746094 C 541.4375 513.746094 538.558594 519.09375 532.863281 518.910156 C 527.167969 518.726562 515.441406 518.164062 515.441406 518.164062 L 514.164062 500.777344 L 487.746094 545.085938 L 515.683594 586.949219 L 517.847656 571.40625 C 517.847656 571.40625 552.347656 571.96875 555.808594 553.429688 C 558.492188 539.460938 541.4375 513.746094 541.4375 513.746094 Z M 541.4375 513.746094 "/>
<path style=" stroke:none;fill-rule:nonzero;fill:url(#linear25);" d="M 401.347656 524.886719 C 401.347656 524.886719 398.691406 519.429688 402.164062 514.902344 C 405.636719 510.371094 412.933594 501.183594 412.933594 501.183594 L 427.808594 510.300781 L 407.253906 462.980469 L 356.976562 461.25 L 368.324219 472.082031 C 368.324219 472.082031 347.742188 499.765625 360.746094 513.453125 C 370.503906 523.734375 401.347656 524.886719 401.347656 524.886719 Z M 401.347656 524.886719 "/>
<path style=" stroke:none;fill-rule:nonzero;fill:url(#linear26);" d="M 664.390625 542.625 C 664.152344 530.542969 671.898438 519.726562 680.726562 511.496094 C 689.558594 503.265625 699.863281 496.5 707.441406 487.046875 C 714.316406 478.410156 718.519531 467.960938 724.621094 458.746094 C 730.722656 449.53125 739.734375 441.132812 750.746094 440.320312 C 742.746094 440.671875 736.050781 446.816406 732.101562 453.765625 C 728.152344 460.714844 726.210938 468.636719 723.0625 475.992188 C 718.535156 486.503906 711.570312 495.789062 702.746094 503.070312 C 695.855469 508.695312 687.925781 513.085938 681.65625 519.332031 C 671.914062 528.910156 666.695312 542.035156 661.734375 554.75 C 655.269531 549.890625 653.792969 540.789062 658.386719 534.128906 "/>
<path style=" stroke:none;fill-rule:nonzero;fill:url(#linear27);" d="M 173.964844 607.601562 C 167.820312 606.109375 161.394531 606.671875 155.097656 607.25 L 116.699219 610.765625 C 128.925781 601.929688 143.003906 595.992188 157.867188 593.40625 C 159.519531 593.335938 161.101562 592.695312 162.335938 591.59375 C 164.570312 588.976562 162 585.109375 159.523438 582.714844 C 139.644531 563.515625 118.542969 544.625 105.761719 520.105469 C 118.089844 524.328125 128.59375 532.660156 135.511719 543.710938 C 135.746094 533.089844 139.019531 522.757812 144.945312 513.945312 C 145.53125 523.410156 144.34375 532.90625 141.445312 541.9375 C 140.773438 543.484375 140.507812 545.179688 140.671875 546.859375 C 141.164062 548.621094 142.15625 550.203125 143.523438 551.417969 L 173.90625 582.871094 C 178.125 576.753906 182.105469 570.40625 185.746094 563.910156 C 183.636719 578.128906 181.9375 594.054688 190.496094 605.601562 C 195.476562 612.3125 208.410156 620.726562 203.585938 630.078125 C 192.675781 623.160156 187.980469 611.019531 173.964844 607.601562 Z M 173.964844 607.601562 "/>
<path style=" stroke:none;fill-rule:nonzero;fill:url(#linear28);" d="M 246.496094 530.21875 C 251.320312 550.871094 257.367188 571.363281 266.757812 590.367188 C 272.816406 602.648438 280.351562 614.578125 282.488281 628.097656 C 284.21875 639.039062 279.285156 641.796875 274.238281 633.074219 C 268.796875 623.652344 266.742188 609.332031 262.75 598.949219 C 258.378906 587.597656 253.738281 576.289062 250.546875 564.515625 C 247.480469 553.164062 249.042969 541.164062 246.496094 530.21875 Z M 246.496094 530.21875 "/>
<path style=" stroke:none;fill-rule:nonzero;fill:url(#linear29);" d="M 225.125 416.953125 C 224.464844 406.699219 226.40625 396.484375 227.9375 386.34375 C 234.195312 346.183594 233.957031 301.648438 209.519531 269.195312 C 226.097656 279.042969 235.023438 298.511719 237.554688 317.65625 C 240.085938 336.800781 237.230469 356.199219 235.515625 375.441406 C 233.800781 394.6875 233.367188 414.660156 240.394531 432.667969 C 243.742188 441.234375 243.207031 448.660156 234.433594 442.148438 C 227.96875 437.351562 225.605469 424.339844 225.125 416.953125 Z M 225.125 416.953125 "/>
<path style=" stroke:none;fill-rule:nonzero;fill:rgb(100%,77.647059%,78.431373%);fill-opacity:1;" d="M 334.144531 325.042969 C 334.171875 327.265625 335.09375 329.386719 336.703125 330.921875 C 337.664062 331.835938 339.136719 331.953125 340.234375 331.203125 C 340.792969 330.496094 341.050781 329.59375 340.949219 328.699219 C 340.949219 326.855469 340.78125 325.015625 340.457031 323.199219 C 340.332031 321.417969 339.464844 319.777344 338.066406 318.667969 C 333.117188 315.671875 333.863281 322.128906 334.144531 325.042969 Z M 334.144531 325.042969 "/>
<path style=" stroke:none;fill-rule:nonzero;fill:rgb(100%,77.647059%,78.431373%);fill-opacity:1;" d="M 283.585938 319.148438 C 283.371094 319.523438 283.046875 319.820312 282.660156 320.003906 C 281.945312 320.132812 281.226562 319.800781 280.859375 319.175781 C 279.765625 317.585938 279.492188 315.570312 280.128906 313.746094 C 280.902344 311.324219 283.488281 307.175781 285.820312 310.355469 C 287.847656 313.113281 285.148438 316.925781 283.585938 319.148438 Z M 283.585938 319.148438 "/>
<path style=" stroke:none;fill-rule:nonzero;fill:rgb(34.509804%,40.392157%,94.117647%);fill-opacity:1;" d="M 334.285156 328.234375 C 335.65625 328.128906 337.03125 328.394531 338.265625 329.007812 L 349.511719 333.453125 C 351.683594 334.101562 353.652344 335.292969 355.234375 336.914062 C 356.640625 338.671875 356.949219 341.554688 355.234375 343.03125 C 354.121094 343.828125 352.777344 344.242188 351.410156 344.214844 C 347.773438 344.457031 344.121094 344.363281 340.5 343.933594 C 338.96875 343.8125 337.464844 343.453125 336.042969 342.863281 C 334.613281 342.25 333.488281 341.097656 332.90625 339.65625 C 332.667969 338.847656 332.542969 338.011719 332.542969 337.167969 C 332.457031 334.621094 330.617188 328.851562 334.285156 328.234375 Z M 334.285156 328.234375 "/>
<path style=" stroke:none;fill-rule:nonzero;fill:rgb(34.509804%,40.392157%,94.117647%);fill-opacity:1;" d="M 289.773438 327.445312 C 290.800781 329.363281 291.398438 331.480469 291.53125 333.648438 C 291.558594 334.21875 291.398438 334.78125 291.082031 335.253906 C 290.292969 336.183594 288.816406 335.84375 287.691406 335.378906 C 284.542969 334.113281 281.542969 332.5 278.75 330.570312 C 276.824219 329.164062 274.882812 327.53125 274.53125 325.222656 C 273.984375 321.960938 277.007812 314.886719 281.152344 316.191406 C 285.511719 317.53125 288.070312 323.648438 289.773438 327.445312 Z M 289.773438 327.445312 "/>
<path style=" stroke:none;fill-rule:nonzero;fill:url(#linear30);" d="M 289.773438 327.445312 C 290.800781 329.363281 291.398438 331.480469 291.53125 333.648438 C 291.558594 334.21875 291.398438 334.78125 291.082031 335.253906 C 290.292969 336.183594 288.816406 335.84375 287.691406 335.378906 C 284.542969 334.113281 281.542969 332.5 278.75 330.570312 C 276.824219 329.164062 274.882812 327.53125 274.53125 325.222656 C 273.984375 321.960938 277.007812 314.886719 281.152344 316.191406 C 285.511719 317.53125 288.070312 323.648438 289.773438 327.445312 Z M 289.773438 327.445312 "/>
<path style=" stroke:none;fill-rule:nonzero;fill:url(#linear31);" d="M 334.285156 328.234375 C 335.65625 328.128906 337.03125 328.394531 338.265625 329.007812 L 349.511719 333.453125 C 351.683594 334.101562 353.652344 335.292969 355.234375 336.914062 C 356.640625 338.671875 356.949219 341.554688 355.234375 343.03125 C 354.121094 343.828125 352.777344 344.242188 351.410156 344.214844 C 347.773438 344.457031 344.121094 344.363281 340.5 343.933594 C 338.96875 343.8125 337.464844 343.453125 336.042969 342.863281 C 334.613281 342.25 333.488281 341.097656 332.90625 339.65625 C 332.667969 338.847656 332.542969 338.011719 332.542969 337.167969 C 332.457031 334.621094 330.617188 328.851562 334.285156 328.234375 Z M 334.285156 328.234375 "/>
<path style=" stroke:none;fill-rule:nonzero;fill:rgb(34.509804%,40.392157%,94.117647%);fill-opacity:1;" d="M 385.457031 242.152344 L 369.046875 232.609375 C 362.65625 228.894531 360.484375 220.699219 364.199219 214.304688 L 394.714844 161.761719 C 398.425781 155.367188 406.621094 153.195312 413.011719 156.910156 L 429.421875 166.453125 C 435.8125 170.167969 437.984375 178.363281 434.269531 184.757812 L 403.753906 237.300781 C 400.039062 243.695312 391.847656 245.867188 385.457031 242.152344 Z M 385.457031 242.152344 "/>
<path style=" stroke:none;fill-rule:nonzero;fill:url(#linear32);" d="M 385.457031 242.152344 L 369.046875 232.609375 C 362.65625 228.894531 360.484375 220.699219 364.199219 214.304688 L 394.714844 161.761719 C 398.425781 155.367188 406.621094 153.195312 413.011719 156.910156 L 429.421875 166.453125 C 435.8125 170.167969 437.984375 178.363281 434.269531 184.757812 L 403.753906 237.300781 C 400.039062 243.695312 391.847656 245.867188 385.457031 242.152344 Z M 385.457031 242.152344 "/>
<path style=" stroke:none;fill-rule:nonzero;fill:rgb(34.509804%,40.392157%,94.117647%);fill-opacity:1;" d="M 428.199219 166.425781 L 414.695312 157.996094 L 422.976562 144.714844 L 436.480469 153.140625 Z M 428.199219 166.425781 "/>
<path style=" stroke:none;fill-rule:nonzero;fill:url(#linear33);" d="M 428.199219 166.425781 L 414.695312 157.996094 L 422.976562 144.714844 L 436.480469 153.140625 Z M 428.199219 166.425781 "/>
<path style=" stroke:none;fill-rule:nonzero;fill:rgb(34.509804%,40.392157%,94.117647%);fill-opacity:1;" d="M 728.558594 405.125 C 728.558594 405.125 746.046875 361.332031 740.480469 331.890625 C 740.480469 331.890625 692.75 339.050781 684.003906 351.78125 L 676.046875 433.777344 Z M 728.558594 405.125 "/>
<path style=" stroke:none;fill-rule:nonzero;fill:url(#linear34);" d="M 728.558594 405.125 C 728.558594 405.125 746.046875 361.332031 740.480469 331.890625 C 740.480469 331.890625 692.75 339.050781 684.003906 351.78125 L 676.046875 433.777344 Z M 728.558594 405.125 "/>
<path style=" stroke:none;fill-rule:nonzero;fill:rgb(34.509804%,40.392157%,94.117647%);fill-opacity:1;" d="M 347.191406 154.636719 C 348.359375 155.785156 349.160156 157.253906 349.496094 158.855469 C 349.507812 159.847656 349.332031 160.828125 348.976562 161.753906 C 348.328125 164.078125 347.433594 166.328125 346.304688 168.464844 C 345.167969 170.613281 343.359375 172.335938 341.160156 173.375 C 340.835938 173.53125 340.476562 173.59375 340.121094 173.554688 C 339.660156 173.382812 339.28125 173.046875 339.050781 172.613281 C 335.226562 166.996094 331.964844 161.011719 329.324219 154.75 C 328.8125 153.707031 328.515625 152.574219 328.449219 151.414062 C 328.675781 149.5 329.5625 147.726562 330.953125 146.394531 C 332.417969 144.691406 334.007812 143.097656 335.707031 141.625 C 338.023438 139.597656 338.375 140.429688 339.699219 142.863281 C 341.84375 147 344.351562 150.941406 347.191406 154.636719 Z M 347.191406 154.636719 "/>
<path style=" stroke:none;fill-rule:nonzero;fill:url(#linear35);" d="M 347.191406 154.636719 C 348.359375 155.785156 349.160156 157.253906 349.496094 158.855469 C 349.507812 159.847656 349.332031 160.828125 348.976562 161.753906 C 348.328125 164.078125 347.433594 166.328125 346.304688 168.464844 C 345.167969 170.613281 343.359375 172.335938 341.160156 173.375 C 340.835938 173.53125 340.476562 173.59375 340.121094 173.554688 C 339.660156 173.382812 339.28125 173.046875 339.050781 172.613281 C 335.226562 166.996094 331.964844 161.011719 329.324219 154.75 C 328.8125 153.707031 328.515625 152.574219 328.449219 151.414062 C 328.675781 149.5 329.5625 147.726562 330.953125 146.394531 C 332.417969 144.691406 334.007812 143.097656 335.707031 141.625 C 338.023438 139.597656 338.375 140.429688 339.699219 142.863281 C 341.84375 147 344.351562 150.941406 347.191406 154.636719 Z M 347.191406 154.636719 "/>
<path style=" stroke:none;fill-rule:nonzero;fill:rgb(100%,77.647059%,78.431373%);fill-opacity:1;" d="M 352.589844 118.582031 C 352.773438 119.105469 352.773438 119.675781 352.589844 120.199219 C 352.394531 120.5 352.128906 120.742188 351.816406 120.917969 L 347.671875 123.730469 C 345.601562 125.714844 342.398438 125.90625 340.105469 124.179688 L 338.363281 128.121094 C 338.242188 128.476562 338.015625 128.789062 337.714844 129.019531 C 337.382812 129.171875 337.007812 129.222656 336.648438 129.160156 C 335.125 129.15625 333.667969 128.53125 332.613281 127.429688 C 331.375 125.855469 331.851562 123.589844 332.402344 121.664062 L 334.933594 112.578125 C 335.386719 110.300781 336.347656 108.15625 337.742188 106.300781 C 339.40625 104.628906 341.453125 103.386719 343.707031 102.6875 C 347.601562 101.183594 352.28125 100.789062 353.546875 105.769531 C 354.546875 109.960938 351.691406 114.125 352.589844 118.582031 Z M 352.589844 118.582031 "/>
<path style=" stroke:none;fill-rule:nonzero;fill:rgb(37.647059%,38.039216%,38.039216%);fill-opacity:1;" d="M 358.425781 98.59375 C 359.328125 100.886719 358.738281 103.5 356.933594 105.175781 C 355.097656 106.78125 352.597656 107.394531 350.230469 106.824219 C 349.117188 106.570312 348.078125 106.105469 346.96875 105.878906 C 345.859375 105.582031 344.675781 105.785156 343.734375 106.441406 C 342.410156 107.539062 342.496094 109.539062 341.976562 111.167969 C 341.925781 111.445312 341.742188 111.679688 341.484375 111.789062 C 341.003906 111.914062 340.710938 111.28125 340.710938 110.789062 C 340.710938 110.296875 340.710938 109.691406 340.273438 109.480469 C 338.605469 110.175781 337.617188 111.910156 337.871094 113.703125 C 337.996094 114.417969 338.320312 115.222656 337.871094 115.8125 C 337.421875 116.402344 336.941406 116.359375 336.464844 116.628906 C 335.660156 117.242188 335.027344 118.058594 334.636719 118.992188 C 334.117188 119.847656 333.230469 120.691406 332.246094 120.496094 C 331.261719 120.300781 330.839844 119.171875 330.476562 118.203125 L 329.449219 114.996094 C 329.066406 114.046875 328.90625 113.019531 328.984375 112 C 329.308594 110.015625 331.375 108.496094 331.234375 106.484375 C 331.050781 103.796875 332.640625 101.394531 333.539062 98.890625 C 334.441406 96.386719 335.777344 93.894531 338.234375 93.179688 C 341.046875 92.363281 343.746094 94.304688 346.515625 95.160156 C 348.542969 95.636719 350.601562 95.945312 352.675781 96.089844 C 354.742188 96.457031 357.582031 96.695312 358.425781 98.59375 Z M 358.425781 98.59375 "/>
<path style=" stroke:none;fill-rule:nonzero;fill:url(#linear36);" d="M 358.425781 98.59375 C 359.328125 100.886719 358.738281 103.5 356.933594 105.175781 C 355.097656 106.78125 352.597656 107.394531 350.230469 106.824219 C 349.117188 106.570312 348.078125 106.105469 346.96875 105.878906 C 345.859375 105.582031 344.675781 105.785156 343.734375 106.441406 C 342.410156 107.539062 342.496094 109.539062 341.976562 111.167969 C 341.925781 111.445312 341.742188 111.679688 341.484375 111.789062 C 341.003906 111.914062 340.710938 111.28125 340.710938 110.789062 C 340.710938 110.296875 340.710938 109.691406 340.273438 109.480469 C 338.605469 110.175781 337.617188 111.910156 337.871094 113.703125 C 337.996094 114.417969 338.320312 115.222656 337.871094 115.8125 C 337.421875 116.402344 336.941406 116.359375 336.464844 116.628906 C 335.660156 117.242188 335.027344 118.058594 334.636719 118.992188 C 334.117188 119.847656 333.230469 120.691406 332.246094 120.496094 C 331.261719 120.300781 330.839844 119.171875 330.476562 118.203125 L 329.449219 114.996094 C 329.066406 114.046875 328.90625 113.019531 328.984375 112 C 329.308594 110.015625 331.375 108.496094 331.234375 106.484375 C 331.050781 103.796875 332.640625 101.394531 333.539062 98.890625 C 334.441406 96.386719 335.777344 93.894531 338.234375 93.179688 C 341.046875 92.363281 343.746094 94.304688 346.515625 95.160156 C 348.542969 95.636719 350.601562 95.945312 352.675781 96.089844 C 354.742188 96.457031 357.582031 96.695312 358.425781 98.59375 Z M 358.425781 98.59375 "/>
<path style=" stroke:none;fill-rule:nonzero;fill:rgb(37.647059%,38.039216%,38.039216%);fill-opacity:1;" d="M 333.554688 98.960938 C 334.453125 96.570312 335.789062 93.964844 338.25 93.25 "/>
<path style=" stroke:none;fill-rule:nonzero;fill:rgb(34.509804%,40.392157%,94.117647%);fill-opacity:1;" d="M 338.617188 139.597656 C 339.84375 157.660156 340.671875 175.753906 341.105469 193.882812 C 341.203125 195.03125 341.0625 196.191406 340.695312 197.285156 C 339.753906 199.539062 337.113281 200.492188 334.707031 200.875 C 329.730469 201.429688 324.703125 201.3125 319.761719 200.523438 C 317.183594 200.410156 314.660156 199.738281 312.367188 198.550781 C 309.757812 196.761719 307.964844 194.011719 307.375 190.898438 C 306.804688 187.816406 306.648438 184.671875 306.910156 181.546875 L 307.460938 167.378906 C 307.824219 158.179688 308.234375 148.757812 311.832031 140.273438 C 314.644531 133.464844 320.085938 127.21875 327.171875 124.644531 C 336.199219 121.355469 338.164062 133 338.617188 139.597656 Z M 338.617188 139.597656 "/>
<path style=" stroke:none;fill-rule:nonzero;fill:url(#linear37);" d="M 338.617188 139.597656 C 339.84375 157.660156 340.671875 175.753906 341.105469 193.882812 C 341.203125 195.03125 341.0625 196.191406 340.695312 197.285156 C 339.753906 199.539062 337.113281 200.492188 334.707031 200.875 C 329.730469 201.429688 324.703125 201.3125 319.761719 200.523438 C 317.183594 200.410156 314.660156 199.738281 312.367188 198.550781 C 309.757812 196.761719 307.964844 194.011719 307.375 190.898438 C 306.804688 187.816406 306.648438 184.671875 306.910156 181.546875 L 307.460938 167.378906 C 307.824219 158.179688 308.234375 148.757812 311.832031 140.273438 C 314.644531 133.464844 320.085938 127.21875 327.171875 124.644531 C 336.199219 121.355469 338.164062 133 338.617188 139.597656 Z M 338.617188 139.597656 "/>
<path style=" stroke:none;fill-rule:nonzero;fill:rgb(100%,77.647059%,78.431373%);fill-opacity:1;" d="M 351.886719 168.703125 C 354.695312 171.171875 357.707031 173.402344 360.886719 175.371094 C 369.085938 180.128906 378.863281 181.371094 387.992188 178.816406 C 388.84375 178.480469 389.773438 178.371094 390.679688 178.507812 C 391.5625 178.734375 392.335938 179.71875 391.957031 180.546875 C 391.871094 180.707031 391.800781 180.878906 391.746094 181.054688 C 391.632812 181.660156 392.40625 181.980469 393 182.09375 L 396.90625 182.785156 C 397.863281 182.828125 398.765625 183.253906 399.410156 183.964844 C 400.296875 185.273438 399.15625 187.03125 397.847656 187.902344 C 395.605469 189.386719 392.832031 189.828125 390.242188 189.113281 C 388.457031 188.605469 386.867188 187.582031 385.140625 186.949219 C 381.117188 185.441406 376.703125 186.117188 372.386719 186.074219 C 367.054688 186.035156 361.789062 184.890625 356.921875 182.714844 C 349.539062 179.40625 343.394531 173.894531 337.40625 168.464844 C 335.15625 166.4375 332.796875 164.242188 332.09375 161.261719 C 331.652344 159.347656 332.179688 157.339844 333.496094 155.886719 C 335.761719 153.566406 336.957031 155.253906 338.757812 157.070312 C 342.9375 161.164062 347.320312 165.046875 351.886719 168.703125 Z M 351.886719 168.703125 "/>
<path style=" stroke:none;fill-rule:nonzero;fill:rgb(100%,77.647059%,78.431373%);fill-opacity:1;" d="M 358.792969 178.269531 C 361.699219 181.78125 364.867188 185.074219 368.265625 188.113281 C 371.683594 191.140625 375.703125 193.40625 380.0625 194.753906 C 380.5625 194.859375 381.035156 195.050781 381.46875 195.316406 C 382.039062 195.757812 382.398438 196.414062 382.46875 197.132812 C 382.75 199.398438 380.625 201.4375 378.363281 201.789062 C 376.046875 201.945312 373.75 201.324219 371.824219 200.03125 C 369.480469 198.609375 367.238281 197.023438 365.117188 195.289062 C 362.9375 193.65625 360.84375 191.910156 358.847656 190.054688 C 357.035156 188.3125 355.402344 186.414062 353.773438 184.515625 L 344.6875 173.921875 C 342.902344 171.855469 340.824219 169.25 341.679688 166.324219 C 341.882812 165.238281 342.613281 164.320312 343.628906 163.882812 C 344.648438 163.449219 345.816406 163.550781 346.742188 164.160156 C 349.285156 165.566406 350.691406 168.378906 352.367188 170.53125 C 354.40625 173.203125 356.597656 175.75 358.792969 178.269531 Z M 358.792969 178.269531 "/>
<path style=" stroke:none;fill-rule:nonzero;fill:rgb(37.647059%,38.039216%,38.039216%);fill-opacity:1;" d="M 281.84375 310.59375 C 286.765625 292.519531 297.113281 276.46875 304.691406 259.335938 C 305.828125 256.949219 306.710938 254.449219 307.332031 251.878906 C 308.738281 245.410156 307.09375 238.726562 306.125 232.1875 C 305.042969 224.808594 304.789062 217.335938 305.363281 209.90625 C 305.855469 203.699219 304.449219 197.960938 308.34375 193.121094 C 308.34375 193.121094 320.296875 191.308594 322.65625 196.105469 C 325.46875 201.871094 324.964844 216.851562 326.257812 223.167969 C 328.660156 234.945312 329.238281 247.53125 324.726562 258.675781 C 321.6875 266.171875 316.527344 272.585938 311.636719 279.027344 C 303.285156 290.054688 295.5 301.496094 288.308594 313.308594 C 287.550781 314.546875 286.664062 315.898438 285.257812 316.234375 C 283.855469 316.574219 281.40625 312 281.84375 310.59375 Z M 281.84375 310.59375 "/>
<path style=" stroke:none;fill-rule:nonzero;fill:url(#linear38);" d="M 281.714844 310.59375 C 286.636719 292.519531 297 276.46875 304.578125 259.335938 C 305.710938 256.949219 306.589844 254.449219 307.207031 251.878906 C 308.613281 245.410156 306.96875 238.726562 305.996094 232.1875 C 304.914062 224.8125 304.664062 217.335938 305.253906 209.90625 C 305.746094 203.699219 304.339844 197.960938 308.21875 193.121094 C 308.21875 193.121094 320.167969 191.308594 322.546875 196.105469 C 325.359375 201.871094 324.835938 216.851562 326.128906 223.167969 C 328.550781 234.945312 329.125 247.53125 324.613281 258.675781 C 321.5625 266.171875 316.414062 272.585938 311.523438 279.027344 C 303.164062 290.050781 295.375 301.492188 288.183594 313.308594 C 287.585938 314.644531 286.492188 315.695312 285.132812 316.234375 C 283.726562 316.574219 281.335938 312 281.714844 310.59375 Z M 281.714844 310.59375 "/>
<path style=" stroke:none;fill-rule:nonzero;fill:rgb(34.509804%,40.392157%,94.117647%);fill-opacity:1;" d="M 342.160156 152.355469 C 343.792969 154.777344 343.304688 158.046875 341.035156 159.882812 C 338.9375 162.597656 336.703125 165.214844 334.355469 167.703125 C 334.0625 168.078125 333.683594 168.375 333.246094 168.5625 C 332.132812 168.929688 331.078125 167.941406 330.347656 167.042969 C 326.128906 161.878906 322.460938 156.097656 321.054688 149.585938 C 320.101562 145.894531 320.386719 141.988281 321.871094 138.472656 C 322.953125 136.195312 324.800781 134.371094 327.085938 133.3125 C 330.023438 132.03125 330.898438 132.847656 332.515625 135.324219 C 336.085938 140.792969 339.304688 146.480469 342.160156 152.355469 Z M 342.160156 152.355469 "/>
<path style=" stroke:none;fill-rule:nonzero;fill:url(#linear39);" d="M 342.160156 152.355469 C 343.792969 154.777344 343.304688 158.046875 341.035156 159.882812 C 338.9375 162.597656 336.703125 165.214844 334.355469 167.703125 C 334.0625 168.078125 333.683594 168.375 333.246094 168.5625 C 332.132812 168.929688 331.078125 167.941406 330.347656 167.042969 C 326.128906 161.878906 322.460938 156.097656 321.054688 149.585938 C 320.101562 145.894531 320.386719 141.988281 321.871094 138.472656 C 322.953125 136.195312 324.800781 134.371094 327.085938 133.3125 C 330.023438 132.03125 330.898438 132.847656 332.515625 135.324219 C 336.085938 140.792969 339.304688 146.480469 342.160156 152.355469 Z M 342.160156 152.355469 "/>
<path style=" stroke:none;fill-rule:nonzero;fill:rgb(37.647059%,38.039216%,38.039216%);fill-opacity:1;" d="M 341.117188 326.167969 C 338.328125 325.832031 335.886719 324.128906 334.609375 321.621094 C 333.363281 319.152344 332.535156 316.488281 332.164062 313.746094 L 327.507812 289.480469 C 325.691406 281.207031 324.550781 272.800781 324.105469 264.34375 C 323.964844 258.351562 324.527344 252.273438 323.417969 246.378906 C 321.675781 238.402344 318.570312 230.789062 314.238281 223.871094 C 306.292969 210.382812 308.234375 193.417969 311.074219 192.671875 C 312.773438 192.238281 321.644531 194.179688 323.375 194.472656 C 327.617188 195.171875 331.804688 196.175781 335.902344 197.46875 C 340.683594 198.988281 340.542969 199.707031 340.304688 204.742188 C 339.824219 214.433594 339.429688 224.140625 339.207031 233.847656 C 338.738281 253.425781 338.828125 273.007812 339.472656 292.589844 C 339.839844 303.84375 340.386719 315.035156 341.117188 326.167969 Z M 341.117188 326.167969 "/>
<path style=" stroke:none;fill-rule:nonzero;fill:url(#linear40);" d="M 341.457031 326.167969 C 338.664062 325.820312 336.222656 324.121094 334.933594 321.621094 C 333.667969 319.136719 332.832031 316.453125 332.457031 313.6875 L 327.804688 289.425781 C 325.972656 281.15625 324.832031 272.746094 324.402344 264.285156 C 324.261719 258.292969 324.808594 252.21875 323.699219 246.324219 C 321.96875 238.347656 318.867188 230.730469 314.53125 223.816406 C 306.628906 210.425781 308.554688 193.460938 311.367188 192.714844 C 313.082031 192.277344 321.941406 194.21875 323.683594 194.515625 C 327.925781 195.21875 332.109375 196.21875 336.210938 197.511719 C 340.992188 199.03125 340.851562 199.75 340.597656 204.785156 C 340.132812 214.476562 339.742188 224.183594 339.515625 233.886719 C 339.054688 253.46875 339.144531 273.050781 339.78125 292.632812 C 340.167969 303.855469 340.726562 315.035156 341.457031 326.167969 Z M 341.457031 326.167969 "/>
<path style=" stroke:none;fill-rule:nonzero;fill:rgb(34.509804%,40.392157%,94.117647%);fill-opacity:1;" d="M 422.722656 139.746094 L 440.472656 151.144531 L 437.140625 156.339844 L 419.390625 144.945312 Z M 422.722656 139.746094 "/>
<path style=" stroke:none;fill-rule:nonzero;fill:url(#linear41);" d="M 422.722656 139.746094 L 440.472656 151.144531 L 437.140625 156.339844 L 419.390625 144.945312 Z M 422.722656 139.746094 "/>
</g>
</svg>
