<?xml version="1.0" encoding="UTF-8"?>
<svg xmlns="http://www.w3.org/2000/svg" xmlns:xlink="http://www.w3.org/1999/xlink" width="406pt" height="306pt" viewBox="0 0 406 306" version="1.1">
<defs>
<filter id="alpha" filterUnits="objectBoundingBox" x="0%" y="0%" width="100%" height="100%">
  <feColorMatrix type="matrix" in="SourceGraphic" values="0 0 0 0 1 0 0 0 0 1 0 0 0 0 1 0 0 0 1 0"/>
</filter>
<mask id="mask0">
  <g filter="url(#alpha)">
<rect x="0" y="0" width="406" height="306" style="fill:rgb(0%,0%,0%);fill-opacity:0.321569;stroke:none;"/>
  </g>
</mask>
<linearGradient id="linear0" gradientUnits="userSpaceOnUse" x1="162.23" y1="197.5" x2="176.82" y2="185.68" gradientTransform="matrix(1.015,0,0,1.015,0,0.75)">
<stop offset="0" style="stop-color:rgb(0%,0%,0%);stop-opacity:0.0313725;"/>
<stop offset="0.97" style="stop-color:rgb(49.803922%,29.019608%,0%);stop-opacity:1;"/>
</linearGradient>
<clipPath id="clip1">
  <rect x="0" y="0" width="406" height="306"/>
</clipPath>
<g id="surface5" clip-path="url(#clip1)">
<path style=" stroke:none;fill-rule:nonzero;fill:url(#linear0);" d="M 207.496094 178.375 C 195.601562 182.597656 176.214844 186.160156 163.851562 188.777344 C 163.753906 188.90625 163.625 189.003906 163.476562 189.0625 C 160.226562 190.640625 156.433594 190.640625 153.183594 189.0625 L 140.667969 195.851562 L 167.140625 210.703125 L 216.195312 184.222656 C 215.089844 183.359375 215.484375 181.003906 207.496094 178.375 Z M 207.496094 178.375 "/>
</g>
<mask id="mask1">
  <g filter="url(#alpha)">
<rect x="0" y="0" width="406" height="306" style="fill:rgb(0%,0%,0%);fill-opacity:0.321569;stroke:none;"/>
  </g>
</mask>
<linearGradient id="linear1" gradientUnits="userSpaceOnUse" x1="184.72" y1="269.22" x2="197.87" y2="258.56" gradientTransform="matrix(1.015,0,0,1.015,0,0.75)">
<stop offset="0" style="stop-color:rgb(0%,0%,0%);stop-opacity:0.0313725;"/>
<stop offset="0.97" style="stop-color:rgb(49.803922%,29.019608%,0%);stop-opacity:1;"/>
</linearGradient>
<clipPath id="clip2">
  <rect x="0" y="0" width="406" height="306"/>
</clipPath>
<g id="surface8" clip-path="url(#clip2)">
<path style=" stroke:none;fill-rule:nonzero;fill:url(#linear1);" d="M 195.152344 245.691406 C 189.0625 241.519531 208.917969 255.167969 203.546875 250.023438 L 166.582031 270.089844 L 190.484375 283.5 L 234.757812 259.574219 C 232.3125 257.605469 197.691406 247.394531 195.152344 245.691406 Z M 195.152344 245.691406 "/>
</g>
<mask id="mask2">
  <g filter="url(#alpha)">
<rect x="0" y="0" width="406" height="306" style="fill:rgb(0%,0%,0%);fill-opacity:0.321569;stroke:none;"/>
  </g>
</mask>
<linearGradient id="linear2" gradientUnits="userSpaceOnUse" x1="61.19" y1="220.85" x2="81.96" y2="191.31" gradientTransform="matrix(1.015,0,0,1.015,0,0.75)">
<stop offset="0" style="stop-color:rgb(100%,100%,100%);stop-opacity:0;"/>
<stop offset="1" style="stop-color:rgb(83.137255%,20.784314%,0%);stop-opacity:1;"/>
</linearGradient>
<clipPath id="clip3">
  <rect x="0" y="0" width="406" height="306"/>
</clipPath>
<g id="surface11" clip-path="url(#clip3)">
<path style=" stroke:none;fill-rule:nonzero;fill:url(#linear2);" d="M 55.511719 194.300781 C 59.054688 196.082031 62.496094 198.070312 65.8125 200.25 C 71.050781 203.75 78.886719 206.46875 83.738281 210.5 L 121.476562 188.800781 L 70.550781 180.585938 L 51.410156 191.824219 C 52.789062 192.628906 54.15625 193.453125 55.511719 194.300781 Z M 55.511719 194.300781 "/>
</g>
<mask id="mask3">
  <g filter="url(#alpha)">
<rect x="0" y="0" width="406" height="306" style="fill:rgb(0%,0%,0%);fill-opacity:0.490196;stroke:none;"/>
  </g>
</mask>
<clipPath id="clip4">
  <rect x="0" y="0" width="406" height="306"/>
</clipPath>
<g id="surface14" clip-path="url(#clip4)">
<path style=" stroke:none;fill-rule:nonzero;fill:rgb(37.647059%,37.647059%,37.647059%);fill-opacity:1;" d="M 94.394531 174.183594 L 121.152344 158.824219 C 121.152344 158.824219 121.890625 189.792969 121.152344 190.292969 C 120.410156 190.789062 94.394531 204.90625 94.394531 204.90625 Z M 94.394531 174.183594 "/>
</g>
<mask id="mask4">
  <g filter="url(#alpha)">
<rect x="0" y="0" width="406" height="306" style="fill:rgb(0%,0%,0%);fill-opacity:0.8;stroke:none;"/>
  </g>
</mask>
<clipPath id="clip5">
  <rect x="0" y="0" width="406" height="306"/>
</clipPath>
<g id="surface17" clip-path="url(#clip5)">
<path style=" stroke:none;fill-rule:nonzero;fill:rgb(37.647059%,37.647059%,37.647059%);fill-opacity:1;" d="M 121.476562 158.289062 L 94.71875 141.9375 L 67.222656 158.289062 L 94.71875 173.644531 Z M 121.476562 158.289062 "/>
</g>
</defs>
<g id="surface1">
<path style=" stroke:none;fill-rule:nonzero;fill:rgb(67.843137%,80.784314%,27.45098%);fill-opacity:1;" d="M 205.902344 287.761719 L 373.621094 188.636719 C 378.960938 185.589844 383.539062 180.71875 378.332031 177.472656 L 210.003906 80.476562 C 207.476562 78.914062 203.640625 77.890625 201.070312 79.382812 L 25.019531 181.5625 C 19.679688 184.65625 18.726562 193.324219 24.066406 196.421875 L 183.785156 287.597656 C 190.613281 291.558594 199.019531 291.617188 205.902344 287.761719 Z M 205.902344 287.761719 "/>
<use xlink:href="#surface5" mask="url(#mask0)"/>
<path style=" stroke:none;fill-rule:nonzero;fill:rgb(65.882353%,24.705882%,11.764706%);fill-opacity:1;" d="M 216.195312 183.835938 L 216.195312 123.890625 L 203.121094 123.890625 L 203.121094 184.351562 C 207.636719 185.671875 212.390625 185.875 216.195312 183.835938 Z M 216.195312 183.835938 "/>
<path style=" stroke:none;fill-rule:nonzero;fill:rgb(49.803922%,16.862745%,7.843137%);fill-opacity:1;" d="M 210.976562 124.050781 L 210.976562 185.480469 C 212.792969 185.359375 214.5625 184.863281 216.175781 184.027344 L 216.175781 124.050781 Z M 210.976562 124.050781 "/>
<path style=" stroke:none;fill-rule:nonzero;fill:rgb(32.156863%,68.627451%,27.058824%);fill-opacity:1;" d="M 227.816406 129.503906 C 235.9375 129.105469 246.320312 126.195312 243.285156 117.148438 C 241.488281 111.800781 235.957031 107.089844 232.425781 102.859375 C 228.894531 98.625 229.675781 95.753906 225.726562 91.632812 C 229.085938 91.773438 233.96875 91.136719 234.789062 87.804688 C 235.511719 84.882812 219.839844 67 213.039062 59.742188 C 211.488281 58.082031 208.921875 57.898438 207.152344 59.316406 C 199.03125 65.75 178.425781 82.882812 181.308594 87.816406 C 183.046875 90.800781 186.558594 91.824219 189.703125 92.101562 C 182.273438 99.539062 173.820312 108.847656 172.957031 118.765625 C 172.214844 127.359375 181.003906 128.507812 189.195312 128.070312 C 183.53125 134.953125 168.164062 154.5625 171.667969 160.550781 C 173.515625 163.6875 179.484375 164.734375 183.003906 165.433594 C 190.652344 166.984375 198.445312 167.734375 206.246094 167.675781 C 214.011719 167.59375 222 166.804688 229.359375 164.195312 C 233.265625 162.804688 237.550781 160.898438 240.636719 157.992188 C 244.238281 154.605469 242.230469 150.992188 239.886719 147.589844 C 235.816406 141.5625 231.816406 135.53125 227.816406 129.503906 Z M 227.816406 129.503906 "/>
<path style=" stroke:none;fill-rule:nonzero;fill:rgb(5.098039%,35.686275%,13.72549%);fill-opacity:1;" d="M 225.714844 91.632812 C 225.714844 91.632812 215.839844 90.992188 208.949219 91.175781 L 243.804688 119.828125 C 243.804688 119.828125 244.738281 116.5 238.574219 109.679688 C 232.414062 102.859375 225.714844 91.632812 225.714844 91.632812 Z M 225.714844 91.632812 "/>
<path style=" stroke:none;fill-rule:nonzero;fill:rgb(5.098039%,35.686275%,13.72549%);fill-opacity:1;" d="M 227.816406 129.503906 L 207.515625 129.503906 L 240.625 157.921875 C 240.625 157.921875 244.28125 155.242188 242.078125 151.375 C 239.875 147.507812 227.816406 129.503906 227.816406 129.503906 Z M 227.816406 129.503906 "/>
<path style=" stroke:none;fill-rule:nonzero;fill:rgb(100%,77.647059%,69.803922%);fill-opacity:1;" d="M 243.253906 84.996094 C 243.253906 84.996094 239.683594 100.828125 239.011719 102.6875 C 238.34375 104.542969 232.6875 113.800781 232.6875 113.800781 C 232.6875 113.800781 227.402344 116.683594 228.628906 117.324219 C 229.449219 117.6875 230.386719 117.6875 231.207031 117.324219 C 231.207031 117.324219 229.664062 123.289062 230.433594 124.679688 C 231.207031 126.070312 234.039062 126.773438 236.210938 125.847656 C 238.382812 124.925781 238.363281 118.308594 238.71875 117.332031 C 239.074219 116.359375 250.175781 97.175781 251.292969 84.996094 C 252.410156 72.816406 243.253906 84.996094 243.253906 84.996094 Z M 243.253906 84.996094 "/>
<path style=" stroke:none;fill-rule:nonzero;fill:rgb(34.509804%,40.392157%,94.117647%);fill-opacity:1;" d="M 242.210938 77.25 C 242.210938 77.25 238.75 81.179688 238.699219 94.503906 C 238.699219 94.503906 248.695312 98.929688 250.753906 96.71875 L 253.242188 84.171875 "/>
<path style=" stroke:none;fill-rule:nonzero;fill:rgb(100%,77.647059%,69.803922%);fill-opacity:1;" d="M 266.753906 131.847656 C 266.753906 131.847656 268.925781 149.660156 270.152344 154.175781 C 271.378906 158.695312 272.476562 187.347656 272.476562 187.347656 C 272.476562 187.347656 276.304688 190.078125 279.582031 187.347656 C 279.582031 187.347656 281.308594 164.164062 280.402344 157.972656 C 279.5 151.78125 280.402344 127.382812 280.402344 127.382812 "/>
<path style=" stroke:none;fill-rule:nonzero;fill:rgb(100%,77.647059%,69.803922%);fill-opacity:1;" d="M 254.207031 126.710938 C 254.207031 126.710938 253.769531 139.84375 254.207031 144.179688 C 254.644531 148.515625 256.519531 175.9375 256.519531 175.9375 C 258.347656 177.511719 261.046875 177.511719 262.875 175.9375 C 262.875 175.9375 264.976562 162.367188 264.722656 159.769531 C 264.46875 157.171875 264.03125 124.398438 264.03125 124.398438 "/>
<path style=" stroke:none;fill-rule:nonzero;fill:rgb(94.509804%,56.078431%,13.333333%);fill-opacity:1;" d="M 248.734375 63.171875 C 248.734375 63.242188 269.878906 66.511719 268.691406 73.414062 C 267.503906 80.316406 258.386719 77.890625 258.386719 77.890625 L 247.8125 65.40625 "/>
<path style=" stroke:none;fill-rule:nonzero;fill:rgb(100%,100%,100%);fill-opacity:1;" d="M 266.753906 197.660156 C 266.117188 199.050781 266.398438 200.691406 267.460938 201.792969 C 269.289062 203.738281 271.683594 202.804688 273.703125 201.792969 C 275.726562 200.777344 281.449219 195.699219 280.65625 194.371094 C 279.867188 193.042969 279.570312 187.4375 279.570312 187.4375 "/>
<path style=" stroke:none;fill-rule:nonzero;fill:rgb(34.509804%,40.392157%,94.117647%);fill-opacity:1;" d="M 272.386719 185.175781 C 272.386719 185.175781 271.460938 190.453125 270.152344 192.167969 C 268.84375 193.882812 265.746094 198.074219 266.753906 199.164062 C 267.757812 200.25 268.507812 196.988281 270.152344 197.925781 C 271.796875 198.859375 271.277344 201.191406 272.476562 200.726562 C 273.675781 200.257812 279.265625 195.8125 279.886719 192.992188 C 280.503906 190.167969 279.105469 185.195312 279.105469 185.195312 "/>
<path style=" stroke:none;fill-rule:nonzero;fill:rgb(100%,100%,100%);fill-opacity:1;" d="M 246.707031 183.644531 C 246.707031 183.644531 246.484375 186.789062 249.335938 187.386719 C 252.1875 187.988281 255.730469 186.25 257.324219 185.519531 C 258.917969 184.789062 264.742188 179.886719 264.742188 179.886719 L 264.050781 173.035156 "/>
<path style=" stroke:none;fill-rule:nonzero;fill:rgb(34.509804%,40.392157%,94.117647%);fill-opacity:1;" d="M 256.289062 172.558594 C 256.289062 172.558594 254.582031 176.800781 251.496094 178.394531 C 248.410156 179.988281 246.015625 183.074219 246.707031 183.644531 C 247.394531 184.210938 248.878906 182.160156 249.667969 182.730469 C 250.460938 183.296875 250.460938 185.773438 251.4375 185.175781 C 252.410156 184.578125 254.480469 186.191406 257.3125 184.210938 C 260.144531 182.230469 259.25 181.472656 261.648438 180.558594 C 264.042969 179.644531 264.042969 173.027344 264.042969 173.027344 C 264.042969 173.027344 257.992188 174.316406 256.289062 172.558594 Z M 256.289062 172.558594 "/>
<path style=" stroke:none;fill-rule:nonzero;fill:rgb(94.509804%,35.294118%,14.117647%);fill-opacity:1;" d="M 253.667969 102.839844 C 252.242188 107.101562 251.421875 111.542969 251.222656 116.035156 C 250.777344 123.992188 254.015625 170.550781 254.015625 170.550781 C 258.765625 172.316406 263.941406 172.589844 268.851562 171.332031 L 268.851562 181.96875 C 268.851562 181.96875 277.042969 184.628906 285.996094 178.921875 C 285.996094 178.921875 284.980469 108.269531 270.476562 94.464844 "/>
<path style=" stroke:none;fill-rule:nonzero;fill:rgb(34.509804%,40.392157%,94.117647%);fill-opacity:1;" d="M 266.398438 98.871094 C 267.917969 97.566406 269.28125 96.085938 270.457031 94.464844 C 268.867188 90.4375 267.015625 86.515625 264.914062 82.730469 C 261.757812 77.585938 258.589844 71.707031 252.339844 70.195312 C 249.8125 71.308594 247.402344 72.667969 245.144531 74.257812 C 243.960938 75.027344 242.953125 76.03125 242.179688 77.210938 C 242.058594 82.285156 242.484375 85.492188 245.488281 89.277344 C 248.492188 93.0625 250.503906 99.277344 252.523438 102.617188 C 257.070312 103.742188 262.0625 101.78125 266.398438 98.871094 Z M 266.398438 98.871094 "/>
<path style=" stroke:none;fill-rule:nonzero;fill:rgb(100%,70.196078%,61.176471%);fill-opacity:1;" d="M 248.054688 68.296875 L 250.753906 71.65625 C 250.753906 71.65625 249.292969 74.785156 246.460938 75.160156 L 244.695312 73.128906 "/>
<path style=" stroke:none;fill-rule:nonzero;fill:rgb(94.509804%,56.078431%,13.333333%);fill-opacity:1;" d="M 242.066406 70.714844 C 236.878906 75.039062 234.351562 70.207031 234.351562 70.207031 C 227.25 61.316406 238.574219 56.492188 238.574219 56.492188 C 238.574219 56.492188 247.394531 53.285156 248.859375 65.863281 "/>
<path style=" stroke:none;fill-rule:nonzero;fill:rgb(100%,77.647059%,69.803922%);fill-opacity:1;" d="M 233.15625 66.175781 C 233.15625 66.175781 241.214844 77.605469 245.679688 73.910156 C 250.148438 70.214844 247.253906 66.398438 247.253906 66.398438 C 247.253906 66.398438 243.195312 58.65625 238.28125 59.882812 C 233.367188 61.113281 233.15625 66.175781 233.15625 66.175781 Z M 233.15625 66.175781 "/>
<path style=" stroke:none;fill-rule:nonzero;fill:rgb(94.509804%,56.078431%,13.333333%);fill-opacity:1;" d="M 233.15625 66.175781 C 233.15625 66.175781 238.675781 68.523438 241.933594 65.953125 C 245.195312 63.386719 248.027344 68.296875 248.027344 68.296875 C 249.410156 65.671875 249.144531 62.480469 247.34375 60.117188 C 245.628906 57.578125 239.296875 55.683594 236.089844 58.085938 C 232.882812 60.492188 230.839844 64.308594 233.15625 66.175781 Z M 233.15625 66.175781 "/>
<path style=" stroke:none;fill-rule:nonzero;fill:rgb(51.764706%,18.039216%,7.45098%);fill-opacity:1;" d="M 265.230469 119.382812 C 265.160156 118.742188 264.144531 118.734375 264.214844 119.382812 C 266.109375 137.21875 267.601562 155.089844 268.691406 172.996094 C 268.691406 173.644531 269.707031 173.644531 269.707031 172.996094 C 268.617188 155.089844 267.125 137.21875 265.230469 119.382812 Z M 265.230469 119.382812 "/>
<use xlink:href="#surface8" mask="url(#mask1)"/>
<path style=" stroke:none;fill-rule:nonzero;fill:rgb(78.823529%,38.823529%,21.176471%);fill-opacity:1;" d="M 213.375 270.628906 L 213.375 248.683594 L 193.734375 237.710938 L 193.734375 259.484375 Z M 213.375 270.628906 "/>
<path style=" stroke:none;fill-rule:nonzero;fill:rgb(88.627451%,44.313725%,26.666667%);fill-opacity:1;" d="M 213.375 248.683594 L 232.484375 237.710938 C 232.484375 237.710938 233.011719 259.839844 232.484375 260.183594 C 231.957031 260.527344 213.375 270.628906 213.375 270.628906 Z M 213.375 248.683594 "/>
<path style=" stroke:none;fill-rule:nonzero;fill:rgb(60.784314%,27.843137%,14.901961%);fill-opacity:1;" d="M 232.496094 237.710938 L 213.375 226.027344 L 193.734375 237.710938 L 213.375 248.683594 Z M 232.496094 237.710938 "/>
<path style=" stroke:none;fill-rule:nonzero;fill:rgb(88.627451%,44.313725%,26.666667%);fill-opacity:1;" d="M 193.734375 237.710938 L 186.628906 225.398438 L 206.753906 213.566406 L 213.375 226.027344 Z M 193.734375 237.710938 "/>
<path style=" stroke:none;fill-rule:nonzero;fill:rgb(78.823529%,38.823529%,21.176471%);fill-opacity:1;" d="M 232.496094 237.710938 L 237.671875 226.636719 L 216.53125 238.160156 L 213.375 248.683594 Z M 232.496094 237.710938 "/>
<path style=" stroke:none;fill-rule:nonzero;fill:rgb(34.509804%,40.392157%,94.117647%);fill-opacity:1;" d="M 355.59375 97.988281 C 355.695312 99.589844 355.789062 101.03125 355.878906 102.535156 L 356.296875 102.757812 L 359.066406 104.015625 C 361.371094 105.03125 363.683594 106.117188 366 107.132812 C 367.65625 107.988281 369.53125 108.320312 371.378906 108.085938 C 372.011719 107.921875 372.636719 107.71875 373.246094 107.476562 C 373.21875 107.566406 373.1875 107.648438 373.144531 107.730469 C 371.042969 111.394531 368.953125 115.078125 366.8125 118.714844 C 365.714844 120.570312 363.90625 120.894531 361.5625 119.878906 L 359.714844 119.058594 L 356.671875 117.636719 L 356.101562 117.375 C 356.101562 118.917969 356.050781 120.417969 356.019531 122.113281 C 355.871094 121.789062 355.789062 121.625 355.71875 121.445312 L 350.175781 107.84375 C 350.054688 107.539062 349.960938 107.292969 350.105469 107.050781 C 351.890625 104.109375 353.671875 101.164062 355.441406 98.21875 C 355.488281 98.140625 355.539062 98.0625 355.59375 97.988281 Z M 355.59375 97.988281 "/>
<path style=" stroke:none;fill-rule:nonzero;fill:rgb(34.509804%,40.392157%,94.117647%);fill-opacity:1;" d="M 323.429688 84.699219 C 324.839844 86.925781 326.753906 88.789062 329.023438 90.132812 C 329.835938 90.578125 330.644531 90.953125 331.46875 91.328125 L 331.875 91.511719 L 332.890625 91.957031 L 345.527344 97.824219 L 345.882812 98.015625 L 346.113281 112.886719 L 345.101562 112.429688 L 340.421875 110.308594 L 337.304688 108.878906 C 335.539062 108.105469 333.933594 107 332.585938 105.621094 C 331.777344 104.804688 331.136719 103.839844 330.695312 102.777344 C 328.328125 96.871094 325.960938 90.960938 323.59375 85.046875 Z M 323.429688 84.699219 "/>
<path style=" stroke:none;fill-rule:nonzero;fill:rgb(34.509804%,40.392157%,94.117647%);fill-opacity:1;" d="M 368.992188 88.386719 L 370.902344 93.339844 C 371.917969 95.9375 372.929688 98.523438 373.863281 101.113281 C 374.585938 102.570312 374.515625 104.292969 373.683594 105.691406 C 372.917969 106.664062 371.703125 107.167969 370.476562 107.019531 C 368.535156 106.949219 366.632812 106.472656 364.890625 105.621094 L 363.949219 105.164062 C 363.730469 105.027344 363.554688 104.835938 363.441406 104.605469 C 361.660156 100.207031 359.886719 95.808594 358.121094 91.410156 C 358.121094 91.308594 358.0625 91.207031 358.011719 91.054688 Z M 368.992188 88.386719 "/>
<path style=" stroke:none;fill-rule:nonzero;fill:rgb(34.509804%,40.392157%,94.117647%);fill-opacity:1;" d="M 334.320312 72.753906 C 334.605469 72.863281 334.824219 73.09375 334.917969 73.382812 C 336.835938 78.179688 338.761719 82.984375 340.703125 87.796875 C 340.703125 87.917969 340.785156 88.058594 340.886719 88.355469 L 337.457031 84.730469 C 337.121094 85.207031 336.796875 85.664062 336.441406 86.132812 C 335.355469 87.714844 334.261719 89.289062 333.183594 90.882812 C 333.03125 91.117188 332.859375 91.1875 332.542969 91.035156 C 330.835938 90.28125 329.195312 89.375 327.652344 88.324219 C 325.480469 86.703125 323.820312 84.488281 322.871094 81.949219 C 322.199219 80.625 322.199219 79.0625 322.871094 77.738281 C 323.886719 76.023438 324.820312 74.257812 325.792969 72.519531 L 325.96875 72.175781 L 322.527344 67.585938 C 322.710938 67.648438 322.800781 67.667969 322.890625 67.710938 Z M 334.320312 72.753906 "/>
<path style=" stroke:none;fill-rule:nonzero;fill:rgb(34.509804%,40.392157%,94.117647%);fill-opacity:1;" d="M 339.710938 56.574219 L 340.125 56.777344 C 341.984375 57.976562 343.515625 59.621094 344.582031 61.558594 C 345.945312 63.714844 347.066406 66.011719 347.933594 68.410156 C 348 68.589844 348 68.789062 347.933594 68.96875 C 346.09375 71.65625 344.238281 74.335938 342.390625 77.015625 C 342.355469 77.058594 342.3125 77.097656 342.269531 77.128906 L 330.960938 64.453125 L 331.195312 64.097656 C 332.949219 61.730469 334.695312 59.347656 336.492188 56.992188 C 337.242188 56.046875 338.378906 55.9375 339.710938 56.574219 Z M 339.710938 56.574219 "/>
<path style=" stroke:none;fill-rule:nonzero;fill:rgb(34.509804%,40.392157%,94.117647%);fill-opacity:1;" d="M 355.605469 63.183594 C 358.109375 64.425781 360.039062 66.585938 360.996094 69.210938 C 361.949219 71.496094 362.84375 73.777344 363.796875 76.132812 L 367.347656 75.648438 L 367.410156 75.75 L 367.023438 76.304688 C 365.21875 78.976562 363.402344 81.636719 361.59375 84.316406 C 361.421875 84.589844 361.21875 84.589844 360.882812 84.4375 C 357.257812 82.730469 353.644531 81.066406 350.023438 79.363281 L 349.503906 79.097656 L 352.722656 78.164062 L 352.429688 77.402344 C 350.84375 73.503906 349.28125 69.597656 347.667969 65.699219 C 346.738281 63.335938 345.441406 61.136719 343.832031 59.171875 C 343.324219 58.574219 342.753906 58.046875 342.21875 57.488281 C 342.066406 57.335938 341.894531 57.203125 341.742188 57.0625 L 341.742188 56.929688 L 344.875 58.363281 L 348.011719 59.78125 C 350.5625 60.929688 353.089844 62.027344 355.605469 63.183594 Z M 355.605469 63.183594 "/>
<path style=" stroke:none;fill-rule:nonzero;fill:rgb(65.882353%,24.705882%,11.764706%);fill-opacity:1;" d="M 148.382812 144.878906 L 148.382812 125.167969 L 144.128906 125.167969 L 144.128906 145.023438 C 145.511719 145.523438 147.035156 145.472656 148.382812 144.878906 Z M 148.382812 144.878906 "/>
<path style=" stroke:none;fill-rule:nonzero;fill:rgb(49.803922%,16.862745%,7.843137%);fill-opacity:1;" d="M 146.675781 125.230469 L 146.675781 145.386719 C 147.273438 145.347656 147.855469 145.1875 148.382812 144.910156 L 148.382812 125.230469 Z M 146.675781 125.230469 "/>
<path style=" stroke:none;fill-rule:nonzero;fill:rgb(32.156863%,68.627451%,27.058824%);fill-opacity:1;" d="M 152.25 127.015625 C 154.917969 126.882812 158.339844 125.929688 157.324219 122.957031 C 156.734375 121.199219 154.917969 119.65625 153.761719 118.265625 C 152.605469 116.875 152.859375 115.941406 151.558594 114.582031 C 152.667969 114.582031 154.269531 114.417969 154.535156 113.324219 C 154.796875 112.226562 149.621094 106.492188 147.429688 104.109375 C 146.921875 103.566406 146.082031 103.503906 145.5 103.964844 C 142.851562 106.078125 136.070312 111.699219 137.015625 113.324219 C 137.652344 114.214844 138.679688 114.738281 139.777344 114.734375 C 137.339844 117.179688 134.558594 120.234375 134.273438 123.484375 C 134.03125 126.304688 136.914062 126.679688 139.601562 126.527344 C 137.746094 128.792969 132.699219 135.226562 133.847656 137.1875 C 134.457031 138.203125 136.414062 138.554688 137.574219 138.789062 C 140.085938 139.300781 142.644531 139.550781 145.207031 139.53125 C 147.78125 139.566406 150.347656 139.179688 152.796875 138.382812 C 154.15625 137.960938 155.417969 137.273438 156.503906 136.355469 C 157.691406 135.238281 157.019531 134.058594 156.257812 132.933594 C 154.828125 130.972656 153.519531 128.996094 152.25 127.015625 Z M 152.25 127.015625 "/>
<path style=" stroke:none;fill-rule:nonzero;fill:rgb(5.098039%,35.686275%,13.72549%);fill-opacity:1;" d="M 151.507812 114.582031 C 151.507812 114.582031 148.261719 114.367188 146.007812 114.429688 L 157.445312 123.839844 C 157.445312 123.839844 157.75 122.742188 155.730469 120.511719 C 154.167969 118.648438 152.757812 116.667969 151.507812 114.582031 Z M 151.507812 114.582031 "/>
<path style=" stroke:none;fill-rule:nonzero;fill:rgb(5.098039%,35.686275%,13.72549%);fill-opacity:1;" d="M 152.25 127.015625 L 145.589844 127.015625 L 156.460938 136.355469 C 157.144531 135.863281 157.351562 134.9375 156.9375 134.203125 C 156.167969 132.933594 152.25 127.015625 152.25 127.015625 Z M 152.25 127.015625 "/>
<path style=" stroke:none;fill-rule:nonzero;fill:rgb(65.882353%,24.705882%,11.764706%);fill-opacity:1;" d="M 152.625 225.238281 L 152.625 205.558594 L 148.34375 205.558594 L 148.34375 225.410156 C 149.738281 225.910156 151.273438 225.847656 152.625 225.238281 Z M 152.625 225.238281 "/>
<path style=" stroke:none;fill-rule:nonzero;fill:rgb(49.803922%,16.862745%,7.843137%);fill-opacity:1;" d="M 150.921875 205.617188 L 150.921875 225.777344 C 151.515625 225.734375 152.097656 225.574219 152.625 225.296875 L 152.625 205.617188 Z M 150.921875 205.617188 "/>
<path style=" stroke:none;fill-rule:nonzero;fill:rgb(32.156863%,68.627451%,27.058824%);fill-opacity:1;" d="M 156.453125 207.402344 C 159.121094 207.273438 162.542969 206.316406 161.527344 203.34375 C 160.9375 201.589844 159.121094 200.046875 157.964844 198.65625 C 156.808594 197.265625 157.0625 196.332031 155.761719 194.96875 C 156.867188 194.96875 158.472656 194.808594 158.734375 193.710938 C 159 192.617188 153.824219 186.878906 151.628906 184.496094 C 151.121094 183.957031 150.285156 183.894531 149.703125 184.351562 C 147.054688 186.464844 140.273438 192.085938 141.21875 193.710938 C 141.855469 194.601562 142.882812 195.125 143.976562 195.121094 C 141.542969 197.570312 138.761719 200.625 138.476562 203.871094 C 138.234375 206.695312 141.117188 207.070312 143.804688 206.917969 C 141.949219 209.179688 136.902344 215.617188 138.050781 217.574219 C 138.660156 218.589844 140.617188 218.945312 141.773438 219.179688 C 144.285156 219.6875 146.84375 219.9375 149.40625 219.917969 C 151.984375 219.957031 154.550781 219.566406 157 218.773438 C 158.359375 218.351562 159.617188 217.660156 160.703125 216.742188 C 161.890625 215.625 161.222656 214.449219 160.460938 213.320312 C 159.070312 211.363281 157.761719 209.382812 156.453125 207.402344 Z M 156.453125 207.402344 "/>
<path style=" stroke:none;fill-rule:nonzero;fill:rgb(5.098039%,35.686275%,13.72549%);fill-opacity:1;" d="M 155.761719 194.96875 C 155.761719 194.96875 152.515625 194.757812 150.261719 194.816406 L 161.699219 204.226562 C 161.699219 204.226562 162.003906 203.128906 159.984375 200.898438 C 158.421875 199.035156 157.011719 197.054688 155.761719 194.96875 Z M 155.761719 194.96875 "/>
<path style=" stroke:none;fill-rule:nonzero;fill:rgb(5.098039%,35.686275%,13.72549%);fill-opacity:1;" d="M 156.453125 207.402344 L 149.792969 207.402344 L 160.664062 216.742188 C 161.347656 216.25 161.554688 215.324219 161.140625 214.589844 C 160.371094 213.320312 156.453125 207.402344 156.453125 207.402344 Z M 156.453125 207.402344 "/>
<path style=" stroke:none;fill-rule:nonzero;fill:rgb(65.882353%,24.705882%,11.764706%);fill-opacity:1;" d="M 316.679688 187.964844 L 316.679688 168.277344 L 312.398438 168.277344 L 312.398438 188.128906 C 313.792969 188.628906 315.328125 188.574219 316.679688 187.964844 Z M 316.679688 187.964844 "/>
<path style=" stroke:none;fill-rule:nonzero;fill:rgb(49.803922%,16.862745%,7.843137%);fill-opacity:1;" d="M 314.933594 168.335938 L 314.933594 188.523438 C 315.53125 188.484375 316.109375 188.324219 316.640625 188.046875 L 316.640625 168.335938 Z M 314.933594 168.335938 "/>
<path style=" stroke:none;fill-rule:nonzero;fill:rgb(32.156863%,68.627451%,27.058824%);fill-opacity:1;" d="M 320.464844 170.125 C 323.136719 169.992188 326.554688 169.035156 325.539062 166.0625 C 324.953125 164.308594 323.136719 162.765625 321.976562 161.375 C 320.820312 159.984375 321.074219 159.050781 319.777344 157.6875 C 320.882812 157.6875 322.484375 157.527344 322.75 156.429688 C 323.011719 155.335938 317.835938 149.601562 315.644531 147.214844 C 315.136719 146.675781 314.296875 146.613281 313.714844 147.074219 C 311.066406 149.183594 304.285156 154.808594 305.230469 156.429688 C 305.867188 157.320312 306.898438 157.847656 307.992188 157.839844 C 305.554688 160.289062 302.773438 163.34375 302.492188 166.589844 C 302.246094 169.414062 305.128906 169.789062 307.820312 169.636719 C 305.960938 171.898438 300.917969 178.335938 302.0625 180.292969 C 302.671875 181.308594 304.632812 181.664062 305.789062 181.898438 C 308.300781 182.40625 310.859375 182.65625 313.421875 182.636719 C 316 182.675781 318.5625 182.285156 321.015625 181.492188 C 322.371094 181.070312 323.632812 180.378906 324.71875 179.460938 C 325.90625 178.34375 325.238281 177.167969 324.476562 176.039062 C 323.085938 174.082031 321.753906 172.101562 320.464844 170.125 Z M 320.464844 170.125 "/>
<path style=" stroke:none;fill-rule:nonzero;fill:rgb(5.098039%,35.686275%,13.72549%);fill-opacity:1;" d="M 319.726562 157.6875 C 319.726562 157.6875 316.476562 157.476562 314.222656 157.535156 L 325.664062 166.945312 C 325.664062 166.945312 325.96875 165.851562 323.949219 163.617188 C 322.386719 161.753906 320.972656 159.773438 319.726562 157.6875 Z M 319.726562 157.6875 "/>
<path style=" stroke:none;fill-rule:nonzero;fill:rgb(5.098039%,35.686275%,13.72549%);fill-opacity:1;" d="M 320.464844 170.125 L 313.808594 170.125 L 324.679688 179.460938 C 325.363281 178.96875 325.566406 178.042969 325.15625 177.308594 C 324.433594 176.039062 320.464844 170.125 320.464844 170.125 Z M 320.464844 170.125 "/>
<use xlink:href="#surface11" mask="url(#mask2)"/>
<path style=" stroke:none;fill-rule:nonzero;fill:rgb(34.509804%,40.392157%,94.117647%);fill-opacity:1;" d="M 94.394531 204.90625 L 94.394531 174.183594 L 66.886719 158.824219 L 66.886719 189.277344 Z M 94.394531 204.90625 "/>
<path style=" stroke:none;fill-rule:nonzero;fill:rgb(34.509804%,40.392157%,94.117647%);fill-opacity:1;" d="M 94.394531 174.183594 L 121.152344 158.824219 C 121.152344 158.824219 121.890625 189.792969 121.152344 190.292969 C 120.410156 190.789062 94.394531 204.90625 94.394531 204.90625 Z M 94.394531 174.183594 "/>
<path style=" stroke:none;fill-rule:nonzero;fill:rgb(34.509804%,40.392157%,94.117647%);fill-opacity:1;" d="M 121.152344 158.824219 L 94.394531 142.472656 L 66.886719 158.824219 L 94.394531 174.191406 Z M 121.152344 158.824219 "/>
<path style=" stroke:none;fill-rule:nonzero;fill:rgb(34.509804%,40.392157%,94.117647%);fill-opacity:1;" d="M 66.886719 158.824219 L 56.953125 141.589844 L 85.128906 125.015625 L 94.394531 142.472656 Z M 66.886719 158.824219 "/>
<use xlink:href="#surface14" mask="url(#mask3)"/>
<use xlink:href="#surface17" mask="url(#mask4)"/>
<path style=" stroke:none;fill-rule:nonzero;fill:rgb(34.509804%,40.392157%,94.117647%);fill-opacity:1;" d="M 121.152344 158.824219 L 128.398438 143.328125 L 98.800781 159.445312 L 94.394531 174.191406 Z M 121.152344 158.824219 "/>
</g>
</svg>
