<?xml version="1.0" encoding="UTF-8"?>
<svg xmlns="http://www.w3.org/2000/svg" xmlns:xlink="http://www.w3.org/1999/xlink" width="919pt" height="693pt" viewBox="0 0 919 693" version="1.1">
<defs>
<filter id="alpha" filterUnits="objectBoundingBox" x="0%" y="0%" width="100%" height="100%">
  <feColorMatrix type="matrix" in="SourceGraphic" values="0 0 0 0 1 0 0 0 0 1 0 0 0 0 1 0 0 0 1 0"/>
</filter>
<mask id="mask0">
  <g filter="url(#alpha)">
<rect x="0" y="0" width="919" height="693" style="fill:rgb(0%,0%,0%);fill-opacity:0.180392;stroke:none;"/>
  </g>
</mask>
<clipPath id="clip1">
  <rect x="0" y="0" width="919" height="693"/>
</clipPath>
<g id="surface5" clip-path="url(#clip1)">
<path style=" stroke:none;fill-rule:nonzero;fill:rgb(34.509804%,40.392157%,94.117647%);fill-opacity:1;" d="M 501.699219 685.371094 C 585.738281 684.351562 673.171875 682.503906 748.136719 644.527344 C 767.628906 634.632812 786.148438 622.242188 800.710938 605.921875 C 827.460938 575.933594 838.925781 534.128906 836.261719 494.0625 C 834.773438 469.765625 828.109375 446.070312 816.710938 424.566406 C 806.90625 406.378906 793.558594 390.148438 785.347656 371.1875 C 755.605469 302.695312 799.507812 219.53125 772.144531 150.0625 C 756.894531 111.34375 721.132812 83.566406 682.203125 69.007812 C 643.273438 54.453125 601.074219 51.511719 559.535156 50.195312 C 524.144531 49.0625 487.363281 48.671875 455.601562 32.984375 C 441.109375 25.8125 428.179688 15.773438 413.429688 9.148438 C 358.234375 -15.503906 295.179688 13.996094 242.074219 42.910156 C 230.0625 49.433594 217.878906 56.101562 208.171875 65.738281 C 197.96875 75.878906 190.972656 88.785156 182.976562 100.703125 C 147.785156 152.789062 87.082031 193.847656 82.640625 256.558594 C 78.683594 312.230469 122.027344 360.21875 131.375 415.230469 C 141.695312 475.804688 110.058594 534.53125 96.011719 594.289062 C 88.847656 624.738281 87.554688 670.742188 121.339844 686.832031 C 147.441406 699.253906 194.339844 689.113281 222.003906 688.785156 Z M 501.699219 685.371094 "/>
</g>
<mask id="mask1">
  <g filter="url(#alpha)">
<rect x="0" y="0" width="919" height="693" style="fill:rgb(0%,0%,0%);fill-opacity:0.180392;stroke:none;"/>
  </g>
</mask>
<clipPath id="clip2">
  <rect x="0" y="0" width="919" height="693"/>
</clipPath>
<g id="surface8" clip-path="url(#clip2)">
<path style=" stroke:none;fill-rule:nonzero;fill:rgb(34.509804%,40.392157%,94.117647%);fill-opacity:1;" d="M 684.839844 261.121094 C 683.40625 243.539062 681.800781 225.597656 674.804688 209.492188 C 662.378906 180.996094 634.371094 161.9375 605.03125 151.714844 C 585.652344 144.957031 565.398438 141.417969 545.070312 138.246094 C 520.503906 134.402344 497.113281 150.851562 493.113281 175.390625 C 493.113281 175.546875 493.113281 175.707031 493.039062 175.878906 C 488.539062 204.558594 499.246094 236.511719 484.898438 261.824219 C 470.78125 286.71875 437.441406 294.164062 409.230469 289.402344 C 395.441406 287.0625 381.28125 281.945312 372.582031 270.988281 C 364.78125 261.179688 362.417969 248.042969 355.378906 237.6875 C 348.859375 228.164062 338.839844 221.726562 329.0625 215.601562 C 320.277344 210.09375 311.277344 204.546875 301.226562 202.023438 C 291.179688 199.496094 279.726562 200.429688 271.628906 206.925781 C 255.734375 219.71875 260.550781 244.558594 255.863281 264.40625 C 247.75 298.464844 208.832031 322.414062 210.855469 357.347656 C 211.957031 376.550781 225.515625 392.382812 237.714844 407.242188 C 256.621094 430.273438 274.496094 456.316406 276.832031 486.03125 C 277.835938 498.792969 275.886719 511.757812 278.164062 524.363281 C 280.6875 538.273438 290.378906 552.601562 305.3125 552.328125 C 307.316406 552.28125 309.304688 552.648438 311.160156 553.40625 C 318.929688 556.632812 316.550781 563.171875 316.394531 568.894531 C 316.132812 577.699219 321.769531 585.859375 328.976562 590.921875 C 336.1875 595.984375 344.859375 598.476562 353.34375 600.746094 C 397.390625 612.519531 443.246094 620.722656 488.496094 615.085938 C 533.75 609.449219 578.683594 588.667969 605.34375 551.667969 C 623.074219 527.058594 631.703125 497.171875 640.003906 468.046875 L 654.867188 415.371094 C 658.496094 402.652344 662.222656 389.859375 667.46875 377.683594 C 672.886719 365.121094 683.132812 355.441406 688.636719 343.511719 C 693.050781 333.929688 690.070312 323.589844 689.167969 313.394531 C 687.707031 295.882812 686.273438 278.503906 684.839844 261.121094 Z M 684.839844 261.121094 "/>
</g>
<linearGradient id="linear0" gradientUnits="userSpaceOnUse" x1="275.75" y1="399.58" x2="275.75" y2="498.77" gradientTransform="matrix(1.433366,0,0,1.4341,41.258215,-1.950376)">
<stop offset="0.01" style="stop-color:rgb(0%,0%,0%);stop-opacity:1;"/>
<stop offset="0.13" style="stop-color:rgb(0%,0%,0%);stop-opacity:0.690196;"/>
<stop offset="1" style="stop-color:rgb(0%,0%,0%);stop-opacity:0;"/>
</linearGradient>
<linearGradient id="linear1" gradientUnits="userSpaceOnUse" x1="273.93" y1="153.74" x2="287.15" y2="153.74" gradientTransform="matrix(1.433366,0,0,1.4341,41.258215,-1.950376)">
<stop offset="0" style="stop-color:rgb(92.54902%,76.862745%,84.313725%);stop-opacity:1;"/>
<stop offset="0.42" style="stop-color:rgb(93.72549%,83.137255%,81.960784%);stop-opacity:1;"/>
<stop offset="0.6" style="stop-color:rgb(94.117647%,86.27451%,80.784314%);stop-opacity:1;"/>
<stop offset="1" style="stop-color:rgb(94.901961%,91.764706%,78.823529%);stop-opacity:1;"/>
</linearGradient>
<linearGradient id="linear2" gradientUnits="userSpaceOnUse" x1="266.41" y1="127.52" x2="295.93" y2="127.52" gradientTransform="matrix(1.433366,0,0,1.4341,41.258215,-1.950376)">
<stop offset="0" style="stop-color:rgb(92.54902%,76.862745%,84.313725%);stop-opacity:1;"/>
<stop offset="0.42" style="stop-color:rgb(93.72549%,83.137255%,81.960784%);stop-opacity:1;"/>
<stop offset="0.6" style="stop-color:rgb(94.117647%,86.27451%,80.784314%);stop-opacity:1;"/>
<stop offset="1" style="stop-color:rgb(94.901961%,91.764706%,78.823529%);stop-opacity:1;"/>
</linearGradient>
<linearGradient id="linear3" gradientUnits="userSpaceOnUse" x1="276.39" y1="142.47" x2="287.32" y2="142.47" gradientTransform="matrix(1.433366,0,0,1.4341,41.258215,-1.950376)">
<stop offset="0" style="stop-color:rgb(92.54902%,76.862745%,84.313725%);stop-opacity:1;"/>
<stop offset="0.42" style="stop-color:rgb(93.72549%,83.137255%,81.960784%);stop-opacity:1;"/>
<stop offset="0.6" style="stop-color:rgb(94.117647%,86.27451%,80.784314%);stop-opacity:1;"/>
<stop offset="1" style="stop-color:rgb(94.901961%,91.764706%,78.823529%);stop-opacity:1;"/>
</linearGradient>
<linearGradient id="linear4" gradientUnits="userSpaceOnUse" x1="374.94" y1="162.34" x2="411.09" y2="162.34" gradientTransform="matrix(1.433366,0,0,1.4341,41.258215,-1.950376)">
<stop offset="0" style="stop-color:rgb(92.54902%,76.862745%,84.313725%);stop-opacity:1;"/>
<stop offset="0.42" style="stop-color:rgb(93.72549%,83.137255%,81.960784%);stop-opacity:1;"/>
<stop offset="0.6" style="stop-color:rgb(94.117647%,86.27451%,80.784314%);stop-opacity:1;"/>
<stop offset="1" style="stop-color:rgb(94.901961%,91.764706%,78.823529%);stop-opacity:1;"/>
</linearGradient>
<linearGradient id="linear5" gradientUnits="userSpaceOnUse" x1="-5086.03" y1="161.71" x2="-5049.88" y2="161.71" gradientTransform="matrix(-1.433366,0,0,1.4341,-6993.14176,-1.950376)">
<stop offset="0" style="stop-color:rgb(92.54902%,76.862745%,84.313725%);stop-opacity:1;"/>
<stop offset="0.42" style="stop-color:rgb(93.72549%,83.137255%,81.960784%);stop-opacity:1;"/>
<stop offset="0.6" style="stop-color:rgb(94.117647%,86.27451%,80.784314%);stop-opacity:1;"/>
<stop offset="1" style="stop-color:rgb(94.901961%,91.764706%,78.823529%);stop-opacity:1;"/>
</linearGradient>
<mask id="mask2">
  <g filter="url(#alpha)">
<rect x="0" y="0" width="919" height="693" style="fill:rgb(0%,0%,0%);fill-opacity:0.541176;stroke:none;"/>
  </g>
</mask>
<clipPath id="clip3">
  <rect x="0" y="0" width="919" height="693"/>
</clipPath>
<g id="surface11" clip-path="url(#clip3)">
<path style=" stroke:none;fill-rule:nonzero;fill:rgb(100%,100%,100%);fill-opacity:1;" d="M 662.40625 263.273438 L 654.925781 267.085938 C 647.566406 270.847656 638.550781 268.007812 634.671875 260.703125 L 611.738281 217.683594 C 611.4375 217.101562 611.410156 216.417969 611.667969 215.816406 L 612.925781 212.949219 C 613.226562 212.269531 613.152344 211.484375 612.734375 210.875 C 612.3125 210.261719 611.605469 209.914062 610.863281 209.953125 L 609.230469 209.953125 C 608.40625 209.996094 607.625 209.570312 607.222656 208.847656 L 597.402344 190.707031 C 597.089844 190.140625 597.046875 189.457031 597.289062 188.855469 L 601.589844 178.515625 C 601.617188 178.4375 601.65625 178.367188 601.703125 178.300781 L 595.785156 168.964844 L 606.117188 162.398438 L 612.726562 172.78125 L 625.828125 173.769531 C 626.558594 173.828125 627.207031 174.253906 627.546875 174.902344 L 639.214844 196.542969 C 639.386719 196.859375 639.480469 197.214844 639.488281 197.574219 C 639.484375 198.046875 639.328125 198.503906 639.042969 198.882812 C 638.613281 199.457031 638.503906 200.210938 638.746094 200.886719 C 638.984375 201.566406 639.550781 202.078125 640.246094 202.25 L 645.738281 203.683594 C 646.296875 203.851562 646.777344 204.21875 647.085938 204.71875 L 668.699219 242.21875 C 670.757812 245.824219 671.25 250.117188 670.0625 254.09375 C 668.875 258.074219 666.105469 261.390625 662.40625 263.273438 Z M 662.40625 263.273438 "/>
</g>
<mask id="mask3">
  <g filter="url(#alpha)">
<rect x="0" y="0" width="919" height="693" style="fill:rgb(0%,0%,0%);fill-opacity:0.541176;stroke:none;"/>
  </g>
</mask>
<clipPath id="clip4">
  <rect x="0" y="0" width="919" height="693"/>
</clipPath>
<g id="surface14" clip-path="url(#clip4)">
<path style=" stroke:none;fill-rule:nonzero;fill:rgb(100%,100%,100%);fill-opacity:1;" d="M 665.273438 260.820312 L 657.777344 264.632812 C 650.421875 268.394531 641.410156 265.554688 637.539062 258.253906 L 614.605469 215.230469 C 614.324219 214.640625 614.324219 213.957031 614.605469 213.367188 L 615.867188 210.496094 C 616.164062 209.816406 616.089844 209.03125 615.671875 208.421875 C 615.25 207.808594 614.542969 207.460938 613.800781 207.5 L 612.167969 207.5 C 611.34375 207.546875 610.5625 207.121094 610.160156 206.394531 L 600.269531 188.253906 C 599.960938 187.683594 599.921875 187.003906 600.171875 186.402344 L 604.46875 176.0625 C 604.5 176 604.53125 175.9375 604.570312 175.878906 L 598.636719 166.554688 L 608.984375 159.988281 L 615.578125 170.371094 L 628.695312 171.347656 C 629.417969 171.417969 630.0625 171.84375 630.414062 172.480469 L 642.082031 194.132812 C 642.480469 194.882812 642.414062 195.789062 641.910156 196.472656 C 641.472656 197.042969 641.355469 197.800781 641.59375 198.476562 C 641.835938 199.15625 642.402344 199.671875 643.101562 199.839844 L 648.589844 201.277344 C 649.15625 201.433594 649.636719 201.800781 649.9375 202.308594 L 671.566406 239.808594 C 673.601562 243.414062 674.082031 247.691406 672.894531 251.65625 C 671.707031 255.621094 668.957031 258.929688 665.273438 260.820312 Z M 665.273438 260.820312 "/>
</g>
<linearGradient id="linear6" gradientUnits="userSpaceOnUse" x1="404.58" y1="254.16" x2="404.58" y2="374.52" gradientTransform="matrix(1.433366,0,0,1.4341,82.367144,0)">
<stop offset="0.01" style="stop-color:rgb(0%,0%,0%);stop-opacity:1;"/>
<stop offset="0.13" style="stop-color:rgb(0%,0%,0%);stop-opacity:0.690196;"/>
<stop offset="1" style="stop-color:rgb(0%,0%,0%);stop-opacity:0;"/>
</linearGradient>
<linearGradient id="linear7" gradientUnits="userSpaceOnUse" x1="165.24" y1="331.17" x2="316.44" y2="159.91" gradientTransform="matrix(1.433366,0,0,1.4341,41.258215,-1.950376)">
<stop offset="0.01" style="stop-color:rgb(0%,0%,0%);stop-opacity:1;"/>
<stop offset="0.13" style="stop-color:rgb(0%,0%,0%);stop-opacity:0.690196;"/>
<stop offset="1" style="stop-color:rgb(0%,0%,0%);stop-opacity:0;"/>
</linearGradient>
<linearGradient id="linear8" gradientUnits="userSpaceOnUse" x1="-4842.75" y1="324" x2="-4707.62" y2="170.94" gradientTransform="matrix(-1.433366,0,0,1.4341,-6354.362324,-1.950376)">
<stop offset="0.01" style="stop-color:rgb(0%,0%,0%);stop-opacity:1;"/>
<stop offset="0.13" style="stop-color:rgb(0%,0%,0%);stop-opacity:0.690196;"/>
<stop offset="1" style="stop-color:rgb(0%,0%,0%);stop-opacity:0;"/>
</linearGradient>
<mask id="mask4">
  <g filter="url(#alpha)">
<rect x="0" y="0" width="919" height="693" style="fill:rgb(0%,0%,0%);fill-opacity:0.180392;stroke:none;"/>
  </g>
</mask>
<clipPath id="clip5">
  <rect x="0" y="0" width="919" height="693"/>
</clipPath>
<g id="surface17" clip-path="url(#clip5)">
<path style=" stroke:none;fill-rule:nonzero;fill:rgb(34.509804%,40.392157%,94.117647%);fill-opacity:1;" d="M 612.625 207.785156 L 639 194.921875 L 639.402344 200.585938 L 645.679688 203.671875 L 653.734375 216.535156 L 623.664062 231.878906 L 614.660156 215.257812 L 616.46875 209.792969 Z M 612.625 207.785156 "/>
</g>
</defs>
<g id="surface1">
<use xlink:href="#surface5" mask="url(#mask0)"/>
<use xlink:href="#surface8" mask="url(#mask1)"/>
<path style=" stroke:none;fill-rule:nonzero;fill:url(#linear0);" d="M 108.253906 642.433594 C 99.652344 644.785156 88.402344 652.15625 93.359375 659.570312 C 95.179688 662.28125 98.621094 663.328125 101.816406 663.875 C 114.515625 666.082031 127.488281 663.617188 140.21875 661.609375 C 221.832031 648.773438 305.054688 655.414062 387.617188 659.070312 C 485.230469 663.417969 582.902344 663.546875 680.640625 659.457031 C 698.515625 658.710938 716.589844 657.792969 733.675781 652.574219 C 751.660156 647.042969 767.917969 636.96875 780.875 623.316406 C 761.996094 613.679688 739.9375 613.277344 718.753906 613.035156 L 572.820312 611.527344 C 570.773438 619.015625 579.84375 624.320312 587.371094 626.183594 C 594.894531 628.050781 604.210938 631.261719 604.457031 638.949219 C 572.234375 640.183594 539.566406 641.386719 508.121094 634.246094 C 495.75 631.375 483.625 627.359375 471.054688 625.742188 C 457.835938 624.035156 444.449219 625.09375 431.175781 626.15625 L 325.324219 634.601562 C 326.742188 626.488281 332.191406 619.65625 339.785156 616.476562 C 297.328125 615.300781 254.859375 615.324219 212.375 616.546875 C 194.570312 617.0625 174.261719 615.257812 157.691406 621.410156 C 140.820312 627.621094 126.042969 637.558594 108.253906 642.433594 Z M 108.253906 642.433594 "/>
<path style=" stroke:none;fill-rule:nonzero;fill:rgb(34.509804%,40.392157%,94.117647%);fill-opacity:1;" d="M 490.246094 400.5 L 402.28125 399.511719 L 382.355469 399.28125 C 382.355469 399.28125 382.355469 399.136719 382.355469 398.867188 C 382.140625 394.878906 380.652344 363.445312 382.355469 328.824219 C 382.347656 328.714844 382.347656 328.605469 382.355469 328.496094 C 382.976562 313.519531 384.414062 298.585938 386.65625 283.765625 C 390.066406 262.769531 395.570312 244.773438 404.34375 236.167969 C 406.09375 234.460938 422.117188 214.65625 447.875 219.617188 C 473.632812 224.578125 487.351562 224.308594 491.390625 285.859375 C 492.410156 300.085938 490.246094 400.5 490.246094 400.5 Z M 490.246094 400.5 "/>
<path style=" stroke:none;fill-rule:nonzero;fill:url(#linear1);" d="M 438.199219 224.207031 C 438.78125 224.824219 439.484375 225.3125 440.265625 225.640625 C 441.082031 225.902344 441.941406 226.015625 442.800781 225.972656 C 444.574219 226.050781 446.34375 225.730469 447.976562 225.023438 C 449.820312 224.027344 451.238281 222.390625 451.960938 220.421875 C 452.671875 218.46875 452.972656 216.386719 452.835938 214.3125 C 452.859375 213.882812 452.761719 213.453125 452.546875 213.078125 C 452.082031 212.5625 451.421875 212.273438 450.726562 212.277344 C 447.859375 211.902344 444.941406 211.628906 441.96875 211.457031 C 440.207031 211.34375 436.109375 210.382812 434.804688 211.859375 C 432.152344 214.871094 436.035156 222.054688 438.199219 224.207031 Z M 438.199219 224.207031 "/>
<path style=" stroke:none;fill-rule:nonzero;fill:url(#linear2);" d="M 424.253906 190.777344 C 424.488281 194.367188 425.433594 197.871094 427.035156 201.089844 C 430 206.265625 436.066406 209.105469 442.027344 209.464844 C 446.703125 209.863281 451.363281 208.507812 455.097656 205.664062 C 457.121094 203.875 458.867188 201.789062 460.273438 199.484375 C 461.429688 197.835938 462.390625 196.058594 463.140625 194.191406 C 463.875 192 464.328125 189.726562 464.488281 187.421875 C 465.03125 182.144531 465.332031 176.824219 465.375 171.519531 C 465.457031 169.300781 465.324219 167.082031 464.976562 164.894531 C 464.289062 161.132812 462.484375 157.664062 459.800781 154.941406 C 458.863281 153.921875 457.699219 153.140625 456.402344 152.660156 C 455.101562 152.328125 453.75 152.246094 452.417969 152.417969 C 450.097656 152.558594 447.789062 152.773438 445.480469 153.0625 C 443.828125 153.214844 442.195312 153.539062 440.609375 154.035156 C 438.21875 154.929688 436.035156 156.296875 434.1875 158.050781 C 429.886719 161.949219 426.65625 166.886719 424.8125 172.394531 C 423.882812 174.847656 423.332031 177.429688 423.179688 180.050781 C 423.324219 183.644531 423.683594 187.226562 424.253906 190.777344 Z M 424.253906 190.777344 "/>
<path style=" stroke:none;fill-rule:nonzero;fill:rgb(24.705882%,23.921569%,33.72549%);fill-opacity:1;" d="M 417.488281 172.421875 C 416.769531 170.078125 416.25 167.679688 415.941406 165.25 C 415.636719 160.296875 416.542969 155.339844 418.578125 150.808594 C 419.03125 149.632812 419.621094 148.515625 420.339844 147.484375 C 421.378906 146.210938 422.632812 145.136719 424.054688 144.3125 C 433.613281 138.289062 445.882812 137.601562 456.804688 140.542969 C 463.113281 142.21875 469.707031 145.058594 475.910156 143.222656 C 475.570312 144.425781 474.984375 145.542969 474.191406 146.507812 C 476.160156 146.441406 478.066406 145.792969 479.667969 144.644531 C 479.492188 146.003906 479 147.304688 478.234375 148.445312 L 480.242188 147.828125 C 478.167969 151.398438 475.835938 154.8125 473.261719 158.039062 C 472.554688 158.851562 471.957031 159.75 471.484375 160.71875 C 471.019531 162.253906 470.777344 163.847656 470.765625 165.453125 C 470.390625 167.917969 469.707031 170.328125 468.730469 172.621094 L 466.078125 179.664062 C 465.019531 173.8125 466.550781 167.230469 463.296875 162.253906 C 462.710938 161.292969 461.882812 160.507812 460.890625 159.972656 C 458.742188 158.914062 456.21875 159.714844 453.882812 160.21875 C 447.761719 161.507812 441.441406 160.605469 435.246094 160.375 C 434.121094 160.257812 432.980469 160.410156 431.921875 160.820312 C 431.15625 161.25 430.484375 161.832031 429.945312 162.527344 C 428.445312 164.1875 427.222656 166.074219 426.316406 168.121094 C 425.496094 170.203125 424.917969 172.371094 424.582031 174.585938 C 424.3125 176.019531 424.238281 180.324219 423.148438 181.257812 C 420.527344 183.378906 417.917969 173.96875 417.488281 172.421875 Z M 417.488281 172.421875 "/>
<path style=" stroke:none;fill-rule:nonzero;fill:rgb(24.705882%,23.921569%,33.72549%);fill-opacity:1;" d="M 464.644531 192.957031 C 464.289062 198.578125 463.742188 204.644531 460 208.847656 C 457.144531 211.789062 453.324219 213.609375 449.238281 213.96875 C 445.183594 214.308594 441.101562 214.167969 437.082031 213.550781 C 435.433594 213.464844 433.8125 213.070312 432.308594 212.390625 C 428.488281 210.367188 425.664062 206.863281 424.496094 202.695312 L 422.75 194.25 C 421.875 190.019531 423.320312 185.3125 423.207031 180.996094 C 424.070312 183.894531 425.390625 186.636719 427.121094 189.113281 C 427.867188 190.308594 428.839844 191.339844 429.988281 192.15625 C 431.75 193.113281 433.714844 193.628906 435.71875 193.660156 C 438.828125 193.933594 441.949219 194.035156 445.066406 193.960938 C 447.949219 194 450.824219 193.613281 453.59375 192.816406 C 456.382812 191.996094 458.808594 190.246094 460.460938 187.851562 C 461.277344 186.578125 463.628906 178.71875 465.117188 179.648438 C 466.609375 180.582031 464.761719 191.179688 464.644531 192.957031 Z M 464.644531 192.957031 "/>
<path style=" stroke:none;fill-rule:nonzero;fill:url(#linear3);" d="M 451.558594 198.609375 C 451.785156 198.609375 452.007812 198.648438 452.21875 198.722656 C 452.675781 198.976562 452.976562 199.4375 453.019531 199.957031 C 453.238281 202.28125 451.921875 204.476562 449.765625 205.378906 C 447.648438 206.195312 445.351562 206.457031 443.101562 206.136719 C 442.257812 206.109375 441.425781 205.941406 440.636719 205.636719 C 439.792969 205.203125 439.042969 204.609375 438.429688 203.886719 C 438.082031 203.539062 437.796875 203.136719 437.582031 202.695312 C 437.28125 201.875 437.433594 200.953125 437.984375 200.273438 C 439.332031 198.566406 441.613281 198.621094 443.5625 198.550781 C 446.226562 198.449219 448.894531 198.480469 451.558594 198.609375 Z M 451.558594 198.609375 "/>
<path style=" stroke:none;fill-rule:nonzero;fill:rgb(24.705882%,23.921569%,33.72549%);fill-opacity:1;" d="M 382.398438 399.28125 L 393.867188 589.214844 L 393.050781 618.65625 C 393.050781 618.65625 370.117188 630.933594 369.339844 637.472656 C 368.566406 644.011719 406.121094 640.742188 406.121094 640.742188 L 424.925781 470.644531 C 424.925781 470.644531 438.816406 451.828125 446.183594 468.992188 C 453.550781 486.160156 447 642.375 447 642.375 C 447 642.375 478.664062 645.246094 481.113281 641.558594 C 483.566406 637.875 467.640625 623.160156 467.640625 623.160156 C 467.640625 623.160156 487.867188 466.140625 487.867188 453.9375 C 487.867188 441.730469 490.316406 400.574219 490.316406 400.574219 Z M 382.398438 399.28125 "/>
<path style=" stroke:none;fill-rule:nonzero;fill:rgb(34.509804%,40.392157%,94.117647%);fill-opacity:1;" d="M 483.035156 231.464844 L 520.175781 263.816406 C 520.175781 263.816406 570.34375 231.105469 579.34375 233.558594 C 588.34375 236.011719 599.785156 259.730469 571.171875 272.808594 C 562.574219 276.722656 549.144531 285.398438 536.886719 292.414062 C 523.410156 300.101562 506.480469 297.976562 495.320312 287.191406 L 475.253906 267.773438 C 469.191406 260.605469 460.917969 256.863281 460.691406 247.441406 L 459.886719 242.648438 C 459.644531 231.148438 457.078125 216.277344 483.035156 231.464844 Z M 483.035156 231.464844 "/>
<path style=" stroke:none;fill-rule:nonzero;fill:rgb(34.509804%,40.392157%,94.117647%);fill-opacity:1;" d="M 384.207031 241.273438 C 378.472656 243.984375 372.738281 246.722656 366.488281 247.753906 C 360.238281 248.789062 353.917969 248.085938 347.683594 247.152344 C 334.035156 245.113281 320.574219 241.988281 307.417969 237.816406 C 302.574219 236.28125 297.628906 234.574219 292.542969 234.734375 C 287.453125 234.890625 282.078125 237.371094 280.058594 242.03125 C 276.515625 250.179688 284.542969 258.554688 292.167969 263.085938 C 309.585938 273.441406 329.335938 279.046875 348.828125 284.597656 C 355.164062 286.304688 361.53125 288.109375 368.066406 287.738281 C 374.800781 287.351562 381.167969 284.65625 387.359375 282 C 397.777344 277.46875 408.773438 272.308594 414.75 262.640625 C 418.492188 256.589844 425.128906 233.414062 417.617188 228.222656 C 411.625 223.976562 390.355469 238.347656 384.207031 241.273438 Z M 384.207031 241.273438 "/>
<path style=" stroke:none;fill-rule:nonzero;fill:url(#linear4);" d="M 593.589844 229.054688 C 596.972656 225.238281 599.683594 220.824219 603.511719 217.453125 C 607.660156 213.828125 612.878906 211.652344 618.375 211.257812 C 620.035156 211.082031 621.710938 211.246094 623.304688 211.746094 C 627.605469 213.25 629.796875 218.039062 630.34375 222.542969 C 630.765625 225.40625 630.414062 228.324219 629.324219 231.003906 C 627.261719 235.566406 622.503906 238.320312 617.757812 239.910156 C 613.011719 241.503906 607.953125 242.277344 603.425781 244.414062 C 598.652344 246.664062 594.28125 250.480469 589.003906 250.523438 C 584.777344 250.523438 576.71875 245.804688 579.113281 240.597656 C 580.21875 238.21875 584.144531 237.011719 586.195312 235.59375 C 588.90625 233.710938 591.390625 231.515625 593.589844 229.054688 Z M 593.589844 229.054688 "/>
<path style=" stroke:none;fill-rule:nonzero;fill:url(#linear5);" d="M 282.0625 228.152344 C 278.679688 224.335938 275.972656 219.917969 272.144531 216.550781 C 268.003906 212.90625 262.792969 210.710938 257.296875 210.296875 C 255.640625 210.117188 253.964844 210.285156 252.378906 210.785156 C 248.078125 212.289062 245.871094 217.078125 245.339844 221.582031 C 244.90625 224.441406 245.253906 227.367188 246.34375 230.042969 C 248.410156 234.605469 253.167969 237.359375 257.925781 238.949219 C 262.683594 240.542969 267.714844 241.316406 272.257812 243.453125 C 277.03125 245.703125 281.40625 249.503906 286.695312 249.5625 C 290.90625 249.5625 298.976562 244.84375 296.570312 239.636719 C 295.480469 237.257812 291.539062 236.054688 289.488281 234.632812 C 286.769531 232.769531 284.277344 230.59375 282.0625 228.152344 Z M 282.0625 228.152344 "/>
<path style=" stroke:none;fill-rule:nonzero;fill:rgb(97.647059%,81.568627%,30.980392%);fill-opacity:1;" d="M 285.289062 283.234375 C 285.371094 283.742188 285.234375 284.265625 284.917969 284.667969 C 281.621094 290.261719 273.019531 289.890625 267.574219 286.347656 C 261.222656 282.046875 257.359375 274.929688 257.210938 267.257812 C 257.179688 266.066406 257.25 264.871094 257.425781 263.6875 C 257.425781 263.328125 257.539062 262.984375 257.597656 262.640625 L 257.425781 263.53125 C 256.808594 266.726562 256.207031 269.941406 255.617188 273.125 C 254.5 278.859375 253.367188 284.8125 250.671875 290.089844 C 247.976562 295.367188 243.507812 299.957031 237.773438 301.347656 C 234.691406 302.09375 231.023438 301.648438 229.101562 299.152344 C 228.414062 298.203125 227.972656 297.101562 227.8125 295.941406 C 227.035156 291.007812 230.175781 286.390625 232.570312 281.988281 C 236.628906 274.53125 238.941406 266.246094 239.335938 257.765625 C 237.542969 260.410156 235.210938 262.648438 232.496094 264.332031 C 224.484375 269.367188 213.460938 269.867188 205.492188 264.605469 C 202.410156 262.6875 200.027344 259.828125 198.699219 256.445312 C 197.421875 253.023438 198.101562 249.179688 200.476562 246.40625 C 203 243.664062 207.167969 243.222656 210.210938 245.375 C 211.441406 246.40625 212.246094 247.855469 213.40625 248.988281 C 216.457031 251.984375 221.519531 252.070312 225.332031 250.121094 C 229.023438 247.949219 232.011719 244.757812 233.929688 240.929688 C 235.636719 237.972656 237.097656 234.761719 239.535156 232.324219 C 241.332031 230.425781 243.820312 229.339844 246.429688 229.3125 C 248.78125 229.425781 251.21875 232.179688 253.394531 231.605469 C 257.695312 230.402344 255.300781 222.585938 259.675781 221.339844 C 261.953125 220.707031 264.175781 223.175781 264.246094 225.539062 C 264.320312 227.90625 262.914062 230.101562 261.609375 232.082031 C 267.34375 234.304688 269.792969 241.171875 269.996094 247.324219 C 270.195312 253.476562 268.875 259.699219 270.09375 265.722656 C 271.648438 273.023438 276.699219 279.085938 283.597656 281.929688 C 284.136719 282.109375 284.628906 282.414062 285.03125 282.820312 C 285.140625 282.941406 285.226562 283.082031 285.289062 283.234375 Z M 285.289062 283.234375 "/>
<path style=" stroke:none;fill-rule:nonzero;fill:rgb(96.078431%,76.078431%,29.019608%);fill-opacity:1;" d="M 246.402344 229.226562 C 239.636719 229.902344 239.234375 257.707031 239.234375 257.707031 L 232.398438 264.277344 C 224.386719 269.308594 213.363281 269.8125 205.394531 264.546875 C 202.308594 262.632812 199.925781 259.769531 198.597656 256.386719 C 197.324219 252.96875 198.003906 249.125 200.375 246.351562 C 202.898438 243.605469 207.066406 243.164062 210.109375 245.316406 C 211.339844 246.351562 212.144531 247.796875 213.304688 248.929688 C 216.359375 251.929688 221.417969 252.015625 225.230469 250.0625 C 228.921875 247.894531 231.910156 244.703125 233.832031 240.871094 C 235.535156 237.917969 237 234.703125 239.433594 232.265625 C 241.242188 230.339844 243.761719 229.242188 246.402344 229.226562 Z M 246.402344 229.226562 "/>
<path style=" stroke:none;fill-rule:nonzero;fill:rgb(96.078431%,76.078431%,29.019608%);fill-opacity:1;" d="M 285.289062 283.234375 C 285.371094 283.742188 285.234375 284.265625 284.917969 284.667969 C 281.621094 290.261719 273.019531 289.890625 267.574219 286.347656 C 261.222656 282.046875 257.359375 274.929688 257.210938 267.257812 C 257.195312 267.019531 257.195312 266.78125 257.210938 266.542969 C 257.210938 265.582031 257.339844 264.648438 257.382812 263.671875 L 257.382812 263.515625 C 257.425781 259.425781 257.949219 255.351562 258.945312 251.382812 C 259.339844 249.992188 259.855469 248.632812 260.476562 247.324219 C 260.835938 246.550781 262.65625 244.527344 262.65625 243.753906 C 262.820312 249.675781 263.335938 255.585938 264.191406 261.449219 C 264.476562 263.757812 264.761719 266.039062 265.234375 268.304688 C 265.761719 272.363281 267.917969 276.03125 271.214844 278.460938 C 272.707031 279.789062 274.445312 280.8125 276.332031 281.472656 C 278.808594 282.230469 281.503906 281.988281 284.054688 282.519531 C 284.382812 282.574219 284.703125 282.660156 285.015625 282.777344 C 285.136719 282.910156 285.226562 283.066406 285.289062 283.234375 Z M 285.289062 283.234375 "/>
<use xlink:href="#surface11" mask="url(#mask2)"/>
<use xlink:href="#surface14" mask="url(#mask3)"/>
<path style=" stroke:none;fill-rule:nonzero;fill:rgb(24.705882%,23.921569%,33.72549%);fill-opacity:1;" d="M 558.859375 357.335938 L 574.125 619.847656 L 751.820312 619.847656 L 765.695312 358.726562 Z M 558.859375 357.335938 "/>
<path style=" stroke:none;fill-rule:nonzero;fill:url(#linear6);" d="M 558.859375 357.335938 L 574.125 619.847656 L 751.820312 619.847656 L 765.695312 358.726562 Z M 558.859375 357.335938 "/>
<path style=" stroke:none;fill-rule:nonzero;fill:rgb(24.705882%,23.921569%,33.72549%);fill-opacity:1;" d="M 550.519531 329.554688 L 775.757812 329.554688 L 775.757812 359.414062 L 550.519531 359.414062 Z M 550.519531 329.554688 "/>
<path style=" stroke:none;fill-rule:nonzero;fill:rgb(29.019608%,58.431373%,45.882353%);fill-opacity:1;" d="M 146.710938 357.335938 L 161.976562 619.847656 L 339.671875 619.847656 L 353.558594 358.726562 Z M 146.710938 357.335938 "/>
<path style=" stroke:none;fill-rule:nonzero;fill:rgb(23.137255%,49.803922%,34.901961%);fill-opacity:1;" d="M 138.382812 329.554688 L 363.621094 329.554688 L 363.621094 359.414062 L 138.382812 359.414062 Z M 138.382812 329.554688 "/>
<path style=" stroke:none;fill-rule:nonzero;fill:rgb(100%,100%,100%);fill-opacity:1;" d="M 283.3125 433.011719 L 294.449219 426.671875 C 294.429688 426.953125 294.382812 427.234375 294.304688 427.503906 C 289.660156 435.550781 285.03125 443.609375 280.34375 451.640625 C 280.03125 452.167969 279.511719 452.53125 278.910156 452.644531 C 269.277344 452.644531 259.644531 452.644531 249.898438 452.285156 L 260.949219 445.890625 L 255.042969 435.722656 L 240.898438 460.101562 L 219.210938 447.597656 C 219.511719 446.964844 219.769531 446.347656 220.097656 445.789062 C 224.140625 438.792969 228.242188 431.820312 232.195312 424.78125 C 234.09375 421.035156 238.039062 418.777344 242.230469 419.042969 C 250.726562 419.101562 259.234375 419.101562 267.757812 419.042969 C 272.460938 418.738281 276.886719 421.289062 278.980469 425.511719 C 280.316406 427.992188 281.761719 430.359375 283.3125 433.011719 Z M 239.605469 456.074219 C 239.894531 455.871094 240.066406 455.8125 240.125 455.714844 C 244.421875 448.371094 248.722656 441.027344 252.910156 433.65625 C 253.132812 433.171875 253.132812 432.609375 252.910156 432.121094 C 251.832031 429.945312 250.578125 427.859375 249.167969 425.882812 C 244.695312 420.148438 237.828125 420.75 234.273438 426.929688 L 225.160156 442.707031 C 224.457031 443.925781 223.726562 445.160156 223.023438 446.519531 Z M 239.605469 456.074219 "/>
<path style=" stroke:none;fill-rule:nonzero;fill:rgb(100%,100%,100%);fill-opacity:1;" d="M 209.261719 464.476562 L 197.796875 457.808594 C 198.65625 457.808594 199.085938 457.664062 199.515625 457.664062 C 208.386719 457.664062 217.246094 457.664062 226.105469 457.664062 C 227.035156 457.679688 227.917969 458.09375 228.527344 458.796875 C 233.242188 466.714844 237.84375 474.703125 242.460938 482.660156 C 242.644531 483.046875 242.808594 483.445312 242.945312 483.851562 L 231.480469 477.3125 L 225.617188 487.550781 L 253.828125 487.550781 L 253.828125 512.632812 C 253.136719 512.632812 252.394531 512.761719 251.777344 512.761719 C 243.765625 512.761719 235.765625 512.761719 227.753906 512.761719 C 223.566406 513.023438 219.621094 510.769531 217.71875 507.027344 C 213.417969 499.367188 208.960938 491.796875 204.574219 484.195312 C 202.398438 480.625 202.398438 476.136719 204.574219 472.566406 C 206.09375 469.867188 207.628906 467.316406 209.261719 464.476562 Z M 238.203125 510.023438 C 241.929688 510.023438 245.640625 510.023438 249.355469 510.023438 C 250.617188 510.023438 251.175781 509.621094 251.160156 508.300781 C 251.160156 502.9375 251.160156 497.574219 251.160156 492.210938 C 251.160156 490.933594 250.730469 490.460938 249.425781 490.476562 C 241.414062 490.476562 233.414062 490.476562 225.402344 490.476562 C 224.726562 490.472656 224.082031 490.753906 223.625 491.25 C 222.253906 493.253906 221.074219 495.378906 220.097656 497.605469 C 217.492188 504.316406 221.417969 509.9375 228.554688 509.9375 Z M 238.203125 510.023438 "/>
<path style=" stroke:none;fill-rule:nonzero;fill:rgb(100%,100%,100%);fill-opacity:1;" d="M 273.347656 474.171875 L 273.347656 486.71875 L 285.03125 486.71875 L 271.054688 462.453125 L 292.769531 449.792969 C 293.199219 450.480469 293.601562 451.039062 293.945312 451.640625 C 297.960938 458.566406 301.914062 465.539062 305.988281 472.421875 C 308.265625 475.84375 308.296875 480.292969 306.074219 483.75 C 301.601562 491.324219 297.230469 498.9375 292.84375 506.566406 C 290.894531 510.359375 286.921875 512.671875 282.664062 512.488281 C 279.683594 512.488281 276.6875 512.488281 273.507812 512.488281 L 273.507812 525.941406 C 272.847656 525.039062 272.515625 524.664062 272.273438 524.234375 C 267.875 516.632812 263.5 509.003906 259.042969 501.417969 C 258.363281 500.433594 258.363281 499.132812 259.042969 498.148438 C 263.730469 490.132812 268.316406 482.058594 272.949219 474.011719 Z M 274.941406 463.488281 L 285.21875 481.296875 C 288.542969 487.035156 288.558594 487.035156 295.25 486.90625 L 295.894531 486.90625 C 303.148438 486.402344 306.816406 479.734375 303.234375 473.4375 C 299.859375 467.558594 296.472656 461.683594 293.070312 455.8125 C 292.683594 455.167969 292.253906 454.550781 291.78125 453.820312 Z M 274.941406 463.488281 "/>
<path style=" stroke:none;fill-rule:nonzero;fill:rgb(100%,100%,100%);fill-opacity:1;" d="M 687.460938 433.011719 L 698.601562 426.671875 C 698.589844 426.957031 698.542969 427.234375 698.457031 427.503906 C 693.820312 435.554688 689.171875 443.601562 684.507812 451.640625 C 684.199219 452.167969 683.675781 452.535156 683.078125 452.644531 C 673.445312 452.644531 663.828125 452.644531 654.066406 452.285156 L 665.117188 445.890625 L 659.226562 435.722656 C 654.410156 444.027344 649.78125 452 645.078125 460.101562 L 623.375 447.597656 C 623.691406 446.964844 623.949219 446.347656 624.28125 445.789062 C 628.308594 438.792969 632.421875 431.820312 636.363281 424.78125 C 638.265625 421.035156 642.207031 418.78125 646.398438 419.042969 C 654.910156 419.101562 663.421875 419.101562 671.925781 419.042969 C 676.628906 418.742188 681.058594 421.292969 683.164062 425.511719 C 684.464844 427.992188 685.929688 430.359375 687.460938 433.011719 Z M 643.773438 456.074219 C 644.058594 455.871094 644.21875 455.8125 644.273438 455.714844 C 648.566406 448.371094 652.828125 441.019531 657.0625 433.65625 C 657.28125 433.171875 657.28125 432.609375 657.0625 432.121094 C 655.980469 429.949219 654.734375 427.863281 653.335938 425.882812 C 648.847656 420.148438 641.996094 420.75 638.425781 426.929688 C 635.402344 432.195312 632.347656 437.445312 629.324219 442.707031 C 628.621094 443.925781 627.890625 445.160156 627.175781 446.519531 Z M 643.773438 456.074219 "/>
<path style=" stroke:none;fill-rule:nonzero;fill:rgb(100%,100%,100%);fill-opacity:1;" d="M 613.414062 464.476562 L 601.949219 457.808594 C 602.820312 457.808594 603.253906 457.664062 603.683594 457.664062 C 612.539062 457.664062 621.398438 457.664062 630.269531 457.664062 C 631.199219 457.683594 632.074219 458.09375 632.679688 458.796875 C 637.394531 466.714844 641.996094 474.703125 646.625 482.660156 C 646.742188 482.875 646.8125 483.132812 647.113281 483.851562 L 635.644531 477.3125 L 629.785156 487.550781 L 657.921875 487.550781 L 657.921875 512.632812 C 657.21875 512.632812 656.488281 512.761719 655.855469 512.761719 C 647.859375 512.761719 639.847656 512.761719 631.847656 512.761719 C 627.660156 513.023438 623.714844 510.769531 621.8125 507.027344 C 617.515625 499.367188 613.054688 491.796875 608.671875 484.195312 C 606.492188 480.625 606.492188 476.136719 608.671875 472.566406 C 610.203125 469.867188 611.738281 467.316406 613.414062 464.476562 Z M 642.367188 510.023438 C 646.082031 510.023438 649.792969 510.023438 653.519531 510.023438 C 654.78125 510.023438 655.328125 509.621094 655.3125 508.300781 C 655.3125 502.9375 655.3125 497.574219 655.3125 492.210938 C 655.3125 490.933594 654.882812 490.460938 653.578125 490.476562 C 645.566406 490.476562 637.566406 490.476562 629.554688 490.476562 C 628.878906 490.472656 628.234375 490.753906 627.777344 491.25 C 626.410156 493.253906 625.234375 495.382812 624.265625 497.605469 C 621.640625 504.316406 625.585938 509.9375 632.722656 509.9375 Z M 642.367188 510.023438 "/>
<path style=" stroke:none;fill-rule:nonzero;fill:rgb(100%,100%,100%);fill-opacity:1;" d="M 677.5 474.171875 L 677.5 486.71875 L 689.140625 486.71875 L 675.164062 462.453125 L 696.921875 449.792969 C 697.351562 450.480469 697.753906 451.039062 698.097656 451.640625 C 702.113281 458.566406 706.066406 465.539062 710.136719 472.421875 C 712.421875 475.84375 712.453125 480.292969 710.222656 483.75 C 705.769531 491.324219 701.367188 498.929688 697.007812 506.566406 C 695.054688 510.351562 691.085938 512.664062 686.832031 512.488281 C 683.835938 512.488281 680.839844 512.488281 677.660156 512.488281 L 677.660156 525.941406 C 677 525.039062 676.667969 524.664062 676.425781 524.234375 C 672.023438 516.632812 667.652344 509.003906 663.210938 501.417969 C 662.503906 500.445312 662.503906 499.125 663.210938 498.148438 C 667.882812 490.132812 672.484375 482.058594 677.097656 474.011719 Z M 679.089844 463.488281 L 689.367188 481.296875 C 692.707031 487.035156 692.707031 487.035156 699.402344 486.90625 L 700.03125 486.90625 C 707.300781 486.402344 710.96875 479.734375 707.386719 473.4375 C 704.003906 467.558594 700.609375 461.683594 697.210938 455.8125 C 696.835938 455.167969 696.390625 454.550781 695.917969 453.820312 Z M 679.089844 463.488281 "/>
<path style=" stroke:none;fill-rule:nonzero;fill:url(#linear7);" d="M 402.28125 399.511719 L 382.355469 399.28125 C 382.355469 399.28125 382.355469 399.136719 382.355469 398.867188 C 382.242188 394.5625 381.382812 359.886719 382.355469 328.824219 C 382.347656 328.714844 382.347656 328.605469 382.355469 328.496094 C 382.929688 309.664062 384.207031 292.226562 386.65625 283.765625 C 386.84375 283.132812 387.042969 282.546875 387.257812 282.015625 C 387.257812 282.015625 394.96875 275.992188 395.5 279.148438 C 396.058594 282 398.308594 378.875 402.28125 399.511719 Z M 402.28125 399.511719 "/>
<path style=" stroke:none;fill-rule:nonzero;fill:url(#linear8);" d="M 470.007812 400.574219 L 489.929688 400.359375 C 489.929688 400.359375 489.929688 400.214844 489.929688 399.925781 C 490.046875 395.625 493.386719 291.59375 490.875 283.132812 C 490.875 283.132812 487.421875 279.9375 484.757812 293.257812 C 484.167969 296.140625 473.976562 379.949219 470.007812 400.574219 Z M 470.007812 400.574219 "/>
<use xlink:href="#surface17" mask="url(#mask4)"/>
</g>
</svg>
