<?xml version="1.0" encoding="UTF-8"?>
<svg xmlns="http://www.w3.org/2000/svg" xmlns:xlink="http://www.w3.org/1999/xlink" width="406pt" height="306pt" viewBox="0 0 406 306" version="1.1">
<defs>
<filter id="alpha" filterUnits="objectBoundingBox" x="0%" y="0%" width="100%" height="100%">
  <feColorMatrix type="matrix" in="SourceGraphic" values="0 0 0 0 1 0 0 0 0 1 0 0 0 0 1 0 0 0 1 0"/>
</filter>
<mask id="mask0">
  <g filter="url(#alpha)">
<rect x="0" y="0" width="406" height="306" style="fill:rgb(0%,0%,0%);fill-opacity:0.439216;stroke:none;"/>
  </g>
</mask>
<clipPath id="clip1">
  <rect x="0" y="0" width="406" height="306"/>
</clipPath>
<g id="surface5" clip-path="url(#clip1)">
<path style=" stroke:none;fill-rule:nonzero;fill:rgb(100%,100%,100%);fill-opacity:1;" d="M 199.246094 79.035156 C 199.246094 79.035156 216.8125 92.902344 215.433594 134.730469 L 191.9375 145.894531 Z M 199.246094 79.035156 "/>
</g>
<mask id="mask1">
  <g filter="url(#alpha)">
<rect x="0" y="0" width="406" height="306" style="fill:rgb(0%,0%,0%);fill-opacity:0.301961;stroke:none;"/>
  </g>
</mask>
<clipPath id="clip2">
  <rect x="0" y="0" width="406" height="306"/>
</clipPath>
<g id="surface8" clip-path="url(#clip2)">
<path style=" stroke:none;fill-rule:nonzero;fill:rgb(90.196078%,90.196078%,90.196078%);fill-opacity:1;" d="M 349.921875 263.054688 C 349.921875 252.832031 285.222656 244.542969 205.414062 244.542969 C 125.609375 244.542969 60.910156 252.832031 60.910156 263.054688 C 60.910156 273.28125 125.609375 281.570312 205.414062 281.570312 C 285.222656 281.570312 349.921875 273.28125 349.921875 263.054688 Z M 349.921875 263.054688 "/>
</g>
<mask id="mask2">
  <g filter="url(#alpha)">
<rect x="0" y="0" width="406" height="306" style="fill:rgb(0%,0%,0%);fill-opacity:0.309804;stroke:none;"/>
  </g>
</mask>
<clipPath id="clip3">
  <rect x="0" y="0" width="406" height="306"/>
</clipPath>
<g id="surface11" clip-path="url(#clip3)">
<path style=" stroke:none;fill-rule:nonzero;fill:rgb(80.784314%,50.588235%,44.705882%);fill-opacity:1;" d="M 180.671875 55.691406 C 179.078125 55.085938 177.699219 54.027344 176.703125 52.648438 C 176.703125 52.648438 176.367188 57.042969 180.660156 61.945312 Z M 180.671875 55.691406 "/>
</g>
<mask id="mask3">
  <g filter="url(#alpha)">
<rect x="0" y="0" width="406" height="306" style="fill:rgb(0%,0%,0%);fill-opacity:0.458824;stroke:none;"/>
  </g>
</mask>
<clipPath id="clip4">
  <rect x="0" y="0" width="406" height="306"/>
</clipPath>
<g id="surface14" clip-path="url(#clip4)">
<path style=" stroke:none;fill-rule:nonzero;fill:rgb(100%,100%,100%);fill-opacity:1;" d="M 167.527344 246.785156 L 160.511719 245.324219 L 161.34375 255.929688 L 165.578125 257.371094 Z M 167.527344 246.785156 "/>
</g>
<mask id="mask4">
  <g filter="url(#alpha)">
<rect x="0" y="0" width="406" height="306" style="fill:rgb(0%,0%,0%);fill-opacity:0.458824;stroke:none;"/>
  </g>
</mask>
<clipPath id="clip5">
  <rect x="0" y="0" width="406" height="306"/>
</clipPath>
<g id="surface17" clip-path="url(#clip5)">
<path style=" stroke:none;fill-rule:nonzero;fill:rgb(100%,100%,100%);fill-opacity:1;" d="M 128.957031 244.765625 L 136.101562 245.355469 L 132.304688 255.292969 L 127.828125 255.472656 Z M 128.957031 244.765625 "/>
</g>
<mask id="mask5">
  <g filter="url(#alpha)">
<rect x="0" y="0" width="406" height="306" style="fill:rgb(0%,0%,0%);fill-opacity:0.121569;stroke:none;"/>
  </g>
</mask>
<clipPath id="clip6">
  <rect x="0" y="0" width="406" height="306"/>
</clipPath>
<g id="surface20" clip-path="url(#clip6)">
<path style=" stroke:none;fill-rule:nonzero;fill:rgb(100%,100%,100%);fill-opacity:1;" d="M 302.09375 140.636719 C 302.09375 148.730469 295.53125 155.292969 287.4375 155.292969 C 279.34375 155.292969 272.78125 148.730469 272.78125 140.636719 C 272.78125 132.542969 279.34375 125.980469 287.4375 125.980469 C 295.53125 125.980469 302.09375 132.542969 302.09375 140.636719 Z M 302.09375 140.636719 "/>
</g>
<mask id="mask6">
  <g filter="url(#alpha)">
<rect x="0" y="0" width="406" height="306" style="fill:rgb(0%,0%,0%);fill-opacity:0.101961;stroke:none;"/>
  </g>
</mask>
<clipPath id="clip7">
  <rect x="0" y="0" width="406" height="306"/>
</clipPath>
<g id="surface23" clip-path="url(#clip7)">
<path style=" stroke:none;fill-rule:nonzero;fill:rgb(0%,0%,0%);fill-opacity:1;" d="M 159.660156 78.355469 C 159.660156 78.355469 168.855469 103.578125 157.113281 121.109375 C 145.367188 138.636719 150.542969 154.503906 157.113281 155.8125 C 163.679688 157.121094 174.4375 152.117188 174.4375 152.117188 L 182.082031 163.375 L 173.117188 168.742188 L 147.613281 166.105469 L 134.070312 156.296875 C 134.070312 156.296875 130.121094 142.667969 129.453125 140.300781 C 128.78125 137.9375 128.519531 88.730469 159.660156 78.355469 Z M 159.660156 78.355469 "/>
</g>
<mask id="mask7">
  <g filter="url(#alpha)">
<rect x="0" y="0" width="406" height="306" style="fill:rgb(0%,0%,0%);fill-opacity:0.439216;stroke:none;"/>
  </g>
</mask>
<clipPath id="clip8">
  <rect x="0" y="0" width="406" height="306"/>
</clipPath>
<g id="surface26" clip-path="url(#clip8)">
<path style=" stroke:none;fill-rule:nonzero;fill:rgb(100%,100%,100%);fill-opacity:1;" d="M 107.589844 114.671875 L 140.070312 128.640625 C 140.070312 128.640625 178.640625 79.007812 149.742188 68.886719 C 120.410156 58.605469 107.589844 114.671875 107.589844 114.671875 Z M 107.589844 114.671875 "/>
</g>
<mask id="mask8">
  <g filter="url(#alpha)">
<rect x="0" y="0" width="406" height="306" style="fill:rgb(0%,0%,0%);fill-opacity:0.439216;stroke:none;"/>
  </g>
</mask>
<clipPath id="clip9">
  <rect x="0" y="0" width="406" height="306"/>
</clipPath>
<g id="surface29" clip-path="url(#clip9)">
<path style=" stroke:none;fill-rule:nonzero;fill:rgb(100%,100%,100%);fill-opacity:1;" d="M 240.484375 145.824219 L 318.578125 145.824219 L 318.578125 159.992188 L 240.484375 159.992188 Z M 240.484375 145.824219 "/>
</g>
<mask id="mask9">
  <g filter="url(#alpha)">
<rect x="0" y="0" width="406" height="306" style="fill:rgb(0%,0%,0%);fill-opacity:0.439216;stroke:none;"/>
  </g>
</mask>
<clipPath id="clip10">
  <rect x="0" y="0" width="406" height="306"/>
</clipPath>
<g id="surface32" clip-path="url(#clip10)">
<path style=" stroke:none;fill-rule:nonzero;fill:rgb(100%,100%,100%);fill-opacity:1;" d="M 267.433594 226.457031 L 294.035156 226.457031 L 294.035156 241.527344 L 267.433594 241.527344 Z M 267.433594 226.457031 "/>
</g>
<mask id="mask10">
  <g filter="url(#alpha)">
<rect x="0" y="0" width="406" height="306" style="fill:rgb(0%,0%,0%);fill-opacity:0.101961;stroke:none;"/>
  </g>
</mask>
<clipPath id="clip11">
  <rect x="0" y="0" width="406" height="306"/>
</clipPath>
<g id="surface35" clip-path="url(#clip11)">
<path style=" stroke:none;fill-rule:nonzero;fill:rgb(0%,0%,0%);fill-opacity:1;" d="M 274.285156 238.789062 L 282.464844 238.789062 L 288.980469 262.722656 L 253.6875 262.722656 Z M 274.285156 238.789062 "/>
</g>
<mask id="mask11">
  <g filter="url(#alpha)">
<rect x="0" y="0" width="406" height="306" style="fill:rgb(0%,0%,0%);fill-opacity:0.439216;stroke:none;"/>
  </g>
</mask>
<clipPath id="clip12">
  <rect x="0" y="0" width="406" height="306"/>
</clipPath>
<g id="surface38" clip-path="url(#clip12)">
<path style=" stroke:none;fill-rule:nonzero;fill:rgb(100%,100%,100%);fill-opacity:1;" d="M 165.128906 142.003906 L 176.257812 138.003906 L 183.75 158.867188 L 172.621094 162.863281 Z M 165.128906 142.003906 "/>
</g>
<mask id="mask12">
  <g filter="url(#alpha)">
<rect x="0" y="0" width="406" height="306" style="fill:rgb(0%,0%,0%);fill-opacity:0.101961;stroke:none;"/>
  </g>
</mask>
<clipPath id="clip13">
  <rect x="0" y="0" width="406" height="306"/>
</clipPath>
<g id="surface41" clip-path="url(#clip13)">
<path style=" stroke:none;fill-rule:nonzero;fill:rgb(0%,0%,0%);fill-opacity:1;" d="M 264.84375 242.917969 L 228.691406 242.917969 L 225.777344 254.410156 L 267.433594 254.410156 Z M 264.84375 242.917969 "/>
</g>
</defs>
<g id="surface1">
<path style=" stroke:none;fill-rule:nonzero;fill:rgb(14.117647%,15.686275%,35.686275%);fill-opacity:1;" d="M 261.625 105.882812 C 261.625 105.882812 243.070312 100.675781 251.019531 91.175781 C 258.96875 81.675781 269.828125 89.492188 266.570312 104.308594 Z M 261.625 105.882812 "/>
<path style=" stroke:none;fill-rule:nonzero;fill:rgb(95.686275%,63.529412%,54.901961%);fill-opacity:1;" d="M 185.625 115.535156 C 185.625 115.535156 191.9375 166.5 218.539062 163.242188 C 245.144531 159.984375 263.777344 113.941406 263.777344 113.941406 L 258.105469 110.023438 C 258.105469 110.023438 241.570312 141.835938 222.863281 141.105469 C 204.15625 140.375 220.253906 113.464844 206.269531 88.589844 C 192.28125 63.710938 180.964844 102.058594 185.625 115.535156 Z M 185.625 115.535156 "/>
<path style=" stroke:none;fill-rule:nonzero;fill:rgb(100%,82.352941%,0%);fill-opacity:1;" d="M 244.308594 123.949219 L 256.917969 132.152344 C 256.917969 132.152344 263.542969 121.382812 264.742188 113.972656 C 264.742188 113.972656 270.921875 110.574219 269.289062 104.980469 C 267.65625 99.386719 257.667969 109.253906 257.667969 109.253906 Z M 244.308594 123.949219 "/>
<path style=" stroke:none;fill-rule:nonzero;fill:rgb(14.117647%,15.686275%,35.686275%);fill-opacity:1;" d="M 269.460938 107.972656 C 269.460938 107.972656 313.738281 105.265625 310.0625 145.824219 L 249.039062 145.824219 C 249.039062 145.824219 247.292969 120.285156 269.460938 107.972656 Z M 269.460938 107.972656 "/>
<path style=" stroke:none;fill-rule:nonzero;fill:rgb(34.509804%,40.392157%,94.117647%);fill-opacity:1;" d="M 199.246094 79.035156 C 199.246094 79.035156 216.8125 92.902344 215.433594 134.730469 L 191.9375 145.894531 Z M 199.246094 79.035156 "/>
<use xlink:href="#surface5" mask="url(#mask0)"/>
<use xlink:href="#surface8" mask="url(#mask1)"/>
<path style=" stroke:none;fill-rule:nonzero;fill:rgb(95.686275%,63.529412%,54.901961%);fill-opacity:1;" d="M 174.367188 43.828125 L 167.789062 67.019531 L 180.832031 69.730469 L 180.375 51.765625 Z M 174.367188 43.828125 "/>
<use xlink:href="#surface11" mask="url(#mask2)"/>
<path style=" stroke:none;fill-rule:nonzero;fill:rgb(95.686275%,63.529412%,54.901961%);fill-opacity:1;" d="M 187.867188 44.507812 C 187.867188 44.507812 187.214844 51.835938 185.144531 56.414062 C 184.742188 57.308594 183.996094 58.003906 183.078125 58.347656 C 182.15625 58.695312 181.136719 58.660156 180.242188 58.25 C 177.949219 57.175781 175.167969 55.050781 175.035156 51.082031 L 174.023438 44.375 C 173.878906 41.585938 175.503906 39.007812 178.082031 37.941406 C 182.699219 35.726562 188.484375 40.0625 187.867188 44.507812 Z M 187.867188 44.507812 "/>
<path style=" stroke:none;fill-rule:nonzero;fill:rgb(14.117647%,15.686275%,35.686275%);fill-opacity:1;" d="M 186.019531 44.488281 C 183.765625 44.179688 181.554688 43.609375 179.433594 42.792969 C 180.429688 45.050781 179.964844 47.6875 178.253906 49.46875 C 176.644531 51.234375 174.011719 51.613281 171.972656 50.375 L 173.738281 41.085938 C 174.144531 38.347656 176.03125 36.054688 178.640625 35.128906 C 179.738281 34.730469 180.867188 34.40625 182.011719 34.164062 C 184.882812 33.566406 188.484375 36.042969 191.207031 34.660156 C 191.761719 34.378906 192.421875 34.410156 192.949219 34.742188 C 193.476562 35.070312 193.792969 35.652344 193.785156 36.273438 C 193.703125 39.1875 192.402344 43.550781 188.304688 44.394531 C 187.550781 44.550781 186.78125 44.582031 186.019531 44.488281 Z M 186.019531 44.488281 "/>
<path style=" stroke:none;fill-rule:nonzero;fill:rgb(95.686275%,63.529412%,54.901961%);fill-opacity:1;" d="M 179.066406 49.339844 C 179.066406 49.339844 179.511719 46.535156 177.382812 46.382812 C 175.25 46.230469 174.578125 50.261719 177.382812 51.144531 Z M 179.066406 49.339844 "/>
<path style=" stroke:none;fill-rule:nonzero;fill:rgb(95.686275%,63.529412%,54.901961%);fill-opacity:1;" d="M 180 179.066406 L 165.578125 257.371094 L 161.386719 255.929688 L 157.070312 201.210938 C 156.5625 192.390625 159.984375 187.398438 153.933594 180.914062 L 160.226562 173.96875 Z M 180 179.066406 "/>
<path style=" stroke:none;fill-rule:nonzero;fill:rgb(34.509804%,40.392157%,94.117647%);fill-opacity:1;" d="M 184.933594 69.769531 L 167.820312 66.21875 C 167.820312 66.21875 141.824219 61.984375 127.828125 78.90625 C 112.078125 97.976562 137.238281 164.84375 137.238281 164.84375 L 182.082031 169.695312 C 182.082031 169.695312 242.921875 95.316406 184.933594 69.769531 Z M 184.933594 69.769531 "/>
<path style=" stroke:none;fill-rule:nonzero;fill:rgb(34.509804%,40.392157%,94.117647%);fill-opacity:1;" d="M 167.527344 246.785156 L 160.511719 245.324219 L 161.34375 255.929688 L 165.578125 257.371094 Z M 167.527344 246.785156 "/>
<use xlink:href="#surface14" mask="url(#mask3)"/>
<path style=" stroke:none;fill-rule:nonzero;fill:rgb(95.686275%,63.529412%,54.901961%);fill-opacity:1;" d="M 136.113281 176.285156 L 127.828125 255.453125 L 132.304688 255.269531 L 151.882812 203.992188 C 154.867188 195.671875 153 189.914062 160.613281 185.4375 L 156.554688 177.003906 Z M 136.113281 176.285156 "/>
<path style=" stroke:none;fill-rule:nonzero;fill:rgb(34.509804%,40.392157%,94.117647%);fill-opacity:1;" d="M 128.957031 244.765625 L 136.101562 245.355469 L 132.304688 255.292969 L 127.828125 255.472656 Z M 128.957031 244.765625 "/>
<use xlink:href="#surface17" mask="url(#mask4)"/>
<use xlink:href="#surface20" mask="url(#mask5)"/>
<path style=" stroke:none;fill-rule:nonzero;fill:rgb(14.117647%,15.686275%,35.686275%);fill-opacity:1;" d="M 182.082031 169.695312 L 175.941406 205.058594 L 156.746094 205.058594 L 154.109375 179.449219 L 137.238281 164.84375 Z M 182.082031 169.695312 "/>
<use xlink:href="#surface23" mask="url(#mask6)"/>
<path style=" stroke:none;fill-rule:nonzero;fill:rgb(14.117647%,15.686275%,35.686275%);fill-opacity:1;" d="M 137.238281 164.84375 L 130.730469 205.058594 L 151.46875 205.058594 L 161.628906 172.347656 Z M 137.238281 164.84375 "/>
<path style=" stroke:none;fill-rule:nonzero;fill:rgb(34.509804%,40.392157%,94.117647%);fill-opacity:1;" d="M 165.921875 255.148438 C 165.921875 255.148438 167.75 258.589844 171.058594 258.398438 C 174.367188 258.203125 175.695312 261.28125 172.863281 262.539062 C 170.03125 263.796875 161.902344 261.097656 161.902344 261.097656 L 161.3125 255.070312 Z M 165.921875 255.148438 "/>
<path style=" stroke:none;fill-rule:nonzero;fill:rgb(34.509804%,40.392157%,94.117647%);fill-opacity:1;" d="M 128.214844 253.546875 C 128.214844 253.546875 126.761719 257.148438 123.445312 257.3125 C 120.125 257.472656 119.140625 260.671875 122.085938 261.625 C 125.027344 262.578125 132.832031 259.035156 132.832031 259.035156 L 132.78125 252.945312 Z M 128.214844 253.546875 "/>
<path style=" stroke:none;fill-rule:nonzero;fill:rgb(95.686275%,63.529412%,54.901961%);fill-opacity:1;" d="M 155.171875 88.183594 C 157.558594 76.285156 145.480469 66.53125 134.4375 71.554688 C 129.363281 73.871094 124.480469 77.382812 121.445312 82.722656 C 112.808594 97.945312 86.375 167.71875 117.820312 171.523438 C 149.265625 175.328125 171.617188 155.972656 171.617188 155.972656 L 167.769531 148.867188 C 167.769531 148.867188 122.460938 163.953125 124.367188 151.335938 C 125.859375 141.5 150.039062 113.800781 155.171875 88.183594 Z M 155.171875 88.183594 "/>
<path style=" stroke:none;fill-rule:nonzero;fill:rgb(95.686275%,63.529412%,54.901961%);fill-opacity:1;" d="M 186.667969 47.542969 L 188.363281 52.070312 C 188.554688 52.582031 188.476562 53.15625 188.152344 53.597656 C 187.832031 54.039062 187.308594 54.289062 186.761719 54.261719 L 182.8125 53.945312 Z M 186.667969 47.542969 "/>
<path style=" stroke:none;fill-rule:nonzero;fill:rgb(34.509804%,40.392157%,94.117647%);fill-opacity:1;" d="M 107.589844 114.671875 L 140.070312 128.640625 C 140.070312 128.640625 178.640625 79.007812 149.742188 68.886719 C 120.410156 58.605469 107.589844 114.671875 107.589844 114.671875 Z M 107.589844 114.671875 "/>
<use xlink:href="#surface26" mask="url(#mask7)"/>
<path style=" stroke:none;fill-rule:nonzero;fill:rgb(100%,82.352941%,0%);fill-opacity:1;" d="M 306.144531 262.722656 L 253.6875 262.722656 L 247.089844 152.910156 L 312.355469 152.910156 Z M 306.144531 262.722656 "/>
<path style=" stroke:none;fill-rule:nonzero;fill:rgb(100%,100%,100%);fill-opacity:1;" d="M 286.066406 192.910156 C 287.019531 193.09375 287.964844 192.550781 288.28125 191.632812 L 289.953125 186.851562 C 290.019531 186.660156 289.957031 186.449219 289.804688 186.320312 C 289.648438 186.191406 289.429688 186.171875 289.253906 186.273438 L 288.007812 186.992188 L 284.707031 181.277344 C 284.296875 180.574219 283.542969 180.140625 282.726562 180.140625 L 277.652344 180.140625 C 276.839844 180.140625 276.089844 180.574219 275.683594 181.277344 L 272.140625 187.367188 C 271.992188 187.628906 271.949219 187.9375 272.027344 188.226562 C 272.105469 188.515625 272.296875 188.761719 272.558594 188.910156 L 276.382812 191.125 C 276.925781 191.429688 277.613281 191.246094 277.925781 190.707031 L 280.199219 186.769531 L 282.230469 190.292969 L 280.972656 191.011719 C 280.800781 191.117188 280.710938 191.3125 280.746094 191.511719 C 280.777344 191.707031 280.929688 191.863281 281.125 191.90625 Z M 286.066406 192.910156 "/>
<path style=" stroke:none;fill-rule:nonzero;fill:rgb(100%,100%,100%);fill-opacity:1;" d="M 296.695312 203.566406 C 297.105469 202.859375 297.105469 201.988281 296.695312 201.285156 L 293.113281 195.195312 C 292.789062 194.65625 292.097656 194.480469 291.558594 194.796875 L 287.742188 197.03125 C 287.207031 197.351562 287.027344 198.046875 287.347656 198.582031 L 289.652344 202.5 L 285.589844 202.5 L 285.589844 201.050781 C 285.585938 200.847656 285.460938 200.671875 285.273438 200.601562 C 285.082031 200.53125 284.871094 200.585938 284.738281 200.734375 L 281.460938 204.582031 C 280.824219 205.316406 280.824219 206.40625 281.460938 207.140625 L 284.789062 210.945312 C 284.921875 211.097656 285.132812 211.152344 285.324219 211.082031 C 285.511719 211.011719 285.636719 210.832031 285.640625 210.632812 L 285.640625 209.179688 L 292.238281 209.128906 C 293.050781 209.125 293.800781 208.6875 294.207031 207.984375 Z M 296.695312 203.566406 "/>
<path style=" stroke:none;fill-rule:nonzero;fill:rgb(100%,100%,100%);fill-opacity:1;" d="M 274.851562 202.53125 L 270.304688 202.53125 L 272.335938 199.03125 L 273.582031 199.761719 C 273.757812 199.859375 273.976562 199.839844 274.132812 199.710938 C 274.285156 199.582031 274.347656 199.375 274.285156 199.183594 L 272.648438 194.410156 C 272.339844 193.492188 271.398438 192.941406 270.445312 193.121094 L 265.464844 194.035156 C 265.265625 194.078125 265.117188 194.234375 265.082031 194.429688 C 265.050781 194.628906 265.140625 194.824219 265.3125 194.929688 L 266.558594 195.660156 L 263.230469 201.363281 C 262.824219 202.070312 262.824219 202.941406 263.230469 203.648438 L 265.757812 208.0625 C 266.167969 208.765625 266.914062 209.199219 267.726562 209.210938 L 274.832031 209.210938 C 275.453125 209.207031 275.957031 208.707031 275.96875 208.085938 L 275.96875 203.660156 C 275.96875 203.035156 275.464844 202.527344 274.839844 202.523438 Z M 274.851562 202.53125 "/>
<path style=" stroke:none;fill-rule:nonzero;fill:rgb(100%,82.352941%,0%);fill-opacity:1;" d="M 240.484375 145.824219 L 318.578125 145.824219 L 318.578125 159.992188 L 240.484375 159.992188 Z M 240.484375 145.824219 "/>
<use xlink:href="#surface29" mask="url(#mask8)"/>
<use xlink:href="#surface32" mask="url(#mask9)"/>
<use xlink:href="#surface35" mask="url(#mask10)"/>
<path style=" stroke:none;fill-rule:nonzero;fill:rgb(100%,82.352941%,0%);fill-opacity:1;" d="M 273.074219 234.605469 L 221.523438 234.605469 L 213.871094 262.722656 L 280.730469 262.722656 Z M 273.074219 234.605469 "/>
<path style=" stroke:none;fill-rule:nonzero;fill:rgb(34.509804%,40.392157%,94.117647%);fill-opacity:1;" d="M 165.128906 142.003906 L 176.257812 138.003906 L 183.75 158.867188 L 172.621094 162.863281 Z M 165.128906 142.003906 "/>
<use xlink:href="#surface38" mask="url(#mask11)"/>
<use xlink:href="#surface41" mask="url(#mask12)"/>
<path style=" stroke:none;fill-rule:nonzero;fill:rgb(100%,82.352941%,0%);fill-opacity:1;" d="M 152.117188 150.695312 L 157.191406 164.84375 C 157.191406 164.84375 168.988281 160.289062 174.449219 155.101562 C 174.449219 155.101562 181.429688 156.117188 183.5 150.695312 C 185.574219 145.277344 171.667969 147.0625 171.667969 147.0625 Z M 152.117188 150.695312 "/>
</g>
</svg>
