<?xml version="1.0" encoding="UTF-8"?>
<svg xmlns="http://www.w3.org/2000/svg" xmlns:xlink="http://www.w3.org/1999/xlink" width="406pt" height="306pt" viewBox="0 0 406 306" version="1.1">
<defs>
<filter id="alpha" filterUnits="objectBoundingBox" x="0%" y="0%" width="100%" height="100%">
  <feColorMatrix type="matrix" in="SourceGraphic" values="0 0 0 0 1 0 0 0 0 1 0 0 0 0 1 0 0 0 1 0"/>
</filter>
<mask id="mask0">
  <g filter="url(#alpha)">
<rect x="0" y="0" width="406" height="306" style="fill:rgb(0%,0%,0%);fill-opacity:0.439216;stroke:none;"/>
  </g>
</mask>
<clipPath id="clip1">
  <rect x="0" y="0" width="406" height="306"/>
</clipPath>
<g id="surface5" clip-path="url(#clip1)">
<path style=" stroke:none;fill-rule:nonzero;fill:rgb(100%,100%,100%);fill-opacity:1;" d="M 220.253906 76.03125 L 226.050781 76.976562 C 228.09375 77.300781 229.890625 78.519531 230.949219 80.296875 C 232.007812 82.074219 232.226562 84.230469 231.542969 86.183594 C 228.355469 95.125 225.21875 108.886719 234.769531 111.679688 C 249.140625 115.859375 275.308594 111.679688 275.308594 111.679688 L 280.007812 77.230469 L 286.871094 77.777344 C 291.15625 78.117188 294.402344 81.796875 294.207031 86.089844 L 290.859375 159.464844 L 226.050781 155.222656 L 214.867188 107.933594 Z M 220.253906 76.03125 "/>
</g>
<mask id="mask1">
  <g filter="url(#alpha)">
<rect x="0" y="0" width="406" height="306" style="fill:rgb(0%,0%,0%);fill-opacity:0.301961;stroke:none;"/>
  </g>
</mask>
<clipPath id="clip2">
  <rect x="0" y="0" width="406" height="306"/>
</clipPath>
<g id="surface8" clip-path="url(#clip2)">
<path style=" stroke:none;fill-rule:nonzero;fill:rgb(90.196078%,90.196078%,90.196078%);fill-opacity:1;" d="M 363.5625 237.277344 C 363.5625 227.050781 292.902344 218.761719 205.742188 218.761719 C 118.578125 218.761719 47.917969 227.050781 47.917969 237.277344 C 47.917969 247.5 118.578125 255.789062 205.742188 255.789062 C 292.902344 255.789062 363.5625 247.5 363.5625 237.277344 Z M 363.5625 237.277344 "/>
</g>
<mask id="mask2">
  <g filter="url(#alpha)">
<rect x="0" y="0" width="406" height="306" style="fill:rgb(0%,0%,0%);fill-opacity:0.160784;stroke:none;"/>
  </g>
</mask>
<clipPath id="clip3">
  <rect x="0" y="0" width="406" height="306"/>
</clipPath>
<g id="surface11" clip-path="url(#clip3)">
<path style=" stroke:none;fill-rule:nonzero;fill:rgb(100%,100%,100%);fill-opacity:1;" d="M 194.726562 159.464844 C 194.726562 172.480469 184.175781 183.035156 171.160156 183.035156 C 158.144531 183.035156 147.589844 172.480469 147.589844 159.464844 C 147.589844 146.449219 158.144531 135.898438 171.160156 135.898438 C 184.175781 135.898438 194.726562 146.449219 194.726562 159.464844 Z M 194.726562 159.464844 "/>
</g>
<mask id="mask3">
  <g filter="url(#alpha)">
<rect x="0" y="0" width="406" height="306" style="fill:rgb(0%,0%,0%);fill-opacity:0.301961;stroke:none;"/>
  </g>
</mask>
<clipPath id="clip4">
  <rect x="0" y="0" width="406" height="306"/>
</clipPath>
<g id="surface14" clip-path="url(#clip4)">
<path style=" stroke:none;fill-rule:nonzero;fill:rgb(100%,100%,100%);fill-opacity:1;" d="M 276.566406 216.976562 L 294.582031 216.976562 L 294.582031 226.71875 L 276.566406 226.71875 Z M 276.566406 216.976562 "/>
</g>
<mask id="mask4">
  <g filter="url(#alpha)">
<rect x="0" y="0" width="406" height="306" style="fill:rgb(0%,0%,0%);fill-opacity:0.278431;stroke:none;"/>
  </g>
</mask>
<clipPath id="clip5">
  <rect x="0" y="0" width="406" height="306"/>
</clipPath>
<g id="surface17" clip-path="url(#clip5)">
<path style=" stroke:none;fill-rule:nonzero;fill:rgb(52.941176%,52.941176%,52.941176%);fill-opacity:1;" d="M 113.742188 153 L 129.289062 153 L 129.289062 233.945312 L 113.742188 233.945312 Z M 113.742188 153 "/>
</g>
<mask id="mask5">
  <g filter="url(#alpha)">
<rect x="0" y="0" width="406" height="306" style="fill:rgb(0%,0%,0%);fill-opacity:0.101961;stroke:none;"/>
  </g>
</mask>
<clipPath id="clip6">
  <rect x="0" y="0" width="406" height="306"/>
</clipPath>
<g id="surface20" clip-path="url(#clip6)">
<path style=" stroke:none;fill-rule:nonzero;fill:rgb(0%,0%,0%);fill-opacity:1;" d="M 207.851562 153.183594 C 207.851562 153.183594 201.882812 142.496094 219.789062 135.925781 C 237.691406 129.359375 238.382812 146.617188 253.445312 135.925781 C 268.507812 125.238281 296.359375 137.5 285.570312 153.183594 Z M 207.851562 153.183594 "/>
</g>
<mask id="mask6">
  <g filter="url(#alpha)">
<rect x="0" y="0" width="406" height="306" style="fill:rgb(0%,0%,0%);fill-opacity:0.439216;stroke:none;"/>
  </g>
</mask>
<clipPath id="clip7">
  <rect x="0" y="0" width="406" height="306"/>
</clipPath>
<g id="surface23" clip-path="url(#clip7)">
<path style=" stroke:none;fill-rule:nonzero;fill:rgb(100%,100%,100%);fill-opacity:1;" d="M 78.84375 168.582031 L 107.527344 168.582031 L 107.527344 206.875 L 78.84375 206.875 Z M 78.84375 168.582031 "/>
</g>
<mask id="mask7">
  <g filter="url(#alpha)">
<rect x="0" y="0" width="406" height="306" style="fill:rgb(0%,0%,0%);fill-opacity:0.419608;stroke:none;"/>
  </g>
</mask>
<clipPath id="clip8">
  <rect x="0" y="0" width="406" height="306"/>
</clipPath>
<g id="surface26" clip-path="url(#clip8)">
<path style=" stroke:none;fill-rule:nonzero;fill:rgb(52.941176%,52.941176%,52.941176%);fill-opacity:1;" d="M 90.140625 101.328125 L 104.464844 101.328125 L 104.464844 121.363281 L 90.140625 121.363281 Z M 90.140625 101.328125 "/>
</g>
</defs>
<g id="surface1">
<path style=" stroke:none;fill-rule:nonzero;fill:rgb(34.509804%,40.392157%,94.117647%);fill-opacity:1;" d="M 220.253906 76.03125 L 226.050781 76.976562 C 228.09375 77.300781 229.890625 78.519531 230.949219 80.296875 C 232.007812 82.074219 232.226562 84.230469 231.542969 86.183594 C 228.355469 95.125 225.21875 108.886719 234.769531 111.679688 C 249.140625 115.859375 275.308594 111.679688 275.308594 111.679688 L 280.007812 77.230469 L 286.871094 77.777344 C 291.15625 78.117188 294.402344 81.796875 294.207031 86.089844 L 290.859375 159.464844 L 226.050781 155.222656 L 214.867188 107.933594 Z M 220.253906 76.03125 "/>
<use xlink:href="#surface5" mask="url(#mask0)"/>
<path style=" stroke:none;fill-rule:nonzero;fill:rgb(34.509804%,40.392157%,94.117647%);fill-opacity:1;" d="M 198.136719 133.308594 L 210.226562 80.082031 C 210.863281 77.289062 213.460938 75.394531 216.316406 75.636719 L 219.453125 75.890625 C 221.222656 76.027344 222.824219 76.976562 223.796875 78.460938 C 224.769531 79.945312 224.996094 81.796875 224.417969 83.472656 C 221.371094 92.292969 217.949219 106.535156 227.15625 107.933594 C 234.039062 108.949219 244.878906 108.949219 253.820312 108.675781 C 262.582031 108.410156 269.816406 101.75 270.8125 93.042969 L 272.019531 82.589844 C 272.371094 79.410156 275.117188 77.042969 278.3125 77.167969 L 280.089844 77.230469 C 281.777344 77.277344 283.367188 78.023438 284.484375 79.289062 C 285.597656 80.558594 286.140625 82.230469 285.976562 83.910156 L 283.105469 155.394531 C 283.105469 155.394531 188.941406 192.230469 198.136719 133.308594 Z M 198.136719 133.308594 "/>
<path style=" stroke:none;fill-rule:nonzero;fill:rgb(14.117647%,15.686275%,35.686275%);fill-opacity:1;" d="M 115.769531 161.667969 C 115.769531 161.667969 117.660156 130.871094 150.972656 112.949219 C 184.285156 95.023438 223.878906 128.042969 221.675781 164.164062 C 219.472656 200.289062 115.769531 161.667969 115.769531 161.667969 Z M 115.769531 161.667969 "/>
<use xlink:href="#surface8" mask="url(#mask1)"/>
<path style=" stroke:none;fill-rule:nonzero;fill:rgb(34.509804%,40.392157%,94.117647%);fill-opacity:1;" d="M 287.996094 195.824219 C 287.996094 195.824219 311.390625 195.386719 320.03125 199.882812 C 328.667969 204.378906 314.84375 218.152344 326.597656 218.730469 C 338.351562 219.308594 346.734375 222.355469 343.851562 233.90625 L 286.503906 233.90625 Z M 287.996094 195.824219 "/>
<path style=" stroke:none;fill-rule:nonzero;fill:rgb(75.686275%,75.686275%,75.686275%);fill-opacity:1;" d="M 165.425781 153.183594 L 300.867188 153.183594 L 300.867188 233.945312 L 165.425781 233.945312 Z M 165.425781 153.183594 "/>
<use xlink:href="#surface11" mask="url(#mask2)"/>
<path style=" stroke:none;fill-rule:nonzero;fill:rgb(90.196078%,90.196078%,90.196078%);fill-opacity:1;" d="M 104.464844 153.183594 L 197.488281 153.183594 L 197.488281 233.945312 L 104.464844 233.945312 Z M 104.464844 153.183594 "/>
<path style=" stroke:none;fill-rule:nonzero;fill:rgb(75.686275%,75.686275%,75.686275%);fill-opacity:1;" d="M 104.464844 153.183594 L 82.144531 183.976562 L 176.425781 183.976562 L 198.738281 153.183594 Z M 104.464844 153.183594 "/>
<path style=" stroke:none;fill-rule:nonzero;fill:rgb(65.882353%,65.882353%,65.882353%);fill-opacity:1;" d="M 300.875 153.183594 L 318.464844 183.976562 L 300.875 183.976562 Z M 300.875 153.183594 "/>
<path style=" stroke:none;fill-rule:nonzero;fill:rgb(100%,100%,100%);fill-opacity:1;" d="M 260.855469 185.550781 C 262.234375 185.820312 263.597656 185.03125 264.050781 183.703125 L 266.46875 176.8125 C 266.5625 176.535156 266.476562 176.230469 266.25 176.042969 C 266.023438 175.859375 265.707031 175.832031 265.453125 175.980469 L 263.644531 176.996094 L 258.875 168.742188 C 258.289062 167.726562 257.207031 167.097656 256.035156 167.097656 L 248.675781 167.097656 C 247.5 167.097656 246.417969 167.726562 245.832031 168.742188 L 240.757812 177.59375 C 240.3125 178.375 240.578125 179.371094 241.355469 179.828125 L 246.878906 183.011719 C 247.660156 183.464844 248.660156 183.195312 249.113281 182.414062 L 252.378906 176.742188 L 255.3125 181.816406 L 253.496094 182.832031 C 253.246094 182.980469 253.113281 183.265625 253.164062 183.550781 C 253.214844 183.839844 253.433594 184.0625 253.71875 184.121094 Z M 260.855469 185.550781 "/>
<path style=" stroke:none;fill-rule:nonzero;fill:rgb(100%,100%,100%);fill-opacity:1;" d="M 276.140625 200.917969 C 276.730469 199.90625 276.730469 198.652344 276.140625 197.640625 L 270.964844 188.820312 C 270.507812 188.042969 269.507812 187.785156 268.730469 188.242188 L 263.230469 191.480469 C 262.855469 191.695312 262.585938 192.050781 262.476562 192.46875 C 262.367188 192.886719 262.429688 193.332031 262.652344 193.703125 L 265.96875 199.355469 L 260.113281 199.355469 L 260.113281 197.265625 C 260.121094 196.96875 259.9375 196.703125 259.660156 196.601562 C 259.382812 196.5 259.070312 196.585938 258.886719 196.816406 L 254.167969 202.359375 C 253.253906 203.417969 253.253906 204.984375 254.167969 206.042969 L 258.96875 211.554688 C 259.15625 211.78125 259.46875 211.859375 259.742188 211.753906 C 260.015625 211.648438 260.195312 211.382812 260.183594 211.089844 L 260.183594 208.996094 L 269.714844 208.925781 C 270.890625 208.917969 271.96875 208.28125 272.546875 207.261719 Z M 276.140625 200.917969 "/>
<path style=" stroke:none;fill-rule:nonzero;fill:rgb(100%,100%,100%);fill-opacity:1;" d="M 244.613281 199.4375 L 238.058594 199.4375 L 241.011719 194.359375 L 242.820312 195.375 C 243.070312 195.523438 243.390625 195.5 243.613281 195.3125 C 243.839844 195.128906 243.929688 194.820312 243.832031 194.542969 L 241.46875 187.664062 C 241.019531 186.335938 239.660156 185.539062 238.28125 185.792969 L 231.105469 187.125 C 230.8125 187.167969 230.582031 187.398438 230.53125 187.6875 C 230.480469 187.980469 230.621094 188.273438 230.882812 188.414062 L 232.679688 189.429688 L 227.878906 197.660156 C 227.289062 198.675781 227.289062 199.933594 227.878906 200.949219 L 231.523438 207.324219 C 232.105469 208.339844 233.1875 208.972656 234.363281 208.976562 L 244.585938 208.976562 C 245.484375 208.976562 246.214844 208.25 246.21875 207.351562 L 246.21875 200.96875 C 246.21875 200.070312 245.492188 199.339844 244.59375 199.335938 Z M 244.613281 199.4375 "/>
<use xlink:href="#surface14" mask="url(#mask3)"/>
<path style=" stroke:none;fill-rule:nonzero;fill:rgb(14.117647%,15.686275%,35.686275%);fill-opacity:1;" d="M 168.773438 109.039062 C 168.773438 109.039062 139.054688 101.113281 153.488281 83.148438 C 167.921875 65.183594 166.683594 84.050781 183.652344 79.644531 C 200.625 75.242188 211.394531 110.15625 168.773438 109.039062 Z M 168.773438 109.039062 "/>
<use xlink:href="#surface17" mask="url(#mask4)"/>
<path style=" stroke:none;fill-rule:nonzero;fill:rgb(34.509804%,40.392157%,94.117647%);fill-opacity:1;" d="M 164.066406 104.1875 L 181.390625 104.1875 C 183.375 104.1875 184.984375 105.796875 184.984375 107.78125 L 184.984375 108.074219 C 184.984375 110.058594 183.375 111.667969 181.390625 111.667969 L 164.066406 111.667969 C 162.082031 111.667969 160.472656 110.058594 160.472656 108.074219 L 160.472656 107.78125 C 160.472656 105.796875 162.082031 104.1875 164.066406 104.1875 Z M 164.066406 104.1875 "/>
<path style=" stroke:none;fill-rule:nonzero;fill:rgb(34.509804%,40.392157%,94.117647%);fill-opacity:1;" d="M 207.851562 153.183594 C 207.851562 153.183594 201.882812 142.496094 219.789062 135.925781 C 237.691406 129.359375 238.382812 146.617188 253.445312 135.925781 C 268.507812 125.238281 296.359375 137.5 285.570312 153.183594 Z M 207.851562 153.183594 "/>
<path style=" stroke:none;fill-rule:nonzero;fill:rgb(100%,82.352941%,0%);fill-opacity:1;" d="M 104.484375 139.5625 L 104.484375 115.832031 L 90.140625 115.832031 L 90.140625 139.5625 C 83.296875 142.449219 78.84375 149.152344 78.84375 156.582031 L 78.84375 233.945312 L 115.769531 233.945312 L 115.769531 156.582031 C 115.769531 149.15625 111.324219 142.453125 104.484375 139.5625 Z M 104.484375 139.5625 "/>
<use xlink:href="#surface20" mask="url(#mask5)"/>
<use xlink:href="#surface23" mask="url(#mask6)"/>
<path style=" stroke:none;fill-rule:nonzero;fill:rgb(100%,82.352941%,0%);fill-opacity:1;" d="M 90.140625 101.328125 L 104.464844 101.328125 L 104.464844 121.363281 L 90.140625 121.363281 Z M 90.140625 101.328125 "/>
<use xlink:href="#surface26" mask="url(#mask7)"/>
</g>
</svg>
