<?xml version="1.0" encoding="UTF-8"?>
<svg xmlns="http://www.w3.org/2000/svg" xmlns:xlink="http://www.w3.org/1999/xlink" width="306pt" height="306pt" viewBox="0 0 306 306" version="1.1">
<defs>
<linearGradient id="linear0" gradientUnits="userSpaceOnUse" x1="161.97" y1="199.1" x2="175.12" y2="188.43" gradientTransform="matrix(47.105469,0,0,26.375,107.992188,167.070312)">
<stop offset="0" style="stop-color:rgb(0%,0%,0%);stop-opacity:1;"/>
<stop offset="1" style="stop-color:rgb(49.803922%,29.019608%,0%);stop-opacity:1;"/>
</linearGradient>
<linearGradient id="linear1" gradientUnits="userSpaceOnUse" x1="187.83" y1="263.67" x2="200.98" y2="253" gradientTransform="matrix(47.109375,0,0,26.371094,126.128906,212.351563)">
<stop offset="0" style="stop-color:rgb(0%,0%,0%);stop-opacity:1;"/>
<stop offset="1" style="stop-color:rgb(49.803922%,29.019608%,0%);stop-opacity:1;"/>
</linearGradient>
<linearGradient id="linear2" gradientUnits="userSpaceOnUse" x1="264.07" y1="215.7" x2="277.24" y2="205.02" gradientTransform="matrix(47.101562,0,0,20.132812,179.082031,184.289062)">
<stop offset="0" style="stop-color:rgb(0%,0%,0%);stop-opacity:1;"/>
<stop offset="1" style="stop-color:rgb(49.803922%,29.019608%,0%);stop-opacity:1;"/>
</linearGradient>
<linearGradient id="linear3" gradientUnits="userSpaceOnUse" x1="104.68" y1="219.85" x2="123.24" y2="204.79" gradientTransform="matrix(72.890625,0,0,38.789062,57.941406,173.339844)">
<stop offset="0" style="stop-color:rgb(0%,0%,0%);stop-opacity:1;"/>
<stop offset="1" style="stop-color:rgb(49.803922%,29.019608%,0%);stop-opacity:1;"/>
</linearGradient>
</defs>
<g id="surface1">
<path style=" stroke:none;fill-rule:nonzero;fill:rgb(46.27451%,49.803922%,67.843137%);fill-opacity:1;" d="M 32.925781 179.925781 L 144.492188 244.878906 C 145.472656 245.445312 146.679688 245.445312 147.65625 244.878906 L 255.386719 182.6875 C 256.363281 182.125 256.960938 181.085938 256.960938 179.960938 C 256.960938 178.835938 256.363281 177.796875 255.386719 177.234375 L 142.171875 111.859375 C 141.191406 111.285156 139.976562 111.285156 138.996094 111.859375 L 32.914062 174.492188 C 31.949219 175.058594 31.359375 176.09375 31.363281 177.210938 C 31.367188 178.332031 31.960938 179.363281 32.925781 179.925781 Z M 32.925781 179.925781 "/>
<path style=" stroke:none;fill-rule:nonzero;fill:url(#linear0);" d="M 127.734375 167.324219 C 123.523438 164.441406 137.242188 173.875 133.53125 170.320312 L 107.992188 184.183594 L 124.507812 193.445312 L 155.097656 176.902344 C 153.40625 175.5625 129.472656 168.515625 127.734375 167.324219 Z M 127.734375 167.324219 "/>
<path style=" stroke:none;fill-rule:nonzero;fill:url(#linear1);" d="M 145.867188 212.605469 C 141.660156 209.722656 155.378906 219.15625 151.667969 215.601562 L 126.128906 229.464844 L 142.648438 238.722656 L 173.238281 222.175781 C 171.546875 220.839844 147.621094 213.796875 145.867188 212.605469 Z M 145.867188 212.605469 "/>
<path style=" stroke:none;fill-rule:nonzero;fill:url(#linear2);" d="M 220.757812 184.289062 C 213.335938 186.925781 201.242188 189.148438 193.535156 190.773438 C 193.472656 190.851562 193.394531 190.914062 193.300781 190.949219 C 191.277344 191.929688 188.910156 191.929688 186.886719 190.949219 L 179.082031 195.15625 L 195.59375 204.421875 L 226.183594 187.878906 C 225.496094 187.394531 225.742188 185.929688 220.757812 184.289062 Z M 220.757812 184.289062 "/>
<path style=" stroke:none;fill-rule:nonzero;fill:url(#linear3);" d="M 102.402344 182.5 C 98.195312 179.617188 93.828125 176.890625 90.117188 173.339844 L 57.941406 192.792969 L 92.703125 212.128906 L 130.832031 190.390625 C 129.15625 189.054688 104.15625 183.691406 102.402344 182.5 Z M 102.402344 182.5 "/>
<path style=" stroke:none;fill-rule:nonzero;fill:rgb(78.823529%,38.823529%,21.176471%);fill-opacity:1;" d="M 147.824219 180.65625 L 147.824219 158.777344 L 167.402344 147.84375 L 167.402344 169.539062 Z M 147.824219 158.777344 L 128.769531 147.847656 C 128.769531 147.847656 128.246094 169.898438 128.769531 170.25 Z M 147.824219 158.777344 "/>
<path style=" stroke:none;fill-rule:nonzero;fill:rgb(78.823529%,38.823529%,21.176471%);fill-opacity:1;" d="M 128.769531 147.84375 L 147.824219 136.203125 L 167.402344 147.84375 L 147.824219 158.78125 L 128.769531 147.84375 "/>
<path style=" stroke:none;fill-rule:nonzero;fill:rgb(99.215686%,92.941176%,79.607843%);fill-opacity:1;" d="M 136.027344 143.410156 L 155.859375 154.292969 L 155.859375 165.703125 L 161.5625 162.828125 L 161.5625 151.101562 L 141.738281 139.925781 L 136.027344 143.410156 "/>
<path style=" stroke:none;fill-rule:nonzero;fill:rgb(65.882353%,24.705882%,11.764706%);fill-opacity:1;" d="M 226.179688 187.695312 L 226.179688 150.296875 L 218.035156 150.296875 L 218.035156 188.019531 C 220.847656 188.839844 223.816406 188.929688 226.179688 187.695312 Z M 226.179688 187.695312 "/>
<path style=" stroke:none;fill-rule:nonzero;fill:rgb(49.803922%,16.862745%,7.843137%);fill-opacity:1;" d="M 222.929688 150.402344 L 222.929688 188.707031 C 224.0625 188.632812 225.171875 188.324219 226.179688 187.800781 L 226.179688 150.402344 Z M 222.929688 150.402344 "/>
<path style=" stroke:none;fill-rule:nonzero;fill:rgb(32.156863%,68.627451%,27.058824%);fill-opacity:1;" d="M 233.4375 153.796875 C 238.5 153.550781 244.984375 151.734375 243.085938 146.082031 C 241.964844 142.746094 238.511719 139.804688 236.3125 137.160156 C 234.109375 134.519531 234.59375 132.742188 232.105469 130.148438 C 234.207031 130.242188 237.246094 129.839844 237.761719 127.765625 C 238.210938 125.941406 228.429688 114.785156 224.195312 110.234375 C 223.226562 109.195312 221.625 109.078125 220.519531 109.964844 C 215.476562 113.976562 202.601562 124.695312 204.390625 127.742188 C 205.476562 129.601562 207.664062 130.246094 209.628906 130.414062 C 204.992188 135.058594 199.71875 140.863281 199.179688 147.050781 C 198.714844 152.414062 204.199219 153.128906 209.3125 152.855469 C 205.804688 157.148438 196.191406 169.386719 198.378906 173.101562 C 199.535156 175.058594 203.289062 175.710938 205.457031 176.144531 C 210.226562 177.113281 215.089844 177.585938 219.957031 177.546875 C 224.796875 177.492188 229.777344 177.007812 234.382812 175.375 C 236.824219 174.503906 239.496094 173.3125 241.394531 171.503906 C 243.648438 169.398438 242.390625 167.132812 240.925781 165.007812 C 238.421875 161.320312 235.933594 157.554688 233.4375 153.796875 Z M 233.4375 153.796875 "/>
<path style=" stroke:none;fill-rule:nonzero;fill:rgb(5.098039%,35.686275%,13.72549%);fill-opacity:1;" d="M 232.125 130.171875 C 232.125 130.171875 225.960938 129.769531 221.667969 129.882812 L 243.410156 147.757812 C 243.410156 147.757812 243.992188 145.65625 240.148438 141.445312 C 236.304688 137.238281 232.125 130.171875 232.125 130.171875 Z M 233.4375 153.796875 L 220.8125 153.796875 L 241.472656 171.539062 C 241.472656 171.539062 243.753906 169.871094 242.378906 167.457031 C 241.003906 165.042969 233.4375 153.796875 233.4375 153.796875 Z M 233.4375 153.796875 "/>
<path style=" stroke:none;fill-rule:nonzero;fill:rgb(65.882353%,24.705882%,11.764706%);fill-opacity:1;" d="M 200.617188 201.25 L 200.617188 177.710938 L 195.492188 177.710938 L 195.492188 201.460938 C 197.160156 202.058594 199 201.980469 200.617188 201.25 Z M 200.617188 201.25 "/>
<path style=" stroke:none;fill-rule:nonzero;fill:rgb(49.803922%,16.862745%,7.843137%);fill-opacity:1;" d="M 198.570312 177.765625 L 198.570312 201.882812 C 199.28125 201.835938 199.976562 201.644531 200.609375 201.316406 L 200.609375 177.765625 Z M 198.570312 177.765625 "/>
<path style=" stroke:none;fill-rule:nonzero;fill:rgb(40.392157%,77.647059%,36.078431%);fill-opacity:1;" d="M 205.210938 179.90625 C 208.402344 179.75 212.480469 178.609375 211.28125 175.050781 C 210.582031 172.949219 208.40625 171.105469 207.011719 169.441406 C 205.617188 167.78125 205.933594 166.636719 204.382812 165.03125 C 205.699219 165.085938 207.621094 164.835938 207.945312 163.53125 C 208.234375 162.378906 202.066406 155.351562 199.402344 152.507812 C 198.796875 151.851562 197.785156 151.777344 197.089844 152.335938 C 193.914062 154.863281 185.804688 161.59375 186.933594 163.558594 C 187.636719 164.730469 188.996094 165.136719 190.230469 165.242188 C 187.3125 168.164062 183.988281 171.820312 183.652344 175.710938 C 183.359375 179.089844 186.816406 179.539062 190.035156 179.363281 C 187.8125 182.066406 181.773438 189.773438 183.148438 192.113281 C 183.847656 193.347656 186.21875 193.753906 187.601562 194.027344 C 190.601562 194.636719 193.65625 194.933594 196.71875 194.914062 C 199.800781 194.945312 202.871094 194.472656 205.800781 193.507812 C 207.425781 193.003906 208.929688 192.175781 210.230469 191.074219 C 211.632812 189.742188 210.855469 188.328125 209.9375 186.988281 C 208.324219 184.644531 206.761719 182.273438 205.210938 179.90625 Z M 205.210938 179.90625 "/>
<path style=" stroke:none;fill-rule:nonzero;fill:rgb(5.098039%,35.686275%,13.72549%);fill-opacity:1;" d="M 204.363281 165.03125 C 204.363281 165.03125 200.484375 164.777344 197.777344 164.847656 L 211.464844 176.105469 C 211.464844 176.105469 211.828125 174.800781 209.410156 172.113281 Z M 205.210938 179.90625 L 197.222656 179.90625 L 210.230469 191.074219 L 205.210938 179.90625 L 197.222656 179.90625 L 210.230469 191.074219 C 209.9375 186.988281 205.210938 179.90625 205.210938 179.90625 Z M 205.210938 179.90625 "/>
<path style=" stroke:none;fill-rule:nonzero;fill:rgb(78.823529%,38.823529%,21.176471%);fill-opacity:1;" d="M 158.457031 229.835938 L 158.457031 214.675781 L 144.898438 207.09375 L 144.898438 222.136719 Z M 158.457031 229.835938 "/>
<path style=" stroke:none;fill-rule:nonzero;fill:rgb(88.627451%,44.313725%,26.666667%);fill-opacity:1;" d="M 158.457031 214.675781 L 171.660156 207.09375 C 171.660156 207.09375 172.027344 222.382812 171.660156 222.621094 Z M 158.457031 214.675781 "/>
<path style=" stroke:none;fill-rule:nonzero;fill:rgb(60.784314%,27.843137%,14.901961%);fill-opacity:1;" d="M 171.667969 207.09375 L 158.457031 199.023438 L 144.886719 207.09375 L 158.457031 214.675781 L 171.667969 207.09375 "/>
<path style=" stroke:none;fill-rule:nonzero;fill:rgb(88.627451%,44.313725%,26.666667%);fill-opacity:1;" d="M 144.886719 207.09375 L 139.976562 198.585938 L 153.882812 190.410156 L 158.457031 199.023438 L 144.886719 207.09375 "/>
<path style=" stroke:none;fill-rule:nonzero;fill:rgb(78.823529%,38.823529%,21.176471%);fill-opacity:1;" d="M 171.667969 207.09375 L 175.246094 199.441406 L 160.636719 207.402344 L 158.457031 214.675781 L 171.667969 207.09375 "/>
<path style=" stroke:none;fill-rule:nonzero;fill:rgb(99.215686%,92.941176%,79.607843%);fill-opacity:1;" d="M 131.8125 155.632812 C 131.8125 155.632812 129.007812 152.359375 127.023438 153.179688 L 131.113281 154.671875 C 131.113281 154.671875 131.574219 149.203125 132.746094 149.203125 L 131.34375 151.539062 L 134.730469 160.878906 L 134.730469 155.621094 L 133.5625 157.605469 Z M 133.777344 163.171875 C 133.777344 163.171875 135.609375 165.359375 135.136719 166.890625 L 134.792969 164.394531 L 132.691406 167.667969 L 135.734375 171.804688 L 135.734375 169.597656 C 135.734375 169.597656 139.457031 168.851562 139.941406 167.066406 Z M 124.324219 165.128906 C 124.324219 165.128906 120.019531 169.105469 120.339844 168.859375 L 122.5 168.859375 C 122.5 168.859375 121.097656 173.894531 123.601562 175.046875 C 125.207031 175.746094 129.023438 173.542969 129.015625 173.304688 C 129.007812 173.066406 128.546875 169.097656 128.546875 169.097656 L 130.804688 168.734375 Z M 124.324219 165.128906 "/>
<path style=" stroke:none;fill-rule:nonzero;fill:rgb(100%,77.647059%,69.803922%);fill-opacity:1;" d="M 125.136719 74.890625 C 125.136719 74.890625 122.667969 85.84375 122.199219 87.113281 C 121.730469 88.382812 117.832031 94.789062 117.832031 94.789062 C 118.398438 95.042969 119.046875 95.042969 119.613281 94.789062 C 119.613281 94.789062 118.546875 98.914062 119.078125 99.875 C 119.613281 100.835938 125.136719 74.890625 125.136719 74.890625 Z M 125.136719 74.890625 "/>
<path style=" stroke:none;fill-rule:nonzero;fill:rgb(34.509804%,40.392157%,94.117647%);fill-opacity:1;" d="M 124.414062 69.515625 C 124.414062 69.515625 122.023438 72.230469 121.988281 81.4375 C 121.988281 81.4375 128.898438 84.496094 130.320312 82.96875 L 132.039062 74.300781 "/>
<path style=" stroke:none;fill-rule:nonzero;fill:rgb(100%,77.647059%,69.803922%);fill-opacity:1;" d="M 141.394531 107.238281 C 141.394531 107.238281 142.894531 119.546875 143.742188 122.667969 C 143.742188 122.667969 144.933594 106.648438 144.3125 102.371094 C 143.6875 98.09375 144.3125 81.234375 144.3125 81.234375 M 132.703125 103.683594 C 132.703125 103.683594 132.402344 112.757812 132.703125 115.753906 C 133.007812 118.746094 134.304688 137.738281 134.304688 137.738281 C 134.304688 137.738281 140.136719 128.324219 139.992188 126.515625 C 139.84375 124.707031 139.515625 102.078125 139.515625 102.078125 "/>
<path style=" stroke:none;fill-rule:nonzero;fill:rgb(94.509804%,56.078431%,13.333333%);fill-opacity:1;" d="M 128.925781 59.789062 C 128.925781 59.839844 143.53125 62.097656 142.710938 66.867188 C 141.890625 71.636719 135.59375 69.988281 135.59375 69.988281 L 128.285156 61.332031 "/>
<path style=" stroke:none;fill-rule:nonzero;fill:rgb(100%,100%,100%);fill-opacity:1;" d="M 141.394531 152.675781 C 140.957031 153.636719 141.152344 154.769531 141.882812 155.527344 C 143.148438 156.875 144.800781 156.230469 146.199219 155.527344 C 147.59375 154.828125 151.546875 151.320312 151 150.402344 "/>
<path style=" stroke:none;fill-rule:nonzero;fill:rgb(34.509804%,40.392157%,94.117647%);fill-opacity:1;" d="M 145.265625 144.046875 C 145.265625 144.046875 144.625 147.695312 143.722656 148.878906 "/>
<path style=" stroke:none;fill-rule:nonzero;fill:rgb(100%,100%,100%);fill-opacity:1;" d="M 127.523438 143.023438 C 127.523438 143.023438 127.367188 145.199219 129.339844 145.613281 L 128.863281 140.878906 "/>
<path style=" stroke:none;fill-rule:nonzero;fill:rgb(34.509804%,40.392157%,94.117647%);fill-opacity:1;" d="M 134.144531 135.359375 C 134.144531 135.359375 132.964844 138.292969 130.832031 139.390625 C 128.699219 140.492188 135.320312 136.613281 134.144531 135.359375 Z M 134.144531 135.359375 "/>
<path style=" stroke:none;fill-rule:nonzero;fill:rgb(94.509804%,35.294118%,14.117647%);fill-opacity:1;" d="M 132.332031 87.195312 C 131.347656 90.140625 130.78125 93.210938 130.644531 96.3125 C 130.335938 101.8125 132.570312 133.976562 132.570312 133.976562 C 135.855469 135.199219 139.433594 135.386719 142.824219 134.519531 L 142.824219 141.867188 C 142.824219 141.867188 148.484375 143.703125 154.667969 139.765625 C 154.667969 139.765625 153.96875 90.949219 143.945312 81.410156 "/>
<path style=" stroke:none;fill-rule:nonzero;fill:rgb(34.509804%,40.392157%,94.117647%);fill-opacity:1;" d="M 141.128906 84.441406 C 142.179688 83.539062 143.121094 82.519531 143.933594 81.398438 C 142.835938 78.617188 141.558594 75.910156 140.109375 73.296875 C 137.929688 69.742188 135.742188 65.679688 131.421875 64.636719 C 129.675781 65.402344 128.011719 66.34375 126.449219 67.441406 C 125.632812 67.972656 124.9375 68.667969 124.402344 69.480469 C 124.316406 72.988281 124.613281 75.203125 126.6875 77.820312 C 128.765625 80.4375 130.171875 84.761719 131.574219 87.070312 C 134.683594 87.820312 138.132812 86.46875 141.128906 84.441406 Z M 141.128906 84.441406 "/>
<path style=" stroke:none;fill-rule:nonzero;fill:rgb(100%,70.196078%,61.176471%);fill-opacity:1;" d="M 128.457031 63.332031 L 130.320312 65.652344 C 130.320312 65.652344 129.3125 67.8125 127.355469 68.074219 L 126.132812 66.667969 "/>
<path style=" stroke:none;fill-rule:nonzero;fill:rgb(94.509804%,56.078431%,13.333333%);fill-opacity:1;" d="M 124.316406 65 C 120.734375 67.988281 118.988281 64.648438 118.988281 64.648438 C 114.078125 58.507812 121.90625 55.175781 121.90625 55.175781 C 121.90625 55.175781 128 52.960938 129.007812 61.648438 "/>
<path style=" stroke:none;fill-rule:nonzero;fill:rgb(100%,77.647059%,69.803922%);fill-opacity:1;" d="M 118.160156 61.867188 C 118.160156 61.867188 123.730469 69.761719 126.8125 67.210938 C 129.898438 64.65625 118.160156 61.867188 118.160156 61.867188 Z M 118.160156 61.867188 "/>
<path style=" stroke:none;fill-rule:nonzero;fill:rgb(94.509804%,56.078431%,13.333333%);fill-opacity:1;" d="M 118.160156 61.867188 C 118.160156 61.867188 121.976562 63.484375 124.226562 61.710938 C 125.183594 59.898438 125 57.691406 123.757812 56.058594 C 122.570312 54.304688 118.195312 52.996094 115.980469 54.65625 C 113.761719 56.320312 116.5625 60.597656 118.160156 61.867188 Z M 118.160156 61.867188 "/>
<path style=" stroke:none;fill-rule:nonzero;fill:rgb(51.764706%,18.039216%,7.45098%);fill-opacity:1;" d="M 140.320312 98.628906 C 140.273438 98.183594 139.570312 98.179688 139.621094 98.628906 C 140.929688 110.949219 141.960938 123.296875 142.710938 135.667969 C 142.710938 136.117188 143.414062 136.117188 143.414062 135.667969 C 142.660156 123.296875 141.628906 110.949219 140.320312 98.628906 Z M 140.320312 98.628906 "/>
<path style=" stroke:none;fill-rule:nonzero;fill:rgb(34.509804%,40.392157%,94.117647%);fill-opacity:1;" d="M 141.0625 131.988281 L 141.0625 179.871094 C 141.066406 182.6875 139.570312 185.296875 137.136719 186.722656 L 113.246094 200.746094 C 110.570312 202.3125 107.253906 202.292969 104.597656 200.691406 L 78.34375 185.375 L 78.34375 129.132812 "/>
<path style=" stroke:none;fill-rule:nonzero;fill:rgb(100%,100%,100%);fill-opacity:0.168627;" d="M 112.339844 130.640625 L 112.339844 201.125 C 112.648438 200.992188 112.949219 200.84375 113.238281 200.675781 L 137.128906 186.652344 C 139.5625 185.226562 141.058594 182.617188 141.058594 179.800781 L 141.058594 131.945312 Z M 112.339844 130.640625 "/>
<path style=" stroke:none;fill-rule:nonzero;fill:rgb(0%,0%,0%);fill-opacity:0.356863;" d="M 78.34375 131.425781 L 78.34375 136.171875 L 107.621094 151.945312 C 109.945312 153.402344 112.898438 153.402344 115.222656 151.945312 C 119.394531 149.492188 141.0625 136.171875 141.0625 136.171875 L 141.0625 131.964844 "/>
<path style=" stroke:none;fill-rule:nonzero;fill:rgb(34.509804%,40.392157%,94.117647%);fill-opacity:1;" d="M 75.71875 129.96875 L 108.679688 148.398438 C 110.648438 149.492188 113.054688 149.457031 114.992188 148.296875 L 143.742188 131.0625 C 145.050781 130.277344 145.84375 128.855469 145.824219 127.328125 C 145.808594 125.800781 144.980469 124.402344 143.652344 123.648438 L 114.792969 107.324219 C 112.355469 105.941406 109.359375 105.96875 106.945312 107.398438 L 75.671875 125.933594 C 74.953125 126.359375 74.519531 127.132812 74.53125 127.964844 C 74.539062 128.796875 74.992188 129.558594 75.71875 129.96875 Z M 75.71875 129.96875 "/>
<path style=" stroke:none;fill-rule:nonzero;fill:rgb(34.509804%,40.392157%,94.117647%);fill-opacity:1;" d="M 74.527344 127.75 L 74.535156 123.703125 L 76.425781 126.179688 L 74.527344 127.75 "/>
<path style=" stroke:none;fill-rule:nonzero;fill:rgb(34.509804%,40.392157%,94.117647%);fill-opacity:1;" d="M 145.753906 123.25 L 145.753906 127.492188 L 144.066406 126.101562 L 145.753906 123.25 "/>
<path style=" stroke:none;fill-rule:nonzero;fill:rgb(0%,0%,0%);fill-opacity:0.0784314;" d="M 75.71875 129.96875 L 108.679688 148.398438 C 110.648438 149.492188 113.054688 149.457031 114.992188 148.296875 L 143.742188 131.0625 C 145.050781 130.277344 145.84375 128.855469 145.824219 127.328125 C 145.808594 125.800781 144.980469 124.402344 143.652344 123.648438 L 114.792969 107.324219 C 112.355469 105.941406 109.359375 105.96875 106.945312 107.398438 L 75.671875 125.933594 C 74.953125 126.359375 74.519531 127.132812 74.53125 127.964844 C 74.539062 128.796875 74.992188 129.558594 75.71875 129.96875 Z M 75.71875 129.96875 "/>
<path style=" stroke:none;fill-rule:nonzero;fill:rgb(0%,0%,0%);fill-opacity:0.0784314;" d="M 74.527344 127.75 L 74.535156 123.703125 L 76.425781 126.179688 L 74.527344 127.75 "/>
<path style=" stroke:none;fill-rule:nonzero;fill:rgb(0%,0%,0%);fill-opacity:0.0784314;" d="M 145.753906 123.25 L 145.753906 127.492188 L 144.066406 126.101562 L 145.753906 123.25 "/>
<path style=" stroke:none;fill-rule:nonzero;fill:rgb(34.509804%,40.392157%,94.117647%);fill-opacity:1;" d="M 75.71875 125.78125 L 108.679688 144.210938 C 110.648438 145.308594 113.054688 145.269531 114.992188 144.113281 L 143.742188 126.875 C 145.050781 126.089844 145.84375 124.667969 145.824219 123.140625 C 145.808594 121.617188 144.980469 120.214844 143.652344 119.460938 L 114.792969 103.136719 C 112.355469 101.753906 109.359375 101.785156 106.945312 103.214844 L 75.671875 121.746094 C 74.953125 122.171875 74.519531 122.945312 74.53125 123.777344 C 74.539062 124.609375 74.992188 125.375 75.71875 125.78125 Z M 75.71875 125.78125 "/>
<path style=" stroke:none;fill-rule:nonzero;fill:rgb(0%,0%,0%);fill-opacity:0.368627;" d="M 81.785156 124.910156 L 108.898438 140.078125 C 110.515625 140.988281 112.5 140.957031 114.09375 140.003906 L 137.746094 125.816406 C 138.839844 125.179688 139.503906 124.003906 139.488281 122.742188 C 139.46875 121.480469 138.777344 120.324219 137.671875 119.714844 L 113.972656 106.269531 C 111.964844 105.132812 109.5 105.15625 107.515625 106.335938 L 81.785156 121.609375 C 81.199219 121.953125 80.839844 122.578125 80.839844 123.257812 C 80.839844 123.9375 81.199219 124.566406 81.785156 124.910156 Z M 81.785156 124.910156 "/>
<path style=" stroke:none;fill-rule:nonzero;fill:rgb(34.509804%,40.392157%,94.117647%);fill-opacity:1;" d="M 75.671875 121.746094 L 67.007812 85.785156 C 66.515625 83.738281 67.464844 81.617188 69.324219 80.625 L 95.886719 66.4375 C 96.691406 66.011719 97.644531 65.980469 98.472656 66.347656 C 99.300781 66.71875 99.914062 67.449219 100.128906 68.332031 L 108.546875 102.496094 Z M 75.671875 121.746094 "/>
<path style=" stroke:none;fill-rule:nonzero;fill:rgb(0%,0%,0%);fill-opacity:0.0784314;" d="M 75.671875 121.746094 L 67.007812 85.785156 C 66.515625 83.738281 67.464844 81.617188 69.324219 80.625 L 95.886719 66.4375 C 96.691406 66.011719 97.644531 65.980469 98.472656 66.347656 C 99.300781 66.71875 99.914062 67.449219 100.128906 68.332031 L 108.546875 102.496094 Z M 75.671875 121.746094 "/>
<path style=" stroke:none;fill-rule:nonzero;fill:rgb(0%,0%,0%);fill-opacity:0.368627;" d="M 111.078125 105.476562 C 109.828125 105.417969 108.585938 105.726562 107.507812 106.363281 L 81.785156 121.609375 C 81.195312 121.957031 80.839844 122.59375 80.847656 123.277344 C 80.855469 123.960938 81.230469 124.589844 81.828125 124.925781 L 108.9375 140.09375 C 109.605469 140.464844 110.34375 140.679688 111.105469 140.730469 Z M 111.078125 105.476562 "/>
<path style=" stroke:none;fill-rule:nonzero;fill:rgb(68.627451%,30.588235%,15.686275%);fill-opacity:1;" d="M 74.175781 187.648438 C 72.539062 183.71875 73.71875 179.492188 76.804688 178.207031 C 79.894531 176.921875 83.726562 179.0625 85.363281 182.992188 C 86.996094 186.921875 85.820312 191.152344 82.730469 192.4375 C 79.640625 193.722656 75.808594 191.578125 74.175781 187.648438 "/>
<path style=" stroke:none;fill-rule:nonzero;fill:rgb(68.627451%,30.588235%,15.686275%);fill-opacity:1;" d="M 73.785156 179.394531 L 77.382812 177.996094 L 77.570312 180.109375 "/>
<path style=" stroke:none;fill-rule:nonzero;fill:rgb(56.862745%,32.156863%,0%);fill-opacity:1;" d="M 79.710938 193.621094 L 82.730469 192.429688 L 80.433594 192.085938 L 79.710938 193.621094 "/>
<path style=" stroke:none;fill-rule:nonzero;fill:rgb(78.823529%,38.823529%,21.176471%);fill-opacity:1;" d="M 71.316406 188.832031 C 69.679688 184.902344 70.855469 180.671875 73.945312 179.386719 C 77.035156 178.101562 80.867188 180.246094 82.503906 184.175781 C 84.136719 188.105469 82.960938 192.332031 79.871094 193.617188 C 76.78125 194.902344 72.949219 192.761719 71.316406 188.832031 "/>
<path style=" stroke:none;fill-rule:nonzero;fill:rgb(100%,100%,100%);fill-opacity:1;" d="M 72.734375 187.988281 C 71.539062 185.121094 72.398438 182.035156 74.65625 181.09375 C 76.914062 180.15625 79.710938 181.71875 80.902344 184.585938 C 82.097656 187.453125 81.234375 190.539062 78.980469 191.480469 C 76.722656 192.417969 73.925781 190.855469 72.734375 187.988281 "/>
<path style=" stroke:none;fill-rule:nonzero;fill:rgb(40.392157%,77.647059%,36.078431%);fill-opacity:1;" d="M 109.835938 76.726562 C 109.835938 76.726562 108.960938 79.308594 111.441406 80.300781 C 111.777344 80.4375 111.527344 81.65625 111.503906 81.878906 C 111.160156 84.929688 110.546875 87.941406 109.675781 90.886719 C 108.898438 93.691406 107.84375 96.578125 108.019531 99.484375 C 108.152344 101.746094 108.386719 104.003906 108.644531 106.257812 C 109.140625 110.640625 109.753906 115.007812 110.417969 119.363281 C 110.574219 120.390625 110.734375 121.417969 110.902344 122.441406 C 110.902344 122.441406 112.191406 125.878906 119.941406 125.246094 C 119.683594 122.792969 119.394531 120.339844 119.085938 117.890625 C 118.523438 113.425781 117.921875 108.949219 117.082031 104.523438 C 116.695312 102.496094 116.84375 102.421875 115.980469 100.492188 C 115.675781 99.738281 115.308594 99.011719 114.886719 98.320312 C 114.183594 96.972656 111.050781 90.394531 110.679688 88.941406 C 110.363281 87.601562 110.0625 86.261719 109.792969 84.917969 C 109.792969 84.917969 111.6875 83.621094 110.011719 81.355469 "/>
<path style=" stroke:none;fill-rule:nonzero;fill:rgb(40.392157%,25.490196%,18.039216%);fill-opacity:1;" d="M 109.835938 76.726562 C 109.695312 75.746094 111.503906 74.683594 113.875 74.347656 C 116.246094 74.015625 118.277344 74.535156 118.417969 75.515625 C 118.554688 76.492188 116.746094 77.558594 114.375 77.890625 C 112.003906 78.226562 109.972656 77.703125 109.835938 76.726562 "/>
<path style=" stroke:none;fill-rule:nonzero;fill:rgb(99.607843%,99.607843%,99.607843%);fill-opacity:1;" d="M 110.234375 99.980469 L 111.730469 110.597656 C 111.960938 112.261719 115.089844 111.816406 114.859375 110.15625 L 113.34375 99.539062 C 113.125 97.875 109.996094 98.3125 110.234375 99.980469 Z M 113.820312 112.652344 C 111.808594 112.933594 112.171875 115.519531 114.183594 115.234375 C 116.195312 114.945312 115.832031 112.363281 113.820312 112.652344 Z M 113.820312 112.652344 "/>
<path style=" stroke:none;fill-rule:nonzero;fill:rgb(100%,77.647059%,69.803922%);fill-opacity:1;" d="M 131.710938 75.960938 C 131.710938 75.960938 129.242188 86.902344 128.777344 88.183594 C 129.34375 88.4375 129.992188 88.4375 130.558594 88.183594 C 130.558594 88.183594 129.492188 92.308594 130.027344 93.269531 C 130.558594 94.230469 136.484375 84.355469 137.261719 75.960938 Z M 131.710938 75.960938 "/>
<path style=" stroke:none;fill-rule:nonzero;fill:rgb(34.509804%,40.392157%,94.117647%);fill-opacity:1;" d="M 130.371094 71.054688 C 130.371094 71.054688 129.296875 64.511719 133.378906 64.636719 C 137.460938 64.761719 137.1875 82.183594 137.1875 82.183594 L 128.953125 78.71875 Z M 130.371094 71.054688 "/>
<path style=" stroke:none;fill-rule:nonzero;fill:rgb(0%,0%,0%);fill-opacity:0.368627;" d="M 133.503906 87.246094 L 135.515625 81.453125 L 137.179688 82.152344 L 139.113281 75.140625 L 139.113281 85.660156 C 139.113281 85.660156 136.027344 88.171875 133.503906 87.246094 Z M 133.503906 87.246094 "/>
<path style=" stroke:none;fill-rule:nonzero;fill:rgb(19.607843%,53.333333%,58.823529%);fill-opacity:1;" d="M 129.992188 81.875 C 129.25 79.300781 128.648438 76.6875 128.195312 74.046875 C 128.117188 73.605469 127.445312 73.792969 127.496094 74.238281 C 127.949219 76.875 128.546875 79.488281 129.289062 82.0625 C 129.34375 82.257812 129.542969 82.371094 129.734375 82.320312 C 129.929688 82.265625 130.042969 82.066406 129.992188 81.875 Z M 129.992188 81.875 "/>
</g>
</svg>
