<?xml version="1.0" encoding="UTF-8"?>
<svg xmlns="http://www.w3.org/2000/svg" xmlns:xlink="http://www.w3.org/1999/xlink" width="406pt" height="306pt" viewBox="0 0 406 306" version="1.1">
<defs>
<filter id="alpha" filterUnits="objectBoundingBox" x="0%" y="0%" width="100%" height="100%">
  <feColorMatrix type="matrix" in="SourceGraphic" values="0 0 0 0 1 0 0 0 0 1 0 0 0 0 1 0 0 0 1 0"/>
</filter>
<mask id="mask0">
  <g filter="url(#alpha)">
<rect x="0" y="0" width="406" height="306" style="fill:rgb(0%,0%,0%);fill-opacity:0.580392;stroke:none;"/>
  </g>
</mask>
<clipPath id="clip1">
  <rect x="0" y="0" width="406" height="306"/>
</clipPath>
<g id="surface5" clip-path="url(#clip1)">
<path style=" stroke:none;fill-rule:nonzero;fill:rgb(90.196078%,90.196078%,90.196078%);fill-opacity:1;" d="M 306.023438 232.28125 L 335.710938 232.28125 L 335.710938 243.984375 L 306.023438 243.984375 Z M 306.023438 232.28125 "/>
</g>
<mask id="mask1">
  <g filter="url(#alpha)">
<rect x="0" y="0" width="406" height="306" style="fill:rgb(0%,0%,0%);fill-opacity:0.458824;stroke:none;"/>
  </g>
</mask>
<clipPath id="clip2">
  <rect x="0" y="0" width="406" height="306"/>
</clipPath>
<g id="surface8" clip-path="url(#clip2)">
<path style=" stroke:none;fill-rule:nonzero;fill:rgb(100%,100%,100%);fill-opacity:1;" d="M 169.046875 80.863281 C 169.046875 80.863281 140.800781 91.429688 148.75 133.703125 C 156.695312 175.980469 109.570312 157.617188 100.027344 125.402344 L 89.5625 129.65625 C 89.5625 129.65625 102.699219 176.8125 133.351562 179.625 C 164.003906 182.433594 180.660156 150.035156 182.597656 128.367188 C 184.539062 106.695312 169.046875 80.863281 169.046875 80.863281 Z M 169.046875 80.863281 "/>
</g>
<mask id="mask2">
  <g filter="url(#alpha)">
<rect x="0" y="0" width="406" height="306" style="fill:rgb(0%,0%,0%);fill-opacity:0.45098;stroke:none;"/>
  </g>
</mask>
<clipPath id="clip3">
  <rect x="0" y="0" width="406" height="306"/>
</clipPath>
<g id="surface11" clip-path="url(#clip3)">
<path style=" stroke:none;fill-rule:nonzero;fill:rgb(90.196078%,90.196078%,90.196078%);fill-opacity:1;" d="M 378.59375 255.929688 C 378.59375 247.785156 301.796875 241.183594 207.058594 241.183594 C 112.324219 241.183594 35.523438 247.785156 35.523438 255.929688 C 35.523438 264.078125 112.324219 270.679688 207.058594 270.679688 C 301.796875 270.679688 378.59375 264.078125 378.59375 255.929688 Z M 378.59375 255.929688 "/>
</g>
<mask id="mask3">
  <g filter="url(#alpha)">
<rect x="0" y="0" width="406" height="306" style="fill:rgb(0%,0%,0%);fill-opacity:0.309804;stroke:none;"/>
  </g>
</mask>
<clipPath id="clip4">
  <rect x="0" y="0" width="406" height="306"/>
</clipPath>
<g id="surface14" clip-path="url(#clip4)">
<path style=" stroke:none;fill-rule:nonzero;fill:rgb(80.784314%,50.588235%,44.705882%);fill-opacity:1;" d="M 188.789062 62.664062 C 190.4375 62.671875 192.050781 62.191406 193.429688 61.285156 C 193.429688 61.285156 193.246094 65.589844 187.671875 68.511719 Z M 188.789062 62.664062 "/>
</g>
<mask id="mask4">
  <g filter="url(#alpha)">
<rect x="0" y="0" width="406" height="306" style="fill:rgb(0%,0%,0%);fill-opacity:0.580392;stroke:none;"/>
  </g>
</mask>
<clipPath id="clip5">
  <rect x="0" y="0" width="406" height="306"/>
</clipPath>
<g id="surface17" clip-path="url(#clip5)">
<path style=" stroke:none;fill-rule:nonzero;fill:rgb(34.509804%,40.392157%,94.117647%);fill-opacity:1;" d="M 142.667969 240.289062 C 142.667969 240.289062 133.484375 237.78125 131.503906 229.246094 C 131.503906 229.246094 145.714844 226.363281 146.128906 241.050781 Z M 142.667969 240.289062 "/>
</g>
<mask id="mask5">
  <g filter="url(#alpha)">
<rect x="0" y="0" width="406" height="306" style="fill:rgb(0%,0%,0%);fill-opacity:0.729412;stroke:none;"/>
  </g>
</mask>
<clipPath id="clip6">
  <rect x="0" y="0" width="406" height="306"/>
</clipPath>
<g id="surface20" clip-path="url(#clip6)">
<path style=" stroke:none;fill-rule:nonzero;fill:rgb(34.509804%,40.392157%,94.117647%);fill-opacity:1;" d="M 143.796875 239.40625 C 143.796875 239.40625 137.378906 229.257812 143.023438 219.777344 C 143.023438 219.777344 153.84375 226.648438 149.03125 239.425781 Z M 143.796875 239.40625 "/>
</g>
<mask id="mask6">
  <g filter="url(#alpha)">
<rect x="0" y="0" width="406" height="306" style="fill:rgb(0%,0%,0%);fill-opacity:0.0784314;stroke:none;"/>
  </g>
</mask>
<clipPath id="clip7">
  <rect x="0" y="0" width="406" height="306"/>
</clipPath>
<g id="surface23" clip-path="url(#clip7)">
<path style=" stroke:none;fill-rule:nonzero;fill:rgb(0%,0%,0%);fill-opacity:1;" d="M 213.292969 91.289062 C 213.292969 91.289062 203.78125 102.300781 213.292969 116.753906 C 222.800781 131.207031 199.558594 177.21875 199.558594 177.21875 L 220.558594 177.878906 C 220.558594 177.878906 237.886719 132.304688 241.316406 112.664062 C 244.410156 94.933594 213.292969 91.289062 213.292969 91.289062 Z M 213.292969 91.289062 "/>
</g>
<mask id="mask7">
  <g filter="url(#alpha)">
<rect x="0" y="0" width="406" height="306" style="fill:rgb(0%,0%,0%);fill-opacity:0.458824;stroke:none;"/>
  </g>
</mask>
<clipPath id="clip8">
  <rect x="0" y="0" width="406" height="306"/>
</clipPath>
<g id="surface26" clip-path="url(#clip8)">
<path style=" stroke:none;fill-rule:nonzero;fill:rgb(100%,100%,100%);fill-opacity:1;" d="M 213.554688 94.628906 C 211.324219 82.691406 223.351562 72.957031 234.78125 77.078125 C 252.949219 83.613281 281.335938 97.460938 289.082031 121.789062 C 300.722656 158.390625 228.699219 179.804688 228.699219 179.804688 L 223.898438 169.585938 C 223.898438 169.585938 266.164062 158.421875 262.835938 130.214844 C 260.164062 107.609375 217.523438 115.78125 213.554688 94.628906 Z M 213.554688 94.628906 "/>
</g>
<mask id="mask8">
  <g filter="url(#alpha)">
<rect x="0" y="0" width="406" height="306" style="fill:rgb(0%,0%,0%);fill-opacity:0.0784314;stroke:none;"/>
  </g>
</mask>
<clipPath id="clip9">
  <rect x="0" y="0" width="406" height="306"/>
</clipPath>
<g id="surface29" clip-path="url(#clip9)">
<path style=" stroke:none;fill-rule:nonzero;fill:rgb(0%,0%,0%);fill-opacity:1;" d="M 261.140625 170.710938 L 265.847656 149.03125 L 315.796875 149.03125 L 319.574219 170.710938 L 312.5 255.6875 L 268.671875 255.6875 Z M 261.140625 170.710938 "/>
</g>
<mask id="mask9">
  <g filter="url(#alpha)">
<rect x="0" y="0" width="406" height="306" style="fill:rgb(0%,0%,0%);fill-opacity:0.458824;stroke:none;"/>
  </g>
</mask>
<clipPath id="clip10">
  <rect x="0" y="0" width="406" height="306"/>
</clipPath>
<g id="surface32" clip-path="url(#clip10)">
<path style=" stroke:none;fill-rule:nonzero;fill:rgb(100%,100%,100%);fill-opacity:1;" d="M 287.4375 212.488281 C 287.4375 199.128906 282.199219 188.300781 275.734375 188.300781 C 269.273438 188.300781 264.03125 199.128906 264.03125 212.488281 C 264.03125 225.847656 269.273438 236.675781 275.734375 236.675781 C 282.199219 236.675781 287.4375 225.847656 287.4375 212.488281 Z M 287.4375 212.488281 "/>
</g>
<mask id="mask10">
  <g filter="url(#alpha)">
<rect x="0" y="0" width="406" height="306" style="fill:rgb(0%,0%,0%);fill-opacity:0.0784314;stroke:none;"/>
  </g>
</mask>
<clipPath id="clip11">
  <rect x="0" y="0" width="406" height="306"/>
</clipPath>
<g id="surface35" clip-path="url(#clip11)">
<path style=" stroke:none;fill-rule:nonzero;fill:rgb(0%,0%,0%);fill-opacity:1;" d="M 323.164062 182.242188 L 302.652344 182.242188 L 303.617188 169.921875 L 323.164062 169.921875 Z M 323.164062 182.242188 "/>
</g>
<mask id="mask11">
  <g filter="url(#alpha)">
<rect x="0" y="0" width="406" height="306" style="fill:rgb(0%,0%,0%);fill-opacity:0.231373;stroke:none;"/>
  </g>
</mask>
<clipPath id="clip12">
  <rect x="0" y="0" width="406" height="306"/>
</clipPath>
<g id="surface38" clip-path="url(#clip12)">
<path style=" stroke:none;fill-rule:nonzero;fill:rgb(100%,100%,100%);fill-opacity:1;" d="M 96.902344 166.285156 C 96.902344 175.816406 89.175781 183.542969 79.648438 183.542969 C 70.117188 183.542969 62.390625 175.816406 62.390625 166.285156 C 62.390625 156.757812 70.117188 149.03125 79.648438 149.03125 C 89.175781 149.03125 96.902344 156.757812 96.902344 166.285156 Z M 96.902344 166.285156 "/>
</g>
<mask id="mask12">
  <g filter="url(#alpha)">
<rect x="0" y="0" width="406" height="306" style="fill:rgb(0%,0%,0%);fill-opacity:0.141176;stroke:none;"/>
  </g>
</mask>
<clipPath id="clip13">
  <rect x="0" y="0" width="406" height="306"/>
</clipPath>
<g id="surface41" clip-path="url(#clip13)">
<path style=" stroke:none;fill-rule:nonzero;fill:rgb(100%,100%,100%);fill-opacity:1;" d="M 271.511719 153.902344 L 268.976562 169.921875 L 296.855469 169.921875 L 293.242188 153.902344 Z M 271.511719 153.902344 "/>
</g>
</defs>
<g id="surface1">
<use xlink:href="#surface5" mask="url(#mask0)"/>
<path style=" stroke:none;fill-rule:nonzero;fill:rgb(90.196078%,90.196078%,90.196078%);fill-opacity:1;" d="M 306.023438 243.984375 L 347 243.984375 L 347 255.6875 L 306.023438 255.6875 Z M 306.023438 243.984375 "/>
<path style=" stroke:none;fill-rule:nonzero;fill:rgb(34.509804%,40.392157%,94.117647%);fill-opacity:1;" d="M 169.046875 80.863281 C 169.046875 80.863281 140.800781 91.429688 148.75 133.703125 C 156.695312 175.980469 109.570312 157.617188 100.027344 125.402344 L 89.5625 129.65625 C 89.5625 129.65625 102.699219 176.8125 133.351562 179.625 C 164.003906 182.433594 180.660156 150.035156 182.597656 128.367188 C 184.539062 106.695312 169.046875 80.863281 169.046875 80.863281 Z M 169.046875 80.863281 "/>
<use xlink:href="#surface8" mask="url(#mask1)"/>
<use xlink:href="#surface11" mask="url(#mask2)"/>
<path style=" stroke:none;fill-rule:nonzero;fill:rgb(95.686275%,63.529412%,54.901961%);fill-opacity:1;" d="M 182.800781 50.597656 C 182.800781 50.597656 182.476562 57.703125 183.816406 62.359375 C 184.386719 64.253906 186.386719 65.328125 188.28125 64.757812 C 190.617188 64.023438 193.570312 62.351562 194.199219 58.5625 L 196.078125 52.269531 C 196.570312 49.609375 195.328125 46.925781 192.980469 45.574219 C 188.902344 42.851562 182.78125 46.253906 182.800781 50.597656 Z M 182.800781 50.597656 "/>
<path style=" stroke:none;fill-rule:nonzero;fill:rgb(95.686275%,63.529412%,54.901961%);fill-opacity:1;" d="M 195.621094 55.488281 L 198.261719 78.652344 L 185.398438 79.1875 L 188.636719 62.128906 Z M 195.621094 55.488281 "/>
<path style=" stroke:none;fill-rule:nonzero;fill:rgb(14.117647%,15.686275%,35.686275%);fill-opacity:1;" d="M 184.578125 50.820312 C 186.777344 50.8125 188.964844 50.554688 191.105469 50.046875 C 189.890625 52.074219 189.996094 54.625 191.367188 56.542969 C 192.679688 58.449219 195.15625 59.15625 197.277344 58.230469 L 196.789062 49.09375 C 196.722656 46.433594 195.214844 44.023438 192.851562 42.800781 C 191.839844 42.28125 190.800781 41.828125 189.734375 41.441406 C 187.066406 40.496094 183.289062 42.40625 180.863281 40.730469 C 180.363281 40.394531 179.726562 40.339844 179.179688 40.59375 C 178.628906 40.84375 178.253906 41.359375 178.183594 41.960938 C 177.890625 44.761719 178.570312 49.0625 182.386719 50.476562 C 183.09375 50.707031 183.832031 50.824219 184.578125 50.820312 Z M 184.578125 50.820312 "/>
<path style=" stroke:none;fill-rule:nonzero;fill:rgb(95.686275%,63.529412%,54.901961%);fill-opacity:1;" d="M 190.605469 56.371094 C 190.605469 56.371094 190.546875 53.632812 192.636719 53.753906 C 194.726562 53.875 194.808594 57.8125 192.027344 58.320312 Z M 190.605469 56.371094 "/>
<path style=" stroke:none;fill-rule:nonzero;fill:rgb(95.686275%,63.529412%,54.901961%);fill-opacity:1;" d="M 182.820312 55.082031 L 180.953125 57.894531 C 180.738281 58.21875 180.703125 58.632812 180.863281 58.992188 C 181.023438 59.347656 181.359375 59.597656 181.746094 59.652344 L 184.488281 60.054688 Z M 182.820312 55.082031 "/>
<use xlink:href="#surface14" mask="url(#mask3)"/>
<use xlink:href="#surface17" mask="url(#mask4)"/>
<use xlink:href="#surface20" mask="url(#mask5)"/>
<path style=" stroke:none;fill-rule:nonzero;fill:rgb(34.509804%,40.392157%,94.117647%);fill-opacity:1;" d="M 145.449219 239.40625 C 145.449219 239.40625 148.839844 228.699219 159.082031 226.667969 C 159.082031 226.667969 161 233.632812 152.441406 239.4375 Z M 145.449219 239.40625 "/>
<path style=" stroke:none;fill-rule:nonzero;fill:rgb(14.117647%,15.686275%,35.686275%);fill-opacity:1;" d="M 138.792969 239.171875 L 140.648438 251.902344 L 152.371094 251.953125 L 154.097656 239.234375 Z M 138.792969 239.171875 "/>
<path style=" stroke:none;fill-rule:nonzero;fill:rgb(34.509804%,40.392157%,94.117647%);fill-opacity:1;" d="M 236.433594 243.710938 C 236.433594 243.710938 238.464844 247.40625 242.066406 247.132812 C 245.671875 246.855469 247.140625 250.175781 244.097656 251.578125 C 241.050781 252.976562 232.191406 250.246094 232.191406 250.246094 L 231.59375 245.101562 Z M 236.433594 243.710938 "/>
<path style=" stroke:none;fill-rule:nonzero;fill:rgb(34.509804%,40.392157%,94.117647%);fill-opacity:1;" d="M 183.328125 243.710938 C 183.328125 243.710938 181.300781 247.40625 177.695312 247.132812 C 174.09375 246.855469 172.621094 250.175781 175.667969 251.578125 C 178.710938 252.976562 187.570312 250.246094 187.570312 250.246094 L 188.171875 245.101562 Z M 183.328125 243.710938 "/>
<path style=" stroke:none;fill-rule:nonzero;fill:rgb(14.117647%,15.686275%,35.686275%);fill-opacity:1;" d="M 167.78125 176.214844 L 181.085938 243.710938 L 189.765625 245.445312 L 190.046875 211.128906 C 190.167969 196.664062 199.746094 183.984375 213.628906 179.917969 L 220.558594 177.886719 Z M 167.78125 176.214844 "/>
<path style=" stroke:none;fill-rule:nonzero;fill:rgb(14.117647%,15.686275%,35.686275%);fill-opacity:1;" d="M 220.558594 177.878906 L 239.195312 244.023438 L 228.699219 246.199219 C 228.699219 246.199219 216.710938 203.800781 185.421875 184.28125 Z M 220.558594 177.878906 "/>
<path style=" stroke:none;fill-rule:nonzero;fill:rgb(34.509804%,40.392157%,94.117647%);fill-opacity:1;" d="M 172.125 78.90625 C 172.125 78.90625 222.222656 69.304688 239.347656 78.90625 C 256.46875 88.507812 220.558594 177.867188 220.558594 177.867188 L 167.78125 176.203125 C 167.78125 176.203125 121.597656 88.101562 172.125 78.90625 Z M 172.125 78.90625 "/>
<use xlink:href="#surface23" mask="url(#mask6)"/>
<path style=" stroke:none;fill-rule:nonzero;fill:rgb(34.509804%,40.392157%,94.117647%);fill-opacity:1;" d="M 213.554688 94.628906 C 211.324219 82.691406 223.351562 72.957031 234.78125 77.078125 C 252.949219 83.613281 281.335938 97.460938 289.082031 121.789062 C 300.722656 158.390625 228.699219 179.804688 228.699219 179.804688 L 223.898438 169.585938 C 223.898438 169.585938 266.164062 158.421875 262.835938 130.214844 C 260.164062 107.609375 217.523438 115.78125 213.554688 94.628906 Z M 213.554688 94.628906 "/>
<use xlink:href="#surface26" mask="url(#mask7)"/>
<path style=" stroke:none;fill-rule:nonzero;fill:rgb(100%,82.352941%,0%);fill-opacity:1;" d="M 261.140625 170.710938 L 265.847656 149.03125 L 315.796875 149.03125 L 319.574219 170.710938 L 312.5 255.6875 L 268.671875 255.6875 Z M 261.140625 170.710938 "/>
<use xlink:href="#surface29" mask="url(#mask8)"/>
<path style=" stroke:none;fill-rule:nonzero;fill:rgb(95.686275%,63.529412%,54.901961%);fill-opacity:1;" d="M 223.9375 169.574219 C 223.9375 169.574219 212.316406 176.617188 217.039062 181.957031 C 221.757812 187.296875 227.644531 177.460938 227.644531 177.460938 Z M 223.9375 169.574219 "/>
<path style=" stroke:none;fill-rule:nonzero;fill:rgb(100%,82.352941%,0%);fill-opacity:1;" d="M 245.183594 170.710938 L 249.894531 149.03125 L 299.839844 149.03125 L 303.617188 170.710938 L 296.542969 255.6875 L 252.714844 255.6875 Z M 245.183594 170.710938 "/>
<path style=" stroke:none;fill-rule:nonzero;fill:rgb(14.117647%,15.686275%,35.686275%);fill-opacity:1;" d="M 256.367188 153.902344 L 252.878906 169.921875 L 296.855469 169.921875 L 293.242188 153.902344 Z M 256.367188 153.902344 "/>
<use xlink:href="#surface32" mask="url(#mask9)"/>
<path style=" stroke:none;fill-rule:nonzero;fill:rgb(100%,82.352941%,0%);fill-opacity:1;" d="M 242.585938 169.921875 L 323.164062 169.921875 L 323.164062 182.242188 L 242.585938 182.242188 Z M 242.585938 169.921875 "/>
<use xlink:href="#surface35" mask="url(#mask10)"/>
<path style=" stroke:none;fill-rule:nonzero;fill:rgb(95.686275%,63.529412%,54.901961%);fill-opacity:1;" d="M 97.917969 126.265625 C 97.917969 126.265625 94.800781 115.304688 84.722656 116.613281 C 74.644531 117.921875 89.5625 129.65625 89.5625 129.65625 Z M 97.917969 126.265625 "/>
<path style=" stroke:none;fill-rule:nonzero;fill:rgb(14.117647%,15.686275%,35.686275%);fill-opacity:1;" d="M 84.722656 116.613281 L 74.644531 101.09375 L 109.800781 105.589844 L 93.574219 119.3125 Z M 84.722656 116.613281 "/>
<path style=" stroke:none;fill-rule:nonzero;fill:rgb(14.117647%,15.686275%,35.686275%);fill-opacity:1;" d="M 82.945312 123.089844 C 82.945312 123.089844 13.457031 169.289062 56.554688 191.90625 C 99.652344 214.519531 131.128906 176.082031 92.082031 126.265625 Z M 82.945312 123.089844 "/>
<use xlink:href="#surface38" mask="url(#mask11)"/>
<use xlink:href="#surface41" mask="url(#mask12)"/>
</g>
</svg>
