<?xml version="1.0" encoding="UTF-8"?>
<svg xmlns="http://www.w3.org/2000/svg" xmlns:xlink="http://www.w3.org/1999/xlink" width="406pt" height="306pt" viewBox="0 0 406 306" version="1.1">
<defs>
<filter id="alpha" filterUnits="objectBoundingBox" x="0%" y="0%" width="100%" height="100%">
  <feColorMatrix type="matrix" in="SourceGraphic" values="0 0 0 0 1 0 0 0 0 1 0 0 0 0 1 0 0 0 1 0"/>
</filter>
<mask id="mask0">
  <g filter="url(#alpha)">
<rect x="0" y="0" width="406" height="306" style="fill:rgb(0%,0%,0%);fill-opacity:0.321569;stroke:none;"/>
  </g>
</mask>
<linearGradient id="linear0" gradientUnits="userSpaceOnUse" x1="190.26" y1="246.91" x2="203.41" y2="236.24" gradientTransform="matrix(1.015,0,0,1.015,0,0.75)">
<stop offset="0" style="stop-color:rgb(0%,0%,0%);stop-opacity:0.0313725;"/>
<stop offset="0.97" style="stop-color:rgb(49.803922%,29.019608%,0%);stop-opacity:1;"/>
</linearGradient>
<clipPath id="clip1">
  <rect x="0" y="0" width="406" height="306"/>
</clipPath>
<g id="surface5" clip-path="url(#clip1)">
<path style=" stroke:none;fill-rule:nonzero;fill:url(#linear0);" d="M 200.789062 223.035156 C 194.699219 218.863281 214.550781 232.515625 209.179688 227.367188 L 172.214844 247.394531 L 196.117188 260.804688 L 240.394531 236.859375 C 237.9375 234.949219 203.316406 224.761719 200.789062 223.035156 Z M 200.789062 223.035156 "/>
</g>
<mask id="mask1">
  <g filter="url(#alpha)">
<rect x="0" y="0" width="406" height="306" style="fill:rgb(0%,0%,0%);fill-opacity:0.419608;stroke:none;"/>
  </g>
</mask>
<clipPath id="clip2">
  <rect x="0" y="0" width="406" height="306"/>
</clipPath>
<g id="surface8" clip-path="url(#clip2)">
<path style=" stroke:none;fill-rule:nonzero;fill:rgb(60.784314%,27.843137%,14.901961%);fill-opacity:1;" d="M 215.71875 192.320312 L 266.253906 163.3125 C 266.253906 163.3125 267.65625 221.808594 266.253906 222.742188 C 264.855469 223.675781 215.71875 250.347656 215.71875 250.347656 Z M 215.71875 192.320312 "/>
</g>
<mask id="mask2">
  <g filter="url(#alpha)">
<rect x="0" y="0" width="406" height="306" style="fill:rgb(0%,0%,0%);fill-opacity:0.458824;stroke:none;"/>
  </g>
</mask>
<linearGradient id="linear1" gradientUnits="userSpaceOnUse" x1="103.25" y1="176.52" x2="83.08" y2="204.02" gradientTransform="matrix(1.015,0,0,1.015,0,0.75)">
<stop offset="0" style="stop-color:rgb(49.803922%,20.784314%,0%);stop-opacity:1;"/>
<stop offset="0.04" style="stop-color:rgb(51.764706%,23.921569%,3.921569%);stop-opacity:1;"/>
<stop offset="1" style="stop-color:rgb(100%,100%,100%);stop-opacity:1;"/>
</linearGradient>
<clipPath id="clip3">
  <rect x="0" y="0" width="406" height="306"/>
</clipPath>
<g id="surface11" clip-path="url(#clip3)">
<path style=" stroke:none;fill-rule:nonzero;fill:url(#linear1);" d="M 70.9375 200.226562 C 74.5625 202.96875 78.042969 205.953125 81.566406 208.785156 C 85.085938 211.617188 95.257812 219.835938 98.820312 222.476562 C 99.988281 221.796875 101.683594 220.03125 102.820312 219.300781 C 109.570312 214.996094 112.613281 208.84375 119.058594 204.074219 C 112.328125 196.644531 98.050781 176.265625 93.378906 172.671875 C 86.832031 178.566406 70.410156 188.007812 62.3125 194.308594 C 65.113281 196.371094 68.15625 198.117188 70.9375 200.226562 Z M 70.9375 200.226562 "/>
</g>
</defs>
<g id="surface1">
<path style=" stroke:none;fill-rule:nonzero;fill:rgb(95.294118%,67.843137%,0%);fill-opacity:1;" d="M 206.9375 289.667969 L 379.488281 187.671875 C 384.980469 184.628906 389.699219 179.550781 384.339844 176.203125 L 211.121094 76.367188 C 208.523438 74.753906 204.574219 73.699219 201.933594 75.242188 L 20.808594 180.40625 C 15.304688 183.59375 14.332031 192.503906 19.792969 195.699219 L 184.152344 289.527344 C 191.183594 293.609375 199.855469 293.664062 206.9375 289.667969 Z M 206.9375 289.667969 "/>
<path style=" stroke:none;fill-rule:nonzero;fill:rgb(73.72549%,32.54902%,16.470588%);fill-opacity:1;" d="M 216.976562 70.085938 L 217.515625 70.085938 C 218.5625 70.085938 219.414062 70.933594 219.414062 71.984375 L 219.414062 96.921875 C 219.414062 97.96875 218.5625 98.820312 217.515625 98.820312 L 216.976562 98.820312 C 215.929688 98.820312 215.078125 97.96875 215.078125 96.921875 L 215.078125 71.984375 C 215.078125 70.933594 215.929688 70.085938 216.976562 70.085938 Z M 216.976562 70.085938 "/>
<path style=" stroke:none;fill-rule:nonzero;fill:rgb(17.254902%,56.862745%,20.784314%);fill-opacity:1;" d="M 227.949219 75.960938 C 226.933594 71.628906 222.507812 52.515625 214.640625 58.128906 C 210.582031 61 209.476562 65.507812 207.863281 69.902344 C 206.394531 73.53125 205.550781 77.378906 205.355469 81.289062 C 205.234375 89.238281 213.3125 90.210938 219.503906 90.183594 C 223.078125 90.183594 228.160156 88.058594 228.996094 84.183594 C 229.5 81.847656 228.640625 79.109375 228.140625 76.804688 Z M 227.949219 75.960938 "/>
<path style=" stroke:none;fill-rule:nonzero;fill:rgb(8.235294%,40.784314%,9.803922%);fill-opacity:1;" d="M 228.375 76.804688 L 228.183594 75.960938 C 227.300781 72.125 223.726562 56.738281 217.464844 57.125 C 219.320312 65.242188 222.0625 73.800781 220.601562 82.101562 C 220.109375 85.003906 218.949219 87.753906 217.210938 90.132812 C 218.042969 90.132812 218.863281 90.183594 219.65625 90.132812 C 223.230469 90.132812 228.3125 88.007812 229.144531 84.132812 C 229.683594 81.847656 228.832031 79.097656 228.375 76.804688 Z M 228.375 76.804688 "/>
<use xlink:href="#surface5" mask="url(#mask0)"/>
<path style=" stroke:none;fill-rule:nonzero;fill:rgb(73.72549%,32.54902%,16.470588%);fill-opacity:1;" d="M 322.882812 138.078125 L 327.277344 138.078125 C 328.324219 138.078125 329.175781 138.929688 329.175781 139.976562 L 329.175781 190.453125 C 329.175781 191.5 328.324219 192.351562 327.277344 192.351562 L 322.882812 192.351562 C 321.832031 192.351562 320.984375 191.5 320.984375 190.453125 L 320.984375 139.976562 C 320.984375 138.929688 321.832031 138.078125 322.882812 138.078125 Z M 322.882812 138.078125 "/>
<path style=" stroke:none;fill-rule:nonzero;fill:rgb(17.254902%,56.862745%,20.784314%);fill-opacity:1;" d="M 345.292969 149.183594 C 343.40625 140.992188 335.019531 104.898438 320.152344 115.507812 C 312.539062 120.9375 310.386719 129.433594 307.34375 137.746094 C 304.816406 144.625 302.722656 151.863281 302.613281 159.242188 C 302.367188 174.265625 317.644531 176.089844 329.335938 176.039062 C 336.078125 176.039062 345.6875 171.980469 347.261719 164.714844 C 348.214844 160.296875 346.59375 155.101562 345.648438 150.777344 C 345.53125 150.230469 345.414062 149.699219 345.292969 149.183594 Z M 345.292969 149.183594 "/>
<path style=" stroke:none;fill-rule:nonzero;fill:rgb(8.235294%,40.784314%,9.803922%);fill-opacity:1;" d="M 346.003906 150.777344 C 345.886719 150.242188 345.769531 149.710938 345.648438 149.183594 C 343.972656 141.9375 337.222656 112.886719 325.410156 113.597656 C 328.921875 128.914062 334.097656 145.0625 331.335938 160.773438 C 330.460938 166.265625 328.320312 171.476562 325.085938 176 C 326.65625 176.082031 328.199219 176.101562 329.691406 176.089844 C 336.433594 176.089844 346.042969 172.03125 347.617188 164.765625 C 348.5625 160.296875 346.949219 155.101562 346.003906 150.777344 Z M 346.003906 150.777344 "/>
<path style=" stroke:none;fill-rule:nonzero;fill:rgb(2.352941%,34.117647%,47.843137%);fill-opacity:1;" d="M 266.253906 163.3125 L 215.71875 132.4375 L 163.78125 163.3125 L 215.71875 192.332031 Z M 266.253906 163.3125 "/>
<path style=" stroke:none;fill-rule:nonzero;fill:rgb(34.509804%,40.392157%,94.117647%);fill-opacity:1;" d="M 163.78125 163.3125 L 145.003906 130.75 L 198.21875 99.457031 L 215.71875 132.4375 Z M 163.78125 163.3125 "/>
<path style=" stroke:none;fill-rule:nonzero;fill:rgb(54.901961%,80%,0%);fill-opacity:1;" d="M 207.527344 136.527344 C 207.527344 136.527344 219.179688 120.347656 214.09375 109.121094 C 214.09375 109.121094 209.902344 101.933594 203.945312 100.789062 C 203.945312 100.789062 204.542969 116.136719 198.59375 114.175781 C 192.648438 112.21875 198.59375 98.117188 198.59375 98.117188 C 198.59375 98.117188 192.363281 90 185.53125 90.253906 C 178.699219 90.507812 185.53125 104.605469 180.78125 102.269531 C 176.03125 99.9375 180.488281 87.9375 175.136719 86.515625 C 170.242188 85.4375 165.28125 84.675781 160.289062 84.234375 C 160.289062 84.234375 155.214844 98.230469 160.289062 100.230469 C 165.363281 102.230469 172.761719 102.910156 169.199219 105.996094 C 165.636719 109.082031 155.539062 105.539062 155.539062 105.539062 C 155.539062 105.539062 154.910156 113.414062 158.339844 116.824219 C 161.769531 120.234375 181.960938 112.695312 178.394531 119.464844 C 174.832031 126.234375 161.476562 122.84375 161.476562 122.84375 C 161.476562 122.84375 168.308594 132.234375 176.324219 136.515625 C 184.34375 140.800781 207.527344 136.527344 207.527344 136.527344 Z M 207.527344 136.527344 "/>
<path style=" stroke:none;fill-rule:nonzero;fill:rgb(2.352941%,34.117647%,47.843137%);fill-opacity:1;" d="M 164.753906 90.464844 C 166.917969 92.230469 169.109375 94.027344 171.292969 95.84375 C 171.066406 93.613281 170.792969 91.398438 170.429688 89.1875 C 170.234375 88.019531 172.09375 87.511719 172.296875 88.691406 C 172.785156 91.652344 173.15625 94.628906 173.414062 97.621094 C 179.148438 102.464844 184.832031 107.519531 190.128906 112.847656 C 190.585938 109.078125 190.703125 105.277344 190.484375 101.488281 C 190.414062 100.292969 192.351562 100.300781 192.414062 101.488281 C 192.664062 105.871094 192.472656 110.269531 191.84375 114.613281 C 195.21875 118.113281 198.394531 121.800781 201.355469 125.65625 C 204.660156 121.273438 206.925781 116.195312 207.972656 110.804688 C 208.207031 109.628906 210.0625 110.125 209.839844 111.304688 C 208.734375 117.035156 206.300781 122.425781 202.734375 127.046875 C 202.679688 127.113281 202.613281 127.171875 202.542969 127.21875 C 211.050781 138.800781 216.886719 151.800781 217.394531 166.855469 C 217.394531 168.050781 215.503906 168.050781 215.464844 166.855469 C 214.988281 152.351562 209.375 139.792969 201.253906 128.589844 C 193.4375 130.582031 185.359375 131.335938 177.308594 130.832031 C 176.070312 130.761719 176.0625 128.894531 177.308594 128.976562 C 184.953125 129.449219 192.621094 128.765625 200.054688 126.945312 C 195.949219 121.609375 191.449219 116.585938 186.597656 111.914062 C 186.539062 111.917969 186.484375 111.917969 186.425781 111.914062 C 181.917969 112.296875 177.402344 112.683594 172.875 112.835938 C 169.941406 112.9375 167.140625 113.191406 164.46875 111.902344 C 163.355469 111.363281 164.339844 109.761719 165.484375 110.300781 C 168.613281 111.8125 172.964844 111.007812 176.304688 110.828125 C 179.167969 110.664062 182.03125 110.429688 184.890625 110.1875 C 177.898438 103.691406 170.519531 97.589844 163.414062 91.773438 C 162.398438 91.003906 163.8125 89.695312 164.753906 90.464844 Z M 164.753906 90.464844 "/>
<path style=" stroke:none;fill-rule:nonzero;fill:rgb(54.901961%,80%,0%);fill-opacity:1;" d="M 240.992188 153 C 240.992188 153 261.445312 153.761719 268.519531 143.621094 C 268.519531 143.621094 272.578125 136.355469 270.375 130.921875 C 270.375 130.921875 257.242188 139.652344 255.769531 133.777344 C 254.296875 127.898438 269.847656 125.148438 269.847656 125.148438 C 269.847656 125.148438 273.625 115.71875 269.726562 110.320312 C 265.828125 104.917969 257.148438 118.035156 256.644531 112.917969 C 256.136719 107.800781 269.046875 104.980469 267.421875 99.875 C 265.796875 94.769531 261.445312 86.597656 261.445312 86.597656 C 261.445312 86.597656 246.472656 89.988281 247.425781 95.144531 C 248.378906 100.300781 251.78125 106.707031 247.152344 105.46875 C 242.523438 104.230469 240.21875 94.128906 240.21875 94.128906 C 240.21875 94.128906 232.972656 97.855469 231.835938 102.464844 C 230.699219 107.070312 248.148438 119.414062 240.300781 120.15625 C 232.457031 120.894531 228.242188 108.238281 228.242188 108.238281 C 228.242188 108.238281 223.6875 118.824219 224.183594 127.636719 C 224.679688 136.445312 240.992188 153 240.992188 153 Z M 240.992188 153 "/>
<path style=" stroke:none;fill-rule:nonzero;fill:rgb(2.352941%,34.117647%,47.843137%);fill-opacity:1;" d="M 229.867188 119.839844 C 229.511719 118.691406 231.378906 118.195312 231.734375 119.34375 C 233.871094 126.265625 238.230469 132.289062 244.136719 136.484375 C 246.332031 130.640625 248.332031 124.730469 250.148438 118.765625 C 245.507812 114.324219 241.671875 109.117188 238.808594 103.367188 C 238.269531 102.289062 239.945312 101.335938 240.472656 102.433594 C 243.113281 107.699219 246.589844 112.5 250.777344 116.644531 C 252.804688 109.800781 254.570312 102.898438 256.074219 95.917969 C 256.328125 94.75 258.1875 95.238281 257.941406 96.414062 C 255.886719 105.953125 253.347656 115.382812 250.328125 124.660156 C 253.953125 123.992188 257.488281 122.894531 260.855469 121.394531 C 261.972656 120.886719 262.957031 122.488281 261.871094 122.996094 C 257.992188 124.769531 253.894531 126.023438 249.691406 126.730469 C 247.660156 132.820312 245.367188 138.910156 242.921875 144.871094 C 248.691406 144.695312 254.382812 143.488281 259.726562 141.308594 C 260.855469 140.839844 261.851562 142.445312 260.742188 142.910156 C 254.859375 145.335938 248.574219 146.636719 242.210938 146.746094 C 239.105469 154.191406 235.691406 161.523438 231.96875 168.742188 C 231.410156 169.808594 229.746094 168.875 230.304688 167.808594 C 235.257812 158.230469 239.664062 148.378906 243.5 138.304688 C 237.007812 133.855469 232.207031 127.351562 229.867188 119.839844 Z M 229.867188 119.839844 "/>
<path style=" stroke:none;fill-rule:nonzero;fill:rgb(54.901961%,80%,0%);fill-opacity:1;" d="M 204.796875 177.023438 C 204.796875 177.023438 213.210938 169.035156 211.566406 162.164062 C 211.566406 162.164062 209.984375 157.648438 206.734375 156.390625 C 206.734375 156.390625 205.375 165.160156 202.21875 163.445312 C 199.0625 161.730469 203.996094 154.308594 203.996094 154.308594 C 203.996094 154.308594 201.355469 149.050781 197.449219 148.503906 C 193.539062 147.957031 195.855469 156.625 193.386719 154.835938 C 190.921875 153.050781 194.808594 146.71875 191.9375 145.316406 C 189.277344 144.199219 186.546875 143.257812 183.765625 142.496094 C 183.765625 142.496094 179.351562 149.925781 181.988281 151.578125 C 184.628906 153.234375 188.769531 154.378906 186.40625 155.769531 C 184.039062 157.160156 178.699219 154.105469 178.699219 154.105469 C 178.699219 154.105469 177.472656 158.511719 179.035156 160.796875 C 180.597656 163.078125 192.902344 160.875 190.128906 164.347656 C 187.359375 167.820312 180.140625 164.53125 180.140625 164.53125 C 180.140625 164.53125 182.972656 170.558594 187.054688 173.816406 C 191.132812 177.074219 204.796875 177.023438 204.796875 177.023438 Z M 204.796875 177.023438 "/>
<path style=" stroke:none;fill-rule:nonzero;fill:rgb(2.352941%,34.117647%,47.843137%);fill-opacity:1;" d="M 189.644531 150.675781 L 194.960938 159.253906 C 195.609375 158.417969 196.175781 157.519531 196.644531 156.574219 C 197.183594 155.496094 198.847656 156.429688 198.3125 157.507812 C 197.703125 158.71875 196.957031 159.855469 196.085938 160.898438 L 196.015625 160.957031 L 201.78125 170.253906 C 202.425781 169.671875 202.84375 168.882812 202.96875 168.023438 C 203.121094 166.855469 205.058594 166.835938 204.898438 168.023438 C 204.71875 169.527344 203.957031 170.898438 202.777344 171.847656 L 209.984375 183.480469 C 210.621094 184.496094 208.96875 185.449219 208.320312 184.414062 L 198.808594 169.078125 C 197.214844 169.101562 195.628906 168.871094 194.109375 168.398438 C 193.613281 168.253906 193.328125 167.738281 193.46875 167.242188 C 193.613281 166.746094 194.128906 166.457031 194.625 166.601562 C 195.601562 166.894531 196.605469 167.074219 197.621094 167.140625 L 187.988281 151.597656 C 187.339844 150.585938 189.003906 149.652344 189.644531 150.675781 Z M 189.644531 150.675781 "/>
<path style=" stroke:none;fill-rule:nonzero;fill:rgb(34.509804%,40.392157%,94.117647%);fill-opacity:1;" d="M 215.71875 250.347656 L 215.71875 192.320312 L 163.78125 163.3125 L 163.78125 220.863281 Z M 215.71875 250.347656 "/>
<path style=" stroke:none;fill-rule:nonzero;fill:rgb(34.509804%,40.392157%,94.117647%);fill-opacity:1;" d="M 215.71875 192.320312 L 266.253906 163.3125 C 266.253906 163.3125 267.65625 221.808594 266.253906 222.742188 C 264.855469 223.675781 215.71875 250.347656 215.71875 250.347656 Z M 215.71875 192.320312 "/>
<use xlink:href="#surface8" mask="url(#mask1)"/>
<path style=" stroke:none;fill-rule:nonzero;fill:rgb(34.509804%,40.392157%,94.117647%);fill-opacity:1;" d="M 266.253906 163.3125 L 279.957031 134.039062 L 224.050781 164.488281 L 215.71875 192.332031 Z M 266.253906 163.3125 "/>
<path style=" stroke:none;fill-rule:nonzero;fill:rgb(100%,100%,100%);fill-opacity:1;" d="M 171.28125 205.871094 C 172.289062 207.472656 173.664062 208.808594 175.289062 209.769531 C 175.796875 210.054688 176.304688 210.296875 176.824219 210.53125 L 177.332031 210.761719 L 178.050781 211.089844 L 187.117188 215.28125 L 187.378906 215.421875 L 187.542969 226.101562 L 186.820312 225.777344 L 183.632812 224.324219 L 181.238281 223.21875 C 179.96875 222.664062 178.820312 221.867188 177.859375 220.875 C 177.277344 220.292969 176.816406 219.601562 176.5 218.84375 C 174.800781 214.601562 173.109375 210.359375 171.421875 206.113281 Z M 171.28125 205.871094 "/>
<path style=" stroke:none;fill-rule:nonzero;fill:rgb(100%,100%,100%);fill-opacity:1;" d="M 179.136719 197.316406 C 179.324219 197.394531 179.464844 197.550781 179.523438 197.742188 C 180.875 201.191406 182.261719 204.640625 183.675781 208.085938 C 183.675781 208.175781 183.734375 208.277344 183.804688 208.480469 L 181.351562 205.882812 L 180.648438 206.898438 L 178.316406 210.308594 C 178.203125 210.480469 178.082031 210.519531 177.839844 210.410156 C 176.617188 209.875 175.449219 209.230469 174.347656 208.480469 C 172.773438 207.316406 171.574219 205.722656 170.886719 203.890625 C 170.394531 202.9375 170.394531 201.804688 170.886719 200.847656 C 171.605469 199.609375 172.285156 198.351562 172.988281 197.101562 C 172.988281 197.03125 173.058594 196.949219 173.109375 196.859375 L 170.632812 193.601562 L 170.894531 193.691406 L 179.085938 197.335938 Z M 179.136719 197.316406 "/>
<path style=" stroke:none;fill-rule:nonzero;fill:rgb(100%,100%,100%);fill-opacity:1;" d="M 182.953125 185.664062 L 183.257812 185.816406 C 184.59375 186.671875 185.691406 187.847656 186.457031 189.234375 C 187.4375 190.78125 188.242188 192.433594 188.859375 194.160156 C 188.914062 194.289062 188.914062 194.433594 188.859375 194.5625 C 187.507812 196.492188 186.179688 198.417969 184.882812 200.339844 L 184.789062 200.410156 L 176.671875 191.347656 C 176.722656 191.257812 176.78125 191.171875 176.84375 191.09375 C 178.101562 189.398438 179.359375 187.683594 180.648438 186.019531 C 181.210938 185.324219 182.207031 185.171875 182.953125 185.664062 Z M 182.953125 185.664062 "/>
<path style=" stroke:none;fill-rule:nonzero;fill:rgb(100%,100%,100%);fill-opacity:1;" d="M 194.371094 190.414062 C 196.171875 191.308594 197.558594 192.859375 198.25 194.746094 C 198.929688 196.382812 199.570312 198.027344 200.28125 199.710938 L 202.828125 199.355469 L 202.828125 199.4375 L 202.554688 199.832031 C 201.242188 201.75 199.945312 203.660156 198.65625 205.585938 C 198.535156 205.78125 198.390625 205.78125 198.148438 205.667969 C 195.550781 204.449219 192.953125 203.253906 190.351562 202.035156 L 189.988281 201.851562 L 192.300781 201.183594 L 192.089844 200.632812 C 190.953125 197.832031 189.824219 195.03125 188.667969 192.238281 C 188 190.542969 187.074219 188.960938 185.917969 187.550781 C 185.550781 187.125 185.144531 186.738281 184.75 186.351562 C 184.648438 186.242188 184.527344 186.148438 184.414062 186.046875 L 184.414062 185.957031 L 187.460938 187.328125 L 188.960938 188.007812 C 190.75 188.808594 192.566406 189.589844 194.371094 190.414062 Z M 194.371094 190.414062 "/>
<path style=" stroke:none;fill-rule:nonzero;fill:rgb(100%,100%,100%);fill-opacity:1;" d="M 194.351562 215.390625 C 194.421875 216.550781 194.484375 217.59375 194.554688 218.660156 L 194.859375 218.824219 C 197.175781 219.835938 199.5 220.945312 201.8125 221.960938 C 203 222.570312 204.34375 222.808594 205.667969 222.640625 C 206.125 222.523438 206.574219 222.375 207.007812 222.203125 L 206.9375 222.375 C 205.425781 225.003906 203.894531 227.652344 202.390625 230.261719 C 201.609375 231.601562 200.308594 231.824219 198.625 231.105469 L 197.449219 230.578125 L 195.09375 229.492188 L 194.675781 229.296875 C 194.675781 230.414062 194.675781 231.5 194.617188 232.699219 C 194.515625 232.464844 194.453125 232.34375 194.402344 232.222656 L 190.445312 222.457031 C 190.351562 222.234375 190.292969 222.050781 190.445312 221.886719 L 194.28125 215.554688 Z M 194.351562 215.390625 "/>
<path style=" stroke:none;fill-rule:nonzero;fill:rgb(100%,100%,100%);fill-opacity:1;" d="M 204.015625 208.511719 L 205.375 212.0625 C 206.085938 213.921875 206.804688 215.789062 207.507812 217.644531 C 208.015625 218.691406 207.960938 219.925781 207.363281 220.921875 C 206.816406 221.621094 205.941406 221.984375 205.058594 221.878906 C 203.652344 221.828125 202.269531 221.480469 201 220.863281 L 200.339844 220.546875 C 200.183594 220.453125 200.058594 220.316406 199.976562 220.152344 C 198.703125 217 197.433594 213.84375 196.167969 210.683594 C 196.167969 210.613281 196.167969 210.539062 196.085938 210.4375 Z M 204.015625 208.511719 "/>
<use xlink:href="#surface11" mask="url(#mask2)"/>
<path style=" stroke:none;fill-rule:nonzero;fill:rgb(90.196078%,94.509804%,100%);fill-opacity:1;" d="M 113.324219 86.8125 C 111.511719 85.761719 109.789062 84.558594 108.179688 83.21875 C 106.433594 86.164062 107.710938 91.339844 108.179688 94.820312 C 108.472656 94.605469 109.945312 95.1875 110.28125 95.085938 C 110.613281 94.984375 111.113281 94.789062 111.519531 94.636719 C 111.925781 94.484375 112.632812 94.242188 113.183594 94.007812 C 114.40625 93.476562 115.558594 92.792969 116.613281 91.976562 C 116.753906 91.886719 116.867188 91.761719 116.9375 91.613281 C 116.988281 91.433594 116.988281 91.242188 116.9375 91.066406 C 116.78125 90.160156 116.71875 89.242188 116.746094 88.324219 C 116.765625 88.121094 116.742188 87.917969 116.675781 87.726562 C 116.472656 87.269531 115.527344 87.421875 115.109375 87.320312 C 114.503906 87.199219 113.90625 87.03125 113.324219 86.8125 Z M 113.324219 86.8125 "/>
<path style=" stroke:none;fill-rule:nonzero;fill:rgb(100%,41.568627%,14.901961%);fill-opacity:1;" d="M 106.949219 56.085938 C 107.804688 58.066406 108.230469 60.199219 109.457031 61.996094 C 111.792969 65.375 116.246094 71.222656 113.800781 75.566406 C 112.785156 77.363281 110.828125 77.675781 108.96875 77.972656 L 102.109375 61.882812 "/>
<path style=" stroke:none;fill-rule:nonzero;fill:rgb(92.941176%,77.647059%,14.117647%);fill-opacity:1;" d="M 104.648438 136.761719 L 104.769531 136.546875 C 109.164062 126.753906 109.710938 115.230469 109.578125 104.59375 C 108.5625 104.796875 103.082031 101.277344 102.6875 102.3125 C 102.199219 103.578125 100.851562 106.421875 99.734375 107.140625 C 98.617188 107.863281 104.402344 116.277344 103.671875 117.363281 C 102.75 118.785156 102.332031 120.9375 101.765625 122.550781 C 101.257812 123.972656 100.75 125.402344 100.25 126.824219 C 99.460938 129.054688 98.65625 131.300781 97.867188 133.53125 C 97.074219 135.765625 95.632812 140.324219 97.511719 142.363281 C 98.035156 142.910156 98.722656 143.273438 99.46875 143.398438 C 99.859375 143.496094 100.269531 143.4375 100.617188 143.234375 C 100.851562 143.042969 101.046875 142.804688 101.183594 142.535156 Z M 104.648438 136.761719 "/>
<path style=" stroke:none;fill-rule:nonzero;fill:rgb(30.196078%,30.196078%,30.196078%);fill-opacity:1;" d="M 101.945312 185.136719 C 103.027344 184.996094 104.050781 184.589844 104.929688 183.949219 C 107.042969 182.304688 106.484375 180.242188 105.214844 178.515625 C 104.25 178.0625 103.339844 177.5 102.503906 176.832031 C 98.089844 173.308594 95.117188 166.265625 95.117188 166.265625 L 87.238281 164.652344 L 85.980469 176.832031 L 89.269531 178.039062 L 89.988281 174.316406 L 91.632812 179.765625 C 91.632812 179.765625 98.332031 183.835938 101.945312 185.136719 Z M 101.945312 185.136719 "/>
<path style=" stroke:none;fill-rule:nonzero;fill:rgb(30.196078%,30.196078%,30.196078%);fill-opacity:1;" d="M 114.757812 207.019531 C 115.8125 206.886719 116.816406 206.488281 117.679688 205.859375 C 119.710938 204.246094 119.191406 202.238281 117.964844 200.542969 C 117.015625 200.101562 116.121094 199.550781 115.304688 198.898438 C 110.980469 195.449219 108.066406 188.554688 108.066406 188.554688 L 100.363281 186.972656 L 99.125 198.898438 L 102.34375 200.085938 L 103.042969 196.441406 L 104.648438 201.71875 C 107.886719 203.71875 111.265625 205.492188 114.757812 207.019531 Z M 114.757812 207.019531 "/>
<path style=" stroke:none;fill-rule:nonzero;fill:rgb(92.941176%,77.647059%,14.117647%);fill-opacity:1;" d="M 99.074219 152.632812 C 98.929688 151.683594 98.679688 150.75 98.324219 149.851562 C 96.710938 145.253906 95.277344 140.578125 94.121094 135.855469 L 94.121094 135.957031 C 89.503906 145.09375 87.941406 155.160156 86.457031 165.191406 C 88.28125 166.089844 90.167969 166.851562 92.101562 167.472656 C 93.390625 167.917969 94.699219 168.296875 96.027344 168.601562 C 96.210938 168.082031 96.394531 167.585938 96.546875 167.046875 C 97.125 165.210938 97.5625 163.3125 97.9375 161.425781 C 98.3125 159.535156 98.71875 157.546875 98.953125 155.578125 C 99.117188 154.605469 99.15625 153.617188 99.074219 152.632812 Z M 99.074219 152.632812 "/>
<path style=" stroke:none;fill-rule:nonzero;fill:rgb(100%,85.098039%,23.137255%);fill-opacity:1;" d="M 106.910156 107.832031 C 106.351562 108.949219 103.570312 105.386719 102.332031 105.539062 C 98.179688 106.035156 95.421875 107.335938 92.007812 104.839844 C 91.351562 104.359375 89.683594 104.058594 89.199219 103.4375 C 84.730469 115.558594 85.839844 134.902344 91.777344 146.066406 C 92.914062 148.234375 93.777344 150.535156 94.34375 152.917969 C 96.222656 160.59375 95.59375 168.863281 96.851562 176.640625 C 97.59375 181.226562 98.882812 185.773438 99.714844 190.320312 C 102.6875 190.644531 106.980469 189.8125 108.167969 187.429688 C 108.128906 187.273438 108.078125 187.121094 108.015625 186.972656 C 107.582031 185.886719 107.242188 184.765625 107 183.621094 C 106.046875 179.753906 106.046875 159.507812 106.371094 154.613281 C 106.667969 150.148438 105.355469 145.734375 104.472656 141.417969 C 103.226562 135.257812 102.121094 128.75 103.296875 122.5 "/>
<path style=" stroke:none;fill-rule:nonzero;fill:rgb(34.509804%,40.392157%,94.117647%);fill-opacity:1;" d="M 109.347656 95.570312 C 109.164062 93.3125 109.109375 91.046875 109.183594 88.78125 C 109.40625 83.847656 109.882812 78.914062 110.015625 73.980469 C 110.148438 72.625 110.0625 71.253906 109.761719 69.921875 C 109.050781 67.585938 106.949219 67.070312 105.144531 65.863281 C 103.996094 65.058594 103.316406 65.160156 101.925781 65.375 C 100.386719 65.621094 98.867188 65.960938 97.367188 66.390625 C 94.398438 67.183594 91.527344 68.320312 88.8125 69.769531 C 87.523438 70.425781 86.355469 71.292969 85.351562 72.339844 C 84.46875 73.285156 83.910156 74.484375 83.746094 75.769531 C 83.917969 76.070312 84.058594 76.390625 84.164062 76.722656 C 86.78125 84.902344 92.140625 97.335938 88 106.054688 C 88.222656 106.289062 88.445312 106.523438 88.679688 106.746094 C 89.972656 107.90625 91.484375 108.792969 93.125 109.355469 C 93.472656 109.488281 93.828125 109.597656 94.140625 109.699219 C 96.148438 110.238281 98.222656 110.484375 100.300781 110.429688 C 102.488281 110.5625 104.667969 110.027344 106.542969 108.898438 C 107.15625 108.453125 107.71875 107.941406 108.21875 107.375 L 108.554688 106.988281 C 108.917969 106.570312 109.222656 106.101562 109.457031 105.597656 C 109.746094 104.660156 109.824219 103.667969 109.691406 102.695312 C 109.703125 100.363281 109.507812 97.964844 109.347656 95.570312 Z M 109.347656 95.570312 "/>
<path style=" stroke:none;fill-rule:nonzero;fill:rgb(100%,87.45098%,80%);fill-opacity:1;" d="M 93.550781 68.21875 L 93.550781 68.410156 C 93.65625 69.394531 94.003906 70.335938 94.566406 71.152344 C 95.066406 71.761719 95.703125 72.246094 96.425781 72.5625 C 96.824219 72.757812 97.242188 72.917969 97.671875 73.039062 C 97.90625 73.109375 98.152344 73.171875 98.394531 73.222656 C 98.726562 73.296875 99.066406 73.347656 99.410156 73.375 C 99.683594 73.34375 99.957031 73.386719 100.210938 73.496094 C 100.425781 73.628906 100.617188 73.800781 100.769531 74.003906 L 100.871094 74.132812 C 101.675781 75.097656 102.414062 76.117188 103.082031 77.179688 C 103.414062 77.707031 103.734375 78.246094 104.039062 78.792969 C 104.179688 79.078125 104.332031 79.339844 104.472656 79.625 C 104.546875 79.757812 104.609375 79.890625 104.667969 80.03125 C 104.667969 80.101562 104.738281 80.195312 104.777344 80.273438 C 104.816406 80.339844 104.84375 80.40625 104.859375 80.476562 C 104.859375 80.296875 104.859375 80.101562 104.859375 79.910156 C 104.859375 79.71875 104.859375 79.6875 104.859375 79.566406 C 104.878906 79.265625 104.917969 78.96875 104.972656 78.671875 C 105.050781 78.042969 105.125 77.402344 105.175781 76.753906 C 105.308594 75.371094 105.308594 73.980469 105.175781 72.601562 C 105 71.121094 104.710938 69.660156 104.300781 68.226562 C 104.105469 67.5625 103.953125 66.882812 103.84375 66.195312 C 103.785156 65.71875 103.84375 65.058594 103.46875 64.757812 C 103.09375 64.453125 102.121094 51.5625 101.4375 56.636719 C 101.207031 58.28125 99.316406 62.65625 98 61.621094 C 97.050781 60.847656 96.183594 59.980469 95.410156 59.03125 C 95.097656 60.179688 94.914062 61.355469 94.863281 62.542969 C 94.886719 63.574219 94.585938 64.585938 94 65.4375 C 93.480469 66.265625 93.320312 67.269531 93.550781 68.21875 Z M 93.550781 68.21875 "/>
<path style=" stroke:none;fill-rule:nonzero;fill:rgb(100%,81.176471%,70.196078%);fill-opacity:1;" d="M 106.128906 49.640625 C 106.535156 50.730469 108.644531 62.53125 103.945312 63.445312 C 99.246094 64.359375 94.496094 59.863281 94.496094 59.863281 C 92.832031 57.632812 93.152344 54.5 95.238281 52.65625 C 98.832031 49.035156 106.128906 49.640625 106.128906 49.640625 Z M 106.128906 49.640625 "/>
<path style=" stroke:none;fill-rule:nonzero;fill:rgb(100%,74.901961%,60%);fill-opacity:1;" d="M 113.953125 87.816406 C 114.402344 87.308594 114.953125 86.90625 115.566406 86.628906 C 115.941406 86.441406 116.3125 86.257812 116.683594 86.082031 C 117.132812 85.863281 117.601562 85.6875 118.085938 85.554688 C 118.585938 85.375 119.144531 85.433594 119.597656 85.714844 C 119.929688 86.015625 120.128906 86.4375 120.144531 86.882812 C 120.171875 87.328125 120.171875 87.777344 120.144531 88.222656 C 120.183594 89.230469 120.367188 90.230469 120.695312 91.1875 C 120.832031 91.710938 120.804688 92.261719 120.621094 92.769531 C 120.417969 93.175781 120.074219 93.492188 119.660156 93.671875 C 119.46875 93.761719 119.273438 93.828125 119.070312 93.875 C 118.84375 93.929688 118.613281 93.96875 118.378906 94 C 117.105469 94.21875 115.792969 94.046875 114.613281 93.511719 C 113.855469 93.070312 113.464844 92.1875 113.648438 91.328125 C 113.660156 91.257812 113.660156 91.1875 113.648438 91.117188 C 113.625 91.046875 113.59375 90.980469 113.546875 90.921875 C 113.027344 89.902344 113.191406 88.667969 113.953125 87.816406 Z M 113.953125 87.816406 "/>
<path style=" stroke:none;fill-rule:nonzero;fill:rgb(70.196078%,83.529412%,100%);fill-opacity:1;" d="M 108.949219 72.539062 C 108.890625 72.734375 108.714844 72.742188 108.523438 72.855469 C 108.035156 73.160156 107.625 73.582031 107.335938 74.082031 C 106.8125 75.054688 106.382812 76.074219 106.058594 77.128906 C 105.855469 77.691406 105.640625 78.253906 105.417969 78.8125 L 105.09375 79.625 C 105.03125 79.769531 104.746094 80.246094 104.789062 80.386719 C 104.703125 79.992188 104.664062 79.585938 104.675781 79.179688 C 104.671875 77.636719 104.757812 76.09375 104.941406 74.5625 C 104.996094 73.808594 105.171875 73.070312 105.46875 72.378906 C 105.9375 71.363281 106.839844 70.652344 107.03125 69.578125 C 107.042969 69.222656 107.128906 68.878906 107.285156 68.5625 C 107.3125 68.511719 107.359375 68.472656 107.417969 68.460938 C 107.476562 68.464844 107.53125 68.496094 107.570312 68.542969 C 108.394531 69.347656 108.886719 70.433594 108.949219 71.585938 C 108.96875 71.855469 108.96875 72.128906 108.949219 72.398438 C 108.957031 72.445312 108.957031 72.492188 108.949219 72.539062 Z M 108.949219 72.539062 "/>
<path style=" stroke:none;fill-rule:nonzero;fill:rgb(70.196078%,83.529412%,100%);fill-opacity:1;" d="M 102.414062 77.269531 C 101.683594 76.710938 100.75 76.484375 99.84375 76.640625 C 99.054688 76.78125 98.339844 77.191406 97.816406 77.796875 C 97.074219 77.164062 96.367188 76.488281 95.703125 75.769531 C 93.582031 73.410156 92.601562 70.234375 93.023438 67.089844 C 93.023438 67.222656 93.257812 67.566406 93.320312 67.667969 C 93.4375 67.863281 93.570312 68.050781 93.714844 68.226562 C 94.003906 68.578125 94.347656 68.882812 94.730469 69.128906 C 95.105469 69.375 95.390625 69.6875 95.746094 69.972656 C 96.175781 70.3125 96.621094 70.625 97.085938 70.917969 C 98.785156 71.828125 100.394531 72.898438 101.894531 74.113281 C 103.671875 75.699219 104.722656 77.9375 104.808594 80.316406 C 104.808594 80.367188 104.808594 80.417969 104.808594 80.476562 C 104.25 79.25 103.433594 78.15625 102.414062 77.269531 Z M 102.414062 77.269531 "/>
<path style=" stroke:none;fill-rule:nonzero;fill:rgb(100%,81.176471%,70.196078%);fill-opacity:1;" d="M 93.550781 68.21875 L 93.550781 68.410156 C 93.855469 68.925781 94.195312 69.421875 94.566406 69.890625 C 95.5 71.042969 96.542969 72.097656 97.683594 73.039062 C 97.917969 73.109375 98.160156 73.171875 98.402344 73.222656 C 98.738281 73.296875 99.078125 73.347656 99.417969 73.375 C 99.691406 73.34375 99.96875 73.386719 100.222656 73.496094 C 100.4375 73.628906 100.625 73.800781 100.78125 74.003906 L 100.878906 74.132812 C 101.683594 75.097656 102.425781 76.117188 103.09375 77.179688 C 103.425781 77.707031 103.742188 78.246094 104.046875 78.792969 C 104.191406 79.078125 104.34375 79.339844 104.484375 79.625 C 104.554688 79.757812 104.621094 79.890625 104.675781 80.03125 C 104.675781 80.101562 104.746094 80.195312 104.789062 80.273438 C 104.824219 80.339844 104.855469 80.40625 104.871094 80.476562 C 104.871094 80.296875 104.871094 80.101562 104.871094 79.910156 C 104.625 77.957031 104.03125 76.0625 103.113281 74.316406 C 101.886719 71.902344 100.324219 69.710938 99.054688 67.324219 C 98.460938 66.332031 98.109375 65.210938 98.039062 64.054688 C 98.085938 63.246094 98.085938 62.429688 98.039062 61.621094 C 97.078125 60.847656 96.195312 59.980469 95.410156 59.03125 C 95.097656 60.179688 94.914062 61.355469 94.863281 62.542969 C 94.886719 63.574219 94.585938 64.585938 94 65.4375 C 93.480469 66.265625 93.320312 67.269531 93.550781 68.21875 Z M 93.550781 68.21875 "/>
<path style=" stroke:none;fill-rule:nonzero;fill:rgb(90.196078%,94.509804%,100%);fill-opacity:1;" d="M 106.910156 72.246094 C 107.382812 71.699219 108.144531 71.507812 108.816406 71.769531 C 108.648438 70.285156 108.164062 68.851562 107.398438 67.566406 C 107.125 67.09375 106.78125 66.667969 106.382812 66.296875 C 105.476562 65.617188 104.523438 65.003906 103.53125 64.460938 C 103.414062 64.375 103.277344 64.3125 103.132812 64.289062 C 103.585938 65.34375 103.871094 66.464844 103.988281 67.609375 C 104.109375 68.765625 104.21875 69.921875 104.3125 71.078125 C 104.386719 72 104.449219 72.917969 104.503906 73.839844 C 104.503906 74.640625 104.503906 75.445312 104.566406 76.234375 C 104.652344 77.683594 104.789062 79.125 104.972656 80.558594 C 104.96875 79.640625 105.097656 78.722656 105.347656 77.839844 C 105.496094 76.707031 105.703125 75.582031 105.964844 74.46875 C 106.097656 73.703125 106.40625 72.980469 106.871094 72.359375 Z M 106.910156 72.246094 "/>
<path style=" stroke:none;fill-rule:nonzero;fill:rgb(90.196078%,94.509804%,100%);fill-opacity:1;" d="M 99.398438 75.199219 C 98.917969 75.660156 98.460938 76.140625 98.027344 76.640625 C 96.820312 75.109375 95.601562 73.597656 94.476562 71.992188 C 93.5 70.765625 92.808594 69.335938 92.445312 67.8125 C 92.292969 66.886719 92.390625 65.9375 92.730469 65.058594 C 92.902344 64.617188 93.121094 64.191406 93.378906 63.792969 C 93.585938 63.40625 93.859375 63.0625 94.191406 62.777344 C 94.386719 62.636719 94.628906 62.585938 94.863281 62.632812 C 94.800781 63.140625 94.730469 63.648438 94.648438 64.15625 C 94.542969 64.550781 94.503906 64.957031 94.527344 65.363281 C 94.671875 66.140625 95.019531 66.863281 95.542969 67.457031 C 97.054688 69.324219 98.769531 70.988281 100.351562 72.792969 C 101.34375 73.894531 102.238281 75.082031 103.023438 76.335938 C 103.78125 77.664062 104.410156 79.066406 104.890625 80.519531 C 104.375 79.625 103.839844 78.742188 103.285156 77.871094 C 102.855469 77.167969 102.355469 76.511719 101.792969 75.910156 C 101.4375 75.535156 101.027344 75.210938 100.578125 74.957031 C 100.058594 74.703125 99.867188 74.753906 99.398438 75.199219 Z M 99.398438 75.199219 "/>
<path style=" stroke:none;fill-rule:nonzero;fill:rgb(100%,87.45098%,80%);fill-opacity:1;" d="M 77.679688 122.875 C 77.675781 123.945312 77.882812 125.007812 78.285156 126 C 78.433594 126.648438 78.761719 127.238281 79.230469 127.707031 C 79.347656 127.796875 79.460938 127.890625 79.566406 127.992188 C 79.699219 128.152344 79.808594 128.335938 79.890625 128.527344 C 80.125 129 80.414062 129.445312 80.753906 129.847656 C 81.15625 130.453125 81.851562 130.800781 82.582031 130.75 L 82.640625 130.75 C 82.683594 130.742188 82.722656 130.71875 82.753906 130.691406 C 82.789062 130.644531 82.816406 130.59375 82.835938 130.539062 C 82.882812 130.21875 82.792969 129.894531 82.589844 129.644531 C 82.386719 129.402344 82.214844 129.136719 82.074219 128.851562 C 81.953125 128.488281 81.925781 128.097656 81.992188 127.714844 C 81.992188 127.269531 82.09375 126.824219 82.164062 126.375 C 82.210938 126.121094 82.273438 125.871094 82.347656 125.625 C 82.40625 125.484375 82.480469 125.339844 82.550781 125.21875 C 82.621094 125.097656 82.691406 124.984375 82.8125 125.027344 C 82.9375 125.066406 82.9375 125.289062 82.945312 125.433594 L 82.945312 125.929688 C 82.957031 126.335938 82.992188 126.742188 83.046875 127.148438 C 83.125 127.8125 83.386719 128.445312 83.796875 128.976562 C 83.847656 129.046875 83.914062 129.105469 83.992188 129.148438 C 84.175781 129.230469 84.398438 129.183594 84.527344 129.027344 C 84.664062 128.871094 84.75 128.679688 84.78125 128.476562 C 84.875 127.925781 84.875 127.363281 84.78125 126.8125 C 84.660156 125.738281 84.539062 124.660156 84.40625 123.574219 C 84.246094 122.535156 83.976562 121.515625 83.605469 120.53125 C 83.578125 120.441406 83.542969 120.351562 83.503906 120.265625 C 83.277344 119.785156 83.070312 119.289062 82.894531 118.785156 C 82.773438 118.367188 82.773438 117.890625 82.652344 117.496094 C 82.652344 117.679688 82.042969 117.859375 81.929688 117.859375 C 81.472656 117.855469 81.011719 117.808594 80.5625 117.730469 C 80.011719 117.648438 79.492188 117.421875 79.058594 117.078125 C 78.691406 118.519531 78.308594 119.960938 77.941406 121.402344 C 77.808594 121.882812 77.722656 122.378906 77.679688 122.875 Z M 77.679688 122.875 "/>
<path style=" stroke:none;fill-rule:nonzero;fill:rgb(100%,81.176471%,70.196078%);fill-opacity:1;" d="M 77.679688 122.875 C 77.675781 123.945312 77.882812 125.007812 78.285156 126 C 78.433594 126.648438 78.761719 127.238281 79.230469 127.707031 C 79.347656 127.796875 79.460938 127.890625 79.566406 127.992188 C 79.699219 128.152344 79.808594 128.335938 79.890625 128.527344 C 80.125 129 80.414062 129.445312 80.753906 129.847656 C 81.15625 130.453125 81.851562 130.800781 82.582031 130.75 L 82.640625 130.75 C 82.035156 130.277344 81.5 129.71875 81.046875 129.097656 C 80.742188 128.609375 80.476562 128.097656 80.257812 127.5625 C 79.902344 126.808594 79.609375 126.023438 79.382812 125.21875 C 79.105469 124.109375 79.082031 122.949219 79.3125 121.828125 C 79.324219 121.695312 79.375 121.5625 79.453125 121.453125 C 79.625 121.261719 79.921875 121.292969 80.175781 121.3125 C 81.382812 121.460938 82.601562 121.089844 83.523438 120.296875 C 83.296875 119.8125 83.09375 119.320312 82.914062 118.816406 C 82.792969 118.398438 82.792969 117.921875 82.671875 117.527344 C 82.671875 117.707031 82.0625 117.890625 81.949219 117.890625 C 81.492188 117.882812 81.035156 117.839844 80.582031 117.757812 C 80.03125 117.675781 79.515625 117.453125 79.078125 117.109375 C 78.714844 118.550781 78.328125 119.992188 77.960938 121.433594 C 77.824219 121.90625 77.730469 122.386719 77.679688 122.875 Z M 77.679688 122.875 "/>
<path style=" stroke:none;fill-rule:nonzero;fill:rgb(34.509804%,40.392157%,94.117647%);fill-opacity:1;" d="M 86.273438 100.644531 C 87.503906 94.589844 89.113281 88.617188 91.097656 82.761719 C 91.960938 80.222656 93.257812 77.6875 91.625 75.179688 C 90.792969 73.765625 89.53125 72.65625 88.019531 72.011719 C 83.871094 70.734375 82.660156 78.03125 81.859375 80.671875 C 80.382812 85.625 79.308594 90.6875 78.652344 95.816406 C 78.429688 97.703125 78.195312 99.609375 78.125 101.519531 C 78.054688 103.425781 77.972656 105.578125 78.054688 107.609375 C 78.125 109.375 78.488281 116.195312 78.488281 117.839844 C 78.492188 118.054688 78.527344 118.269531 78.601562 118.46875 C 78.636719 118.546875 78.683594 118.613281 78.742188 118.671875 C 78.824219 118.78125 78.925781 118.878906 79.039062 118.957031 C 79.5625 119.402344 80.179688 119.726562 80.84375 119.902344 C 81.527344 120.09375 82.257812 120.003906 82.875 119.65625 C 83 119.59375 83.105469 119.503906 83.1875 119.394531 C 83.421875 119.078125 83.351562 118.539062 83.441406 118.15625 C 83.566406 117.578125 83.625 116.945312 83.71875 116.359375 C 83.898438 115.140625 84.074219 113.941406 84.246094 112.726562 C 84.761719 108.675781 85.433594 104.636719 86.273438 100.644531 Z M 86.273438 100.644531 "/>
<path style=" stroke:none;fill-rule:nonzero;fill:rgb(100%,41.568627%,14.901961%);fill-opacity:1;" d="M 95.003906 44.921875 C 91.566406 46.675781 88.863281 49.59375 87.371094 53.15625 C 86.273438 56.246094 85.449219 59.429688 84.90625 62.664062 C 83.808594 68.003906 83.167969 70.328125 83.746094 75.789062 C 84.253906 80.621094 87.941406 83.65625 91.542969 83.644531 C 92.96875 83.699219 94.398438 83.578125 95.796875 83.28125 C 98.554688 82.570312 100.222656 80.183594 101.277344 77.675781 C 101.78125 76.667969 102 75.542969 101.90625 74.417969 C 101.707031 73.378906 101.164062 72.433594 100.363281 71.738281 C 98.027344 69.566406 95.339844 68.695312 95.136719 65.058594 C 95.085938 62.25 95.699219 59.46875 96.933594 56.941406 C 97.949219 54.464844 100.265625 52.773438 102.929688 52.554688 C 106.738281 52.191406 109.183594 47.480469 105.457031 45.105469 C 102.265625 43.148438 98.261719 43.078125 95.003906 44.921875 Z M 95.003906 44.921875 "/>
<path style=" stroke:none;fill-rule:nonzero;fill:rgb(100%,81.176471%,70.196078%);fill-opacity:1;" d="M 97.816406 57.589844 C 97.730469 56.519531 97.316406 55.503906 96.628906 54.675781 C 96.367188 54.386719 95.988281 54.238281 95.601562 54.273438 C 95.214844 54.308594 94.863281 54.519531 94.660156 54.847656 C 93.644531 56.667969 95.257812 58.636719 97.035156 58.910156 C 97.246094 58.941406 97.457031 58.847656 97.570312 58.664062 C 97.683594 58.484375 97.679688 58.253906 97.5625 58.078125 C 97.730469 57.972656 97.828125 57.785156 97.816406 57.589844 Z M 97.816406 57.589844 "/>
<path style=" stroke:none;fill-rule:nonzero;fill:rgb(30.196078%,30.196078%,30.196078%);fill-opacity:1;" d="M 108.210938 99.46875 C 108.582031 98.015625 109.113281 96.605469 109.792969 95.265625 C 110.636719 93.621094 113.367188 91.695312 112.917969 89.726562 C 112.378906 87.300781 112.695312 85.148438 111.445312 83.636719 C 110.199219 82.121094 108.777344 79.574219 110.066406 79.015625 C 111.355469 78.457031 111.082031 81.605469 112.148438 81.160156 C 113.214844 80.710938 113.164062 77.960938 113.164062 77.960938 C 113.164062 77.960938 114.53125 75.75 115.070312 77.960938 C 115.371094 79.09375 115.554688 80.253906 115.609375 81.421875 C 115.609375 81.421875 117.496094 76.011719 118.734375 77.960938 C 119.4375 79.195312 119.445312 80.707031 118.753906 81.949219 C 118.753906 81.949219 120.785156 78.824219 121.089844 81.058594 C 121.394531 83.289062 120.074219 88.210938 120.074219 88.210938 C 120.074219 88.210938 117.40625 91.480469 121.484375 94.070312 C 128.398438 98.453125 131.839844 105.984375 129.847656 114.238281 C 127.859375 122.488281 116.980469 125.015625 110.5625 119.828125 C 105.488281 115.769531 106.71875 107.730469 107.578125 102.109375 C 107.746094 101.21875 107.953125 100.335938 108.210938 99.46875 Z M 108.210938 99.46875 "/>
<path style=" stroke:none;fill-rule:nonzero;fill:rgb(100%,81.176471%,70.196078%);fill-opacity:1;" d="M 120.9375 86.082031 C 120.734375 86.433594 120.523438 86.769531 120.308594 87.097656 C 120.691406 87.265625 120.972656 87.609375 121.058594 88.019531 C 121.144531 88.433594 121.03125 88.867188 120.753906 89.1875 C 120.714844 89.21875 120.6875 89.265625 120.683594 89.320312 C 120.683594 89.371094 120.734375 89.410156 120.773438 89.449219 C 120.957031 89.652344 121.035156 89.925781 120.976562 90.191406 C 120.921875 90.453125 120.828125 90.707031 120.703125 90.941406 C 120.695312 90.984375 120.695312 91.023438 120.703125 91.066406 C 120.707031 91.136719 120.726562 91.207031 120.765625 91.269531 C 120.929688 91.617188 120.964844 92.011719 120.855469 92.382812 C 120.75 92.75 120.492188 93.054688 120.144531 93.214844 C 119.863281 93.320312 119.5625 93.367188 119.261719 93.359375 L 117.820312 93.359375 C 117.535156 93.394531 117.242188 93.347656 116.980469 93.226562 C 116.902344 93.1875 116.84375 93.128906 116.804688 93.054688 C 116.789062 92.984375 116.789062 92.910156 116.804688 92.839844 C 116.828125 92.539062 116.945312 92.25 117.140625 92.019531 C 116.859375 92.070312 116.585938 91.898438 116.511719 91.621094 C 116.445312 91.347656 116.496094 91.058594 116.652344 90.820312 C 116.816406 90.597656 117.011719 90.398438 117.234375 90.230469 C 117.023438 90.125 116.910156 89.894531 116.957031 89.664062 C 117.085938 89.140625 117.464844 88.71875 117.972656 88.539062 C 118.457031 88.367188 118.910156 88.109375 119.304688 87.777344 C 118.988281 87.664062 118.625 87.503906 118.5625 87.167969 C 118.546875 87.011719 118.570312 86.855469 118.632812 86.710938 C 118.824219 86.035156 119.222656 85.4375 119.769531 84.996094 C 120.074219 84.871094 120.417969 84.871094 120.722656 84.996094 C 121.210938 85.25 121.171875 85.675781 120.9375 86.082031 Z M 120.9375 86.082031 "/>
<path style=" stroke:none;fill-rule:nonzero;fill:rgb(100%,81.176471%,70.196078%);fill-opacity:1;" d="M 113.679688 88.964844 C 113.542969 89.082031 113.394531 89.183594 113.234375 89.269531 C 113.066406 89.359375 112.957031 89.527344 112.9375 89.714844 C 112.945312 89.757812 112.945312 89.804688 112.9375 89.847656 C 112.929688 89.894531 112.882812 89.925781 112.835938 89.917969 L 112.777344 89.917969 C 112.648438 89.777344 112.550781 89.617188 112.480469 89.441406 C 112.261719 88.925781 112.160156 88.367188 112.179688 87.804688 C 112.160156 87.617188 112.25 87.433594 112.410156 87.328125 C 112.785156 87.140625 113.210938 87.09375 113.617188 87.1875 C 114.003906 87.25 114.371094 87.421875 114.257812 87.886719 C 114.179688 88.296875 113.980469 88.671875 113.679688 88.964844 Z M 113.679688 88.964844 "/>
</g>
</svg>
