<?xml version="1.0" encoding="UTF-8"?>
<svg xmlns="http://www.w3.org/2000/svg" xmlns:xlink="http://www.w3.org/1999/xlink" width="919pt" height="693pt" viewBox="0 0 919 693" version="1.1">
<defs>
<filter id="alpha" filterUnits="objectBoundingBox" x="0%" y="0%" width="100%" height="100%">
  <feColorMatrix type="matrix" in="SourceGraphic" values="0 0 0 0 1 0 0 0 0 1 0 0 0 0 1 0 0 0 1 0"/>
</filter>
<mask id="mask0">
  <g filter="url(#alpha)">
<rect x="0" y="0" width="919" height="693" style="fill:rgb(0%,0%,0%);fill-opacity:0.180392;stroke:none;"/>
  </g>
</mask>
<clipPath id="clip1">
  <rect x="0" y="0" width="919" height="693"/>
</clipPath>
<g id="surface5" clip-path="url(#clip1)">
<path style=" stroke:none;fill-rule:nonzero;fill:rgb(34.509804%,40.392157%,94.117647%);fill-opacity:1;" d="M 849.175781 466.347656 C 843.28125 489.59375 833.054688 512.796875 824.097656 533.488281 C 790.058594 611.621094 732.625 665.050781 642.695312 654.128906 C 599.355469 648.855469 556.9375 634.292969 513.296875 635.699219 C 471.542969 636.988281 431.796875 652.722656 392.140625 665.835938 C 318.445312 690.234375 236.855469 705.855469 163.96875 678.992188 C 91.082031 652.125 34.40625 569.476562 60.335938 496.207031 C 80.511719 439.019531 143.585938 400.65625 150.152344 340.382812 C 158.785156 262.042969 66.117188 194.464844 85.667969 118.015625 C 93.984375 85.828125 120.742188 61.863281 149.089844 44.585938 C 214.21875 4.746094 294.289062 -8.410156 369.109375 5.136719 C 440.269531 17.925781 499.476562 77.878906 571.191406 80.644531 C 617.433594 82.394531 661.925781 56.105469 707.984375 60.4375 C 764.957031 65.941406 806.730469 116.425781 833.375 167.136719 C 841.953125 182.96875 849.128906 199.523438 854.816406 216.605469 C 865.886719 251.421875 868.136719 288.445312 861.355469 324.347656 C 854.449219 361.210938 855.277344 395.773438 854.21875 433.582031 C 853.753906 444.65625 852.0625 455.644531 849.175781 466.347656 Z M 849.175781 466.347656 "/>
</g>
<linearGradient id="linear0" gradientUnits="userSpaceOnUse" x1="183.83" y1="264.73" x2="185.9" y2="304.52" gradientTransform="matrix(2.302907,0,0,2.304086,-26.643655,-54.491638)">
<stop offset="0.01" style="stop-color:rgb(0%,0%,0%);stop-opacity:1;"/>
<stop offset="0.08" style="stop-color:rgb(0%,0%,0%);stop-opacity:0.690196;"/>
<stop offset="0.21" style="stop-color:rgb(0%,0%,0%);stop-opacity:0.321569;"/>
<stop offset="1" style="stop-color:rgb(0%,0%,0%);stop-opacity:0;"/>
</linearGradient>
<linearGradient id="linear1" gradientUnits="userSpaceOnUse" x1="198.79" y1="115.83" x2="207.47" y2="258.13" gradientTransform="matrix(2.302907,0,0,2.304086,-26.643655,-54.491638)">
<stop offset="0.01" style="stop-color:rgb(0%,0%,0%);stop-opacity:1;"/>
<stop offset="0.08" style="stop-color:rgb(0%,0%,0%);stop-opacity:0.690196;"/>
<stop offset="0.21" style="stop-color:rgb(0%,0%,0%);stop-opacity:0.321569;"/>
<stop offset="1" style="stop-color:rgb(0%,0%,0%);stop-opacity:0;"/>
</linearGradient>
<linearGradient id="linear2" gradientUnits="userSpaceOnUse" x1="2316.74" y1="-609.73" x2="2301.18" y2="-592.25" gradientTransform="matrix(-1.888384,1.33637,1.335686,1.889351,5438.315716,-1782.740599)">
<stop offset="0.01" style="stop-color:rgb(0%,0%,0%);stop-opacity:1;"/>
<stop offset="0.08" style="stop-color:rgb(0%,0%,0%);stop-opacity:0.690196;"/>
<stop offset="0.21" style="stop-color:rgb(0%,0%,0%);stop-opacity:0.321569;"/>
<stop offset="1" style="stop-color:rgb(0%,0%,0%);stop-opacity:0;"/>
</linearGradient>
<linearGradient id="linear3" gradientUnits="userSpaceOnUse" x1="4330.77" y1="2142.84" x2="4507.33" y2="2228.49" gradientTransform="matrix(-1.817187,-1.415366,1.414642,-1.818118,5272.506416,10351.061077)">
<stop offset="0.01" style="stop-color:rgb(0%,0%,0%);stop-opacity:1;"/>
<stop offset="0.08" style="stop-color:rgb(0%,0%,0%);stop-opacity:0.690196;"/>
<stop offset="0.21" style="stop-color:rgb(0%,0%,0%);stop-opacity:0.321569;"/>
<stop offset="1" style="stop-color:rgb(0%,0%,0%);stop-opacity:0;"/>
</linearGradient>
<linearGradient id="linear4" gradientUnits="userSpaceOnUse" x1="151.05" y1="89.31" x2="160.05" y2="133.45" gradientTransform="matrix(2.302907,0,0,2.304086,-26.643655,-54.491638)">
<stop offset="0.01" style="stop-color:rgb(0%,0%,0%);stop-opacity:1;"/>
<stop offset="0.08" style="stop-color:rgb(0%,0%,0%);stop-opacity:0.690196;"/>
<stop offset="0.21" style="stop-color:rgb(0%,0%,0%);stop-opacity:0.321569;"/>
<stop offset="1" style="stop-color:rgb(0%,0%,0%);stop-opacity:0;"/>
</linearGradient>
<linearGradient id="linear5" gradientUnits="userSpaceOnUse" x1="2290.73" y1="-591.78" x2="2325.28" y2="-589.92" gradientTransform="matrix(-1.888384,1.33637,1.335686,1.889351,5438.315716,-1782.740599)">
<stop offset="0.01" style="stop-color:rgb(0%,0%,0%);stop-opacity:1;"/>
<stop offset="0.08" style="stop-color:rgb(0%,0%,0%);stop-opacity:0.690196;"/>
<stop offset="0.21" style="stop-color:rgb(0%,0%,0%);stop-opacity:0.321569;"/>
<stop offset="1" style="stop-color:rgb(0%,0%,0%);stop-opacity:0;"/>
</linearGradient>
<linearGradient id="linear6" gradientUnits="userSpaceOnUse" x1="169.8" y1="127.82" x2="168.29" y2="306.52" gradientTransform="matrix(2.302907,0,0,2.304086,-26.643655,-54.491638)">
<stop offset="0.01" style="stop-color:rgb(0%,0%,0%);stop-opacity:1;"/>
<stop offset="0.08" style="stop-color:rgb(0%,0%,0%);stop-opacity:0.690196;"/>
<stop offset="0.21" style="stop-color:rgb(0%,0%,0%);stop-opacity:0.321569;"/>
<stop offset="1" style="stop-color:rgb(0%,0%,0%);stop-opacity:0;"/>
</linearGradient>
<linearGradient id="linear7" gradientUnits="userSpaceOnUse" x1="163.48" y1="158.08" x2="90.67" y2="199.84" gradientTransform="matrix(2.302907,0,0,2.304086,-26.643655,-54.491638)">
<stop offset="0.01" style="stop-color:rgb(0%,0%,0%);stop-opacity:1;"/>
<stop offset="0.08" style="stop-color:rgb(0%,0%,0%);stop-opacity:0.690196;"/>
<stop offset="0.21" style="stop-color:rgb(0%,0%,0%);stop-opacity:0.321569;"/>
<stop offset="1" style="stop-color:rgb(0%,0%,0%);stop-opacity:0;"/>
</linearGradient>
<linearGradient id="linear8" gradientUnits="userSpaceOnUse" x1="130.94" y1="144.46" x2="3.3" y2="217.66" gradientTransform="matrix(2.302907,0,0,2.304086,53.91203,0)">
<stop offset="0.01" style="stop-color:rgb(0%,0%,0%);stop-opacity:1;"/>
<stop offset="0.08" style="stop-color:rgb(0%,0%,0%);stop-opacity:0.690196;"/>
<stop offset="0.21" style="stop-color:rgb(0%,0%,0%);stop-opacity:0.321569;"/>
<stop offset="1" style="stop-color:rgb(0%,0%,0%);stop-opacity:0;"/>
</linearGradient>
<linearGradient id="linear9" gradientUnits="userSpaceOnUse" x1="287.37" y1="96.88" x2="352.62" y2="250.07" gradientTransform="matrix(2.302907,0,0,2.304086,-26.643655,-54.491638)">
<stop offset="0.01" style="stop-color:rgb(0%,0%,0%);stop-opacity:1;"/>
<stop offset="0.08" style="stop-color:rgb(0%,0%,0%);stop-opacity:0.690196;"/>
<stop offset="0.21" style="stop-color:rgb(0%,0%,0%);stop-opacity:0.321569;"/>
<stop offset="1" style="stop-color:rgb(0%,0%,0%);stop-opacity:0;"/>
</linearGradient>
<linearGradient id="linear10" gradientUnits="userSpaceOnUse" x1="169.38" y1="134.78" x2="406.73" y2="301.18" gradientTransform="matrix(2.302907,0,0,2.304086,-26.643655,-54.491638)">
<stop offset="0.01" style="stop-color:rgb(0%,0%,0%);stop-opacity:1;"/>
<stop offset="0.08" style="stop-color:rgb(0%,0%,0%);stop-opacity:0.690196;"/>
<stop offset="0.21" style="stop-color:rgb(0%,0%,0%);stop-opacity:0.321569;"/>
<stop offset="1" style="stop-color:rgb(0%,0%,0%);stop-opacity:0;"/>
</linearGradient>
<linearGradient id="linear11" gradientUnits="userSpaceOnUse" x1="199.17" y1="253.11" x2="243.94" y2="12.38" gradientTransform="matrix(2.302907,0,0,2.304086,-26.643655,-54.491638)">
<stop offset="0.01" style="stop-color:rgb(0%,0%,0%);stop-opacity:1;"/>
<stop offset="0.08" style="stop-color:rgb(0%,0%,0%);stop-opacity:0.690196;"/>
<stop offset="0.21" style="stop-color:rgb(0%,0%,0%);stop-opacity:0.321569;"/>
<stop offset="1" style="stop-color:rgb(0%,0%,0%);stop-opacity:0;"/>
</linearGradient>
<linearGradient id="linear12" gradientUnits="userSpaceOnUse" x1="171.77" y1="88.49" x2="165.01" y2="385.82" gradientTransform="matrix(2.302907,0,0,2.304086,-26.643655,-54.491638)">
<stop offset="0.01" style="stop-color:rgb(0%,0%,0%);stop-opacity:1;"/>
<stop offset="0.08" style="stop-color:rgb(0%,0%,0%);stop-opacity:0.690196;"/>
<stop offset="0.21" style="stop-color:rgb(0%,0%,0%);stop-opacity:0.321569;"/>
<stop offset="1" style="stop-color:rgb(0%,0%,0%);stop-opacity:0;"/>
</linearGradient>
<linearGradient id="linear13" gradientUnits="userSpaceOnUse" x1="144.76" y1="213.89" x2="232.33" y2="309.06" gradientTransform="matrix(2.302907,0,0,2.304086,-26.643655,-54.491638)">
<stop offset="0.01" style="stop-color:rgb(0%,0%,0%);stop-opacity:1;"/>
<stop offset="0.08" style="stop-color:rgb(0%,0%,0%);stop-opacity:0.690196;"/>
<stop offset="0.21" style="stop-color:rgb(0%,0%,0%);stop-opacity:0.321569;"/>
<stop offset="1" style="stop-color:rgb(0%,0%,0%);stop-opacity:0;"/>
</linearGradient>
<linearGradient id="linear14" gradientUnits="userSpaceOnUse" x1="163.53" y1="235.49" x2="213.67" y2="305.68" gradientTransform="matrix(2.302907,0,0,2.304086,-26.643655,-54.491638)">
<stop offset="0.01" style="stop-color:rgb(0%,0%,0%);stop-opacity:1;"/>
<stop offset="0.08" style="stop-color:rgb(0%,0%,0%);stop-opacity:0.690196;"/>
<stop offset="0.21" style="stop-color:rgb(0%,0%,0%);stop-opacity:0.321569;"/>
<stop offset="1" style="stop-color:rgb(0%,0%,0%);stop-opacity:0;"/>
</linearGradient>
</defs>
<g id="surface1">
<use xlink:href="#surface5" mask="url(#mask0)"/>
<path style=" stroke:none;fill-rule:nonzero;fill:url(#linear0);" d="M 355.640625 615.628906 C 352.828125 616.503906 349.675781 617.933594 348.960938 620.722656 C 357.804688 626.34375 368.742188 627.632812 379.199219 627.355469 C 389.652344 627.082031 400.085938 625.238281 410.5625 625.167969 C 424.378906 625.167969 439.949219 627.632812 451.046875 619.246094 C 446.117188 616.121094 440.457031 614.34375 434.628906 614.085938 C 436.679688 601.183594 363.835938 613.070312 355.640625 615.628906 Z M 355.640625 615.628906 "/>
<path style=" stroke:none;fill-rule:nonzero;fill:url(#linear1);" d="M 178.109375 461.921875 C 174.378906 461.921875 169.21875 463.8125 170.140625 467.429688 L 340.394531 481.253906 C 360.429688 482.890625 380.488281 484.503906 400.613281 484.503906 C 431.011719 484.503906 461.273438 480.769531 491.601562 479.019531 C 520.160156 477.382812 548.761719 477.5 577.339844 477.636719 C 603.800781 477.773438 636.339844 482.542969 662.039062 475.609375 C 665.910156 474.574219 669.800781 471.460938 669.546875 467.476562 C 669.433594 465.632812 668.464844 463.71875 669.179688 462.015625 C 669.59375 461.179688 670.253906 460.488281 671.066406 460.035156 C 676.339844 456.785156 683.066406 459.320312 689.144531 460.65625 C 698.824219 462.761719 708.929688 461.476562 717.769531 457.015625 C 719.429688 456.324219 720.839844 455.152344 721.824219 453.652344 C 722.796875 452.078125 722.417969 450.027344 720.949219 448.90625 C 720.234375 448.550781 719.445312 448.371094 718.644531 448.375 L 666.53125 444.320312 C 664.605469 444.023438 662.640625 444.195312 660.796875 444.828125 C 658.746094 445.726562 658.863281 448.121094 657.203125 449.113281 C 654.511719 450.703125 648.382812 449.851562 645.296875 450.035156 C 637.398438 450.472656 629.5 450.910156 621.578125 451.300781 C 605.8125 452.054688 590.011719 452.691406 574.183594 453.214844 C 541.945312 454.296875 509.542969 454.941406 477.230469 455.519531 C 413.328125 456.554688 349.398438 457.109375 285.515625 459.574219 C 249.707031 460.910156 213.917969 461.140625 178.109375 461.921875 Z M 178.109375 461.921875 "/>
<path style=" stroke:none;fill-rule:nonzero;fill:rgb(100%,40.784314%,10.980392%);fill-opacity:1;" d="M 309.027344 106.933594 C 306.03125 105.890625 302.757812 105.972656 299.816406 107.164062 C 295.980469 108.53125 292.902344 111.460938 291.339844 115.226562 C 291.3125 115.71875 291.070312 116.167969 290.683594 116.46875 C 290.292969 116.769531 289.796875 116.886719 289.316406 116.792969 C 285.964844 116.785156 282.730469 118.027344 280.242188 120.273438 C 277.339844 122.921875 277.339844 126.171875 276.949219 129.972656 C 275.984375 129.488281 274.847656 129.488281 273.886719 129.972656 C 272.9375 130.441406 272.074219 131.0625 271.328125 131.816406 C 270.058594 132.835938 269.042969 134.140625 268.359375 135.617188 C 267.4375 138.128906 268.472656 140.894531 268.519531 143.566406 C 268.550781 143.808594 268.476562 144.054688 268.3125 144.234375 C 268.121094 144.316406 267.90625 144.316406 267.714844 144.234375 C 267 144.097656 266.355469 143.730469 265.640625 143.660156 C 263.917969 143.675781 262.449219 144.914062 262.140625 146.609375 C 261.871094 148.257812 261.957031 149.949219 262.394531 151.5625 C 262.820312 153.179688 262.773438 154.882812 262.257812 156.46875 C 261.703125 157.515625 260.980469 158.457031 260.113281 159.257812 C 257.617188 161.585938 255.992188 164.703125 255.507812 168.082031 C 255.371094 169.71875 255.8125 171.347656 256.753906 172.691406 C 257.734375 174.039062 259.351562 174.777344 261.011719 174.625 C 264.835938 174.121094 266.171875 168.75 269.808594 167.484375 C 273.449219 166.214844 277.523438 161.929688 279.875 158.542969 C 281.761719 155.824219 283.605469 152.667969 286.78125 151.632812 C 287.828125 151.410156 288.835938 151.035156 289.777344 150.527344 C 290.402344 150.039062 290.917969 149.425781 291.296875 148.730469 C 292.613281 146.789062 293.628906 144.660156 294.3125 142.414062 C 295.464844 137.992188 294.3125 133.015625 296.453125 128.9375 C 297.691406 126.570312 299.878906 124.84375 302.464844 124.191406 C 303.546875 123.914062 304.769531 123.84375 305.757812 123.546875 C 307.011719 123.183594 308.191406 122.613281 309.257812 121.863281 C 312.09375 120.230469 314.054688 117.417969 314.601562 114.191406 C 314.808594 110.941406 311.882812 108.039062 309.027344 106.933594 Z M 309.027344 106.933594 "/>
<path style=" stroke:none;fill-rule:nonzero;fill:rgb(100%,40.784314%,10.980392%);fill-opacity:1;" d="M 318.445312 112.394531 C 320.824219 113.3125 322.179688 115.820312 321.648438 118.316406 C 321.253906 119.289062 320.667969 120.175781 319.921875 120.917969 L 315.753906 125.527344 L 314.023438 119.121094 C 313.847656 117.917969 313.25 116.820312 312.34375 116.011719 C 311.140625 115.320312 309.65625 115.320312 308.453125 116.011719 C 307.230469 116.632812 306.148438 117.601562 305.066406 118.316406 C 304.769531 118.5 304.351562 118.707031 304.03125 118.523438 C 303.707031 118.335938 303.664062 117.667969 303.824219 117.207031 C 305.804688 111.726562 313.378906 110.203125 318.445312 112.394531 Z M 318.445312 112.394531 "/>
<path style=" stroke:none;fill-rule:nonzero;fill:rgb(98.823529%,74.117647%,72.941176%);fill-opacity:1;" d="M 321.28125 285.730469 C 321.40625 287.886719 322.121094 289.96875 323.351562 291.742188 C 325.21875 294.046875 328.328125 295.199219 330.90625 296.882812 C 331.441406 297.15625 331.832031 297.652344 331.964844 298.242188 C 331.933594 298.816406 331.5625 299.3125 331.019531 299.507812 C 330.472656 299.664062 329.902344 299.703125 329.339844 299.625 C 326.710938 299.210938 324.054688 298.957031 321.394531 298.863281 C 320.058594 298.863281 318.515625 299 317.664062 297.964844 C 317.117188 297.085938 316.925781 296.03125 317.132812 295.015625 C 317.371094 291.203125 317.058594 287.378906 316.214844 283.65625 C 315.929688 282.746094 315.828125 281.792969 315.914062 280.84375 C 316.089844 279.953125 316.722656 279.222656 317.582031 278.921875 C 318.441406 278.625 319.390625 278.804688 320.082031 279.394531 C 321.601562 280.707031 321.09375 283.957031 321.28125 285.730469 Z M 321.28125 285.730469 "/>
<path style=" stroke:none;fill-rule:nonzero;fill:rgb(98.823529%,74.117647%,72.941176%);fill-opacity:1;" d="M 278.675781 299.992188 C 278.363281 302.128906 278.632812 304.308594 279.457031 306.304688 C 280.816406 309.046875 283.648438 310.683594 285.835938 312.847656 C 286.320312 313.214844 286.597656 313.789062 286.597656 314.390625 C 286.457031 314.949219 285.992188 315.359375 285.421875 315.429688 C 284.863281 315.488281 284.292969 315.417969 283.765625 315.222656 C 281.261719 314.308594 278.710938 313.539062 276.121094 312.917969 C 274.808594 312.6875 273.265625 312.457031 272.640625 311.304688 C 272.265625 310.34375 272.265625 309.273438 272.640625 308.308594 C 273.640625 304.617188 274.105469 300.800781 274.023438 296.972656 C 273.929688 296.027344 274.023438 295.074219 274.300781 294.164062 C 274.652344 293.324219 275.421875 292.738281 276.324219 292.617188 C 277.222656 292.5 278.117188 292.867188 278.675781 293.585938 C 279.988281 295.128906 278.835938 298.21875 278.675781 299.992188 Z M 278.675781 299.992188 "/>
<path style=" stroke:none;fill-rule:nonzero;fill:rgb(27.843137%,24.705882%,27.843137%);fill-opacity:1;" d="M 270.292969 196.308594 C 270.292969 196.308594 292.261719 228.933594 306.65625 238.679688 C 306.378906 241.941406 306.449219 245.226562 306.863281 248.472656 C 307.601562 253.75 310.15625 258.378906 310.984375 263.5625 L 313.75 281.007812 C 313.863281 281.789062 314.09375 282.734375 314.855469 283.011719 C 315.3125 283.15625 315.800781 283.15625 316.257812 283.011719 L 322.339844 281.351562 C 321.972656 270.871094 322.195312 260.378906 323.007812 249.925781 C 323.503906 245.695312 323.613281 241.429688 323.328125 237.183594 C 322.316406 227.964844 314.761719 219.742188 309.511719 212.34375 C 306.355469 207.875 302.972656 201.191406 298.550781 197.804688 C 294.863281 194.996094 289.660156 196.332031 285.03125 196.792969 C 281.558594 197.125 278.058594 196.875 274.667969 196.054688 C 273.261719 195.394531 271.617188 195.492188 270.292969 196.308594 Z M 270.292969 196.308594 "/>
<path style=" stroke:none;fill-rule:nonzero;fill:rgb(27.843137%,24.705882%,27.843137%);fill-opacity:1;" d="M 261.933594 196.101562 C 261.933594 196.101562 270.476562 234.511719 280.355469 248.839844 C 278.921875 251.792969 277.785156 254.878906 276.972656 258.058594 C 276.425781 260.660156 276.109375 263.304688 276.027344 265.960938 L 274.046875 298.035156 C 277.109375 298.195312 280.171875 297.804688 283.097656 296.882812 L 294.335938 268.609375 C 296.480469 264.105469 297.746094 259.234375 298.066406 254.257812 C 298.066406 244.625 288.855469 209.464844 287.773438 207.691406 C 285.355469 203.703125 280.035156 203.082031 275.566406 201.792969 C 272.210938 200.84375 269.042969 199.332031 266.195312 197.320312 C 264.789062 196.445312 263.523438 195.59375 261.933594 196.101562 Z M 261.933594 196.101562 "/>
<path style=" stroke:none;fill-rule:nonzero;fill:rgb(98.823529%,74.117647%,72.941176%);fill-opacity:1;" d="M 340.808594 166.195312 C 345.488281 168.355469 350.6875 169.152344 355.800781 168.496094 C 357.300781 168.085938 358.871094 168.003906 360.40625 168.265625 C 359.738281 169.210938 359.09375 170.570312 360.039062 171.378906 C 360.328125 171.566406 360.660156 171.679688 361.003906 171.699219 C 362.246094 171.859375 363.507812 171.726562 364.6875 171.308594 C 365.246094 171.03125 365.863281 170.898438 366.484375 170.917969 C 367.628906 171.199219 368.328125 172.351562 368.050781 173.496094 C 367.726562 174.59375 367.003906 175.53125 366.023438 176.125 C 362.804688 178.257812 358.683594 178.488281 355.246094 176.722656 C 354.28125 176.195312 353.382812 175.523438 352.390625 174.996094 C 350.488281 174.125 348.472656 173.523438 346.402344 173.199219 C 340.351562 171.945312 334.398438 170.234375 328.601562 168.082031 C 326.828125 167.660156 325.304688 166.527344 324.386719 164.949219 C 323.214844 162.046875 325.378906 157.183594 328.832031 159.074219 C 332.839844 161.402344 336.457031 164.398438 340.808594 166.195312 Z M 340.808594 166.195312 "/>
<path style=" stroke:none;fill-rule:nonzero;fill:rgb(34.509804%,40.392157%,94.117647%);fill-opacity:1;" d="M 312.207031 149.652344 C 319.042969 154.125 326.671875 157.25 334.683594 158.867188 C 335.027344 158.867188 335.441406 159.097656 335.535156 159.441406 C 335.570312 159.679688 335.511719 159.917969 335.375 160.109375 C 333.738281 163.40625 331.671875 166.464844 329.222656 169.210938 C 328.960938 169.5625 328.625 169.84375 328.234375 170.042969 C 327.460938 170.269531 326.628906 170.167969 325.929688 169.765625 C 320.757812 167.691406 315.691406 165.386719 310.730469 162.851562 C 306.320312 160.917969 302.386719 158.027344 299.21875 154.398438 C 297.636719 152.511719 296.699219 150.171875 296.546875 147.714844 C 296.546875 144.996094 299.035156 140.113281 302.464844 141.449219 C 304.007812 142.046875 305.367188 143.960938 306.539062 145.042969 C 308.332031 146.691406 310.226562 148.230469 312.207031 149.652344 Z M 312.207031 149.652344 "/>
<path style=" stroke:none;fill-rule:nonzero;fill:url(#linear2);" d="M 312.207031 149.652344 C 319.042969 154.125 326.671875 157.25 334.683594 158.867188 C 335.027344 158.867188 335.441406 159.097656 335.535156 159.441406 C 335.570312 159.679688 335.511719 159.917969 335.375 160.109375 C 333.738281 163.40625 331.671875 166.464844 329.222656 169.210938 C 328.960938 169.5625 328.625 169.84375 328.234375 170.042969 C 327.460938 170.269531 326.628906 170.167969 325.929688 169.765625 C 320.757812 167.691406 315.691406 165.386719 310.730469 162.851562 C 306.320312 160.917969 302.386719 158.027344 299.21875 154.398438 C 297.636719 152.511719 296.699219 150.171875 296.546875 147.714844 C 296.546875 144.996094 299.035156 140.113281 302.464844 141.449219 C 304.007812 142.046875 305.367188 143.960938 306.539062 145.042969 C 308.332031 146.691406 310.226562 148.230469 312.207031 149.652344 Z M 312.207031 149.652344 "/>
<path style=" stroke:none;fill-rule:nonzero;fill:rgb(34.509804%,40.392157%,94.117647%);fill-opacity:1;" d="M 408.605469 135.917969 C 411.125 139.09375 411.441406 143.488281 409.40625 146.996094 C 407.371094 150.503906 403.398438 152.40625 399.394531 151.792969 C 399.394531 151.792969 388.5 152.046875 390.964844 162.324219 L 411.691406 188.726562 L 385.300781 209.464844 C 375.03125 211.929688 374.777344 201.03125 374.777344 201.03125 C 375.351562 197.027344 373.433594 193.078125 369.933594 191.058594 C 366.429688 189.039062 362.050781 189.355469 358.878906 191.859375 C 355.707031 194.367188 354.378906 198.550781 355.523438 202.429688 C 356.671875 206.304688 360.066406 209.09375 364.089844 209.464844 C 373.464844 212.550781 369.824219 221.675781 369.824219 221.675781 L 343.433594 242.414062 L 289.796875 174.28125 L 315.9375 153.542969 C 326.207031 151.078125 326.460938 161.976562 326.460938 161.976562 C 325.789062 166.425781 328.210938 170.765625 332.347656 172.527344 C 336.488281 174.289062 341.292969 173.023438 344.027344 169.453125 C 346.765625 165.882812 346.738281 160.910156 343.964844 157.367188 C 342.265625 155.234375 339.769531 153.886719 337.054688 153.636719 C 327.773438 150.570312 331.414062 141.355469 331.414062 141.355469 L 358.058594 120.320312 L 378.78125 146.746094 C 378.78125 146.746094 387.996094 150.386719 390.988281 141.011719 C 391.394531 136.992188 394.199219 133.625 398.078125 132.503906 C 401.953125 131.382812 406.121094 132.734375 408.605469 135.917969 Z M 408.605469 135.917969 "/>
<path style=" stroke:none;fill-rule:nonzero;fill:url(#linear3);" d="M 408.605469 135.917969 C 411.125 139.09375 411.441406 143.488281 409.40625 146.996094 C 407.371094 150.503906 403.398438 152.40625 399.394531 151.792969 C 399.394531 151.792969 388.5 152.046875 390.964844 162.324219 L 411.691406 188.726562 L 385.300781 209.464844 C 375.03125 211.929688 374.777344 201.03125 374.777344 201.03125 C 375.351562 197.027344 373.433594 193.078125 369.933594 191.058594 C 366.429688 189.039062 362.050781 189.355469 358.878906 191.859375 C 355.707031 194.367188 354.378906 198.550781 355.523438 202.429688 C 356.671875 206.304688 360.066406 209.09375 364.089844 209.464844 C 373.464844 212.550781 369.824219 221.675781 369.824219 221.675781 L 343.433594 242.414062 L 289.796875 174.28125 L 315.9375 153.542969 C 326.207031 151.078125 326.460938 161.976562 326.460938 161.976562 C 325.789062 166.425781 328.210938 170.765625 332.347656 172.527344 C 336.488281 174.289062 341.292969 173.023438 344.027344 169.453125 C 346.765625 165.882812 346.738281 160.910156 343.964844 157.367188 C 342.265625 155.234375 339.769531 153.886719 337.054688 153.636719 C 327.773438 150.570312 331.414062 141.355469 331.414062 141.355469 L 358.058594 120.320312 L 378.78125 146.746094 C 378.78125 146.746094 387.996094 150.386719 390.988281 141.011719 C 391.394531 136.992188 394.199219 133.625 398.078125 132.503906 C 401.953125 131.382812 406.121094 132.734375 408.605469 135.917969 Z M 408.605469 135.917969 "/>
<path style=" stroke:none;fill-rule:nonzero;fill:url(#linear4);" d="M 321.394531 196.007812 C 327.035156 200.617188 332.910156 205.570312 339.816406 206.769531 C 342.503906 207.371094 345.316406 206.863281 347.625 205.363281 C 348.429688 204.886719 348.890625 203.992188 348.824219 203.058594 C 348.570312 201.929688 347.1875 201.539062 346.058594 201.332031 C 340.78125 200.609375 335.714844 198.789062 331.183594 195.984375 C 329.5 194.796875 327.910156 193.488281 326.414062 192.070312 L 315.199219 182.070312 C 314.921875 181.730469 314.507812 181.535156 314.070312 181.539062 C 313.609375 181.539062 313.335938 182.070312 313.128906 182.484375 C 312.433594 183.898438 311.90625 185.390625 311.5625 186.929688 C 311.214844 188.613281 311.5625 188.84375 313.011719 189.8125 C 315.914062 191.777344 318.707031 193.84375 321.394531 196.007812 Z M 321.394531 196.007812 "/>
<path style=" stroke:none;fill-rule:nonzero;fill:rgb(98.823529%,74.117647%,72.941176%);fill-opacity:1;" d="M 326.597656 187.574219 C 330.5 190.992188 335.292969 193.230469 340.417969 194.027344 C 341.941406 194.046875 343.441406 194.402344 344.816406 195.0625 C 343.871094 195.777344 342.859375 197 343.570312 197.945312 C 343.800781 198.207031 344.09375 198.40625 344.421875 198.519531 C 345.570312 199.011719 346.816406 199.230469 348.0625 199.164062 C 348.679688 199.070312 349.308594 199.117188 349.90625 199.304688 C 350.390625 199.585938 350.742188 200.050781 350.886719 200.597656 C 351.027344 201.140625 350.949219 201.722656 350.664062 202.207031 C 350.0625 203.183594 349.105469 203.886719 347.992188 204.164062 C 344.308594 205.328125 340.285156 204.390625 337.492188 201.722656 C 336.6875 200.9375 336.019531 200.039062 335.1875 199.28125 C 333.605469 197.914062 331.835938 196.773438 329.9375 195.894531 C 324.476562 192.988281 319.242188 189.679688 314.277344 185.984375 C 312.695312 185.085938 311.546875 183.582031 311.101562 181.816406 C 310.777344 178.683594 314.210938 174.605469 317.019531 177.414062 C 320.289062 180.734375 322.9375 184.535156 326.597656 187.574219 Z M 326.597656 187.574219 "/>
<path style=" stroke:none;fill-rule:nonzero;fill:rgb(34.509804%,40.392157%,94.117647%);fill-opacity:1;" d="M 261.933594 201.03125 C 262.347656 201.527344 262.867188 201.921875 263.453125 202.183594 C 265.769531 203.507812 268.179688 204.660156 270.660156 205.640625 C 277.109375 207.949219 284.171875 207.890625 290.582031 205.476562 C 293.148438 204.554688 295.554688 203.242188 297.722656 201.585938 C 298.542969 201.023438 299.234375 200.292969 299.746094 199.441406 C 300.359375 198.050781 300.550781 196.515625 300.300781 195.019531 C 299.722656 187.253906 298.871094 179.234375 300.300781 171.699219 C 300.757812 169.113281 301.53125 166.589844 302.601562 164.1875 C 304.46875 160.914062 306.011719 157.464844 307.207031 153.890625 C 308.039062 149.445312 306.867188 144.859375 304.007812 141.355469 C 301.015625 137.53125 295.53125 134.144531 290.695312 135.871094 C 285.109375 137.976562 280.265625 141.679688 276.765625 146.515625 C 272.945312 151.933594 269.921875 157.871094 267.78125 164.144531 C 266.863281 166.609375 265.964844 169.074219 265.25 171.609375 C 263.726562 177.738281 262.738281 183.992188 262.300781 190.292969 C 262.046875 192.921875 261.820312 195.546875 261.542969 198.175781 C 261.324219 199.144531 261.464844 200.15625 261.933594 201.03125 Z M 261.933594 201.03125 "/>
<path style=" stroke:none;fill-rule:nonzero;fill:url(#linear5);" d="M 290.582031 205.476562 C 293.148438 204.554688 295.554688 203.242188 297.722656 201.585938 C 298.542969 201.023438 299.234375 200.292969 299.746094 199.441406 C 300.359375 198.050781 300.550781 196.515625 300.300781 195.019531 C 299.722656 187.253906 298.871094 179.234375 300.300781 171.699219 C 299.378906 170.777344 298.34375 169.949219 297.328125 169.121094 C 295.027344 167.230469 291.710938 163.496094 288.371094 163.75 C 289.175781 167.277344 289.820312 170.871094 290.304688 174.464844 C 290.789062 178.058594 290.605469 181.792969 291.179688 185.339844 C 291.945312 191.617188 291.796875 197.976562 290.742188 204.210938 C 290.644531 204.625 290.589844 205.050781 290.582031 205.476562 Z M 290.582031 205.476562 "/>
<path style=" stroke:none;fill-rule:nonzero;fill:rgb(34.509804%,40.392157%,94.117647%);fill-opacity:1;" d="M 318.609375 175.480469 C 318.972656 175.664062 319.246094 175.988281 319.367188 176.378906 C 319.375 176.761719 319.234375 177.132812 318.976562 177.414062 C 316.882812 180.371094 314.261719 182.910156 311.238281 184.902344 C 310.949219 185.136719 310.597656 185.277344 310.226562 185.316406 C 309.800781 185.273438 309.402344 185.085938 309.097656 184.789062 C 304.492188 181.261719 299.886719 177.875 295.394531 174.1875 C 292.492188 172.128906 289.925781 169.625 287.796875 166.769531 C 286.230469 164.195312 285.035156 161.410156 284.25 158.5 C 281.507812 149.859375 289.796875 146.101562 295.347656 152.4375 C 302.671875 160.824219 309.351562 169.003906 318.609375 175.480469 Z M 318.609375 175.480469 "/>
<path style=" stroke:none;fill-rule:nonzero;fill:rgb(27.843137%,24.705882%,27.843137%);fill-opacity:1;" d="M 317.480469 298.285156 C 317.234375 297.703125 317.324219 297.035156 317.710938 296.535156 C 318.214844 296.050781 319.046875 296.28125 319.691406 296.535156 C 321.113281 297.226562 322.601562 297.773438 324.136719 298.171875 C 325.679688 298.578125 327.316406 298.40625 328.742188 297.6875 C 329.523438 297.226562 330.285156 296.535156 331.183594 296.605469 C 331.632812 296.671875 332.066406 296.835938 332.449219 297.089844 C 333.832031 297.804688 335.3125 298.3125 336.847656 298.585938 C 337.492188 298.640625 338.113281 298.847656 338.667969 299.1875 C 338.832031 299.304688 338.953125 299.472656 339.011719 299.667969 C 339.011719 300.128906 338.574219 300.476562 338.136719 300.636719 C 333.347656 302.503906 327.980469 301.8125 322.867188 301.257812 C 322.296875 301.179688 321.714844 301.179688 321.140625 301.257812 C 320.289062 301.421875 319.253906 301.859375 318.539062 301.257812 C 317.929688 300.378906 317.5625 299.355469 317.480469 298.285156 Z M 317.480469 298.285156 "/>
<path style=" stroke:none;fill-rule:nonzero;fill:rgb(27.843137%,24.705882%,27.843137%);fill-opacity:1;" d="M 271.996094 311.421875 C 271.84375 310.816406 272.007812 310.171875 272.433594 309.714844 C 273.011719 309.300781 273.792969 309.714844 274.414062 309.96875 C 275.753906 310.820312 277.164062 311.550781 278.628906 312.15625 C 280.117188 312.710938 281.75 312.710938 283.234375 312.15625 C 284.066406 311.8125 284.894531 311.214844 285.792969 311.398438 C 286.226562 311.523438 286.632812 311.734375 286.988281 312.019531 C 288.257812 312.949219 289.664062 313.671875 291.15625 314.164062 C 291.796875 314.292969 292.398438 314.578125 292.90625 314.992188 C 293.058594 315.117188 293.148438 315.300781 293.160156 315.5 C 293.160156 315.960938 292.65625 316.234375 292.195312 316.351562 C 287.195312 317.617188 281.96875 316.351562 276.972656 315.082031 C 276.410156 314.921875 275.828125 314.835938 275.246094 314.832031 C 274.390625 314.832031 273.308594 315.199219 272.664062 314.414062 C 272.199219 313.488281 271.96875 312.457031 271.996094 311.421875 Z M 271.996094 311.421875 "/>
<path style=" stroke:none;fill-rule:nonzero;fill:rgb(98.823529%,74.117647%,72.941176%);fill-opacity:1;" d="M 314.648438 128.199219 C 314.253906 129.464844 313.863281 130.734375 313.542969 132.023438 C 313.175781 133.949219 312.667969 135.84375 312.023438 137.691406 C 311.359375 139.558594 309.910156 141.039062 308.0625 141.746094 C 306.125 142.367188 304.042969 141.351562 303.339844 139.441406 C 302.234375 139.695312 301.84375 141.054688 301.867188 142.207031 C 302.050781 143.335938 301.839844 144.492188 301.265625 145.480469 C 300.230469 146.699219 298.203125 146.195312 296.84375 145.320312 C 292.640625 142.484375 290.558594 137.386719 291.570312 132.414062 C 292.699219 127.277344 292.65625 121.125 295.578125 116.679688 C 296.628906 115.179688 297.96875 113.902344 299.515625 112.921875 C 300.875 111.929688 302.457031 111.289062 304.121094 111.058594 C 305.289062 110.988281 306.460938 111.082031 307.601562 111.332031 C 312.480469 112.164062 316.628906 112.878906 316.652344 118.476562 C 316.5 121.804688 315.824219 125.085938 314.648438 128.199219 Z M 314.648438 128.199219 "/>
<path style=" stroke:none;fill-rule:nonzero;fill:rgb(100%,40.784314%,10.980392%);fill-opacity:1;" d="M 308.636719 119.144531 C 307.875 119.144531 307 118.960938 306.332031 119.421875 C 305.664062 119.882812 305.621094 120.917969 305.207031 121.726562 C 304.398438 123.222656 302.351562 123.429688 300.808594 124.214844 C 298.902344 125.234375 297.726562 127.234375 297.765625 129.398438 C 297.796875 128.71875 297.628906 128.046875 297.285156 127.460938 C 297.097656 127.183594 296.804688 126.992188 296.472656 126.933594 C 296.140625 126.878906 295.800781 126.960938 295.53125 127.164062 C 295.324219 127.410156 295.203125 127.714844 295.1875 128.039062 C 295.058594 129.375 295.636719 130.683594 296.707031 131.496094 C 295.730469 133.511719 293.671875 134.777344 291.433594 134.742188 C 290.742188 134.757812 290.0625 134.53125 289.523438 134.097656 C 289.183594 133.746094 288.929688 133.320312 288.785156 132.855469 C 287.472656 129.167969 289.476562 125.226562 289.960938 121.332031 C 290.007812 119.957031 290.230469 118.59375 290.628906 117.277344 C 291.054688 116.347656 291.640625 115.496094 292.355469 114.765625 C 294.503906 112.183594 297.351562 110.273438 300.554688 109.261719 C 303.640625 108.40625 309.765625 108.84375 312.183594 111.289062 C 313.300781 112.710938 313.535156 114.640625 312.789062 116.292969 C 312.046875 117.941406 310.445312 119.042969 308.636719 119.144531 Z M 308.636719 119.144531 "/>
<path style=" stroke:none;fill-rule:nonzero;fill:url(#linear6);" d="M 307.277344 468.925781 L 307.277344 425.816406 C 312.941406 413.515625 324.113281 421.902344 324.113281 421.902344 C 327.679688 425.640625 333.164062 426.832031 337.960938 424.910156 C 342.757812 422.988281 345.902344 418.339844 345.902344 413.167969 C 345.902344 408 342.757812 403.347656 337.960938 401.425781 C 333.164062 399.503906 327.679688 400.695312 324.113281 404.4375 C 313.566406 411.347656 307.277344 400.519531 307.277344 400.519531 L 307.277344 357.386719 L 350.367188 357.386719 C 350.367188 357.386719 361.28125 351.097656 354.28125 340.542969 C 350.542969 336.976562 349.351562 331.488281 351.273438 326.6875 C 353.191406 321.890625 357.839844 318.742188 363.007812 318.742188 C 368.175781 318.742188 372.824219 321.890625 374.746094 326.6875 C 376.667969 331.488281 375.476562 336.976562 371.734375 340.542969 C 371.734375 340.542969 363.355469 351.71875 375.652344 357.386719 L 418.738281 357.386719 L 418.738281 468.925781 Z M 307.277344 468.925781 "/>
<path style=" stroke:none;fill-rule:nonzero;fill:rgb(34.509804%,40.392157%,94.117647%);fill-opacity:1;" d="M 224.71875 466.625 L 216.933594 466.625 L 296.617188 256.121094 C 297.164062 254.730469 298.507812 253.816406 300 253.816406 C 301.199219 253.816406 302.320312 254.402344 303 255.386719 C 303.679688 256.371094 303.832031 257.628906 303.410156 258.75 Z M 224.71875 466.625 "/>
<path style=" stroke:none;fill-rule:nonzero;fill:rgb(34.509804%,40.392157%,94.117647%);fill-opacity:1;" d="M 271.398438 466.625 L 263.613281 466.625 L 344.171875 253.773438 L 351.953125 253.773438 Z M 271.398438 466.625 "/>
<path style=" stroke:none;fill-rule:nonzero;fill:rgb(34.509804%,40.392157%,94.117647%);fill-opacity:1;" d="M 331.597656 287.019531 L 290.421875 287.019531 L 292.492188 281.535156 L 333.667969 281.535156 Z M 331.597656 287.019531 "/>
<path style=" stroke:none;fill-rule:nonzero;fill:rgb(34.509804%,40.392157%,94.117647%);fill-opacity:1;" d="M 318.929688 320.453125 L 277.753906 320.453125 L 279.851562 314.96875 L 321.027344 314.96875 Z M 318.929688 320.453125 "/>
<path style=" stroke:none;fill-rule:nonzero;fill:rgb(34.509804%,40.392157%,94.117647%);fill-opacity:1;" d="M 306.289062 353.882812 L 265.113281 353.882812 L 267.183594 348.378906 L 308.359375 348.378906 Z M 306.289062 353.882812 "/>
<path style=" stroke:none;fill-rule:nonzero;fill:rgb(34.509804%,40.392157%,94.117647%);fill-opacity:1;" d="M 293.644531 387.292969 L 252.46875 387.292969 L 254.542969 381.808594 L 295.71875 381.808594 Z M 293.644531 387.292969 "/>
<path style=" stroke:none;fill-rule:nonzero;fill:rgb(34.509804%,40.392157%,94.117647%);fill-opacity:1;" d="M 280.980469 420.726562 L 239.800781 420.726562 L 241.898438 415.242188 L 283.050781 415.242188 Z M 280.980469 420.726562 "/>
<path style=" stroke:none;fill-rule:nonzero;fill:url(#linear7);" d="M 292.699219 287.019531 L 282.105469 314.96875 L 321.09375 314.96875 L 319.023438 320.453125 L 280.105469 320.453125 L 269.535156 348.378906 L 308.429688 348.378906 L 306.355469 353.863281 L 267.390625 353.863281 L 256.820312 381.808594 L 295.761719 381.808594 L 293.691406 387.292969 L 254.75 387.292969 L 244.15625 415.242188 L 283.074219 415.242188 L 280.980469 420.726562 L 242.082031 420.726562 L 224.71875 466.625 L 216.933594 466.625 L 296.617188 256.121094 C 297.328125 254.636719 298.945312 253.816406 300.5625 254.117188 C 302.183594 254.417969 303.394531 255.769531 303.523438 257.414062 C 303.523438 257.851562 303.445312 258.289062 303.292969 258.703125 L 294.65625 281.535156 L 333.554688 281.535156 L 331.480469 287.019531 Z M 292.699219 287.019531 "/>
<path style=" stroke:none;fill-rule:nonzero;fill:url(#linear8);" d="M 271.398438 466.625 L 263.613281 466.625 L 344.171875 253.773438 L 351.953125 253.773438 Z M 271.398438 466.625 "/>
<path style=" stroke:none;fill-rule:nonzero;fill:rgb(100%,100%,100%);fill-opacity:1;" d="M 657.574219 284.625 C 656.421875 285.597656 655.042969 286.261719 653.566406 286.558594 C 652.210938 286.617188 650.855469 286.371094 649.605469 285.84375 L 630.445312 279.460938 C 627.441406 281.804688 626.757812 286.070312 628.878906 289.230469 C 630.757812 291.289062 633.199219 292.75 635.902344 293.425781 L 649.050781 298.148438 C 655.199219 301.019531 662.308594 300.980469 668.417969 298.035156 C 672.335938 296.71875 676.640625 295.085938 678.53125 291.398438 C 680.417969 287.710938 679.035156 282.828125 679.589844 278.519531 C 680.316406 275.78125 680.832031 272.992188 681.132812 270.175781 C 681.132812 267.757812 679.152344 264.117188 676.273438 264.625 C 673.785156 265.0625 672.128906 269.394531 670.816406 271.214844 C 667.113281 276.335938 662.648438 280.859375 657.574219 284.625 Z M 657.574219 284.625 "/>
<path style=" stroke:none;fill-rule:nonzero;fill:rgb(99.215686%,72.54902%,66.27451%);fill-opacity:1;" d="M 628.050781 278.378906 C 627.851562 277.859375 627.542969 277.390625 627.152344 276.996094 C 626.757812 276.59375 626.15625 276.464844 625.632812 276.675781 C 625.117188 276.992188 624.832031 277.574219 624.894531 278.171875 C 624.933594 278.382812 624.882812 278.597656 624.757812 278.769531 C 624.617188 278.910156 624.363281 278.769531 624.15625 278.769531 C 621.992188 278.355469 619.78125 278.035156 617.570312 277.804688 C 617.089844 277.707031 616.589844 277.882812 616.277344 278.265625 C 615.964844 278.644531 615.886719 279.167969 616.074219 279.625 C 616.316406 280.359375 616.679688 281.042969 617.15625 281.652344 C 618.285156 283.496094 618.699219 285.914062 620.496094 287.113281 C 621.59375 287.753906 622.871094 288.023438 624.136719 287.871094 C 625.402344 287.871094 626.644531 287.574219 627.910156 287.640625 C 628.75 287.820312 629.621094 287.722656 630.398438 287.367188 C 630.988281 286.925781 631.308594 286.210938 631.25 285.476562 C 631.117188 284.339844 630.714844 283.25 630.078125 282.296875 C 629.363281 281.050781 628.695312 279.714844 628.050781 278.378906 Z M 628.050781 278.378906 "/>
<path style=" stroke:none;fill-rule:nonzero;fill:rgb(99.215686%,72.54902%,66.27451%);fill-opacity:1;" d="M 681.476562 422.683594 C 674.152344 421.027344 675.582031 431.417969 673.648438 435.289062 C 672.421875 437.277344 670.863281 439.039062 669.042969 440.496094 C 667.246094 441.992188 666.070312 444.101562 665.75 446.417969 C 665.707031 446.847656 665.792969 447.28125 666 447.660156 C 666.375 448.117188 666.898438 448.425781 667.476562 448.535156 C 671.664062 449.757812 676.160156 449.3125 680.027344 447.292969 C 681.835938 446.4375 683.339844 445.046875 684.332031 443.304688 C 685.136719 441.429688 685.511719 439.402344 685.4375 437.363281 C 685.667969 433.03125 687.601562 424.042969 681.476562 422.683594 Z M 681.476562 422.683594 "/>
<path style=" stroke:none;fill-rule:nonzero;fill:rgb(34.509804%,40.392157%,94.117647%);fill-opacity:1;" d="M 674.984375 444.113281 C 674.984375 444.113281 654.117188 445.011719 662.960938 451.554688 C 671.804688 458.097656 685 449.964844 686.289062 448.46875 C 687.578125 446.96875 686.519531 444.414062 686.519531 444.414062 Z M 674.984375 444.113281 "/>
<path style=" stroke:none;fill-rule:nonzero;fill:rgb(100%,100%,100%);fill-opacity:1;" d="M 685.367188 446.992188 C 683.527344 449.296875 673.714844 452.316406 669.363281 451.992188 C 665.011719 451.671875 661.121094 449.6875 661.558594 446.855469 C 661.996094 444.019531 669.640625 437.5 671.089844 437.523438 C 672.542969 437.546875 673.671875 440.886719 676.570312 441.578125 C 679.207031 442.015625 681.882812 441.054688 683.640625 439.042969 C 684.175781 438.332031 685.125 438.074219 685.945312 438.421875 C 687.175781 441.199219 686.960938 444.40625 685.367188 446.992188 Z M 685.367188 446.992188 "/>
<path style=" stroke:none;fill-rule:nonzero;fill:rgb(99.215686%,72.54902%,66.27451%);fill-opacity:1;" d="M 706.648438 426.785156 C 699.324219 425.082031 700.753906 435.496094 698.816406 439.34375 C 697.59375 441.339844 696.035156 443.109375 694.210938 444.574219 C 692.417969 446.058594 691.242188 448.164062 690.917969 450.472656 C 690.882812 450.910156 690.96875 451.347656 691.171875 451.738281 C 691.550781 452.1875 692.070312 452.496094 692.644531 452.613281 C 696.835938 453.828125 701.328125 453.382812 705.195312 451.371094 C 707.003906 450.5 708.507812 449.101562 709.503906 447.363281 C 710.300781 445.492188 710.679688 443.472656 710.609375 441.441406 C 710.839844 437.0625 712.773438 428.097656 706.648438 426.785156 Z M 706.648438 426.785156 "/>
<path style=" stroke:none;fill-rule:nonzero;fill:rgb(34.509804%,40.392157%,94.117647%);fill-opacity:1;" d="M 700.152344 448.121094 C 700.152344 448.121094 679.289062 448.996094 688.132812 455.585938 C 696.976562 462.175781 710.171875 453.972656 711.460938 452.476562 C 712.75 450.980469 711.691406 448.421875 711.691406 448.421875 Z M 700.152344 448.121094 "/>
<path style=" stroke:none;fill-rule:nonzero;fill:rgb(100%,100%,100%);fill-opacity:1;" d="M 710.539062 450.957031 C 708.699219 453.261719 698.886719 456.300781 694.535156 455.980469 C 690.183594 455.65625 686.289062 453.675781 686.726562 450.839844 C 687.164062 448.007812 694.8125 441.484375 696.261719 441.625 C 697.710938 441.761719 698.839844 444.988281 701.742188 445.65625 C 704.375 446.105469 707.050781 445.152344 708.8125 443.144531 C 709.339844 442.425781 710.296875 442.167969 711.117188 442.523438 C 712.300781 445.261719 712.085938 448.402344 710.539062 450.957031 Z M 710.539062 450.957031 "/>
<path style=" stroke:none;fill-rule:nonzero;fill:rgb(27.843137%,24.705882%,27.843137%);fill-opacity:1;" d="M 687.742188 332.019531 L 697.550781 435.335938 L 711.691406 433.582031 C 717.289062 408.375 715.90625 332.964844 715.90625 332.964844 Z M 687.742188 332.019531 "/>
<path style=" stroke:none;fill-rule:nonzero;fill:rgb(27.843137%,24.705882%,27.843137%);fill-opacity:1;" d="M 697.550781 329.230469 L 687.742188 432.523438 L 673.554688 430.773438 C 665.472656 365.429688 672.152344 324.785156 672.152344 324.785156 Z M 697.550781 329.230469 "/>
<path style=" stroke:none;fill-rule:nonzero;fill:rgb(100%,100%,100%);fill-opacity:1;" d="M 673.441406 291.882812 C 673.253906 289.992188 672.75 288.101562 672.566406 286.167969 C 672.105469 282.273438 672.171875 278.335938 672.773438 274.460938 C 673.4375 270.328125 674.6875 266.3125 676.480469 262.527344 C 678.09375 259.253906 681.085938 257.917969 684.355469 256.214844 C 687.136719 254.71875 690.148438 253.699219 693.269531 253.195312 C 695.460938 252.996094 697.671875 253.121094 699.832031 253.566406 C 706.511719 254.832031 715.285156 258.171875 719.84375 263.542969 C 723.273438 267.480469 723.667969 273.148438 723.78125 278.378906 C 723.917969 285.589844 723.78125 292.804688 723.320312 300.015625 C 723.320312 301.050781 723.207031 302.089844 723.113281 303.148438 C 722.742188 311.171875 721.53125 319.132812 719.5 326.902344 C 719.117188 329.332031 717.804688 331.515625 715.835938 332.988281 C 710.609375 336.027344 702.640625 334.347656 697 333.5625 C 689.515625 332.503906 681.84375 331.398438 675.214844 327.757812 C 673.835938 327.164062 672.722656 326.09375 672.082031 324.738281 C 671.75 323.03125 671.96875 321.265625 672.703125 319.691406 C 675.007812 312.320312 673.210938 304.554688 673.210938 297.019531 C 673.210938 295.660156 673.371094 294.277344 673.371094 292.894531 C 673.441406 292.574219 673.441406 292.226562 673.441406 291.882812 Z M 673.441406 291.882812 "/>
<path style=" stroke:none;fill-rule:nonzero;fill:url(#linear9);" d="M 696.929688 305.222656 C 698.703125 306.328125 700.660156 307.109375 702.710938 307.527344 C 708.8125 309.300781 715.078125 310.246094 721.132812 312.132812 C 721.546875 312.214844 721.925781 312.40625 722.238281 312.6875 C 722.488281 313.070312 722.601562 313.523438 722.5625 313.976562 C 722.589844 315.753906 722.324219 317.519531 721.777344 319.207031 C 721.601562 320.050781 721.117188 320.796875 720.417969 321.304688 C 719.535156 321.628906 718.5625 321.628906 717.679688 321.304688 L 694.855469 316.464844 C 693.226562 316.050781 691.542969 315.847656 689.859375 315.867188 C 687.863281 316.101562 685.90625 316.585938 684.035156 317.320312 C 680.535156 318.441406 676.929688 319.210938 673.277344 319.621094 C 673.472656 315.265625 674.003906 310.925781 674.867188 306.652344 C 675.203125 305.386719 675.683594 304.164062 676.296875 303.011719 C 677.03125 301.871094 677.898438 300.820312 678.875 299.875 C 682.558594 296.027344 685.117188 291.214844 688.847656 287.367188 C 690.804688 285.339844 693.246094 284.046875 694.972656 281.882812 C 695.664062 281.007812 701.652344 273.472656 701.074219 272.664062 C 702.226562 274.09375 705.082031 272.664062 706.117188 274.140625 C 706.761719 275.0625 706.117188 276.304688 705.519531 277.25 C 701.109375 284.644531 698.027344 292.753906 696.421875 301.214844 C 695.960938 303.171875 695.273438 303.863281 696.929688 305.222656 Z M 696.929688 305.222656 "/>
<path style=" stroke:none;fill-rule:nonzero;fill:rgb(34.509804%,40.392157%,94.117647%);fill-opacity:1;" d="M 678.320312 210.640625 C 682.652344 213.421875 684.863281 218.558594 683.914062 223.617188 C 682.960938 228.679688 679.039062 232.660156 673.992188 233.679688 C 673.992188 233.679688 660.914062 238.609375 668.257812 249.992188 L 704.597656 273.148438 L 681.570312 309.507812 C 670.191406 316.859375 665.265625 303.769531 665.265625 303.769531 C 664.25 298.714844 660.269531 294.785156 655.203125 293.839844 C 650.136719 292.894531 645.007812 295.125 642.242188 299.476562 C 639.476562 303.828125 639.632812 309.421875 642.636719 313.613281 C 645.640625 317.800781 650.886719 319.742188 655.890625 318.515625 C 668.558594 318.261719 668.003906 330.867188 668.003906 330.867188 L 644.976562 367.226562 L 550.925781 307.320312 L 573.839844 271.28125 C 585.214844 263.957031 590.144531 277.019531 590.144531 277.019531 C 591.140625 282.09375 595.125 286.050781 600.207031 287.007812 C 605.285156 287.964844 610.4375 285.734375 613.210938 281.371094 C 615.988281 277.011719 615.832031 271.398438 612.816406 267.199219 C 609.800781 262.996094 604.535156 261.058594 599.515625 262.296875 C 586.851562 262.550781 587.425781 249.949219 587.425781 249.949219 L 610.777344 213.21875 L 647.140625 236.398438 C 647.140625 236.398438 659.738281 236.953125 659.484375 224.28125 C 658.671875 220.917969 659.253906 217.367188 661.097656 214.441406 C 664.867188 208.722656 672.496094 207.039062 678.320312 210.640625 Z M 678.320312 210.640625 "/>
<path style=" stroke:none;fill-rule:nonzero;fill:rgb(100%,100%,100%);fill-opacity:1;" d="M 734.398438 285.128906 C 735.339844 286.773438 736.113281 288.511719 736.699219 290.316406 C 737.445312 293.472656 737.523438 296.753906 736.929688 299.945312 C 736.652344 303.074219 735.53125 306.070312 733.683594 308.609375 C 729.792969 313.21875 722.835938 313.65625 716.804688 313.078125 C 709.953125 312.445312 703.191406 311.085938 696.628906 309.023438 C 696.019531 308.886719 695.445312 308.621094 694.949219 308.242188 C 694.417969 307.636719 694.050781 306.90625 693.890625 306.121094 C 693.386719 304.210938 693.054688 302.261719 692.898438 300.292969 C 699.808594 298.308594 707.453125 299.921875 714.660156 298.863281 C 715.660156 298.859375 716.59375 298.375 717.167969 297.558594 C 717.742188 296.746094 717.890625 295.703125 717.5625 294.761719 C 717.21875 290.707031 714.707031 287.160156 713.535156 283.242188 C 712.382812 279.472656 712.480469 275.429688 713.808594 271.722656 C 714.613281 269.074219 716.53125 266.910156 719.0625 265.800781 C 721.9375 264.855469 723.042969 267.113281 724.632812 269.234375 C 728.292969 274.273438 731.554688 279.589844 734.398438 285.128906 Z M 734.398438 285.128906 "/>
<path style=" stroke:none;fill-rule:nonzero;fill:rgb(99.215686%,72.54902%,66.27451%);fill-opacity:1;" d="M 690.019531 297.710938 C 689.75 297.488281 689.421875 297.347656 689.078125 297.296875 C 688.539062 297.351562 688.070312 297.695312 687.855469 298.195312 C 687.652344 298.691406 687.421875 299.175781 687.164062 299.644531 C 686.464844 300.425781 685.445312 300.839844 684.402344 300.777344 C 683.367188 300.671875 682.328125 300.671875 681.292969 300.777344 C 680.910156 300.855469 680.554688 301.027344 680.257812 301.28125 C 679.972656 301.558594 679.773438 301.910156 679.679688 302.296875 C 679.324219 303.886719 679.792969 305.550781 680.925781 306.71875 C 682.050781 307.859375 683.429688 308.714844 684.953125 309.207031 C 686.507812 309.894531 688.234375 310.101562 689.90625 309.808594 C 690.824219 309.539062 691.699219 309.144531 692.507812 308.632812 L 695.871094 306.765625 C 696.152344 306.632812 696.402344 306.445312 696.605469 306.214844 C 697.34375 305.292969 696.332031 302.527344 695.664062 301.605469 C 693.980469 300.039062 692.082031 298.726562 690.019531 297.710938 Z M 690.019531 297.710938 "/>
<path style=" stroke:none;fill-rule:nonzero;fill:rgb(99.215686%,72.54902%,66.27451%);fill-opacity:1;" d="M 687.765625 242.734375 C 687.765625 240.753906 687.925781 238.75 688.132812 236.8125 C 688.339844 234.878906 688.59375 233.359375 688.914062 231.652344 C 688.960938 230.632812 689.449219 229.679688 690.25 229.050781 C 692.914062 227.457031 695.972656 226.660156 699.070312 226.746094 C 701.441406 226.578125 703.773438 227.414062 705.496094 229.050781 C 706.535156 230.371094 707.152344 231.976562 707.269531 233.65625 C 707.378906 238.019531 706.945312 242.375 705.980469 246.628906 C 705.492188 249.96875 705.316406 253.347656 705.449219 256.722656 C 703.820312 257.808594 701.945312 258.472656 699.992188 258.65625 C 699.085938 258.648438 698.183594 258.5 697.320312 258.21875 C 696.839844 258.109375 696.414062 257.832031 696.125 257.4375 C 696.019531 257.066406 696.019531 256.675781 696.125 256.304688 C 696.144531 255.953125 696.144531 255.597656 696.125 255.246094 C 696.257812 253.273438 696.21875 251.292969 696.007812 249.324219 C 696.015625 249.152344 695.949219 248.984375 695.824219 248.863281 C 695.699219 248.820312 695.558594 248.820312 695.433594 248.863281 L 694.878906 248.863281 C 693.898438 248.96875 692.914062 248.96875 691.933594 248.863281 C 690.753906 248.75 689.65625 248.207031 688.847656 247.34375 C 687.910156 246.003906 687.523438 244.351562 687.765625 242.734375 Z M 687.765625 242.734375 "/>
<path style=" stroke:none;fill-rule:nonzero;fill:rgb(27.843137%,24.705882%,27.843137%);fill-opacity:1;" d="M 691.863281 230.109375 C 691.171875 230.109375 690.550781 230.476562 689.953125 230.109375 C 689.324219 229.589844 688.773438 228.984375 688.316406 228.3125 C 687.214844 226.851562 686.675781 225.042969 686.796875 223.21875 C 686.839844 222.394531 687.109375 221.597656 687.578125 220.914062 C 688.089844 220.296875 688.746094 219.8125 689.492188 219.511719 C 690.917969 218.804688 692.507812 218.496094 694.097656 218.613281 C 696.398438 218.910156 698.542969 219.9375 700.222656 221.539062 C 700.578125 221.90625 701.007812 222.191406 701.488281 222.367188 C 701.929688 222.460938 702.382812 222.460938 702.824219 222.367188 C 705.738281 222.121094 708.636719 223.011719 710.910156 224.855469 C 712.199219 225.984375 713.210938 227.4375 714.546875 228.425781 C 715.882812 229.417969 717.195312 229.785156 717.886719 231.054688 C 718.476562 232.253906 718.324219 233.6875 717.496094 234.742188 C 716.636719 235.75 715.457031 236.433594 714.15625 236.675781 C 714.445312 237.433594 714.417969 238.273438 714.078125 239.011719 C 713.742188 239.75 713.121094 240.316406 712.359375 240.59375 C 711.828125 240.671875 711.3125 240.84375 710.839844 241.097656 C 710.515625 241.351562 710.378906 241.746094 710.054688 242 C 709.296875 242.621094 708.304688 242.828125 707.984375 243.886719 C 707.886719 244.332031 707.847656 244.789062 707.867188 245.246094 C 707.8125 245.921875 707.539062 246.5625 707.085938 247.066406 C 706.785156 247.390625 706.257812 248.195312 705.820312 248.289062 C 705.382812 248.378906 704.988281 247.851562 704.851562 247.390625 C 704.3125 245.4375 704.449219 243.355469 705.242188 241.492188 C 705.8125 240.589844 706.144531 239.558594 706.210938 238.496094 C 706.210938 237.4375 704.691406 236.605469 703.90625 237.230469 C 703.125 237.851562 703.078125 239.347656 702.25 239.050781 C 703.3125 235.972656 701.960938 232.578125 699.070312 231.078125 C 697.519531 230.601562 695.902344 230.375 694.28125 230.410156 C 693.523438 230.25 692.753906 230.164062 691.976562 230.15625 Z M 691.863281 230.109375 "/>
<path style=" stroke:none;fill-rule:nonzero;fill:rgb(87.058824%,62.352941%,57.647059%);fill-opacity:1;" d="M 694.878906 248.910156 C 697.167969 248.476562 699.402344 247.8125 701.558594 246.929688 C 701.957031 250.671875 699.679688 254.183594 696.101562 255.339844 C 696.273438 253.367188 696.273438 251.386719 696.101562 249.417969 C 696.097656 249.246094 696.03125 249.082031 695.917969 248.957031 C 695.789062 248.910156 695.652344 248.910156 695.523438 248.957031 L 694.996094 248.957031 Z M 694.878906 248.910156 "/>
<path style=" stroke:none;fill-rule:nonzero;fill:rgb(99.215686%,72.54902%,66.27451%);fill-opacity:1;" d="M 622.777344 265.476562 C 623.484375 266.492188 623.664062 267.785156 623.257812 268.957031 C 622.859375 270.109375 622.277344 271.191406 621.53125 272.160156 L 617.917969 277.503906 C 616.972656 278.886719 615.613281 280.453125 614.023438 280.316406 C 610.0625 280.039062 608.3125 269.761719 609.789062 266.722656 C 611.492188 262.917969 620.171875 262.226562 622.777344 265.476562 Z M 622.777344 265.476562 "/>
<path style=" stroke:none;fill-rule:nonzero;fill:rgb(34.509804%,40.392157%,94.117647%);fill-opacity:1;" d="M 641.429688 357.386719 L 641.429688 468.925781 L 529.96875 468.925781 L 529.96875 425.796875 C 529.96875 425.796875 536.257812 414.875 546.804688 421.878906 C 550.371094 425.617188 555.855469 426.8125 560.652344 424.886719 C 565.449219 422.964844 568.59375 418.316406 568.59375 413.144531 C 568.59375 407.976562 565.449219 403.324219 560.652344 401.402344 C 555.855469 399.480469 550.371094 400.671875 546.804688 404.414062 C 546.804688 404.414062 535.632812 412.800781 529.96875 400.496094 L 529.96875 357.386719 L 573.054688 357.386719 C 585.355469 351.71875 576.972656 340.542969 576.972656 340.542969 C 573.234375 336.976562 572.042969 331.488281 573.960938 326.6875 C 575.882812 321.890625 580.53125 318.742188 585.699219 318.742188 C 590.867188 318.742188 595.515625 321.890625 597.4375 326.6875 C 599.355469 331.488281 598.164062 336.976562 594.425781 340.542969 C 587.519531 351.097656 598.34375 357.386719 598.34375 357.386719 Z M 641.429688 357.386719 "/>
<path style=" stroke:none;fill-rule:nonzero;fill:url(#linear10);" d="M 641.429688 357.386719 L 641.429688 468.925781 L 529.96875 468.925781 L 529.96875 425.796875 C 529.96875 425.796875 536.257812 414.875 546.804688 421.878906 C 550.371094 425.617188 555.855469 426.8125 560.652344 424.886719 C 565.449219 422.964844 568.59375 418.316406 568.59375 413.144531 C 568.59375 407.976562 565.449219 403.324219 560.652344 401.402344 C 555.855469 399.480469 550.371094 400.671875 546.804688 404.414062 C 546.804688 404.414062 535.632812 412.800781 529.96875 400.496094 L 529.96875 357.386719 L 573.054688 357.386719 C 585.355469 351.71875 576.972656 340.542969 576.972656 340.542969 C 573.234375 336.976562 572.042969 331.488281 573.960938 326.6875 C 575.882812 321.890625 580.53125 318.742188 585.699219 318.742188 C 590.867188 318.742188 595.515625 321.890625 597.4375 326.6875 C 599.355469 331.488281 598.164062 336.976562 594.425781 340.542969 C 587.519531 351.097656 598.34375 357.386719 598.34375 357.386719 Z M 641.429688 357.386719 "/>
<path style=" stroke:none;fill-rule:nonzero;fill:rgb(34.509804%,40.392157%,94.117647%);fill-opacity:1;" d="M 457.152344 301.605469 C 457.136719 306.773438 453.984375 311.414062 449.191406 313.332031 C 444.394531 315.253906 438.917969 314.066406 435.34375 310.335938 C 424.796875 303.425781 418.507812 314.253906 418.507812 314.253906 L 418.507812 357.386719 L 529.96875 357.386719 L 529.96875 245.847656 L 418.507812 245.847656 L 418.507812 288.957031 C 424.171875 301.257812 435.34375 292.871094 435.34375 292.871094 C 438.917969 289.144531 444.394531 287.957031 449.191406 289.878906 C 453.984375 291.796875 457.136719 296.4375 457.152344 301.605469 Z M 457.152344 301.605469 "/>
<path style=" stroke:none;fill-rule:nonzero;fill:rgb(34.509804%,40.392157%,94.117647%);fill-opacity:1;" d="M 465.511719 374.230469 C 461.773438 377.800781 460.582031 383.285156 462.503906 388.085938 C 464.421875 392.882812 469.070312 396.03125 474.238281 396.03125 C 479.40625 396.03125 484.054688 392.882812 485.976562 388.085938 C 487.898438 383.285156 486.707031 377.800781 482.964844 374.230469 C 482.964844 374.230469 474.585938 363.054688 486.882812 357.386719 L 461.574219 357.386719 C 461.574219 357.386719 472.511719 363.675781 465.511719 374.230469 Z M 465.511719 374.230469 "/>
<path style=" stroke:none;fill-rule:nonzero;fill:url(#linear11);" d="M 418.507812 245.847656 L 418.507812 288.957031 C 424.171875 301.257812 435.34375 292.871094 435.34375 292.871094 C 438.910156 289.132812 444.394531 287.941406 449.191406 289.863281 C 453.988281 291.785156 457.132812 296.433594 457.132812 301.605469 C 457.132812 306.773438 453.988281 311.425781 449.191406 313.347656 C 444.394531 315.269531 438.910156 314.078125 435.34375 310.335938 C 424.796875 303.425781 418.507812 314.253906 418.507812 314.253906 L 418.507812 357.386719 L 461.574219 357.386719 C 461.574219 357.386719 472.488281 363.675781 465.488281 374.230469 C 461.75 377.800781 460.558594 383.285156 462.480469 388.085938 C 464.402344 392.882812 469.046875 396.03125 474.214844 396.03125 C 479.382812 396.03125 484.03125 392.882812 485.953125 388.085938 C 487.875 383.285156 486.683594 377.800781 482.945312 374.230469 C 482.945312 374.230469 474.5625 363.054688 486.859375 357.386719 L 529.96875 357.386719 L 529.96875 245.847656 Z M 418.507812 245.847656 "/>
<path style=" stroke:none;fill-rule:nonzero;fill:rgb(34.509804%,40.392157%,94.117647%);fill-opacity:1;" d="M 418.507812 357.386719 L 418.507812 468.925781 L 529.96875 468.925781 L 529.96875 425.796875 C 529.96875 425.796875 536.257812 414.875 546.804688 421.878906 C 550.371094 425.617188 555.855469 426.8125 560.652344 424.886719 C 565.449219 422.964844 568.59375 418.316406 568.59375 413.144531 C 568.59375 407.976562 565.449219 403.324219 560.652344 401.402344 C 555.855469 399.480469 550.371094 400.671875 546.804688 404.414062 C 546.804688 404.414062 535.632812 412.800781 529.96875 400.496094 L 529.96875 357.386719 L 486.90625 357.386719 C 474.605469 363.054688 482.988281 374.230469 482.988281 374.230469 C 486.726562 377.800781 487.917969 383.285156 486 388.085938 C 484.078125 392.882812 479.429688 396.03125 474.261719 396.03125 C 469.09375 396.03125 464.445312 392.882812 462.523438 388.085938 C 460.605469 383.285156 461.796875 377.800781 465.535156 374.230469 C 472.441406 363.675781 461.617188 357.386719 461.617188 357.386719 Z M 418.507812 357.386719 "/>
<path style=" stroke:none;fill-rule:nonzero;fill:rgb(34.509804%,40.392157%,94.117647%);fill-opacity:1;" d="M 307.277344 468.925781 L 307.277344 425.816406 C 312.941406 413.515625 324.113281 421.902344 324.113281 421.902344 C 327.679688 425.640625 333.164062 426.832031 337.960938 424.910156 C 342.757812 422.988281 345.902344 418.339844 345.902344 413.167969 C 345.902344 408 342.757812 403.347656 337.960938 401.425781 C 333.164062 399.503906 327.679688 400.695312 324.113281 404.4375 C 313.566406 411.347656 307.277344 400.519531 307.277344 400.519531 L 307.277344 357.386719 L 350.367188 357.386719 C 350.367188 357.386719 361.28125 351.097656 354.28125 340.542969 C 350.542969 336.976562 349.351562 331.488281 351.273438 326.6875 C 353.191406 321.890625 357.839844 318.742188 363.007812 318.742188 C 368.175781 318.742188 372.824219 321.890625 374.746094 326.6875 C 376.667969 331.488281 375.476562 336.976562 371.734375 340.542969 C 371.734375 340.542969 363.355469 351.71875 375.652344 357.386719 L 418.738281 357.386719 L 418.738281 468.925781 Z M 307.277344 468.925781 "/>
<path style=" stroke:none;fill-rule:nonzero;fill:url(#linear12);" d="M 307.277344 468.925781 L 307.277344 425.816406 C 312.941406 413.515625 324.113281 421.902344 324.113281 421.902344 C 327.679688 425.640625 333.164062 426.832031 337.960938 424.910156 C 342.757812 422.988281 345.902344 418.339844 345.902344 413.167969 C 345.902344 408 342.757812 403.347656 337.960938 401.425781 C 333.164062 399.503906 327.679688 400.695312 324.113281 404.4375 C 313.566406 411.347656 307.277344 400.519531 307.277344 400.519531 L 307.277344 357.386719 L 350.367188 357.386719 C 350.367188 357.386719 361.28125 351.097656 354.28125 340.542969 C 350.542969 336.976562 349.351562 331.488281 351.273438 326.6875 C 353.191406 321.890625 357.839844 318.742188 363.007812 318.742188 C 368.175781 318.742188 372.824219 321.890625 374.746094 326.6875 C 376.667969 331.488281 375.476562 336.976562 371.734375 340.542969 C 371.734375 340.542969 363.355469 351.71875 375.652344 357.386719 L 418.738281 357.386719 L 418.738281 468.925781 Z M 307.277344 468.925781 "/>
<path style=" stroke:none;fill-rule:nonzero;fill:rgb(34.509804%,40.392157%,94.117647%);fill-opacity:1;" d="M 457.289062 301.628906 C 457.273438 306.796875 454.125 311.433594 449.328125 313.355469 C 444.535156 315.273438 439.054688 314.089844 435.480469 310.359375 C 435.480469 310.359375 424.3125 301.972656 418.644531 314.277344 L 418.644531 357.386719 L 375.558594 357.386719 C 363.261719 351.71875 371.644531 340.542969 371.644531 340.542969 C 375.382812 336.976562 376.574219 331.488281 374.652344 326.6875 C 372.730469 321.890625 368.082031 318.742188 362.917969 318.742188 C 357.75 318.742188 353.101562 321.890625 351.179688 326.6875 C 349.257812 331.488281 350.449219 336.976562 354.1875 340.542969 C 361.097656 351.097656 350.273438 357.386719 350.273438 357.386719 L 307.277344 357.386719 L 307.277344 245.847656 L 349.949219 245.847656 C 362.25 251.515625 353.867188 262.6875 353.867188 262.6875 C 350.128906 266.257812 348.9375 271.746094 350.855469 276.542969 C 352.777344 281.34375 357.425781 284.488281 362.59375 284.488281 C 367.761719 284.488281 372.410156 281.34375 374.332031 276.542969 C 376.25 271.746094 375.058594 266.257812 371.320312 262.6875 C 364.414062 252.136719 375.238281 245.847656 375.238281 245.847656 L 418.738281 245.847656 L 418.738281 288.976562 C 418.738281 288.976562 425.027344 299.898438 435.574219 292.894531 C 439.148438 289.164062 444.625 287.980469 449.421875 289.902344 C 454.214844 291.820312 457.367188 296.460938 457.382812 301.628906 Z M 457.289062 301.628906 "/>
<path style=" stroke:none;fill-rule:nonzero;fill:rgb(34.509804%,40.392157%,94.117647%);fill-opacity:1;" d="M 484.601562 515.953125 C 484.683594 521.128906 481.605469 525.832031 476.832031 527.828125 C 472.058594 529.820312 466.550781 528.707031 462.929688 525.007812 C 462.929688 525.007812 451.648438 516.785156 446.167969 529.15625 L 446.789062 572.265625 L 403.699219 572.886719 C 391.3125 567.402344 399.53125 556.113281 399.53125 556.113281 C 403.203125 552.492188 404.304688 547.003906 402.3125 542.246094 C 400.324219 537.492188 395.640625 534.421875 390.488281 534.496094 C 385.335938 534.574219 380.746094 537.777344 378.894531 542.585938 C 377.042969 547.398438 378.304688 552.855469 382.078125 556.367188 C 389.238281 566.804688 378.414062 573.257812 378.414062 573.257812 L 335.328125 573.878906 L 333.714844 462.339844 L 376.386719 461.738281 C 388.777344 467.222656 380.554688 478.511719 380.554688 478.511719 C 376.886719 482.132812 375.785156 487.621094 377.773438 492.378906 C 379.765625 497.136719 384.445312 500.203125 389.601562 500.128906 C 394.753906 500.054688 399.34375 496.851562 401.195312 492.039062 C 403.046875 487.226562 401.785156 481.769531 398.011719 478.257812 C 390.851562 467.820312 401.675781 461.371094 401.675781 461.371094 L 445.175781 460.75 L 445.796875 503.878906 C 445.796875 503.878906 452.246094 514.710938 462.679688 507.542969 C 465.066406 504.992188 468.394531 503.527344 471.890625 503.488281 C 478.832031 503.4375 484.511719 509.007812 484.601562 515.953125 Z M 484.601562 515.953125 "/>
<path style=" stroke:none;fill-rule:nonzero;fill:url(#linear13);" d="M 349.328125 462.753906 C 347.785156 464.457031 346.589844 468.214844 349.03125 469.804688 C 349.902344 470.273438 350.871094 470.542969 351.863281 470.585938 L 364.898438 472.175781 C 364.503906 472.175781 371.320312 549.019531 373.992188 565.355469 C 374.316406 567.289062 375.121094 569.707031 377.078125 569.960938 C 378.269531 569.890625 379.355469 569.257812 380.003906 568.257812 C 381.886719 565.308594 382.957031 561.914062 383.113281 558.417969 C 386.351562 533.335938 387.890625 508.066406 387.71875 482.773438 C 387.71875 477.773438 387.535156 472.546875 385.046875 468.191406 C 381.957031 463.402344 377.003906 460.125 371.390625 459.160156 C 363.953125 457.476562 354.742188 456.714844 349.328125 462.753906 Z M 349.328125 462.753906 "/>
<path style=" stroke:none;fill-rule:nonzero;fill:rgb(14.901961%,15.686275%,21.176471%);fill-opacity:1;" d="M 380.695312 622.242188 L 380.695312 622.542969 C 381.246094 623.945312 382.996094 624.40625 384.472656 624.589844 C 385.863281 624.746094 387.261719 624.804688 388.664062 624.777344 C 389.332031 624.800781 390.003906 624.707031 390.644531 624.5 C 391.230469 624.242188 391.777344 623.910156 392.277344 623.507812 L 396.308594 620.511719 C 397.441406 619.730469 398.476562 618.820312 399.394531 617.792969 C 400.300781 616.742188 400.777344 615.382812 400.730469 613.992188 C 400.632812 612.585938 399.664062 611.390625 398.3125 610.996094 C 397.46875 610.894531 396.621094 610.894531 395.777344 610.996094 C 393.867188 611.242188 391.992188 610.339844 390.988281 608.695312 C 390.820312 607.941406 390.417969 607.261719 389.835938 606.757812 C 389.25 606.472656 388.585938 606.390625 387.949219 606.527344 C 386.550781 606.597656 385.171875 606.871094 383.847656 607.335938 C 382.5 607.816406 381.441406 608.882812 380.972656 610.238281 C 380.828125 610.855469 380.769531 611.492188 380.785156 612.125 C 380.867188 613.4375 380.867188 614.753906 380.785156 616.066406 C 380.601562 617.703125 380.511719 619.351562 380.511719 620.996094 C 380.523438 621.417969 380.585938 621.835938 380.695312 622.242188 Z M 380.695312 622.242188 "/>
<path style=" stroke:none;fill-rule:nonzero;fill:rgb(14.901961%,15.686275%,21.176471%);fill-opacity:1;" d="M 419.773438 622.769531 C 417.0625 624.015625 414.269531 625.078125 411.414062 625.949219 C 410.28125 626.441406 409.007812 626.515625 407.824219 626.160156 C 406.882812 625.703125 406.1875 624.863281 405.910156 623.855469 C 405.664062 622.835938 405.5625 621.789062 405.613281 620.742188 C 405.789062 619.125 406.121094 617.527344 406.601562 615.972656 C 406.855469 614.523438 407.0625 613.070312 407.246094 611.621094 C 407.546875 609.523438 407.824219 607.449219 408.074219 605.375 L 415.332031 606.917969 C 416.089844 607.082031 416.804688 610.007812 417.265625 610.628906 C 417.949219 611.558594 419.015625 612.125 420.167969 612.171875 C 421.402344 611.992188 422.648438 611.894531 423.898438 611.875 C 425.550781 612.261719 426.738281 613.71875 426.777344 615.421875 C 426.761719 617.082031 426.050781 618.664062 424.816406 619.777344 C 423.597656 620.882812 422.195312 621.769531 420.671875 622.402344 Z M 419.773438 622.769531 "/>
<path style=" stroke:none;fill-rule:nonzero;fill:rgb(34.509804%,40.392157%,94.117647%);fill-opacity:1;" d="M 419.890625 614.660156 C 417.984375 615.742188 416.007812 616.691406 413.972656 617.496094 L 413.789062 617.496094 C 410.425781 618.808594 406.671875 613.53125 406.671875 613.53125 C 406.671875 613.53125 401.925781 584.222656 402.066406 572.058594 C 402.226562 563.71875 400.246094 551.828125 397.277344 530.261719 C 396.539062 552.289062 392.808594 561.964844 393.753906 569.871094 C 395.203125 581.875 393.476562 611.6875 393.476562 611.6875 C 393.476562 611.6875 390.296875 617.496094 386.820312 616.710938 L 386.613281 616.710938 C 384.519531 616.234375 382.464844 615.605469 380.464844 614.824219 C 380.464844 614.824219 376.410156 573.761719 376.410156 562.933594 C 376.410156 552.105469 376.871094 542.40625 376.871094 542.40625 L 374.753906 508.121094 L 383.78125 494.988281 L 384.515625 494.6875 L 385.207031 493.996094 L 395.226562 486.644531 C 395.226562 486.644531 395.226562 488.351562 395.042969 491.253906 L 402.824219 495.425781 L 403.5625 495.976562 L 404.324219 496.160156 L 417.355469 498.464844 C 417.355469 498.464844 420.765625 551.066406 421.960938 561.828125 C 423.160156 572.589844 419.890625 614.660156 419.890625 614.660156 Z M 419.890625 614.660156 "/>
<path style=" stroke:none;fill-rule:nonzero;fill:url(#linear14);" d="M 419.890625 614.660156 C 417.984375 615.742188 416.007812 616.691406 413.972656 617.496094 L 413.789062 617.496094 C 410.425781 618.808594 406.671875 613.53125 406.671875 613.53125 C 406.671875 613.53125 401.925781 584.222656 402.066406 572.058594 C 402.226562 563.71875 400.246094 551.828125 397.277344 530.261719 C 396.539062 552.289062 392.808594 561.964844 393.753906 569.871094 C 395.203125 581.875 393.476562 611.6875 393.476562 611.6875 C 393.476562 611.6875 390.296875 617.496094 386.820312 616.710938 L 386.613281 616.710938 C 384.519531 616.234375 382.464844 615.605469 380.464844 614.824219 C 380.464844 614.824219 376.410156 573.761719 376.410156 562.933594 C 376.410156 552.105469 376.871094 542.40625 376.871094 542.40625 L 374.753906 508.121094 L 383.78125 494.988281 L 384.515625 494.6875 L 385.207031 493.996094 L 395.226562 486.644531 C 395.226562 486.644531 395.226562 488.351562 395.042969 491.253906 L 402.824219 495.425781 L 403.5625 495.976562 L 404.324219 496.160156 L 417.355469 498.464844 C 417.355469 498.464844 420.765625 551.066406 421.960938 561.828125 C 423.160156 572.589844 419.890625 614.660156 419.890625 614.660156 Z M 419.890625 614.660156 "/>
<path style=" stroke:none;fill-rule:nonzero;fill:rgb(65.098039%,48.627451%,32.156863%);fill-opacity:1;" d="M 481.238281 431.300781 C 481.402344 431.1875 481.59375 431.121094 481.792969 431.117188 C 482.320312 431.117188 482.34375 431.96875 482.160156 432.476562 C 481.679688 433.890625 480.980469 435.21875 480.089844 436.417969 C 479.800781 436.714844 479.628906 437.109375 479.605469 437.523438 C 479.605469 437.9375 479.972656 438.238281 480.25 438.535156 C 481.96875 440.53125 482.628906 443.230469 482.023438 445.792969 C 481.382812 448.316406 480.070312 450.621094 478.222656 452.453125 C 477.324219 453.597656 476.007812 454.335938 474.5625 454.503906 C 472.074219 454.503906 468.964844 451.441406 467.976562 449.320312 C 467.242188 447.164062 467.695312 444.785156 469.171875 443.050781 C 472.109375 438.15625 476.269531 434.109375 481.238281 431.300781 Z M 481.238281 431.300781 "/>
<path style=" stroke:none;fill-rule:nonzero;fill:rgb(65.098039%,48.627451%,32.156863%);fill-opacity:1;" d="M 409.089844 407.109375 C 409.894531 407.9375 411.140625 408.789062 410.792969 409.875 C 410.609375 410.449219 409.988281 410.796875 409.527344 411.210938 C 408.390625 412.417969 407.777344 414.023438 407.824219 415.679688 C 407.871094 417.328125 407.636719 418.972656 407.132812 420.542969 C 406.539062 422.140625 404.902344 423.105469 403.21875 422.847656 C 402.273438 422.59375 401.328125 421.761719 400.40625 422.15625 C 399.484375 422.546875 399.484375 423.308594 399.117188 423.953125 C 398.089844 425.570312 396.234375 426.464844 394.328125 426.257812 C 392.480469 425.976562 390.699219 425.359375 389.078125 424.4375 C 388.386719 424.160156 387.789062 423.699219 387.351562 423.097656 C 387.082031 422.515625 387.015625 421.859375 387.164062 421.234375 C 387.734375 419.359375 388.664062 417.613281 389.90625 416.09375 C 391.890625 413.03125 393.085938 409.527344 393.382812 405.886719 C 393.566406 403.351562 393.382812 400.566406 395.019531 398.605469 C 397.320312 395.933594 402.550781 395.957031 405.289062 397.914062 C 408.03125 399.875 406.554688 404.503906 409.089844 407.109375 Z M 409.089844 407.109375 "/>
<path style=" stroke:none;fill-rule:nonzero;fill:rgb(18.431373%,20.784314%,32.941176%);fill-opacity:1;" d="M 405.820312 395.632812 C 405.5 396.265625 405.011719 396.800781 404.414062 397.179688 C 403.195312 397.894531 402.113281 398.722656 401.007812 399.484375 C 399.890625 400.21875 399.105469 401.359375 398.820312 402.660156 C 398.335938 404.964844 399.625 407.59375 398.820312 409.921875 C 398.519531 410.402344 397.757812 410.105469 397.460938 409.644531 C 397.160156 409.183594 396.976562 408.605469 396.515625 408.332031 C 395.710938 407.871094 394.742188 408.652344 394.398438 409.503906 C 393.65625 411.566406 394.671875 413.84375 396.699219 414.667969 C 396.585938 415.402344 395.640625 415.703125 394.878906 415.609375 C 394.128906 415.40625 393.355469 415.304688 392.578125 415.3125 C 390.851562 415.632812 390.273438 418.097656 388.476562 418.351562 C 387.273438 418.273438 386.171875 417.632812 385.507812 416.625 L 383.410156 414.320312 C 383.074219 413.871094 382.703125 413.449219 382.304688 413.054688 C 381.824219 412.683594 381.039062 412.660156 380.648438 412.222656 C 380.257812 411.785156 380.648438 410.75 380.234375 410.195312 C 380.039062 409.992188 379.792969 409.839844 379.519531 409.757812 C 378.277344 409.128906 377.644531 407.71875 378 406.371094 C 378.054688 406.207031 378.054688 406.027344 378 405.863281 C 378 405.632812 377.675781 405.542969 377.449219 405.425781 C 376.132812 404.574219 375.636719 402.894531 376.273438 401.464844 C 376.625 400.667969 377.125 399.949219 377.746094 399.34375 C 378.195312 398.652344 379.003906 398.285156 379.820312 398.398438 L 380.164062 395.382812 C 380.148438 394.347656 380.597656 393.359375 381.386719 392.6875 C 382.175781 392.019531 383.222656 391.738281 384.242188 391.925781 L 383.550781 389.4375 C 383.421875 389.117188 383.421875 388.765625 383.550781 388.445312 C 383.738281 388.226562 384 388.078125 384.285156 388.03125 C 385.089844 387.800781 385.917969 387.664062 386.75 387.617188 C 386.453125 386.917969 386.21875 386.191406 386.058594 385.449219 C 385.953125 385.230469 385.988281 384.96875 386.148438 384.789062 C 386.3125 384.605469 386.566406 384.539062 386.796875 384.621094 C 387.101562 384.667969 387.414062 384.667969 387.71875 384.621094 C 387.71875 384.621094 387.257812 382.5 387.234375 382.316406 C 387.09375 381.652344 387.21875 380.957031 387.582031 380.382812 C 388.09375 379.800781 388.863281 379.511719 389.628906 379.621094 C 390.378906 379.753906 391.09375 380.019531 391.75 380.40625 C 391.75 379.597656 392.738281 379.183594 393.542969 379.113281 C 396.699219 378.9375 399.722656 380.390625 401.558594 382.960938 C 401.707031 383.183594 401.878906 383.394531 402.066406 383.585938 C 402.433594 383.820312 402.839844 383.988281 403.261719 384.089844 C 404.585938 384.675781 405.574219 385.828125 405.957031 387.226562 C 406.300781 388.59375 406.441406 390.007812 406.371094 391.417969 C 406.425781 392.503906 406.324219 393.589844 406.074219 394.644531 C 406.027344 394.984375 405.941406 395.316406 405.820312 395.632812 Z M 405.820312 395.632812 "/>
<path style=" stroke:none;fill-rule:nonzero;fill:rgb(100%,100%,100%);fill-opacity:1;" d="M 394.375 421.761719 C 396.292969 422.566406 398.152344 423.5 399.945312 424.550781 C 400.5 424.847656 400.980469 425.265625 401.351562 425.773438 C 401.757812 426.335938 401.828125 427.074219 401.535156 427.707031 C 401.050781 428.558594 399.902344 428.261719 399.027344 427.9375 C 394.96875 426.558594 390.683594 425.964844 386.40625 426.1875 C 385.824219 426.28125 385.234375 426.042969 384.886719 425.566406 C 384.683594 424.992188 384.742188 424.363281 385.046875 423.835938 C 387.234375 419.4375 390.804688 420.148438 394.375 421.761719 Z M 394.375 421.761719 "/>
<path style=" stroke:none;fill-rule:nonzero;fill:rgb(100%,100%,100%);fill-opacity:1;" d="M 473.203125 455.726562 C 472.371094 457.792969 471.140625 459.679688 469.585938 461.277344 C 468.089844 462.960938 466.546875 464.574219 464.980469 466.140625 C 461.199219 469.800781 457.207031 473.238281 453.027344 476.4375 C 450.191406 478.949219 446.808594 480.761719 443.148438 481.738281 C 441.664062 482.085938 440.113281 481.988281 438.683594 481.460938 C 437.519531 480.882812 436.464844 480.101562 435.574219 479.15625 C 434.511719 478.097656 422.214844 463.929688 422.007812 463.929688 C 421.3125 464.300781 420.769531 464.914062 420.488281 465.65625 C 418.710938 469.339844 417.613281 473.3125 417.242188 477.382812 C 417.09375 479.199219 417.09375 481.027344 417.242188 482.84375 C 417.726562 489.042969 419.890625 495.425781 417.75 501.277344 C 417.320312 502.515625 416.609375 503.632812 415.675781 504.546875 C 414.773438 505.335938 413.734375 505.953125 412.613281 506.367188 C 410.628906 507.183594 408.558594 507.769531 406.441406 508.121094 C 405.230469 508.34375 404.007812 508.472656 402.78125 508.511719 C 398.171875 508.695312 393.796875 507.820312 389.285156 508.027344 C 385.460938 508.234375 381.660156 509.226562 377.769531 509.085938 C 376.660156 509.304688 375.507812 509.023438 374.621094 508.316406 C 373.738281 507.613281 373.203125 506.554688 373.164062 505.425781 C 371.671875 497.21875 370.902344 488.902344 370.859375 480.5625 C 370.859375 477.660156 370.699219 474.734375 370.515625 471.832031 C 370.355469 469.367188 371.023438 463.097656 368.210938 462.613281 C 361.074219 461.230469 353.660156 462.984375 346.449219 461.96875 C 346.652344 457.25 348.652344 452.789062 352.046875 449.503906 C 353.710938 448.097656 355.515625 446.871094 357.433594 445.839844 C 359.644531 444.257812 361.628906 442.382812 363.332031 440.265625 C 368.226562 434.214844 374.433594 429.355469 381.476562 426.046875 C 382.601562 425.5 383.78125 425.082031 385 424.804688 L 385.300781 424.804688 C 385.476562 424.785156 385.652344 424.785156 385.828125 424.804688 C 387.371094 424.675781 388.921875 424.769531 390.4375 425.082031 C 400.710938 426.785156 410.875 429.09375 420.878906 431.992188 C 422.199219 432.289062 423.449219 432.835938 424.566406 433.605469 C 425.34375 434.308594 426.011719 435.125 426.546875 436.023438 C 429.355469 440.265625 432.09375 444.550781 434.929688 448.789062 C 437.367188 452.429688 439.765625 456.992188 443.355469 459.664062 C 451.175781 456.484375 458.558594 452.320312 465.328125 447.269531 C 466.269531 446.554688 467.492188 445.773438 468.574219 446.253906 C 468.933594 446.417969 469.253906 446.652344 469.519531 446.945312 C 472.164062 449.25 474.492188 451.785156 473.203125 455.726562 Z M 473.203125 455.726562 "/>
</g>
</svg>
