<?xml version="1.0" encoding="UTF-8"?>
<svg xmlns="http://www.w3.org/2000/svg" xmlns:xlink="http://www.w3.org/1999/xlink" width="919pt" height="693pt" viewBox="0 0 919 693" version="1.1">
<defs>
<linearGradient id="linear0" gradientUnits="userSpaceOnUse" x1="258.39" y1="225.71" x2="250.67" y2="235.49" gradientTransform="matrix(2.2975,0,0,2.298676,0,1.698529)">
<stop offset="0" style="stop-color:rgb(50.196078%,50.196078%,50.196078%);stop-opacity:1;"/>
<stop offset="1" style="stop-color:rgb(100%,100%,100%);stop-opacity:1;"/>
</linearGradient>
<linearGradient id="linear1" gradientUnits="userSpaceOnUse" x1="218.51" y1="209.98" x2="196.5" y2="226.93" gradientTransform="matrix(2.2975,0,0,2.298676,0,1.698529)">
<stop offset="0" style="stop-color:rgb(50.196078%,50.196078%,50.196078%);stop-opacity:1;"/>
<stop offset="1" style="stop-color:rgb(100%,100%,100%);stop-opacity:1;"/>
</linearGradient>
<linearGradient id="linear2" gradientUnits="userSpaceOnUse" x1="181.79" y1="241.8" x2="169.91" y2="256.84" gradientTransform="matrix(2.2975,0,0,2.298676,0,1.698529)">
<stop offset="0" style="stop-color:rgb(50.196078%,50.196078%,50.196078%);stop-opacity:1;"/>
<stop offset="1" style="stop-color:rgb(100%,100%,100%);stop-opacity:1;"/>
</linearGradient>
<linearGradient id="linear3" gradientUnits="userSpaceOnUse" x1="117.82" y1="208.14" x2="98.94" y2="237.44" gradientTransform="matrix(2.2975,0,0,2.298676,0,1.698529)">
<stop offset="0" style="stop-color:rgb(50.196078%,50.196078%,50.196078%);stop-opacity:1;"/>
<stop offset="1" style="stop-color:rgb(100%,100%,100%);stop-opacity:1;"/>
</linearGradient>
<filter id="alpha" filterUnits="objectBoundingBox" x="0%" y="0%" width="100%" height="100%">
  <feColorMatrix type="matrix" in="SourceGraphic" values="0 0 0 0 1 0 0 0 0 1 0 0 0 0 1 0 0 0 1 0"/>
</filter>
<mask id="mask0">
  <g filter="url(#alpha)">
<rect x="0" y="0" width="919" height="693" style="fill:rgb(0%,0%,0%);fill-opacity:0.509804;stroke:none;"/>
  </g>
</mask>
<clipPath id="clip1">
  <rect x="0" y="0" width="919" height="693"/>
</clipPath>
<g id="surface5" clip-path="url(#clip1)">
<path style=" stroke:none;fill-rule:nonzero;fill:rgb(21.568627%,58.431373%,64.705882%);fill-opacity:1;" d="M 654.167969 152.722656 L 654.167969 381.738281 L 350.757812 558.691406 L 350.757812 298.503906 Z M 654.167969 152.722656 "/>
</g>
<mask id="mask1">
  <g filter="url(#alpha)">
<rect x="0" y="0" width="919" height="693" style="fill:rgb(0%,0%,0%);fill-opacity:0.780392;stroke:none;"/>
  </g>
</mask>
<clipPath id="clip2">
  <rect x="0" y="0" width="919" height="693"/>
</clipPath>
<g id="surface8" clip-path="url(#clip2)">
<path style=" stroke:none;fill-rule:nonzero;fill:rgb(21.568627%,58.431373%,64.705882%);fill-opacity:1;" d="M 213.691406 248.644531 L 213.691406 478.535156 L 350.757812 558.691406 L 350.757812 323.996094 Z M 213.691406 248.644531 "/>
</g>
</defs>
<g id="surface1">
<path style=" stroke:none;fill-rule:nonzero;fill:rgb(100%,74.901961%,25.490196%);fill-opacity:1;" d="M 771.339844 418.746094 L 505.976562 264.34375 C 502.097656 262.101562 497.316406 262.101562 493.433594 264.34375 L 96.496094 491.546875 C 92.597656 493.785156 90.195312 497.9375 90.195312 502.429688 C 90.195312 506.925781 92.597656 511.078125 96.496094 513.316406 L 350.253906 659.902344 C 362.929688 667.222656 378.542969 667.222656 391.21875 659.902344 L 771.226562 440.46875 C 775.109375 438.246094 777.515625 434.121094 777.539062 429.640625 C 777.5625 425.164062 775.203125 421.011719 771.339844 418.746094 Z M 771.339844 418.746094 "/>
<path style=" stroke:none;fill-rule:nonzero;fill:url(#linear0);" d="M 587.609375 522.117188 C 577.523438 528.003906 569.757812 532.164062 554.25 541.015625 C 565.988281 548.164062 571.136719 552.277344 572.46875 553.058594 L 607.34375 532.691406 C 604.632812 531.152344 600.175781 528.347656 587.609375 522.117188 Z M 587.609375 522.117188 "/>
<path style=" stroke:none;fill-rule:nonzero;fill:url(#linear1);" d="M 475.71875 463.042969 C 441.878906 482.789062 417.683594 496.050781 365.625 525.796875 C 405.027344 549.75 435.558594 571.769531 439.996094 574.390625 L 556.984375 505.683594 C 547.90625 500.902344 517.855469 483.890625 475.71875 463.042969 Z M 475.71875 463.042969 "/>
<path style=" stroke:none;fill-rule:nonzero;fill:url(#linear2);" d="M 404.359375 558.691406 C 389.035156 567.632812 378.078125 573.632812 354.527344 587.101562 C 372.355469 597.953125 386.1875 607.929688 388.207031 609.101562 L 441.121094 578 C 437.097656 575.839844 423.5 568.136719 404.359375 558.691406 Z M 404.359375 558.691406 "/>
<path style=" stroke:none;fill-rule:nonzero;fill:url(#linear3);" d="M 213.667969 466.628906 C 179.734375 486.375 164.730469 492.878906 112.578125 522.625 C 152.070312 546.484375 253.136719 603.722656 257.574219 606.25 L 350.757812 558.621094 C 341.660156 553.886719 255.710938 487.476562 213.667969 466.628906 Z M 213.667969 466.628906 "/>
<path style=" stroke:none;fill-rule:nonzero;fill:rgb(90.980392%,33.72549%,25.882353%);fill-opacity:1;" d="M 209.347656 245.957031 L 209.347656 312.363281 L 227.222656 321.765625 L 227.222656 248.644531 "/>
<path style=" stroke:none;fill-rule:nonzero;fill:rgb(34.509804%,40.392157%,94.117647%);fill-opacity:1;" d="M 654.167969 152.722656 L 654.167969 381.738281 L 350.757812 558.691406 L 350.757812 298.503906 Z M 654.167969 152.722656 "/>
<path style=" stroke:none;fill-rule:nonzero;fill:rgb(34.509804%,40.392157%,94.117647%);fill-opacity:1;" d="M 213.691406 248.644531 L 213.691406 478.535156 L 350.757812 558.691406 L 350.757812 323.996094 Z M 213.691406 248.644531 "/>
<use xlink:href="#surface5" mask="url(#mask0)"/>
<path style=" stroke:none;fill-rule:nonzero;fill:rgb(34.509804%,40.392157%,94.117647%);fill-opacity:1;" d="M 216.953125 421.390625 L 216.953125 246.714844 L 350.757812 323.996094 L 350.757812 502.003906 "/>
<use xlink:href="#surface8" mask="url(#mask1)"/>
<path style=" stroke:none;fill-rule:nonzero;fill:rgb(34.509804%,40.392157%,94.117647%);fill-opacity:1;" d="M 527.917969 71.441406 L 213.691406 248.53125 L 213.691406 248.644531 L 349.449219 326.085938 L 654.167969 152.722656 Z M 527.917969 71.441406 "/>
<path style=" stroke:none;fill-rule:nonzero;fill:rgb(90.980392%,33.72549%,25.882353%);fill-opacity:1;" d="M 351.378906 328.25 L 351.378906 393.277344 L 373.34375 405.964844 L 373.34375 340.960938 Z M 351.378906 328.25 "/>
<path style=" stroke:none;fill-rule:nonzero;fill:rgb(90.980392%,33.72549%,25.882353%);fill-opacity:1;" d="M 373.34375 340.960938 L 373.34375 312.480469 L 209.347656 216.671875 L 209.347656 245.957031 L 351.378906 328.25 "/>
<path style=" stroke:none;fill-rule:nonzero;fill:rgb(34.509804%,40.392157%,94.117647%);fill-opacity:1;" d="M 422.027344 538.921875 C 413.023438 538.140625 403.511719 535.40625 396.753906 529.246094 L 396.753906 555.976562 C 396.753906 571.300781 409.171875 583.722656 424.484375 583.722656 C 439.800781 583.722656 452.21875 571.300781 452.21875 555.976562 L 452.21875 528.808594 C 442.867188 532.691406 432.113281 539.820312 422.027344 538.921875 Z M 422.027344 538.921875 "/>
<path style=" stroke:none;fill-rule:nonzero;fill:rgb(36.862745%,81.960784%,55.294118%);fill-opacity:1;" d="M 452.308594 529.082031 C 452.308594 520.957031 439.894531 514.371094 424.578125 514.371094 C 409.261719 514.371094 396.847656 520.957031 396.847656 529.082031 C 396.847656 537.207031 409.261719 543.796875 424.578125 543.796875 C 439.894531 543.796875 452.308594 537.207031 452.308594 529.082031 Z M 452.308594 529.082031 "/>
<path style=" stroke:none;fill-rule:nonzero;fill:rgb(36.862745%,81.960784%,55.294118%);fill-opacity:1;" d="M 424.578125 531.566406 C 424.578125 531.566406 405.714844 528.785156 400.730469 498.257812 C 400.730469 498.210938 416.8125 507.15625 424.578125 531.566406 Z M 424.578125 531.566406 "/>
<path style=" stroke:none;fill-rule:nonzero;fill:rgb(36.862745%,81.960784%,55.294118%);fill-opacity:1;" d="M 427.335938 527.683594 C 427.335938 527.683594 405.691406 488.835938 427.335938 462.742188 C 433.9375 483.886719 433.9375 506.539062 427.335938 527.683594 Z M 427.335938 527.683594 "/>
<path style=" stroke:none;fill-rule:nonzero;fill:rgb(36.862745%,81.960784%,55.294118%);fill-opacity:1;" d="M 424.578125 503.269531 C 424.578125 503.269531 405.714844 500.488281 400.730469 469.960938 C 400.730469 469.960938 416.8125 478.835938 424.578125 503.269531 Z M 424.578125 503.269531 "/>
<path style=" stroke:none;fill-rule:nonzero;fill:rgb(36.862745%,81.960784%,55.294118%);fill-opacity:1;" d="M 426.875 515.707031 C 426.875 515.707031 422.144531 497.316406 448.355469 480.835938 C 448.355469 480.835938 446.382812 499.109375 426.875 515.707031 Z M 426.875 515.707031 "/>
<path style=" stroke:none;fill-rule:nonzero;fill:rgb(7.843137%,40%,40%);fill-opacity:1;" d="M 452.308594 529.082031 C 452.308594 520.957031 439.894531 514.371094 424.578125 514.371094 C 409.261719 514.371094 396.847656 520.957031 396.847656 529.082031 C 396.847656 537.207031 409.261719 543.796875 424.578125 543.796875 C 439.894531 543.796875 452.308594 537.207031 452.308594 529.082031 Z M 452.308594 529.082031 "/>
<path style=" stroke:none;fill-rule:nonzero;fill:rgb(36.862745%,81.960784%,55.294118%);fill-opacity:1;" d="M 424.578125 531.566406 C 424.578125 531.566406 405.714844 528.785156 400.730469 498.257812 C 400.730469 498.210938 416.8125 507.15625 424.578125 531.566406 Z M 424.578125 531.566406 "/>
<path style=" stroke:none;fill-rule:nonzero;fill:rgb(36.862745%,81.960784%,55.294118%);fill-opacity:1;" d="M 427.335938 527.683594 C 427.335938 527.683594 405.691406 488.835938 427.335938 462.742188 C 433.9375 483.886719 433.9375 506.539062 427.335938 527.683594 Z M 427.335938 527.683594 "/>
<path style=" stroke:none;fill-rule:nonzero;fill:rgb(36.862745%,81.960784%,55.294118%);fill-opacity:1;" d="M 424.578125 503.269531 C 424.578125 503.269531 405.714844 500.488281 400.730469 469.960938 C 400.730469 469.960938 416.8125 478.835938 424.578125 503.269531 Z M 424.578125 503.269531 "/>
<path style=" stroke:none;fill-rule:nonzero;fill:rgb(36.862745%,81.960784%,55.294118%);fill-opacity:1;" d="M 426.875 515.707031 C 426.875 515.707031 422.144531 497.316406 448.355469 480.835938 C 448.355469 480.835938 446.382812 499.109375 426.875 515.707031 Z M 426.875 515.707031 "/>
<path style=" stroke:none;fill-rule:nonzero;fill:rgb(90.980392%,49.019608%,20.392157%);fill-opacity:1;" d="M 525.804688 523.429688 L 573.914062 497.0625 L 573.914062 442.929688 L 516.660156 467.203125 Z M 525.804688 523.429688 "/>
<path style=" stroke:none;fill-rule:nonzero;fill:rgb(93.72549%,54.117647%,24.705882%);fill-opacity:1;" d="M 469.425781 436.699219 L 469.425781 490.855469 L 525.804688 523.429688 L 527.046875 469.984375 Z M 469.425781 436.699219 "/>
<path style=" stroke:none;fill-rule:nonzero;fill:rgb(100%,60.392157%,33.333333%);fill-opacity:1;" d="M 515.835938 408.886719 C 501.015625 419.046875 484.726562 426.746094 469.425781 436.054688 L 469.425781 436.699219 L 527.046875 469.984375 L 573.914062 442.90625 Z M 515.835938 408.886719 "/>
<path style=" stroke:none;fill-rule:nonzero;fill:rgb(2.745098%,21.568627%,36.470588%);fill-opacity:1;" d="M 533.019531 420.332031 L 515.835938 412.585938 C 515.835938 412.585938 519.945312 427.710938 516.15625 429.460938 C 515.582031 429.710938 514.59375 429.273438 514.042969 429.113281 C 509.953125 427.851562 506.046875 425.296875 501.636719 425.34375 C 498.210938 425.34375 492.859375 428.242188 495.480469 432.242188 C 497.617188 435.597656 522.589844 450.628906 531.296875 447.6875 C 539.453125 445.042969 533.019531 420.332031 533.019531 420.332031 Z M 533.019531 420.332031 "/>
<path style=" stroke:none;fill-rule:nonzero;fill:rgb(100%,78.039216%,60%);fill-opacity:1;" d="M 578.601562 195.636719 C 578.601562 195.636719 579.175781 181.453125 577.890625 178.582031 C 576.605469 175.707031 567.941406 167.089844 565.460938 166.8125 C 562.980469 166.535156 563.738281 167.984375 563.738281 167.984375 C 563.738281 167.984375 559.140625 166.007812 558.523438 166.765625 C 557.902344 167.523438 558.175781 168.46875 559.464844 169.523438 C 559.464844 169.523438 556.546875 168.949219 556.292969 170.238281 C 556.039062 171.523438 558.589844 172.535156 558.589844 172.535156 C 558.589844 172.535156 556.109375 172.765625 556.292969 174.054688 C 556.476562 175.339844 560.890625 177.523438 561.691406 178.652344 C 562.496094 179.777344 564.863281 180.605469 564.863281 182.238281 C 564.054688 185.296875 564.753906 188.558594 566.746094 191.015625 C 568.796875 193.726562 570.195312 196.875 570.835938 200.210938 C 570.835938 200.210938 577.796875 199.132812 578.601562 195.636719 Z M 578.601562 195.636719 "/>
<path style=" stroke:none;fill-rule:nonzero;fill:rgb(2.745098%,21.568627%,36.470588%);fill-opacity:1;" d="M 589.609375 494.074219 C 589.609375 494.074219 595.03125 517.683594 592.914062 519.039062 C 590.800781 520.394531 581.246094 521.867188 583.21875 527.613281 C 585.195312 533.359375 595.441406 535.082031 599.304688 535.863281 C 603.164062 536.648438 610.332031 529.289062 610.332031 526.1875 C 610.332031 523.085938 614.398438 508.417969 614.191406 506.074219 C 613.984375 503.730469 605 490.214844 605 490.214844 "/>
<path style=" stroke:none;fill-rule:nonzero;fill:rgb(60.784314%,77.647059%,20.392157%);fill-opacity:1;" d="M 617.589844 334.570312 C 617.589844 334.570312 617.339844 434.425781 619.613281 448.308594 C 621.886719 462.191406 626.230469 494.074219 626.230469 494.074219 C 626.230469 494.074219 606.976562 500.972656 589.609375 494.074219 C 589.609375 494.074219 571.457031 412.933594 577.109375 366.519531 C 582.761719 320.109375 617.589844 334.570312 617.589844 334.570312 Z M 617.589844 334.570312 "/>
<path style=" stroke:none;fill-rule:nonzero;fill:rgb(60.784314%,77.647059%,20.392157%);fill-opacity:1;" d="M 612.652344 338.84375 C 599.921875 335.488281 568.449219 338.84375 568.449219 338.84375 C 568.449219 338.84375 524.289062 330.179688 510.757812 331.167969 C 497.226562 332.15625 492.8125 340.363281 495.523438 351.855469 C 498.234375 363.347656 508.710938 416.21875 508.710938 416.21875 C 508.710938 416.21875 520.542969 426.265625 540.1875 422.863281 L 533.410156 374.085938 C 533.410156 374.085938 574.351562 393.621094 597.742188 384.015625 C 603.953125 381.558594 609.320312 377.363281 613.203125 371.921875 C 613.066406 360.867188 612.492188 349.855469 612.652344 338.84375 Z M 612.652344 338.84375 "/>
<path style=" stroke:none;fill-rule:nonzero;fill:rgb(100%,48.235294%,38.039216%);fill-opacity:1;" d="M 617.523438 336.707031 C 620.785156 318.179688 622.621094 276.460938 617.683594 263.148438 C 611.800781 247.472656 582.234375 264.507812 570.769531 272.988281 C 564.265625 277.792969 569.273438 329.144531 570.769531 343.257812 C 583.566406 352.269531 608.835938 349.949219 617.523438 336.707031 Z M 617.523438 336.707031 "/>
<path style=" stroke:none;fill-rule:nonzero;fill:rgb(100%,48.235294%,38.039216%);fill-opacity:1;" d="M 616.578125 262.964844 C 616.578125 262.964844 612.308594 258.804688 608.859375 255.402344 C 608.652344 254.367188 606.839844 252.714844 606.816406 251.726562 C 603.316406 247.542969 600.542969 242.804688 598.613281 237.703125 C 595.328125 228.507812 585.496094 185.15625 585.496094 185.15625 C 585.496094 185.15625 570.171875 187.617188 563.253906 198.210938 C 563.253906 198.210938 572.445312 242.347656 579.660156 257.679688 C 583.824219 266.648438 589.800781 274.652344 597.210938 281.195312 C 607.917969 278.710938 609.710938 256.53125 616.578125 262.964844 Z M 616.578125 262.964844 "/>
<path style=" stroke:none;fill-rule:nonzero;fill:rgb(100%,78.039216%,60%);fill-opacity:1;" d="M 587.5625 250.390625 C 587.859375 250.828125 587.5625 262.921875 587.5625 262.921875 C 587.5625 262.921875 591.949219 263.242188 600.289062 257.496094 L 599.625 244.738281 Z M 587.5625 250.390625 "/>
<path style=" stroke:none;fill-rule:nonzero;fill:rgb(100%,78.039216%,60%);fill-opacity:1;" d="M 591.515625 221.957031 C 591.515625 221.957031 587.769531 231.152344 583.886719 234.253906 C 580.003906 237.359375 576.511719 244.394531 579.867188 250.347656 C 583.21875 256.300781 607.070312 248.804688 607.4375 241.910156 C 607.804688 235.015625 606.011719 218.097656 591.515625 221.957031 Z M 591.515625 221.957031 "/>
<path style=" stroke:none;fill-rule:nonzero;fill:rgb(20.784314%,12.941176%,9.411765%);fill-opacity:1;" d="M 614.214844 223.015625 C 610.71875 219.238281 605.867188 217.003906 600.726562 216.808594 C 592.847656 216.96875 588.804688 221.40625 589.5625 226.003906 C 590.320312 230.601562 596.015625 232.347656 596.203125 235.015625 C 596.386719 237.679688 592.503906 250.277344 594.363281 253.402344 C 596.222656 256.53125 599.738281 256.140625 603.253906 256.023438 C 606.769531 255.910156 618.347656 247.519531 620.53125 237.449219 C 621.789062 231.777344 619.234375 225.9375 614.214844 223.015625 Z M 614.214844 223.015625 "/>
<path style=" stroke:none;fill-rule:nonzero;fill:rgb(100%,48.235294%,38.039216%);fill-opacity:1;" d="M 579.910156 268.710938 C 579.910156 268.710938 545.933594 263.746094 543.152344 262.023438 C 540.371094 260.300781 535.777344 231.566406 535.777344 231.566406 C 529.898438 232.976562 524.101562 234.703125 518.40625 236.738281 C 518.40625 236.738281 518.660156 269.148438 523.117188 278.78125 C 527.574219 288.414062 569.066406 297.332031 569.066406 297.332031 "/>
<path style=" stroke:none;fill-rule:nonzero;fill:rgb(56.470588%,72.941176%,10.980392%);fill-opacity:1;" d="M 576.027344 386.335938 C 576.027344 386.335938 594.066406 390.128906 607.367188 378.199219 L 579.40625 434.308594 C 579.40625 434.308594 575.433594 394.175781 576.027344 386.335938 Z M 576.027344 386.335938 "/>
<path style=" stroke:none;fill-rule:nonzero;fill:rgb(90.980392%,49.019608%,20.392157%);fill-opacity:1;" d="M 525.804688 219.636719 L 573.914062 193.246094 L 573.914062 139.113281 L 516.660156 163.386719 Z M 525.804688 219.636719 "/>
<path style=" stroke:none;fill-rule:nonzero;fill:rgb(93.72549%,54.117647%,24.705882%);fill-opacity:1;" d="M 469.425781 132.90625 L 469.425781 187.039062 L 525.804688 219.636719 L 527.046875 166.191406 Z M 469.425781 132.90625 "/>
<path style=" stroke:none;fill-rule:nonzero;fill:rgb(100%,60.392157%,33.333333%);fill-opacity:1;" d="M 515.835938 105.140625 C 501.015625 115.300781 484.726562 123 469.425781 132.308594 L 469.425781 132.953125 L 527.046875 166.191406 L 573.914062 139.113281 Z M 515.835938 105.140625 "/>
<path style=" stroke:none;fill-rule:nonzero;fill:rgb(100%,78.039216%,60%);fill-opacity:1;" d="M 515.398438 219.5 C 518.0625 224.183594 520.035156 229.234375 521.257812 234.484375 C 521.257812 234.691406 521.441406 235.359375 521.601562 236.253906 L 525.507812 235.613281 C 528.378906 235.058594 531.25 234.417969 534.078125 233.636719 C 533.664062 229.3125 533.15625 224.441406 532.605469 220.761719 C 532.917969 217.75 533.597656 214.785156 534.628906 211.933594 C 535.554688 209.992188 535.84375 207.800781 535.457031 205.683594 C 535.269531 205.097656 534.738281 204.691406 534.121094 204.671875 C 532.605469 204.671875 532.054688 205.890625 531.273438 206.96875 C 530.238281 208.464844 529.273438 210.003906 528.308594 211.566406 C 524.496094 207.292969 518.660156 202.027344 516.546875 201.730469 C 513.558594 201.292969 514.480469 203.15625 514.480469 203.15625 C 514.480469 203.15625 508.851562 200.855469 508.160156 201.660156 C 507.472656 202.464844 507.746094 203.707031 509.308594 204.992188 C 509.308594 204.992188 505.773438 204.28125 505.472656 205.84375 C 505.175781 207.40625 508.160156 208.671875 508.160156 208.671875 C 508.160156 208.671875 505.152344 208.945312 505.472656 210.511719 C 505.792969 212.074219 511.171875 214.71875 512.019531 215.957031 C 512.871094 217.199219 514.480469 218.097656 515.398438 219.5 Z M 515.398438 219.5 "/>
<path style=" stroke:none;fill-rule:nonzero;fill:rgb(100%,78.039216%,60%);fill-opacity:1;" d="M 575.476562 182.488281 C 575.222656 182.375 574.980469 182.230469 574.765625 182.050781 C 575.269531 181.84375 575.550781 181.300781 575.433594 180.765625 C 575.15625 179.476562 574.738281 178.21875 574.191406 177.019531 C 574.679688 177.101562 575.171875 176.871094 575.421875 176.441406 C 575.671875 176.011719 575.628906 175.472656 575.316406 175.085938 C 573.796875 173.3125 572.113281 171.691406 570.285156 170.238281 C 569.367188 169.5 568.261719 168.261719 567 168.398438 C 566.492188 168.421875 566.050781 168.761719 565.898438 169.25 C 564.566406 172.605469 569.78125 174.742188 570.605469 177.410156 C 571.433594 180.074219 571.296875 183.15625 574.304688 184.464844 C 575.636719 185.0625 576.808594 183.085938 575.476562 182.488281 Z M 575.476562 182.488281 "/>
<path style=" stroke:none;fill-rule:nonzero;fill:rgb(21.568627%,58.431373%,64.705882%);fill-opacity:1;" d="M 441.210938 365.003906 L 350.757812 465.410156 L 351.378906 393.277344 Z M 441.210938 365.003906 "/>
<path style=" stroke:none;fill-rule:nonzero;fill:rgb(100%,48.235294%,38.039216%);fill-opacity:1;" d="M 209.347656 245.957031 L 209.347656 216.671875 L 269.382812 182.695312 L 441.210938 272.710938 L 441.210938 365.003906 L 373.34375 405.964844 L 373.34375 340.960938 Z M 209.347656 245.957031 "/>
<path style=" stroke:none;fill-rule:nonzero;fill:rgb(100%,51.372549%,45.098039%);fill-opacity:1;" d="M 373.34375 312.480469 L 441.210938 272.710938 L 441.210938 365.003906 L 373.34375 405.964844 Z M 373.34375 312.480469 "/>
<path style=" stroke:none;fill-rule:nonzero;fill:rgb(90.980392%,33.72549%,25.882353%);fill-opacity:1;" d="M 209.347656 312.363281 L 373.34375 405.964844 L 373.34375 312.480469 L 209.347656 216.671875 "/>
<path style=" stroke:none;fill-rule:nonzero;fill:rgb(100%,78.039216%,60%);fill-opacity:1;" d="M 301.339844 279.265625 C 302.84375 276.082031 303.84375 272.683594 304.304688 269.195312 C 304.511719 266.136719 302.007812 255.542969 304.304688 254.851562 C 306.601562 254.164062 308.234375 262.230469 308.234375 262.230469 C 308.234375 262.230469 308.667969 244.785156 310.851562 244.785156 C 313.035156 244.785156 313.035156 254.117188 313.035156 254.117188 C 313.035156 254.117188 314.988281 242.164062 317.167969 242.621094 C 319.351562 243.082031 317.167969 256.828125 317.167969 256.828125 C 317.167969 256.828125 318.9375 245.035156 321.421875 245.910156 C 323.902344 246.785156 321.421875 258.621094 321.421875 258.621094 C 321.421875 258.621094 323.464844 253.21875 325.050781 254.898438 C 326.636719 256.574219 319.789062 272.390625 318.914062 274.113281 C 318.042969 275.839844 311.816406 285.609375 311.195312 286.113281 C 310.574219 286.621094 301.339844 279.265625 301.339844 279.265625 Z M 301.339844 279.265625 "/>
<path style=" stroke:none;fill-rule:nonzero;fill:rgb(100%,78.039216%,60%);fill-opacity:1;" d="M 268.808594 266.253906 C 264.535156 268.917969 280.871094 249.519531 280.640625 246.460938 C 280.410156 243.40625 282.9375 232.808594 280.640625 232.117188 C 278.34375 231.429688 276.710938 239.496094 276.710938 239.496094 C 276.710938 239.496094 276.273438 222.050781 274.089844 222.050781 C 271.910156 222.050781 271.910156 231.382812 271.910156 231.382812 C 271.910156 231.382812 269.957031 219.429688 267.773438 219.890625 C 265.589844 220.347656 267.773438 234.09375 267.773438 234.09375 C 267.773438 234.09375 266.003906 222.300781 263.523438 223.175781 C 261.042969 224.050781 263.523438 235.886719 263.523438 235.886719 C 263.523438 235.886719 261.476562 230.484375 259.894531 232.164062 C 258.308594 233.84375 263.453125 245.773438 264.304688 247.496094 C 265.15625 249.21875 253.734375 262.851562 254.355469 263.355469 C 254.976562 263.863281 268.808594 266.253906 268.808594 266.253906 Z M 268.808594 266.253906 "/>
<path style=" stroke:none;fill-rule:nonzero;fill:rgb(100%,48.235294%,38.039216%);fill-opacity:1;" d="M 203.996094 297.46875 C 203.996094 297.46875 234.527344 273.90625 237.261719 272.183594 C 239.996094 270.460938 263.753906 246.714844 263.753906 246.714844 C 268.96875 249.417969 274.339844 251.8125 279.835938 253.886719 C 279.835938 253.886719 258.953125 281.839844 249.96875 289.769531 C 241.972656 296.664062 217.320312 315.925781 217.320312 315.925781 "/>
<path style=" stroke:none;fill-rule:nonzero;fill:rgb(2.745098%,21.568627%,36.470588%);fill-opacity:1;" d="M 204.476562 506.027344 C 204.476562 506.027344 200.15625 524.417969 202.800781 526.488281 C 202.800781 526.488281 218.722656 518.097656 221.179688 524.96875 C 223.15625 530.394531 212.152344 534.691406 204.777344 538.140625 C 198.503906 541.082031 186.1875 545.035156 183.9375 539.542969 C 181.6875 534.050781 192.277344 495.222656 192.277344 495.222656 "/>
<path style=" stroke:none;fill-rule:nonzero;fill:rgb(2.745098%,21.568627%,36.470588%);fill-opacity:1;" d="M 252.496094 536.417969 C 252.496094 536.417969 251.1875 555.3125 254.101562 556.875 C 254.101562 556.875 270.804688 547.933594 274.34375 554.324219 C 277.148438 559.359375 265.269531 566.460938 259.019531 569.472656 C 252.769531 572.484375 240.640625 577.722656 237.585938 572.757812 C 234.527344 567.792969 238.777344 527.683594 238.777344 527.683594 "/>
<path style=" stroke:none;fill-rule:nonzero;fill:rgb(20.784314%,12.941176%,9.411765%);fill-opacity:1;" d="M 209.074219 515.796875 C 214.839844 490.511719 232.691406 409 230.554688 383.300781 C 228.003906 352.707031 204.203125 361.648438 204.203125 361.648438 C 204.203125 361.648438 195.585938 407.070312 189.246094 442.101562 C 184.238281 469.894531 180.054688 505.867188 178.652344 519.660156 C 188.695312 524.371094 201.582031 523.703125 209.074219 515.796875 Z M 209.074219 515.796875 "/>
<path style=" stroke:none;fill-rule:nonzero;fill:rgb(20.784314%,12.941176%,9.411765%);fill-opacity:1;" d="M 261.316406 543.796875 C 260.8125 503.9375 260.46875 398.566406 249.09375 373.878906 C 234.734375 342.730469 219.570312 374.335938 219.570312 388.863281 C 219.570312 402.265625 230.53125 535.519531 232.230469 554.371094 C 242.316406 559.152344 257.757812 554.578125 261.316406 543.796875 Z M 261.316406 543.796875 "/>
<path style=" stroke:none;fill-rule:nonzero;fill:rgb(100%,48.235294%,38.039216%);fill-opacity:1;" d="M 249.441406 375.371094 C 251.117188 359.28125 255.550781 311.375 249.277344 306.734375 C 237.792969 298.25 209.855469 281.792969 203.972656 297.539062 C 199.378906 309.699219 200.527344 346.316406 203.28125 366.5 C 216.722656 374.429688 234.09375 379.234375 249.441406 375.371094 Z M 249.441406 375.371094 "/>
<path style=" stroke:none;fill-rule:nonzero;fill:rgb(100%,78.039216%,60%);fill-opacity:1;" d="M 232.484375 284.023438 C 232.183594 284.457031 232.484375 296.550781 232.484375 296.550781 C 232.484375 296.550781 228.097656 296.871094 219.757812 291.125 L 220.421875 278.367188 Z M 232.484375 284.023438 "/>
<path style=" stroke:none;fill-rule:nonzero;fill:rgb(100%,78.039216%,60%);fill-opacity:1;" d="M 228.53125 255.585938 C 228.53125 255.585938 232.277344 264.78125 236.160156 267.886719 C 240.042969 270.988281 243.535156 278.023438 240.179688 283.976562 C 236.828125 289.929688 212.976562 282.4375 212.609375 275.539062 C 212.242188 268.644531 214.035156 251.703125 228.53125 255.585938 Z M 228.53125 255.585938 "/>
<path style=" stroke:none;fill-rule:nonzero;fill:rgb(20.784314%,12.941176%,9.411765%);fill-opacity:1;" d="M 205.832031 256.644531 C 209.328125 252.867188 214.179688 250.632812 219.320312 250.4375 C 227.199219 250.597656 231.242188 255.035156 230.484375 259.632812 C 229.726562 264.230469 224.027344 265.976562 223.84375 268.644531 C 223.660156 271.308594 227.542969 283.90625 225.683594 287.035156 C 223.824219 290.160156 220.308594 289.769531 216.792969 289.652344 C 213.277344 289.539062 201.699219 281.148438 199.515625 271.082031 C 198.257812 265.40625 200.8125 259.566406 205.832031 256.644531 Z M 205.832031 256.644531 "/>
<path style=" stroke:none;fill-rule:nonzero;fill:rgb(100%,48.235294%,38.039216%);fill-opacity:1;" d="M 240.132812 302.34375 C 240.132812 302.34375 274.113281 297.378906 276.894531 295.652344 C 279.675781 293.929688 303.269531 270.160156 303.269531 270.160156 C 308.484375 272.867188 313.855469 275.261719 319.351562 277.332031 C 319.351562 277.332031 298.46875 305.285156 289.484375 313.214844 C 281.488281 320.109375 248.660156 335.167969 248.660156 335.167969 "/>
</g>
</svg>
