<svg id="Layer_1" data-name="Layer 1" xmlns="http://www.w3.org/2000/svg" viewBox="0 0 400 300" width="406" height="306" class="illustration"><title>_</title><path d="M105.5,62.56C73,75.52,49,108.37,44.2,148.11c-4,33.49,5.57,70.5,61.84,81,109.52,20.52,212.08,26.36,238.26-29S362.43,50,306.86,43.87C262.67,39,168.91,37.26,105.5,62.56Z" fill="#e6e6e6" opacity="0.3"></path><path d="M298.09,149.08c0-.61-.09-20.51,2.46-20.85s2.81,7.75,2.81,7.75,9.71-4.26,11.75-.43,1.19,11.66-2,13.53-4.6,2-4.6,2l-1.32,6.55Z" fill="#f4a28c"></path><path d="M237.92,100.08s26.59,6.78,26.79,28.81-11.8,60.59,5.31,63.74,27.35-44.46,27.35-44.46l12.19,4.92s-13,81.33-57.83,67.91S237.92,100.08,237.92,100.08Z" fill="#5867F0"></path><path d="M237.92,100.08s26.59,6.78,26.79,28.81-11.8,60.59,5.31,63.74,27.35-44.46,27.35-44.46l12.19,4.92s-13,81.33-57.83,67.91S237.92,100.08,237.92,100.08Z" fill="#fff" opacity="0.44"></path><polygon points="204.66 56 195.39 88.71 213.78 92.53 213.14 67.2 204.66 56" fill="#f4a28c"></polygon><path d="M213.52,72.74a12.28,12.28,0,0,1-5.6-4.32s-.47,6.21,5.58,13.11Z" fill="#ce8172" opacity="0.31"></path><path d="M195.39,88.71,206.29,91s49.9,5.38,51.93,33.55-26.16,100.14-26.16,100.14H156.45S95.86,81.26,195.39,88.71Z" fill="#5867F0"></path><path d="M232.06,224.66c-.25,1.15-2.55,30-2.55,30L141.22,249l1.69-33.44Z" fill="#5867F0"></path><path d="M232.06,224.66c-.25,1.15-2.55,30-2.55,30L141.22,249l1.69-33.44Z" opacity="0.09"></path><path d="M188.86,114.81S195,132.4,179,143.88s-8.19,54.71,9.3,61.69-10.93,21.91-23.06,15.8-13.81-10.22-13.81-10.22S140.15,178.63,139,157.88,188.86,114.81,188.86,114.81Z" opacity="0.09"></path><path d="M208.82,153.33c-3.85-46.68-12.52-58-31.92-62.55s-35.76,15.4-42.66,35.31-13.69,91.5-13.69,91.5l81,12.59S212.66,200,208.82,153.33Zm-11.33,14.22-60.43-1s-.51-24.25,11.49-41.36,38.13-20.67,38.13-20.67S200.9,131.63,197.49,167.55Z" fill="#24285b"></path><path d="M188.86,114.81c0-15.49-15.69-26.07-30.41-21.24-12.8,4.2-28.42,12-37.91,26.22-18.23,27.36-59.9,107.31,45.87,110.39l3.1-11.77S106,200.85,134.05,163.7C155.85,134.8,188.91,136.75,188.86,114.81Z" fill="#5867F0"></path><path d="M188.86,114.81c0-15.49-15.69-26.07-30.41-21.24-12.8,4.2-28.42,12-37.91,26.22-18.23,27.36-59.9,107.31,45.87,110.39l3.1-11.77S106,200.85,134.05,163.7C155.85,134.8,188.91,136.75,188.86,114.81Z" fill="#fff" opacity="0.44"></path><path d="M223.71,57s-.93,10.33-3.84,16.79A5.21,5.21,0,0,1,213,76.34c-3.24-1.52-7.17-4.5-7.35-10.1l-1.47-9.46s-.71-6,5.79-9.09S224.59,50.69,223.71,57Z" fill="#f4a28c"></path><path d="M222.79,63.44l2.15,4.44a1.66,1.66,0,0,1-1.48,2.38l-4,0Z" fill="#f4a28c"></path><path d="M169.08,220s11.29-1.82,15,6-17.72,4.14-17.72,4.14Z" fill="#f4a28c"></path><path d="M201.58,66.87l6.33-1.54,3.84-1.89s2.77-.18,1.77-6.9c0,0,13.59,4.68,15.38-3.37,1.95-8.79-8.19-12.7-15.38-11.94s-9.41,7.38-9.41,7.38S192.82,46.81,201.58,66.87Z" fill="#24285b"></path><path d="M211.3,63.77s.62-3.94-2.39-4.17-3.94,5.48,0,6.72Z" fill="#f4a28c"></path><path d="M223.64,65.2l.27.55a51.48,51.48,0,0,0-7.86-.75s0-.07-.07-.09c-1.4-1.08-2.75-2.22-4.06-3.4a.85.85,0,0,0-1.2,1.2c1.24,1.13,2.53,2.2,3.85,3.23-.49.61-1.13,1.48-1.71,2.34a14.53,14.53,0,0,1-2.39-1.4,15.34,15.34,0,0,1-3.17-2.56.85.85,0,1,0-1.21,1.2,17.53,17.53,0,0,0,3.63,2.9A16.65,16.65,0,0,0,212,69.71c-.45.76-.72,1.35-.61,1.49.36.43,6.3,5.06,8.07,4.56s2.4-4.78,2.84-4.85,3.2.07,3.34-1.66S223.64,65.2,223.64,65.2Z" fill="#ffd200"></path><rect x="166.56" y="172.6" width="3.72" height="5.71" transform="translate(336.83 350.92) rotate(-180)" fill="#fff"></rect><rect x="166.56" y="172.6" width="3.72" height="5.71" transform="translate(336.83 350.92) rotate(-180)" opacity="0.09"></rect><path d="M161.89,176.77h13a0,0,0,0,1,0,0v14.12a6.13,6.13,0,0,1-6.13,6.13H168a6.13,6.13,0,0,1-6.13-6.13V176.77a0,0,0,0,1,0,0Z" transform="translate(336.83 373.79) rotate(-180)" fill="#ffd200"></path><rect x="161.89" y="185.2" width="13.05" height="6.98" transform="translate(336.83 377.38) rotate(-180)" opacity="0.09"></rect><polygon points="165.66 172.1 165.66 172.82 172.39 172.82 172.39 173.63 172.99 173.63 172.99 172.1 165.66 172.1" fill="#ffd200"></polygon><path d="M141.66,184.74l46.47,3.32s-2.38,17.57-10.72,21-33.45-1.15-35.24-8.17S141.66,184.74,141.66,184.74Z" fill="#24285b"></path><path d="M141.66,184.74l46.47,3.32s-2.38,17.57-10.72,21-33.45-1.15-35.24-8.17S141.66,184.74,141.66,184.74Z" fill="#fff" opacity="0.2"></path></svg>